<svg width="16" height="16" viewBox="0 0 16 16" fill="none" xmlns="http://www.w3.org/2000/svg">
<path d="M2.93141 3.03553L2.97982 2.97945C3.15733 2.80194 3.43511 2.78581 3.63085 2.93104L3.68693 2.97945L8.00004 7.29234L12.3132 2.97945C12.5084 2.78419 12.825 2.78419 13.0203 2.97945C13.2155 3.17472 13.2155 3.4913 13.0203 3.68656L8.70737 7.99967L13.0203 12.3128C13.1978 12.4903 13.2139 12.7681 13.0687 12.9638L13.0203 13.0199C12.8428 13.1974 12.565 13.2135 12.3692 13.0683L12.3132 13.0199L8.00004 8.70701L3.68693 13.0199C3.49167 13.2152 3.17508 13.2152 2.97982 13.0199C2.78456 12.8246 2.78456 12.508 2.97982 12.3128L7.29271 7.99967L2.97982 3.68656C2.80231 3.50905 2.78617 3.23127 2.93141 3.03553L2.97982 2.97945L2.93141 3.03553Z" fill="black"/>
</svg>
