<svg width="28" height="28" viewBox="0 0 28 28" fill="none" xmlns="http://www.w3.org/2000/svg">
<path d="M7.22232 25.4962C6.64349 25.9127 5.8363 25.499 5.8363 24.7859V7.29069C5.8363 5.19661 7.53389 3.49902 9.62797 3.49902H18.3761C20.4702 3.49902 22.1678 5.19661 22.1678 7.29069V24.7859C22.1678 25.499 21.3606 25.9127 20.7817 25.4962L14.002 20.6184L7.22232 25.4962ZM20.4178 7.29069C20.4178 6.16311 19.5037 5.24902 18.3761 5.24902H9.62797C8.50039 5.24902 7.5863 6.16311 7.5863 7.29069V23.0785L13.491 18.8302C13.7963 18.6106 14.2078 18.6106 14.513 18.8302L20.4178 23.0785V7.29069Z" fill="white"/>
</svg>
