<svg width="28" height="28" viewBox="0 0 28 28" fill="none" xmlns="http://www.w3.org/2000/svg">
<path d="M8.66256 3.30219C8.86953 2.72122 9.41959 2.33325 10.0363 2.33325H17.5656C18.561 2.33325 19.2638 3.30844 18.9491 4.25275L17.2556 9.33325H21.8741C23.1623 9.33325 23.8178 10.8812 22.9215 11.8064L10.017 25.1253C8.78765 26.3941 6.6664 25.2492 7.05246 23.5252L8.53322 16.9124L6.70337 16.9054C5.29549 16.9 4.31545 15.5048 4.78791 14.1786L8.66256 3.30219ZM10.242 4.08325L6.43643 14.7659C6.36894 14.9553 6.50894 15.1546 6.71007 15.1554L9.62824 15.1666C9.89331 15.1676 10.1436 15.2887 10.3089 15.4959C10.4742 15.7032 10.5367 15.9741 10.4787 16.2328L8.76017 23.9076L21.1854 11.0833H16.0416C15.7603 11.0833 15.4962 10.948 15.3317 10.7199C15.1673 10.4917 15.1225 10.1984 15.2115 9.93155L17.1609 4.08325H10.242Z" fill="white"/>
</svg>
