<svg width="20" height="20" viewBox="0 0 20 20" fill="none" xmlns="http://www.w3.org/2000/svg">
<path fill-rule="evenodd" clip-rule="evenodd" d="M17.2916 5.83333C17.2916 5.99909 17.2257 6.15806 17.1085 6.27527C16.9913 6.39248 16.8323 6.45833 16.6666 6.45833H3.33325C3.16749 6.45833 3.00852 6.39248 2.89131 6.27527C2.7741 6.15806 2.70825 5.99909 2.70825 5.83333C2.70825 5.66757 2.7741 5.5086 2.89131 5.39139C3.00852 5.27418 3.16749 5.20833 3.33325 5.20833H16.6666C16.8323 5.20833 16.9913 5.27418 17.1085 5.39139C17.2257 5.5086 17.2916 5.66757 17.2916 5.83333ZM17.2916 10C17.2916 10.1658 17.2257 10.3247 17.1085 10.4419C16.9913 10.5592 16.8323 10.625 16.6666 10.625H3.33325C3.16749 10.625 3.00852 10.5592 2.89131 10.4419C2.7741 10.3247 2.70825 10.1658 2.70825 10C2.70825 9.83424 2.7741 9.67527 2.89131 9.55806C3.00852 9.44085 3.16749 9.375 3.33325 9.375H16.6666C16.8323 9.375 16.9913 9.44085 17.1085 9.55806C17.2257 9.67527 17.2916 9.83424 17.2916 10ZM17.2916 14.1667C17.2916 14.3324 17.2257 14.4914 17.1085 14.6086C16.9913 14.7258 16.8323 14.7917 16.6666 14.7917H3.33325C3.16749 14.7917 3.00852 14.7258 2.89131 14.6086C2.7741 14.4914 2.70825 14.3324 2.70825 14.1667C2.70825 14.0009 2.7741 13.8419 2.89131 13.7247C3.00852 13.6075 3.16749 13.5417 3.33325 13.5417H16.6666C16.8323 13.5417 16.9913 13.6075 17.1085 13.7247C17.2257 13.8419 17.2916 14.0009 17.2916 14.1667Z" fill="white"/>
</svg>
