<svg width="242" height="214" viewBox="0 0 242 214" fill="none" xmlns="http://www.w3.org/2000/svg">
<path d="M208.172 21.7619C208.172 21.7619 205.873 17.539 202.252 11.7078C202.252 11.7078 190.58 20.42 190.678 19.9366C190.777 19.4531 208.172 21.7619 208.172 21.7619Z" fill="black"/>
<path d="M208.172 22.2552H208.103C201.966 21.4363 191.931 20.2227 190.856 20.3707C190.56 20.4891 190.481 20.4299 190.382 20.3707C190.295 20.315 190.227 20.2344 190.187 20.1393C190.146 20.0443 190.135 19.9392 190.155 19.8379C190.155 19.6997 190.215 19.5616 190.54 19.4827C191.221 19.2163 197.881 14.3323 201.926 11.3131C201.981 11.272 202.043 11.2429 202.109 11.2276C202.176 11.2123 202.244 11.2112 202.311 11.2243C202.378 11.2352 202.441 11.2602 202.497 11.2976C202.554 11.335 202.601 11.384 202.637 11.4413C206.268 17.2232 208.557 21.4856 208.616 21.5251C208.664 21.602 208.69 21.6909 208.69 21.7816C208.69 21.8723 208.664 21.9612 208.616 22.0381C208.568 22.1102 208.501 22.1682 208.423 22.2063C208.345 22.2444 208.259 22.2613 208.172 22.2552ZM192.385 19.4531C194.536 19.5715 198.789 20.0352 207.235 21.1501C206.416 19.68 204.571 16.4536 202.045 12.428C196.776 16.3747 193.954 18.4171 192.415 19.4531H192.385Z" fill="black"/>
<path d="M53.6402 197.734L47.8188 188.025L55.8701 180.744L53.6402 197.734Z" fill="black"/>
<path d="M53.6401 198.227C53.5551 198.227 53.4717 198.205 53.3975 198.163C53.3233 198.122 53.2608 198.062 53.2158 197.99L47.3945 188.282C47.336 188.183 47.3138 188.066 47.3318 187.953C47.3499 187.839 47.4069 187.736 47.4932 187.66L55.5444 180.378C55.6197 180.31 55.714 180.267 55.8147 180.255C55.9153 180.243 56.0173 180.262 56.1068 180.309C56.195 180.358 56.2666 180.432 56.3123 180.521C56.358 180.611 56.3758 180.713 56.3633 180.812L54.1334 197.773C54.1208 197.877 54.0758 197.973 54.005 198.049C53.9341 198.126 53.8409 198.177 53.7388 198.198L53.6401 198.227ZM48.4502 188.124L53.3342 196.264L55.2089 182.006L48.4502 188.124Z" fill="black"/>
<path d="M57.4192 199.747L151.153 213.096C153.074 213.347 155.023 212.906 156.65 211.852C158.276 210.798 159.475 209.2 160.033 207.344L208.527 25.8961C209.514 22.1369 207.116 18.8315 203.14 18.5059L107.571 10.8001C105.681 10.7085 103.815 11.2537 102.271 12.3485C100.727 13.4432 99.5954 15.0243 99.0566 16.8385L52.5155 192.288C52.274 193.102 52.2132 193.96 52.3375 194.801C52.4617 195.642 52.768 196.446 53.235 197.156C53.7019 197.866 54.3182 198.466 55.0409 198.914C55.7636 199.361 56.5753 199.645 57.4192 199.747Z" fill="#323232"/>
<path d="M51.3116 189.762L145.045 203.111C146.967 203.366 148.918 202.926 150.545 201.872C152.173 200.818 153.371 199.218 153.925 197.359L202.4 15.9111C203.387 12.1519 200.989 8.84655 197.013 8.52095L101.444 0.815085C99.5538 0.72351 97.6874 1.26874 96.1436 2.3635C94.5999 3.45826 93.468 5.03927 92.9292 6.85348L46.4177 182.273C46.1711 183.089 46.1062 183.949 46.2274 184.793C46.3486 185.637 46.6531 186.444 47.1195 187.158C47.5859 187.871 48.2028 188.474 48.927 188.924C49.6512 189.374 50.4651 189.66 51.3116 189.762Z" fill="white"/>
<path d="M146.081 203.693C145.705 203.692 145.329 203.665 144.956 203.614L51.2229 190.255C50.3178 190.143 49.4473 189.838 48.6709 189.359C47.8945 188.881 47.2303 188.241 46.7237 187.482C46.2157 186.704 45.8813 185.825 45.7434 184.906C45.6055 183.986 45.6673 183.048 45.9245 182.154L92.4557 6.73495C93.024 4.80877 94.2229 3.12937 95.8601 1.96633C97.4973 0.80329 99.4778 0.224061 101.484 0.321617L197.052 8.02748C198.022 8.08319 198.967 8.3527 199.82 8.81669C200.672 9.28068 201.412 9.92765 201.986 10.7112C202.516 11.4794 202.868 12.3568 203.015 13.2789C203.162 14.2009 203.1 15.1442 202.834 16.0392L154.339 197.487C153.805 199.267 152.715 200.83 151.229 201.946C149.744 203.063 147.94 203.675 146.081 203.693ZM100.862 1.28855C99.171 1.31909 97.5336 1.88733 96.1871 2.91093C94.8406 3.93453 93.8551 5.36031 93.3733 6.98162L46.8915 182.401C46.6751 183.16 46.623 183.957 46.7387 184.738C46.8544 185.519 47.1352 186.266 47.5624 186.93C47.9949 187.57 48.5595 188.11 49.2182 188.513C49.8768 188.916 50.6142 189.174 51.3808 189.268L145.114 202.628C146.916 202.859 148.742 202.444 150.267 201.456C151.792 200.467 152.917 198.97 153.442 197.231L201.907 15.7926C202.13 15.0359 202.184 14.2391 202.063 13.4594C201.941 12.6797 201.649 11.9366 201.206 11.2835C200.71 10.6137 200.071 10.0626 199.335 9.67014C198.6 9.27766 197.786 9.05359 196.954 9.01415L101.385 1.30828L100.862 1.28855Z" fill="black"/>
<path d="M90.0483 188.706L108.341 191.281C109.501 191.422 110.674 191.146 111.649 190.502C112.625 189.859 113.341 188.89 113.669 187.769L115.494 180.951C115.646 180.433 115.682 179.888 115.6 179.355C115.517 178.822 115.318 178.313 115.017 177.866C114.715 177.418 114.319 177.042 113.856 176.766C113.393 176.489 112.874 176.318 112.337 176.264L94.0245 173.778C92.8722 173.649 91.7115 173.931 90.7462 174.574C89.7809 175.216 89.0727 176.178 88.7458 177.29L86.9501 184.049C86.7981 184.56 86.7603 185.099 86.8396 185.627C86.9188 186.155 87.1131 186.658 87.4087 187.103C87.7043 187.547 88.0939 187.921 88.5501 188.198C89.0062 188.475 89.5177 188.648 90.0483 188.706Z" fill="white"/>
<path d="M108.953 191.853C108.725 191.857 108.497 191.84 108.272 191.804L89.9792 189.239C89.379 189.171 88.801 188.973 88.2854 188.658C87.7699 188.343 87.3294 187.919 86.9948 187.417C86.6602 186.914 86.4395 186.344 86.3483 185.747C86.2571 185.15 86.2975 184.54 86.4667 183.96L88.2624 177.201C88.6196 175.975 89.3987 174.914 90.462 174.206C91.5254 173.499 92.8047 173.19 94.0739 173.334L112.396 175.81C113.005 175.882 113.592 176.084 114.116 176.402C114.641 176.721 115.09 177.148 115.435 177.655C115.764 178.162 115.982 178.733 116.072 179.33C116.162 179.928 116.123 180.537 115.958 181.118L114.153 187.907C113.824 189.036 113.142 190.029 112.205 190.74C111.269 191.45 110.128 191.841 108.953 191.853ZM93.4227 174.271C92.4756 174.281 91.5569 174.596 90.8019 175.168C90.047 175.74 89.4957 176.539 89.2294 177.448L87.4534 184.177C87.3221 184.622 87.29 185.09 87.3594 185.548C87.4287 186.006 87.5978 186.444 87.8547 186.829C88.1116 187.215 88.45 187.54 88.8461 187.781C89.2421 188.021 89.6862 188.172 90.147 188.222L108.43 190.788C109.473 190.917 110.527 190.671 111.406 190.095C112.284 189.518 112.929 188.648 113.225 187.64L115.041 180.822C115.171 180.376 115.204 179.907 115.135 179.447C115.067 178.987 114.9 178.548 114.646 178.158C114.379 177.769 114.031 177.441 113.625 177.197C113.22 176.954 112.767 176.8 112.298 176.747L93.9851 174.271C93.7991 174.241 93.611 174.228 93.4227 174.231V174.271Z" fill="#E6E7E8"/>
<path d="M164.196 15.6841L136.244 13.3457C136.179 13.3405 136.116 13.3226 136.058 13.293C136 13.2634 135.949 13.2227 135.907 13.1733C135.865 13.1238 135.833 13.0665 135.813 13.0047C135.793 12.9428 135.785 12.8776 135.79 12.8129C135.795 12.7481 135.813 12.6849 135.843 12.6271C135.872 12.5692 135.913 12.5177 135.962 12.4756C136.012 12.4334 136.069 12.4014 136.131 12.3814C136.193 12.3614 136.258 12.3538 136.323 12.359L164.275 14.6875C164.406 14.6875 164.531 14.7395 164.624 14.832C164.717 14.9245 164.768 15.05 164.768 15.1809C164.768 15.3117 164.717 15.4372 164.624 15.5297C164.531 15.6222 164.406 15.6742 164.275 15.6742L164.196 15.6841Z" fill="#D1D3D4"/>
<path d="M132.366 13.0201H132.317L128.617 12.7142C128.486 12.7037 128.365 12.6417 128.28 12.5418C128.195 12.4419 128.153 12.3122 128.163 12.1814C128.174 12.0506 128.236 11.9292 128.336 11.8441C128.436 11.759 128.565 11.7171 128.696 11.7275L132.406 12.0433C132.537 12.0433 132.662 12.0952 132.755 12.1878C132.847 12.2803 132.899 12.4058 132.899 12.5366C132.899 12.6674 132.847 12.7929 132.755 12.8854C132.662 12.978 132.537 13.0299 132.406 13.0299L132.366 13.0201Z" fill="#D1D3D4"/>
<path d="M192.365 27.8693L154.783 172.998L57.202 161.395L95.0111 19.3741L192.365 27.8693Z" fill="white"/>
<path d="M154.783 173.491H154.734L57.1428 161.878C57.0734 161.872 57.0063 161.85 56.9465 161.814C56.8867 161.778 56.8358 161.73 56.7975 161.671C56.7576 161.613 56.7308 161.546 56.7189 161.476C56.707 161.407 56.7102 161.335 56.7284 161.267L94.5375 19.2459C94.5673 19.133 94.6363 19.0343 94.732 18.9675C94.8278 18.9006 94.9441 18.8699 95.0604 18.8808L192.405 27.376C192.477 27.384 192.546 27.4065 192.609 27.4421C192.671 27.4778 192.726 27.5258 192.77 27.5832C192.81 27.6435 192.837 27.7116 192.849 27.783C192.861 27.8544 192.857 27.9276 192.839 27.9976L155.267 173.107C155.242 173.216 155.181 173.314 155.093 173.384C155.005 173.454 154.896 173.492 154.783 173.491ZM57.8532 160.971L154.448 172.465L191.744 28.3133L95.3465 19.9069L57.8532 160.971Z" fill="black"/>
<path d="M164.867 44.5736L116.945 40.104C116.356 40.0676 115.782 39.8996 115.267 39.6123C114.751 39.325 114.306 38.9257 113.966 38.4438C113.625 37.9619 113.396 37.4097 113.297 36.8279C113.198 36.2461 113.231 35.6494 113.393 35.0819C113.772 33.8148 114.57 32.714 115.656 31.9594C116.742 31.2048 118.052 30.8412 119.372 30.928L167.294 35.2595C167.903 35.2807 168.498 35.4404 169.036 35.7263C169.573 36.0123 170.039 36.417 170.396 36.9097C170.754 37.4024 170.995 37.9702 171.1 38.5699C171.205 39.1695 171.172 39.7853 171.004 40.3704C170.616 41.667 169.795 42.7914 168.678 43.5562C167.561 44.3211 166.216 44.6801 164.867 44.5736Z" fill="#E6E7E8"/>
<path d="M184.058 46.8628L173.816 45.8761C173.745 45.8698 173.677 45.848 173.615 45.8122C173.554 45.7764 173.501 45.7274 173.461 45.6689C173.419 45.6112 173.391 45.5451 173.377 45.4753C173.364 45.4055 173.365 45.3335 173.382 45.2644L175.641 36.5916C175.671 36.4787 175.74 36.38 175.836 36.3132C175.932 36.2463 176.048 36.2156 176.164 36.2265L186.396 37.154C186.468 37.1602 186.538 37.1819 186.601 37.2177C186.664 37.2535 186.719 37.3024 186.761 37.3612C186.801 37.4197 186.828 37.4861 186.84 37.5559C186.852 37.6257 186.848 37.6973 186.83 37.7657L184.581 46.4681C184.557 46.5865 184.491 46.692 184.394 46.7648C184.298 46.8375 184.178 46.8724 184.058 46.8628ZM174.448 44.9782L183.693 45.8367L185.666 38.1111L176.421 37.2724L174.448 44.9782Z" fill="#D1D3D4"/>
<path d="M181.423 43.1133C181.337 43.1128 181.253 43.0898 181.179 43.0465C181.104 43.0032 181.042 42.9412 180.999 42.8667L179.421 40.2421C177.447 41.3275 175.316 42.5016 174.981 42.7779C174.919 42.8543 174.838 42.9116 174.745 42.943C174.652 42.9745 174.553 42.9788 174.458 42.9555C174.332 42.9208 174.226 42.8382 174.161 42.7255C174.097 42.6128 174.079 42.4792 174.112 42.3536C174.171 42.1069 174.231 41.9096 179.371 39.1469C179.483 39.0891 179.613 39.0763 179.734 39.1112C179.855 39.146 179.958 39.2259 180.022 39.3344L181.848 42.3635C181.914 42.4765 181.933 42.6108 181.902 42.7379C181.871 42.865 181.791 42.9749 181.68 43.0443C181.601 43.0868 181.513 43.1104 181.423 43.1133Z" fill="#D1D3D4"/>
<path d="M185.192 42.5116C185.121 42.5136 185.051 42.4995 184.986 42.4705C184.921 42.4414 184.863 42.3982 184.817 42.3439L183.259 40.5777L181.098 42.0281C180.989 42.1014 180.856 42.1285 180.727 42.1035C180.599 42.0786 180.485 42.0035 180.412 41.8949C180.339 41.7863 180.312 41.6531 180.337 41.5245C180.362 41.3959 180.437 41.2825 180.545 41.2092L183.061 39.5121C183.162 39.4464 183.284 39.4192 183.403 39.4355C183.523 39.4518 183.633 39.5105 183.712 39.6009L185.557 41.6927C185.648 41.7865 185.699 41.9122 185.699 42.0429C185.699 42.1737 185.648 42.2993 185.557 42.3932C185.455 42.4766 185.325 42.5188 185.192 42.5116Z" fill="#D1D3D4"/>
<path d="M105.105 64.2379C104.634 65.832 103.63 67.2165 102.262 68.1609C100.894 69.1052 99.2441 69.5523 97.5864 69.4277C96.8386 69.3838 96.1106 69.1701 95.4576 68.8029C94.8046 68.4357 94.2438 67.9246 93.8178 67.3084C93.3918 66.6922 93.1117 65.987 92.9988 65.2465C92.8859 64.5059 92.9431 63.7493 93.1662 63.0341C93.6364 61.4453 94.6351 60.0647 95.997 59.1209C97.3588 58.1771 99.0022 57.7267 100.655 57.8443C101.405 57.8839 102.137 58.0945 102.793 58.4598C103.45 58.8252 104.015 59.3358 104.444 59.9526C104.873 60.5693 105.156 61.276 105.27 62.0187C105.385 62.7614 105.328 63.5204 105.105 64.2379Z" fill="#2FE784"/>
<path d="M91.923 114.005C91.4619 115.601 90.459 116.987 89.0867 117.923C87.7145 118.86 86.0589 119.288 84.4046 119.136C83.6526 119.068 82.9253 118.832 82.2756 118.448C81.6258 118.063 81.07 117.538 80.6486 116.912C80.2271 116.285 79.9506 115.573 79.8391 114.826C79.7276 114.079 79.7839 113.317 80.004 112.594C80.4628 111.001 81.4624 109.617 82.8309 108.681C84.1994 107.744 85.8513 107.314 87.5027 107.464C88.2572 107.528 88.9878 107.76 89.6408 108.143C90.2939 108.526 90.8529 109.05 91.2769 109.678C91.7008 110.305 91.9789 111.019 92.0907 111.768C92.2025 112.517 92.1452 113.281 91.923 114.005Z" fill="#E6E7E8"/>
<path d="M86.1115 135.988C85.6546 137.587 84.6501 138.974 83.2739 139.906C81.8976 140.839 80.2372 141.258 78.5832 141.089C77.8282 141.014 77.0991 140.773 76.4487 140.382C75.7982 139.991 75.2426 139.461 74.8217 138.83C74.4008 138.198 74.1251 137.482 74.0146 136.731C73.9042 135.98 73.9616 135.214 74.1827 134.489C74.6387 132.896 75.6387 131.513 77.0088 130.581C78.3788 129.649 80.0322 129.227 81.6814 129.388C82.4383 129.46 83.1696 129.7 83.8227 130.089C84.4758 130.479 85.0344 131.008 85.4581 131.64C85.8819 132.271 86.1603 132.989 86.2732 133.741C86.3862 134.493 86.331 135.26 86.1115 135.988Z" fill="#E6E7E8"/>
<path d="M151.685 66.2507L111.045 62.1857C110.98 62.1795 110.917 62.1605 110.859 62.1299C110.802 62.0992 110.751 62.0574 110.709 62.0069C110.668 61.9565 110.637 61.8983 110.619 61.8359C110.6 61.7734 110.594 61.7078 110.601 61.643C110.615 61.5137 110.681 61.3955 110.783 61.3142C110.884 61.2328 111.014 61.195 111.143 61.2089L151.784 65.2641C151.915 65.2706 152.038 65.3289 152.126 65.426C152.214 65.5232 152.259 65.6512 152.253 65.7821C152.246 65.9129 152.188 66.0358 152.091 66.1237C151.994 66.2116 151.866 66.2573 151.735 66.2507H151.685Z" fill="#D1D3D4"/>
<path d="M124.503 69.8225H124.443L109.387 68.2932C109.322 68.287 109.259 68.268 109.201 68.2374C109.144 68.2067 109.093 68.1649 109.052 68.1145C109.01 68.064 108.979 68.0058 108.961 67.9434C108.942 67.8809 108.936 67.8154 108.943 67.7505C108.958 67.6205 109.023 67.5013 109.124 67.4184C109.225 67.3355 109.355 67.2954 109.485 67.3065L124.552 68.8457C124.683 68.8457 124.808 68.8977 124.901 68.9902C124.993 69.0827 125.045 69.2082 125.045 69.339C125.045 69.4699 124.993 69.5954 124.901 69.6879C124.808 69.7804 124.683 69.8324 124.552 69.8324L124.503 69.8225Z" fill="#D1D3D4"/>
<path d="M166.387 82.2248L93.5115 74.588C93.4466 74.5818 93.3836 74.5629 93.326 74.5322C93.2685 74.5015 93.2176 74.4597 93.1763 74.4093C93.135 74.3588 93.1042 74.3007 93.0855 74.2382C93.0668 74.1757 93.0607 74.1102 93.0675 74.0453C93.0824 73.916 93.1478 73.7978 93.2494 73.7165C93.3511 73.6352 93.4808 73.5973 93.6102 73.6112L166.485 81.248C166.615 81.2629 166.733 81.3283 166.814 81.4299C166.896 81.5316 166.933 81.6612 166.92 81.7907C166.913 81.8543 166.895 81.9161 166.864 81.9724C166.834 82.0287 166.793 82.0785 166.744 82.1189C166.694 82.1593 166.637 82.1894 166.576 82.2076C166.515 82.2258 166.45 82.2316 166.387 82.2248Z" fill="#D1D3D4"/>
<path d="M158.237 88.8453H158.187L91.5677 81.7019C91.4384 81.687 91.3202 81.6216 91.2388 81.5199C91.1575 81.4183 91.1197 81.2886 91.1335 81.1592C91.1485 81.0291 91.2135 80.91 91.3148 80.8271C91.4161 80.7442 91.5458 80.7041 91.6762 80.7152L158.286 87.8685C158.417 87.8685 158.542 87.9205 158.635 88.013C158.727 88.1055 158.779 88.231 158.779 88.3619C158.779 88.4927 158.727 88.6182 158.635 88.7107C158.542 88.8032 158.417 88.8552 158.286 88.8552L158.237 88.8453Z" fill="#D1D3D4"/>
<path d="M148.094 155.455C147.79 155.455 147.487 155.435 147.186 155.396L72.0711 145.608C71.265 145.521 70.4875 145.26 69.7924 144.842C69.0973 144.425 68.5012 143.862 68.0455 143.191C67.5922 142.501 67.294 141.722 67.1713 140.906C67.0487 140.09 67.1045 139.257 67.3351 138.465L88.9628 57.1635C89.4606 55.489 90.5132 54.0336 91.9477 53.0367C93.3822 52.0397 95.1132 51.5604 96.8561 51.6776L172.07 58.9888C172.926 59.0491 173.759 59.2969 174.509 59.7146C175.259 60.1324 175.909 60.7098 176.411 61.4062C176.873 62.0804 177.181 62.8477 177.314 63.6541C177.447 64.4605 177.402 65.2863 177.181 66.0731L155.474 149.94C154.998 151.529 154.023 152.923 152.695 153.916C151.366 154.909 149.753 155.449 148.094 155.455ZM147.314 154.419C148.884 154.601 150.468 154.221 151.784 153.347C153.101 152.473 154.065 151.161 154.507 149.644L176.214 65.8264C176.399 65.1771 176.44 64.495 176.332 63.8283C176.225 63.1617 175.972 62.5268 175.592 61.9686C175.167 61.3979 174.623 60.926 173.998 60.5854C173.373 60.2448 172.681 60.0434 171.971 59.9952L96.7476 52.6939C95.2358 52.5908 93.7339 53.0057 92.4893 53.8701C91.2447 54.7345 90.3315 55.997 89.9001 57.4496L68.2626 138.751C68.0686 139.412 68.0203 140.107 68.1208 140.788C68.2213 141.469 68.4682 142.121 68.8447 142.698C69.2238 143.247 69.7173 143.708 70.2912 144.048C70.8652 144.389 71.506 144.601 72.1697 144.671L147.314 154.419Z" fill="#D1D3D4"/>
<path d="M168.666 97.4787H168.607L81.3754 87.8982C81.246 87.8833 81.1278 87.8179 81.0465 87.7162C80.9652 87.6146 80.9274 87.4849 80.9412 87.3555C80.9562 87.2254 81.0212 87.1063 81.1225 87.0234C81.2238 86.9405 81.3535 86.9004 81.4839 86.9115L168.715 96.5019C168.78 96.5081 168.843 96.527 168.901 96.5577C168.958 96.5884 169.009 96.6301 169.05 96.6806C169.092 96.7311 169.122 96.7892 169.141 96.8517C169.16 96.9142 169.166 96.9797 169.159 97.0446C169.143 97.164 169.084 97.2736 168.993 97.3533C168.903 97.433 168.786 97.4775 168.666 97.4787Z" fill="#D1D3D4"/>
<path d="M165.153 111.045H165.094L77.8727 101.08C77.7419 101.066 77.6221 101 77.5398 100.897C77.4574 100.794 77.4192 100.663 77.4336 100.532C77.448 100.402 77.5138 100.282 77.6165 100.199C77.7192 100.117 77.8504 100.079 77.9812 100.093L165.203 110.088C165.333 110.095 165.456 110.153 165.544 110.25C165.632 110.347 165.678 110.475 165.671 110.606C165.665 110.737 165.606 110.86 165.509 110.948C165.412 111.036 165.284 111.081 165.153 111.075V111.045Z" fill="#D1D3D4"/>
<path d="M88.9827 100.005H88.9333L87.5619 99.9356C87.427 99.9275 87.2952 99.8918 87.1747 99.8307C87.0542 99.7696 86.9475 99.6844 86.8613 99.5804C86.7816 99.4725 86.7248 99.3495 86.6942 99.2188C86.6637 99.0882 86.6601 98.9527 86.6837 98.8207L87.4435 95.022C87.5023 94.7726 87.6453 94.5511 87.8484 94.3947C88.0515 94.2384 88.3022 94.1568 88.5584 94.1636L89.9299 94.2228C90.0647 94.2309 90.1965 94.2666 90.317 94.3277C90.4375 94.3888 90.5442 94.474 90.6304 94.578C90.7101 94.6859 90.7669 94.8089 90.7975 94.9396C90.828 95.0702 90.8316 95.2057 90.808 95.3377L90.0483 99.1364C89.9965 99.381 89.8625 99.6006 89.6686 99.7585C89.4748 99.9165 89.2327 100.003 88.9827 100.005ZM88.5091 95.1503C88.5091 95.1503 88.4104 95.1503 88.4104 95.2193L87.6605 99.018H88.9827C89.0048 99.021 89.0272 99.0156 89.0455 99.0028C89.0638 98.99 89.0766 98.9707 89.0813 98.9489L89.8411 95.1404L88.5091 95.1503Z" fill="#D1D3D4"/>
<path d="M96.5603 100.38L90.7192 100.093C90.6479 100.088 90.5784 100.068 90.5154 100.034C90.4525 100 90.3975 99.953 90.3542 99.8961C90.3111 99.8409 90.2809 99.7769 90.2655 99.7087C90.2502 99.6405 90.2501 99.5697 90.2654 99.5014L91.0448 95.5547C91.0669 95.4612 91.1147 95.3757 91.183 95.3081C91.7158 94.7457 92.288 94.0451 92.8406 93.3347C94.36 91.4699 95.2678 90.4241 96.1163 90.6707C96.2357 90.7031 96.346 90.7627 96.4384 90.8449C96.5309 90.927 96.603 91.0295 96.6491 91.1443C96.9254 91.8054 96.3827 93.1177 95.9091 94.055C96.7495 94.0644 97.5827 94.2111 98.3758 94.4891C98.7211 94.6667 99.5104 95.0811 97.0339 100.093C96.9937 100.184 96.9268 100.26 96.8421 100.311C96.7574 100.362 96.659 100.386 96.5603 100.38ZM91.3112 99.1067L96.2446 99.3534C96.9237 98.0739 97.4313 96.7104 97.7542 95.2982C96.8707 95.0948 95.9671 94.9922 95.0606 94.9923C94.9741 94.9939 94.8888 94.9717 94.814 94.9283C94.7392 94.8848 94.6777 94.8216 94.6363 94.7457C94.5929 94.6725 94.57 94.589 94.57 94.5039C94.57 94.4189 94.5929 94.3354 94.6363 94.2622C95.1296 93.45 95.4894 92.5639 95.7019 91.6377C94.8998 92.3166 94.1811 93.0883 93.5608 93.9366C93.0379 94.5878 92.4854 95.2587 91.9526 95.831L91.3112 99.1067Z" fill="#D1D3D4"/>
<path d="M145.568 147.453L93.7185 140.833C93.2769 140.789 92.8504 140.648 92.4697 140.42C92.0889 140.192 91.7634 139.882 91.5163 139.513C91.2693 139.145 91.1068 138.726 91.0406 138.287C90.9744 137.848 91.0061 137.4 91.1334 136.975C91.4015 136.045 91.9883 135.238 92.791 134.697C93.5937 134.156 94.5612 133.915 95.5241 134.015L147.373 140.547C147.83 140.586 148.272 140.725 148.668 140.955C149.064 141.186 149.404 141.501 149.663 141.878C149.923 142.256 150.095 142.686 150.169 143.138C150.242 143.59 150.214 144.053 150.087 144.493C149.798 145.437 149.188 146.25 148.363 146.79C147.537 147.331 146.548 147.566 145.568 147.453Z" fill="#E6E7E8"/>
<path d="M134.932 127.029L101.652 122.994C100.816 122.926 100.006 122.673 99.2806 122.252C98.5555 121.831 97.9338 121.253 97.4608 120.56C96.9879 119.868 96.6757 119.079 96.5473 118.25C96.4188 117.422 96.4772 116.575 96.7182 115.772L97.3299 113.463C97.8421 111.704 98.9501 110.178 100.464 109.147C101.978 108.115 103.804 107.642 105.628 107.809L138.918 111.667C139.768 111.732 140.593 111.986 141.333 112.409C142.073 112.833 142.709 113.415 143.196 114.116C143.682 114.816 144.007 115.615 144.146 116.456C144.285 117.297 144.235 118.159 143.999 118.978L143.388 121.327C142.865 123.114 141.734 124.663 140.189 125.705C138.645 126.746 136.785 127.215 134.932 127.029Z" fill="#2FE784"/>
<path d="M146.92 142.402L147.176 141.415L143.23 140.912L142.983 141.898L142.204 141.8L141.217 145.5L146.752 146.2L147.739 142.49L146.92 142.402ZM144.285 144.661C144.135 144.653 143.988 144.611 143.857 144.537C143.726 144.464 143.613 144.361 143.527 144.237C143.441 144.114 143.385 143.972 143.363 143.823C143.34 143.674 143.352 143.522 143.397 143.378C143.49 143.067 143.689 142.798 143.959 142.618C144.229 142.437 144.554 142.358 144.877 142.392C145.029 142.399 145.177 142.442 145.309 142.516C145.441 142.59 145.555 142.693 145.641 142.818C145.727 142.943 145.783 143.087 145.804 143.237C145.826 143.387 145.813 143.54 145.765 143.684C145.674 143.996 145.476 144.265 145.204 144.444C144.933 144.623 144.608 144.7 144.285 144.661Z" fill="black"/>
<path d="M105.302 127.414H105.213L96.3332 126.329C96.2031 126.311 96.0848 126.244 96.0037 126.141C95.9226 126.038 95.885 125.907 95.8991 125.776C95.9186 125.647 95.9867 125.53 96.0893 125.45C96.192 125.369 96.3215 125.331 96.4516 125.342L105.332 126.427C105.462 126.435 105.585 126.495 105.672 126.593C105.759 126.691 105.803 126.82 105.795 126.95C105.787 127.081 105.728 127.204 105.63 127.291C105.532 127.378 105.403 127.422 105.272 127.414H105.302Z" fill="#D1D3D4"/>
<path d="M117.685 128.934H117.625L108.686 127.838C108.623 127.831 108.561 127.811 108.505 127.78C108.449 127.748 108.4 127.706 108.361 127.656C108.321 127.605 108.292 127.547 108.275 127.486C108.258 127.424 108.254 127.359 108.262 127.296C108.268 127.231 108.287 127.168 108.318 127.111C108.349 127.054 108.391 127.004 108.441 126.964C108.492 126.923 108.55 126.893 108.613 126.876C108.675 126.858 108.74 126.853 108.805 126.862L117.744 127.957C117.809 127.964 117.872 127.984 117.929 128.016C117.986 128.048 118.036 128.091 118.076 128.142C118.117 128.194 118.147 128.253 118.164 128.316C118.182 128.379 118.186 128.444 118.178 128.509C118.159 128.627 118.099 128.734 118.009 128.812C117.919 128.89 117.804 128.933 117.685 128.934Z" fill="#D1D3D4"/>
<path d="M137.941 117.705H137.882L105.075 113.838C104.945 113.82 104.827 113.753 104.746 113.65C104.665 113.546 104.627 113.416 104.641 113.285C104.658 113.155 104.726 113.037 104.829 112.956C104.932 112.874 105.063 112.837 105.194 112.851L138 116.719C138.131 116.726 138.253 116.786 138.34 116.884C138.427 116.982 138.472 117.111 138.464 117.242C138.456 117.372 138.397 117.495 138.299 117.582C138.2 117.669 138.072 117.713 137.941 117.705Z" fill="white"/>
<path d="M132.12 121.514H132.061L103.941 118.149C103.811 118.135 103.693 118.069 103.612 117.968C103.53 117.866 103.493 117.736 103.506 117.607C103.521 117.477 103.587 117.359 103.688 117.278C103.79 117.197 103.92 117.159 104.049 117.173L132.179 120.527C132.308 120.544 132.426 120.612 132.505 120.716C132.585 120.819 132.62 120.95 132.603 121.08C132.589 121.198 132.532 121.308 132.443 121.388C132.354 121.468 132.239 121.512 132.12 121.514Z" fill="white"/>
<path d="M124.433 104.869C124.157 104.869 123.94 104.583 122.944 102.974C122.598 102.974 122.263 102.974 121.957 102.974C121.14 102.923 120.343 102.697 119.619 102.313C118.896 101.928 118.264 101.393 117.764 100.745C117.485 100.36 117.295 99.9171 117.208 99.4496C117.12 98.982 117.139 98.5009 117.26 98.0411C117.872 95.7323 120.842 94.1932 124.019 94.5484C124.84 94.5966 125.642 94.8196 126.37 95.2025C127.098 95.5853 127.737 96.1192 128.242 96.7684C128.521 97.1538 128.71 97.5961 128.797 98.0636C128.884 98.5311 128.866 99.012 128.745 99.4718C128.494 100.212 128.068 100.88 127.502 101.419C126.937 101.959 126.25 102.354 125.499 102.57C125.183 103.754 125.025 104.376 125.006 104.474C124.987 104.575 124.94 104.668 124.87 104.743C124.8 104.819 124.71 104.872 124.611 104.898L124.433 104.869ZM123.21 101.978C123.294 101.977 123.377 101.998 123.451 102.037C123.525 102.077 123.588 102.135 123.634 102.205C123.901 102.649 124.108 102.984 124.276 103.192L124.601 101.968C124.623 101.889 124.664 101.817 124.721 101.758C124.778 101.7 124.849 101.656 124.927 101.633C125.569 101.481 126.164 101.174 126.659 100.739C127.155 100.304 127.535 99.7534 127.768 99.1363C127.852 98.8139 127.863 98.477 127.802 98.1496C127.741 97.8222 127.608 97.5123 127.413 97.242C126.984 96.7153 126.45 96.283 125.846 95.9723C125.241 95.6616 124.579 95.4791 123.901 95.4363C121.217 95.1403 118.671 96.423 118.198 98.2089C118.114 98.5314 118.103 98.8683 118.164 99.1957C118.226 99.5231 118.358 99.8329 118.553 100.103C118.979 100.628 119.509 101.059 120.11 101.369C120.712 101.678 121.371 101.858 122.046 101.899C122.426 101.934 122.81 101.934 123.19 101.899L123.21 101.978Z" fill="#D1D3D4"/>
<path d="M121.809 98.712C121.758 98.8854 121.648 99.0358 121.499 99.1382C121.35 99.2406 121.17 99.2887 120.99 99.2744C120.908 99.2691 120.829 99.2453 120.758 99.2049C120.687 99.1645 120.625 99.1085 120.579 99.0411C120.532 98.9737 120.502 98.8967 120.489 98.8158C120.477 98.7349 120.483 98.6522 120.507 98.5739C120.555 98.4003 120.662 98.249 120.809 98.1462C120.957 98.0435 121.136 97.9958 121.316 98.0115C121.398 98.0172 121.477 98.0411 121.549 98.0814C121.62 98.1217 121.682 98.1774 121.729 98.2445C121.776 98.3116 121.808 98.3884 121.822 98.4692C121.836 98.5501 121.831 98.633 121.809 98.712Z" fill="#D1D3D4"/>
<path d="M123.812 98.939C123.764 99.1144 123.655 99.2671 123.505 99.37C123.355 99.473 123.174 99.5195 122.993 99.5014C122.911 99.4946 122.831 99.4696 122.76 99.4281C122.689 99.3866 122.628 99.3297 122.582 99.2616C122.535 99.1935 122.505 99.1159 122.492 99.0345C122.48 98.953 122.486 98.8699 122.509 98.791C122.561 98.6185 122.671 98.4692 122.82 98.3684C122.969 98.2677 123.149 98.2218 123.328 98.2385C123.41 98.2438 123.49 98.2676 123.561 98.308C123.632 98.3484 123.693 98.4044 123.74 98.4717C123.786 98.5391 123.817 98.6162 123.829 98.6971C123.842 98.778 123.836 98.8607 123.812 98.939Z" fill="#D1D3D4"/>
<path d="M125.825 99.1659C125.775 99.3403 125.666 99.4918 125.517 99.5945C125.367 99.6971 125.187 99.7445 125.006 99.7283C124.925 99.7198 124.846 99.6937 124.776 99.6518C124.706 99.6098 124.645 99.553 124.599 99.4854C124.553 99.4177 124.523 99.3409 124.509 99.2601C124.496 99.1794 124.501 99.0967 124.522 99.0179C124.574 98.8454 124.684 98.6961 124.833 98.5953C124.983 98.4946 125.162 98.4487 125.341 98.4654C125.423 98.4707 125.503 98.4945 125.574 98.5349C125.645 98.5753 125.706 98.6313 125.753 98.6987C125.799 98.766 125.83 98.8431 125.842 98.924C125.855 99.0049 125.849 99.0876 125.825 99.1659Z" fill="#D1D3D4"/>
<path d="M151.034 105.5C150.915 105.5 150.8 105.458 150.708 105.382C150.622 105.306 150.565 105.202 150.547 105.089C150.529 104.975 150.551 104.859 150.61 104.76C151.798 102.893 153.464 101.377 155.435 100.37L155.079 99.5507C155.041 99.4778 155.02 99.3965 155.02 99.3139C155.02 99.2313 155.041 99.15 155.079 99.0771C155.125 99.0074 155.189 98.9507 155.263 98.9127C155.337 98.8746 155.42 98.8565 155.504 98.8601L160.023 99.008C160.104 99.0117 160.184 99.0352 160.254 99.0765C160.325 99.1177 160.384 99.1755 160.427 99.2449C160.466 99.316 160.486 99.3957 160.486 99.4767C160.486 99.5578 160.466 99.6375 160.427 99.7086L158.572 103.655C158.538 103.734 158.483 103.801 158.414 103.852C158.344 103.902 158.263 103.933 158.178 103.941C158.094 103.951 158.009 103.938 157.931 103.906C157.853 103.873 157.785 103.821 157.734 103.754L156.924 102.708C154.909 103.299 153 104.209 151.271 105.402C151.202 105.455 151.12 105.489 151.034 105.5ZM156.293 99.8763L156.53 100.409C156.583 100.528 156.587 100.664 156.541 100.786C156.495 100.908 156.402 101.006 156.283 101.06C155.194 101.574 154.194 102.261 153.323 103.093C154.541 102.52 155.801 102.042 157.092 101.662C157.186 101.635 157.286 101.637 157.379 101.667C157.472 101.696 157.554 101.753 157.615 101.83L158.138 102.511L159.332 99.975L156.293 99.8763Z" fill="#D1D3D4"/>
<path d="M156.431 107.138L149.692 106.369C149.621 106.364 149.552 106.342 149.49 106.306C149.429 106.271 149.376 106.221 149.337 106.161C149.297 106.103 149.27 106.036 149.258 105.967C149.246 105.897 149.25 105.825 149.268 105.757L150.847 99.7085C150.876 99.5956 150.945 99.497 151.041 99.4301C151.137 99.3633 151.253 99.3326 151.37 99.3435L154.389 99.6789C154.52 99.6933 154.639 99.7591 154.722 99.8618C154.804 99.9645 154.842 100.096 154.828 100.227C154.813 100.357 154.748 100.477 154.645 100.559C154.542 100.642 154.411 100.68 154.28 100.666L151.685 100.37L150.363 105.461L156.115 106.112L156.707 103.843C156.722 103.779 156.75 103.719 156.789 103.667C156.827 103.614 156.876 103.57 156.932 103.536C156.989 103.503 157.051 103.482 157.116 103.473C157.181 103.465 157.246 103.47 157.309 103.487C157.434 103.522 157.541 103.605 157.606 103.717C157.67 103.83 157.688 103.964 157.655 104.089L156.964 106.773C156.934 106.888 156.863 106.988 156.766 107.055C156.668 107.122 156.549 107.151 156.431 107.138Z" fill="#D1D3D4"/>
<path d="M184.758 52.6348H184.709L89.8903 43.6068C89.8258 43.6019 89.763 43.5841 89.7055 43.5544C89.648 43.5248 89.597 43.4839 89.5557 43.4342C89.5143 43.3846 89.4832 43.3271 89.4645 43.2652C89.4457 43.2033 89.4395 43.1383 89.4463 43.074C89.4512 43.0095 89.469 42.9467 89.4986 42.8892C89.5283 42.8317 89.5691 42.7808 89.6188 42.7394C89.6685 42.698 89.726 42.667 89.7879 42.6482C89.8497 42.6294 89.9148 42.6232 89.9791 42.63L184.798 51.6481C184.863 51.6543 184.926 51.6733 184.983 51.7039C185.041 51.7346 185.092 51.7764 185.133 51.8268C185.174 51.8773 185.205 51.9355 185.224 51.9979C185.242 52.0604 185.249 52.1259 185.242 52.1908C185.232 52.312 185.177 52.4251 185.087 52.5074C184.997 52.5897 184.88 52.6352 184.758 52.6348Z" fill="#D1D3D4"/>
<path d="M108.173 40.1238H108.075L104.72 39.887C104.611 39.887 104.602 39.887 104.631 39.7488C105.036 38.3083 105.43 36.8678 105.835 35.4272C105.835 35.2891 105.835 35.2891 106.003 35.299L107.266 35.4075C107.354 35.4075 107.394 35.4075 107.433 35.299C107.611 34.855 107.788 34.411 107.976 33.967L108.114 33.6414C108.114 33.5526 108.114 33.523 108.045 33.5131L106.526 33.3947C106.427 33.3947 106.407 33.3947 106.437 33.2566C106.555 32.852 106.664 32.4475 106.782 32.043C106.835 31.8749 106.942 31.7293 107.087 31.6292C107.231 31.5291 107.406 31.4802 107.581 31.4904L108.617 31.5792C108.706 31.5792 108.746 31.5792 108.765 31.4608L109.18 29.971C109.18 29.892 109.18 29.8526 109.111 29.8427C108.558 29.8427 108.015 29.7342 107.453 29.7243C107.07 29.7251 106.693 29.8146 106.35 29.9858C106.008 30.157 105.71 30.4052 105.48 30.711C105.236 30.9982 105.058 31.3348 104.957 31.6976C104.828 32.1515 104.7 32.6152 104.582 33.0691C104.582 33.1678 104.513 33.1875 104.414 33.1776L103.122 33.0691C103.033 33.0691 103.003 33.0691 102.974 33.1776C102.826 33.74 102.668 34.3024 102.51 34.8648C102.51 34.9635 102.51 34.9832 102.589 34.9931L103.901 35.0918C103.99 35.0918 104.01 35.0918 103.98 35.22L102.766 39.5811C102.766 39.6699 102.766 39.6995 102.628 39.6896L96.5503 39.2456H96.4517L99.757 27.1787L111.528 28.2246L108.173 40.1238Z" fill="#2FE784"/>
<path d="M70.4826 20.1142L10.1874 31.0761C8.73334 31.3399 7.34557 31.8877 6.10334 32.6881C4.86111 33.4885 3.78877 34.5258 2.94761 35.7408C2.10645 36.9559 1.51296 38.3247 1.20104 39.7692C0.889127 41.2136 0.864909 42.7054 1.12976 44.1593L8.8159 86.4675C9.35352 89.4036 11.0342 92.0064 13.4889 93.7046C15.9437 95.4027 18.9719 96.0575 21.909 95.5251L73.5511 86.1321L83.5065 94.6865L82.9836 84.3758C85.739 83.6725 88.1253 81.9507 89.6615 79.5577C91.1977 77.1646 91.7695 74.2781 91.2617 71.4801L83.5657 29.1817C83.303 27.7267 82.7561 26.3379 81.9562 25.0946C81.1562 23.8512 80.1191 22.7778 78.9039 21.9356C77.6888 21.0935 76.3196 20.4991 74.8746 20.1866C73.4296 19.874 71.9371 19.8494 70.4826 20.1142Z" fill="white"/>
<path d="M19.8864 96.1959C17.1367 96.1902 14.4757 95.2221 12.3653 93.4595C10.2548 91.6969 8.82804 89.251 8.3325 86.5463L0.62664 44.2479C0.349235 42.7291 0.374366 41.1705 0.700592 39.6614C1.02682 38.1523 1.64772 36.7224 2.5277 35.4538C3.40768 34.1851 4.52942 33.1027 5.82861 32.2685C7.12779 31.4343 8.57887 30.8647 10.0986 30.5925L70.3938 19.6306C73.4536 19.0747 76.6089 19.7543 79.1685 21.5205C81.728 23.2867 83.4832 25.9954 84.0493 29.0533L91.7453 71.3517C92.2663 74.2079 91.7133 77.156 90.1925 79.6292C88.6718 82.1025 86.2906 83.9265 83.5066 84.7506L84.0098 94.6173C84.0129 94.7123 83.9884 94.8063 83.9393 94.8877C83.8902 94.9692 83.8185 95.0348 83.733 95.0765C83.6475 95.1182 83.5518 95.1343 83.4574 95.1228C83.3629 95.1114 83.2738 95.0729 83.2008 95.0119L73.4328 86.6154L22.0274 95.969C21.3221 96.1091 20.6054 96.1851 19.8864 96.1959ZM70.5714 20.5975L10.2762 31.5594C8.8856 31.8114 7.55826 32.335 6.37011 33.1002C5.18195 33.8655 4.15629 34.8575 3.35174 36.0194C2.54719 37.1813 1.97954 38.4904 1.68125 39.8718C1.38296 41.2533 1.35987 42.68 1.61331 44.0703L9.30931 86.3786C9.82304 89.1846 11.4286 91.6724 13.7739 93.2964C16.1193 94.9203 19.0129 95.548 21.8202 95.0415L73.4624 85.6485C73.5352 85.6342 73.6102 85.6366 73.682 85.6554C73.7537 85.6742 73.8203 85.7089 73.8768 85.757L82.9344 93.5615L82.52 84.4053C82.5162 84.2913 82.5513 84.1795 82.6194 84.0881C82.6875 83.9966 82.7847 83.9311 82.8949 83.9021C85.5232 83.2168 87.7961 81.565 89.2595 79.2767C90.7228 76.9884 91.2688 74.2322 90.7882 71.5589L83.1021 29.2605C82.5884 26.4544 80.9828 23.9667 78.6375 22.3427C76.2922 20.7187 73.3985 20.0911 70.5912 20.5975H70.5714Z" fill="black"/>
<path d="M20.7843 59.4525L35.5054 56.7688L39.383 78.1005L26.6451 80.4192L20.7843 59.4525Z" fill="#2FE784"/>
<path d="M26.645 80.9126C26.5369 80.912 26.4321 80.876 26.3465 80.8101C26.261 80.7441 26.1994 80.6519 26.1714 80.5476L20.3599 59.5809C20.3333 59.5185 20.3196 59.4514 20.3196 59.3836C20.3196 59.3158 20.3333 59.2486 20.3599 59.1863C20.3971 59.1283 20.4463 59.0789 20.5042 59.0414C20.562 59.004 20.6272 58.9794 20.6954 58.9692L35.4164 56.2855C35.4806 56.2741 35.5464 56.2756 35.6099 56.2899C35.6735 56.3041 35.7337 56.3308 35.7869 56.3684C35.8401 56.4061 35.8853 56.4538 35.92 56.509C35.9546 56.5642 35.9779 56.6257 35.9887 56.69L39.8663 78.0119C39.8893 78.14 39.8608 78.2721 39.7869 78.3793C39.7129 78.4865 39.5996 78.5601 39.4716 78.5841L26.7338 80.9028L26.645 80.9126ZM21.4058 59.8375L27.0002 79.8471L38.8402 77.706L35.1599 57.3511L21.4058 59.8375Z" fill="black"/>
<path d="M34.7653 76.8377C35.7134 76.8377 36.4821 76.069 36.4821 75.1209C36.4821 74.1727 35.7134 73.4041 34.7653 73.4041C33.8171 73.4041 33.0485 74.1727 33.0485 75.1209C33.0485 76.069 33.8171 76.8377 34.7653 76.8377Z" fill="black"/>
<path d="M35.752 58.1008C35.752 58.1008 36.6301 57.795 38.781 54.5982C40.932 51.4014 43.5269 43.5179 43.5762 42.2155C43.6256 40.9131 42.2048 35.8515 42.777 34.6675C43.3493 33.4835 46.3389 32.0726 48.0656 33.6808C49.9166 35.6021 51.2713 37.9457 52.0122 40.5086C52.328 42.255 52.4266 49.4971 52.4266 49.4971L67.2266 46.8134C69.3874 46.4286 70.1866 47.8691 70.3149 49.5662C70.4432 51.2632 68.8842 53.5819 68.8842 53.5819C68.8842 53.5819 70.8576 53.9272 70.7096 56.4728C70.6875 57.193 70.4977 57.898 70.1551 58.5318C69.8125 59.1656 69.3266 59.7106 68.7362 60.1235C69.1834 60.3739 69.5312 60.7701 69.7215 61.2459C69.9118 61.7217 69.9332 62.2485 69.7821 62.7382C69.6967 63.3234 69.4968 63.8861 69.1937 64.394C68.8907 64.9019 68.4905 65.3451 68.016 65.6982C68.5616 65.8888 69.0103 66.2866 69.265 66.8053C69.5198 67.3241 69.5602 67.9224 69.3775 68.4707C68.9237 70.7203 67.9173 72.2694 66.1117 72.664C64.3061 73.0587 46.3784 76.2654 44.6024 76.6107C42.8264 76.956 42.629 76.0384 41.6424 75.8904C40.7331 75.8496 39.8227 75.9393 38.9389 76.1568L35.752 58.1008Z" fill="white"/>
<path d="M43.9512 77.1041C43.3713 77.1066 42.8041 76.9347 42.3232 76.6107C42.1181 76.4679 41.8867 76.3673 41.6424 76.3147C40.799 76.2788 39.9549 76.3652 39.1363 76.5713C39.0715 76.5886 39.0039 76.5923 38.9376 76.5821C38.8714 76.5719 38.808 76.5481 38.7515 76.5121C38.6946 76.4759 38.6459 76.4283 38.6085 76.3722C38.5711 76.3161 38.5459 76.2529 38.5344 76.1865L35.2587 58.1897C35.2389 58.0765 35.2585 57.96 35.3141 57.8594C35.3698 57.7589 35.4581 57.6805 35.5645 57.6371C35.6336 57.6371 36.4624 57.1537 38.3667 54.3219C40.5275 51.1153 43.0435 43.3107 43.0829 42.1958C43.0195 41.3328 42.8942 40.4755 42.708 39.6305C42.2344 37.1145 41.9384 35.2694 42.3331 34.4505C42.6675 33.9452 43.1033 33.5151 43.6129 33.1872C44.1225 32.8594 44.6946 32.6411 45.2931 32.5462C45.8358 32.4229 46.4001 32.4312 46.939 32.5702C47.4779 32.7092 47.9758 32.975 48.3912 33.3454C50.3285 35.3349 51.7451 37.7716 52.5155 40.4395C52.7819 41.9294 52.8904 47.1587 52.92 48.9347L67.1083 46.3497C67.518 46.2477 67.9448 46.2345 68.36 46.3111C68.7753 46.3877 69.1693 46.5522 69.5157 46.7937C69.9058 47.1376 70.2197 47.5592 70.4372 48.0316C70.6547 48.504 70.771 49.0166 70.7787 49.5366C70.7509 50.8923 70.3404 52.2126 69.5946 53.3451C70.1413 53.658 70.583 54.1258 70.864 54.6895C71.145 55.2532 71.2526 55.8875 71.1733 56.5123C71.1293 57.8799 70.5521 59.176 69.565 60.1235C69.9036 60.4809 70.1477 60.9171 70.2752 61.3926C70.4027 61.8681 70.4095 62.3679 70.2952 62.8467C70.1178 63.8744 69.6327 64.824 68.904 65.5699C69.3476 65.9064 69.6791 66.3691 69.8552 66.8973C70.0312 67.4255 70.0436 67.9946 69.8907 68.5299C69.3578 71.1545 68.1344 72.6937 66.2498 73.1081C64.8093 73.4238 53.1272 75.5155 47.5032 76.5219L44.7208 77.0251C44.4668 77.0724 44.2095 77.0988 43.9512 77.1041ZM41.2379 75.3083C41.4217 75.2926 41.6065 75.2926 41.7904 75.3083C42.1448 75.3756 42.481 75.5168 42.7771 75.7227C43.0255 75.8958 43.309 76.0121 43.6074 76.0632C43.9058 76.1144 44.2118 76.0992 44.5037 76.0187L47.296 75.5254C52.9003 74.5387 64.5725 72.4273 66.0427 72.1115C67.5128 71.7958 68.4797 70.5427 68.9336 68.303C69.094 67.8804 69.0802 67.4113 68.8953 66.9988C68.7103 66.5863 68.3692 66.2641 67.9469 66.1027C67.8573 66.0743 67.7775 66.0213 67.7164 65.9498C67.6554 65.8783 67.6156 65.7912 67.6016 65.6982C67.5925 65.6047 67.6087 65.5104 67.6487 65.4253C67.6886 65.3402 67.7507 65.2675 67.8285 65.2147C68.6643 64.5942 69.221 63.6686 69.3776 62.6395C69.6538 61.0905 68.7165 60.607 68.608 60.5577C68.5273 60.5182 68.4585 60.4582 68.4083 60.3838C68.358 60.3093 68.3282 60.223 68.3219 60.1334C68.3168 60.0448 68.3362 59.9565 68.3779 59.8782C68.4197 59.7998 68.4822 59.7345 68.5587 59.6894C69.0711 59.3105 69.4897 58.819 69.7822 58.2527C70.0747 57.6865 70.2333 57.0607 70.2458 56.4235C70.3347 54.4502 68.9829 54.0753 68.8251 54.0457C68.7449 54.0258 68.6704 53.9879 68.6072 53.9349C68.5439 53.8819 68.4936 53.8152 68.46 53.7398C68.4236 53.6679 68.4046 53.5885 68.4046 53.5079C68.4046 53.4274 68.4236 53.3479 68.46 53.2761C68.8744 52.6742 69.9301 50.8291 69.8019 49.5958C69.8077 49.2107 69.7336 48.8286 69.5841 48.4736C69.4347 48.1186 69.2132 47.7986 68.9336 47.5337C68.6932 47.3799 68.4231 47.2784 68.1409 47.2359C67.8587 47.1934 67.5708 47.2108 67.2957 47.287L52.4957 49.9707C52.4245 49.9803 52.352 49.9757 52.2826 49.9571C52.2131 49.9384 52.1481 49.9062 52.0912 49.8622C52.0356 49.8168 51.9908 49.7596 51.9601 49.6947C51.9294 49.6299 51.9135 49.559 51.9136 49.4873C51.9136 49.4182 51.8149 42.2649 51.5091 40.6073C50.7784 38.1473 49.4652 35.9 47.6808 34.0558C47.3801 33.7926 47.0208 33.6051 46.6329 33.509C46.245 33.4129 45.8397 33.4109 45.4509 33.5033C44.9994 33.5704 44.5655 33.7261 44.1744 33.9614C43.7832 34.1968 43.4425 34.5072 43.1717 34.8747C42.8856 35.4569 43.3296 37.8347 43.6256 39.443C43.8351 40.3577 43.9671 41.2885 44.0203 42.2254C43.9611 43.6166 41.3168 51.6185 39.0869 54.8646C38.3068 56.1606 37.3317 57.3287 36.196 58.3278L39.3139 75.4958C39.9482 75.3751 40.5922 75.3124 41.2379 75.3083Z" fill="black"/>
<path d="M64.3653 144.809L77.0439 137.162L63.7732 139.797L63.3391 136.126C63.2301 135.184 62.9363 134.272 62.4746 133.442C62.0129 132.613 61.3923 131.883 60.6482 131.294C59.9041 130.705 59.0512 130.268 58.1382 130.008C57.2253 129.749 56.2701 129.672 55.3274 129.782L11.4799 134.883C10.5371 134.992 9.62499 135.286 8.79576 135.748C7.96654 136.209 7.23645 136.83 6.64725 137.574C6.05804 138.318 5.62127 139.171 5.3619 140.084C5.10253 140.997 5.02565 141.952 5.13565 142.895L8.09565 168.765C8.21036 169.712 8.5109 170.627 8.98002 171.457C9.44913 172.287 10.0776 173.017 10.8293 173.603C11.5811 174.19 12.4413 174.622 13.3605 174.876C14.2798 175.129 15.2401 175.199 16.1863 175.08L60.014 169.979C61.919 169.756 63.6576 168.786 64.8473 167.282C66.0371 165.778 66.5806 163.862 66.3583 161.957L64.3653 144.809Z" fill="white"/>
<path d="M15.3476 175.652C13.4549 175.649 11.6289 174.952 10.2146 173.694C8.80031 172.436 7.89561 170.704 7.67137 168.825L4.71137 142.954C4.48044 140.922 5.06247 138.881 6.33049 137.277C7.59851 135.673 9.4496 134.635 11.4799 134.39L55.3175 129.289C57.3514 129.055 59.395 129.638 61.0003 130.908C62.6057 132.179 63.6418 134.034 63.8818 136.067L64.2468 139.215L76.9847 136.679C77.0995 136.654 77.2196 136.67 77.3234 136.726C77.4271 136.781 77.5077 136.871 77.5505 136.981C77.5934 137.09 77.5957 137.212 77.5571 137.323C77.5185 137.434 77.4415 137.527 77.3399 137.587L64.9276 145.066L66.901 161.938C67.1371 163.972 66.5558 166.017 65.2847 167.623C64.0136 169.229 62.1569 170.265 60.1226 170.502L16.2948 175.603C15.9806 175.641 15.6641 175.658 15.3476 175.652ZM56.1759 130.266C55.9163 130.251 55.656 130.251 55.3964 130.266L11.5588 135.367C10.6797 135.468 9.82917 135.742 9.05586 136.173C8.28255 136.603 7.60159 137.182 7.05186 137.875C6.50213 138.569 6.09441 139.364 5.85196 140.215C5.60951 141.066 5.53709 141.957 5.63884 142.836L8.59884 168.716C8.8067 170.491 9.70966 172.11 11.1098 173.22C12.5099 174.33 14.2929 174.839 16.0679 174.636L59.9055 169.535C61.6799 169.327 63.2995 168.424 64.4093 167.024C65.519 165.624 66.0283 163.841 65.8255 162.066L63.8522 144.878C63.843 144.784 63.8603 144.688 63.9021 144.603C63.9439 144.518 64.0086 144.445 64.089 144.395L74.3602 138.208L63.8522 140.29C63.786 140.304 63.7178 140.304 63.6516 140.291C63.5854 140.277 63.5227 140.25 63.4674 140.211C63.3603 140.125 63.2897 140.002 63.27 139.866L62.8458 136.196C62.6553 134.557 61.8717 133.046 60.6428 131.946C59.414 130.846 57.825 130.234 56.1759 130.226V130.266Z" fill="black"/>
<path d="M17.2914 152.564L26.8128 151.509L28.3322 165.292L20.0936 166.2L17.2914 152.564Z" fill="#2FE784"/>
<path d="M20.0934 166.693C19.9797 166.693 19.8695 166.654 19.7814 166.582C19.6933 166.51 19.6327 166.41 19.61 166.299L16.8078 152.663C16.7936 152.595 16.7939 152.525 16.8085 152.458C16.8232 152.39 16.8519 152.326 16.8929 152.27C16.9338 152.214 16.9861 152.168 17.0462 152.133C17.1064 152.099 17.1731 152.078 17.242 152.071L26.7534 151.025C26.8829 151.011 27.0125 151.049 27.1142 151.13C27.2158 151.212 27.2812 151.33 27.2961 151.459L28.8254 165.273C28.8322 165.337 28.8261 165.403 28.8075 165.465C28.7888 165.528 28.7579 165.586 28.7166 165.637C28.6753 165.687 28.6244 165.729 28.5669 165.759C28.5094 165.79 28.4463 165.809 28.3814 165.815L20.1526 166.723L20.0934 166.693ZM17.8833 152.989L20.4881 165.657L27.7894 164.858L26.3686 152.032L17.8833 152.989Z" fill="black"/>
<path d="M25.5202 164.286C26.1305 164.286 26.6253 163.791 26.6253 163.181C26.6253 162.57 26.1305 162.076 25.5202 162.076C24.9099 162.076 24.4152 162.57 24.4152 163.181C24.4152 163.791 24.9099 164.286 25.5202 164.286Z" fill="black"/>
<path d="M26.9016 152.387C26.9016 152.387 27.4837 152.229 28.9933 150.285C30.5679 147.913 31.7878 145.324 32.6144 142.599C32.7032 141.77 32.0224 138.475 32.4368 137.745C32.8512 137.014 34.8245 136.255 35.8605 137.37C36.9615 138.679 37.7268 140.237 38.0904 141.908C38.2088 143.033 37.9522 147.661 37.9522 147.661L47.4933 146.605C48.8845 146.457 49.3088 147.414 49.3384 148.499C49.2084 149.416 48.8296 150.279 48.2432 150.995C48.6282 151.137 48.9448 151.419 49.1282 151.786C49.3116 152.153 49.348 152.576 49.2298 152.969C49.1883 153.426 49.0409 153.867 48.7995 154.258C48.558 154.648 48.2291 154.977 47.8386 155.218C48.1138 155.398 48.3189 155.666 48.4195 155.979C48.5201 156.291 48.5101 156.629 48.3912 156.935C48.2189 157.67 47.7655 158.307 47.1282 158.711C47.4694 158.857 47.7394 159.131 47.8798 159.475C48.0201 159.818 48.0195 160.203 47.8781 160.546C47.4834 161.957 46.773 162.895 45.6087 163.072C44.4445 163.25 32.7821 164.483 31.7066 164.602C30.6312 164.72 30.4832 164.158 29.8714 164.019C29.2932 163.953 28.7084 163.969 28.1349 164.069L26.9016 152.387Z" fill="white"/>
<path d="M31.4599 165.046C30.9937 165.053 30.5386 164.904 30.1674 164.621C30.0662 164.531 29.9442 164.466 29.8122 164.434C29.2988 164.356 28.7765 164.356 28.2631 164.434C28.1314 164.454 27.9969 164.422 27.8882 164.345C27.8345 164.304 27.7901 164.252 27.7578 164.192C27.7255 164.133 27.7061 164.067 27.7007 164L26.4181 152.387C26.4035 152.277 26.4282 152.165 26.4877 152.071C26.5472 151.977 26.6378 151.907 26.7437 151.874C27.4854 151.341 28.1183 150.671 28.6085 149.9C30.1248 147.599 31.3074 145.094 32.121 142.461C32.1174 141.919 32.0745 141.378 31.9927 140.843C31.7954 139.136 31.6967 137.972 31.9927 137.409C32.2444 137.077 32.5634 136.801 32.929 136.6C33.2946 136.4 33.6984 136.279 34.1141 136.245C34.4918 136.187 34.8778 136.221 35.2399 136.343C35.6021 136.465 35.9298 136.671 36.1959 136.945C37.3723 138.329 38.186 139.984 38.5639 141.76C38.6626 142.678 38.5639 145.707 38.4554 147.019L47.4143 146.033C47.7049 145.983 48.0028 145.994 48.2885 146.068C48.5742 146.141 48.8411 146.273 49.0719 146.457C49.3254 146.716 49.5222 147.026 49.6496 147.366C49.777 147.705 49.8323 148.068 49.8119 148.43C49.7459 149.274 49.4489 150.083 48.9535 150.769C49.27 151.02 49.5117 151.354 49.6526 151.733C49.7934 152.112 49.8281 152.522 49.7527 152.92C49.6615 153.778 49.2618 154.574 48.6279 155.159C48.8033 155.418 48.919 155.712 48.9668 156.021C49.0145 156.33 48.9932 156.646 48.9042 156.945C48.7484 157.565 48.4279 158.131 47.9767 158.583C48.2152 158.845 48.3786 159.167 48.4498 159.514C48.5209 159.861 48.4973 160.221 48.3813 160.556C47.9077 162.273 47.0098 163.25 45.7074 163.437C44.7207 163.585 37.1431 164.424 33.4925 164.799L31.7855 164.977C31.679 165.008 31.5701 165.031 31.4599 165.046ZM29.3386 163.408C29.5703 163.4 29.8022 163.42 30.0293 163.467C30.2862 163.527 30.5259 163.645 30.7298 163.812C30.8664 163.922 31.0258 164.001 31.1965 164.042C31.3671 164.083 31.5447 164.085 31.7165 164.049L33.4234 163.862C36.7879 163.497 44.6714 162.658 45.5989 162.52C46.5263 162.382 47.1085 161.671 47.4735 160.339C47.7301 159.402 47.0986 159.136 47.0295 159.106C46.9421 159.071 46.8657 159.013 46.8084 158.939C46.7511 158.864 46.715 158.775 46.7039 158.682C46.6986 158.587 46.7198 158.492 46.7651 158.409C46.8104 158.325 46.878 158.255 46.9605 158.208C47.2129 158.042 47.43 157.827 47.5993 157.576C47.7686 157.326 47.8868 157.044 47.9471 156.748C48.1741 155.87 47.6511 155.593 47.6511 155.584C47.5699 155.544 47.5015 155.482 47.4536 155.405C47.4058 155.328 47.3804 155.24 47.3804 155.149C47.3804 155.059 47.4058 154.97 47.4536 154.894C47.5015 154.817 47.5699 154.755 47.6511 154.715C47.9678 154.51 48.2337 154.236 48.4286 153.913C48.6234 153.59 48.7422 153.226 48.7759 152.851C48.9042 151.745 48.2431 151.489 48.105 151.449C48.0261 151.428 47.954 151.387 47.8953 151.33C47.8366 151.273 47.7934 151.202 47.7695 151.124C47.7448 151.047 47.739 150.966 47.7528 150.887C47.7665 150.808 47.7994 150.733 47.8485 150.67C48.3729 150.049 48.7145 149.294 48.8351 148.489C48.8638 148.048 48.7186 147.612 48.4306 147.276C48.3027 147.183 48.1569 147.117 48.0023 147.083C47.8478 147.049 47.6879 147.048 47.5327 147.078L37.9917 148.134C37.92 148.138 37.8482 148.128 37.7805 148.105C37.7127 148.081 37.6504 148.044 37.597 147.996C37.5466 147.946 37.5073 147.886 37.4818 147.82C37.4563 147.753 37.4451 147.682 37.449 147.611C37.5378 146.023 37.6858 142.796 37.5871 141.938C37.2333 140.374 36.513 138.917 35.4855 137.685C35.322 137.526 35.1235 137.408 34.9059 137.339C34.6883 137.271 34.4576 137.254 34.2325 137.291C33.7046 137.332 33.2132 137.576 32.861 137.972C32.7575 138.915 32.7907 139.869 32.9597 140.803C33.0595 141.41 33.1024 142.024 33.0879 142.638C32.2582 145.442 31.0073 148.104 29.3781 150.532C28.8172 151.306 28.1533 152 27.4047 152.594L28.5986 163.447C28.8354 163.428 29.0919 163.408 29.3386 163.408Z" fill="black"/>
<path d="M240.061 173.59L233.006 126.131C232.892 125.351 232.624 124.601 232.219 123.924C231.815 123.247 231.28 122.657 230.647 122.187C230.014 121.717 229.294 121.376 228.529 121.184C227.764 120.993 226.968 120.954 226.188 121.07L166.623 129.95L151.932 119.097L158.099 131.292C156.779 131.754 155.663 132.663 154.942 133.861C154.222 135.059 153.942 136.471 154.152 137.853L161.207 185.322C161.322 186.101 161.591 186.85 161.996 187.526C162.401 188.202 162.936 188.791 163.569 189.26C164.202 189.729 164.921 190.069 165.686 190.26C166.45 190.451 167.245 190.489 168.024 190.373L235.059 180.408C236.624 180.162 238.028 179.308 238.965 178.03C239.902 176.753 240.296 175.157 240.061 173.59Z" fill="white"/>
<path d="M167.087 190.936C165.531 190.93 164.028 190.368 162.85 189.351C161.673 188.334 160.897 186.929 160.664 185.391L153.609 137.932C153.398 136.522 153.656 135.082 154.345 133.834C155.033 132.586 156.113 131.599 157.418 131.025L151.498 119.314C151.45 119.213 151.436 119.1 151.459 118.991C151.483 118.882 151.541 118.784 151.626 118.712C151.713 118.643 151.821 118.606 151.932 118.606C152.043 118.606 152.151 118.643 152.238 118.712L166.762 129.417L226.119 120.537C227.825 120.291 229.558 120.728 230.942 121.754C232.326 122.779 233.249 124.31 233.51 126.013L240.564 173.472C240.813 175.177 240.377 176.912 239.351 178.297C238.325 179.681 236.792 180.604 235.088 180.862L168.054 190.867C167.734 190.909 167.411 190.932 167.087 190.936ZM153.274 120.725L158.513 131.075C158.542 131.138 158.557 131.207 158.557 131.277C158.557 131.347 158.542 131.416 158.513 131.479C158.487 131.545 158.447 131.605 158.396 131.654C158.345 131.703 158.284 131.741 158.217 131.765C156.998 132.181 155.963 133.011 155.292 134.11C154.622 135.21 154.358 136.51 154.547 137.784L161.601 185.243C161.708 185.959 161.954 186.648 162.326 187.269C162.699 187.891 163.19 188.433 163.771 188.864C164.353 189.296 165.014 189.608 165.717 189.784C166.42 189.96 167.15 189.996 167.867 189.89L234.891 179.925C236.337 179.708 237.638 178.927 238.509 177.752C239.38 176.578 239.75 175.106 239.538 173.659L232.493 126.201C232.276 124.755 231.495 123.454 230.321 122.583C229.146 121.712 227.675 121.341 226.228 121.553L166.673 130.433C166.608 130.442 166.543 130.438 166.48 130.421C166.418 130.404 166.359 130.375 166.308 130.335L153.274 120.725Z" fill="black"/>
<path d="M222.656 151.489L206.702 152.318L207.915 175.415L221.709 174.695L222.656 151.489Z" fill="#2FE784"/>
<path d="M207.915 175.909C207.789 175.909 207.668 175.861 207.577 175.775C207.485 175.689 207.43 175.571 207.422 175.445L206.208 152.387C206.206 152.322 206.216 152.257 206.238 152.196C206.261 152.135 206.295 152.08 206.339 152.032C206.383 151.984 206.436 151.946 206.495 151.919C206.554 151.891 206.617 151.876 206.682 151.874L222.627 151.035C222.695 151.03 222.764 151.04 222.829 151.063C222.894 151.087 222.952 151.125 223.002 151.173C223.098 151.274 223.151 151.408 223.149 151.548L222.163 174.754C222.16 174.878 222.111 174.995 222.025 175.083C221.939 175.171 221.822 175.223 221.699 175.228L207.886 175.948L207.915 175.909ZM207.225 152.791L208.379 174.902L221.206 174.222L222.104 152.012L207.225 152.791Z" fill="black"/>
<path d="M211.98 173.028C212.994 173.028 213.816 172.206 213.816 171.193C213.816 170.179 212.994 169.357 211.98 169.357C210.967 169.357 210.145 170.179 210.145 171.193C210.145 172.206 210.967 173.028 211.98 173.028Z" fill="black"/>
<path d="M206.781 153.758C206.781 153.758 205.794 153.66 202.775 150.867C199.756 148.075 195.128 140.527 194.753 139.185C194.378 137.843 194.615 132.278 193.767 131.154C192.918 130.029 189.435 129.338 188.034 131.45C186.573 133.9 185.733 136.671 185.587 139.521C185.686 141.405 187.363 148.953 187.363 148.953L171.379 149.782C169.041 149.91 168.597 151.597 168.844 153.393C169.09 155.189 171.31 157.212 171.31 157.212C171.31 157.212 169.396 158.06 170.136 160.665C170.327 161.405 170.688 162.091 171.19 162.668C171.691 163.245 172.32 163.698 173.027 163.99C172.625 164.358 172.362 164.852 172.281 165.391C172.2 165.93 172.307 166.48 172.583 166.95C173.061 168.117 173.979 169.049 175.138 169.545C174.617 169.874 174.247 170.396 174.109 170.996C173.97 171.596 174.074 172.227 174.398 172.752C175.385 174.972 176.845 176.333 178.819 176.304C180.792 176.274 200.229 175.189 202.114 175.09C203.998 174.991 204.008 174.014 204.965 173.62C205.9 173.358 206.866 173.228 207.837 173.235L206.781 153.758Z" fill="white"/>
<path d="M178.72 176.807C176.697 176.807 175.079 175.514 173.905 172.969C173.618 172.449 173.493 171.855 173.548 171.264C173.602 170.673 173.833 170.112 174.211 169.653C173.266 169.057 172.526 168.186 172.09 167.157C171.851 166.688 171.734 166.166 171.752 165.64C171.769 165.114 171.919 164.6 172.188 164.148C171.56 163.786 171.01 163.304 170.569 162.728C170.129 162.152 169.807 161.494 169.623 160.793C169.384 160.166 169.339 159.482 169.494 158.829C169.649 158.176 169.996 157.585 170.491 157.133C169.436 156.138 168.684 154.866 168.321 153.462C168.201 152.926 168.194 152.371 168.301 151.833C168.408 151.294 168.627 150.784 168.942 150.334C169.239 150.001 169.604 149.735 170.013 149.555C170.421 149.375 170.864 149.284 171.31 149.289L186.722 148.489C186.317 146.684 185.133 141.158 185.054 139.54C185.192 136.584 186.064 133.709 187.59 131.173C187.924 130.696 188.366 130.304 188.881 130.032C189.395 129.759 189.968 129.612 190.55 129.605C191.192 129.552 191.838 129.635 192.447 129.847C193.055 130.06 193.612 130.397 194.082 130.838C194.684 131.588 194.832 133.571 194.961 136.294C194.971 137.22 195.051 138.143 195.197 139.057C195.523 140.201 200.052 147.7 203.091 150.502C205.834 153.038 206.801 153.255 206.84 153.265C206.953 153.279 207.058 153.334 207.134 153.419C207.21 153.504 207.253 153.614 207.254 153.729L208.241 173.225C208.245 173.292 208.235 173.36 208.211 173.423C208.188 173.485 208.151 173.543 208.103 173.59C208.009 173.685 207.881 173.738 207.748 173.738C206.844 173.723 205.943 173.843 205.074 174.093C204.83 174.206 204.612 174.367 204.433 174.567C204.128 174.887 203.76 175.14 203.353 175.31C202.945 175.48 202.506 175.563 202.065 175.554L198.937 175.721C192.898 176.057 180.309 176.708 178.74 176.767L178.72 176.807ZM190.836 130.591H190.629C190.195 130.59 189.768 130.692 189.382 130.89C188.995 131.087 188.662 131.374 188.409 131.726C187.011 134.088 186.199 136.751 186.041 139.491C186.13 141.316 187.787 148.766 187.807 148.845C187.822 148.914 187.822 148.987 187.806 149.056C187.791 149.126 187.761 149.192 187.718 149.249C187.675 149.306 187.62 149.353 187.557 149.387C187.494 149.421 187.425 149.441 187.353 149.446L171.369 150.275C171.059 150.266 170.751 150.322 170.463 150.439C170.176 150.556 169.917 150.732 169.702 150.956C169.479 151.313 169.333 151.712 169.272 152.128C169.21 152.544 169.236 152.968 169.347 153.373C169.524 154.705 171.073 156.333 171.656 156.886C171.715 156.942 171.761 157.011 171.788 157.089C171.816 157.166 171.824 157.249 171.813 157.33C171.799 157.412 171.764 157.489 171.713 157.555C171.661 157.62 171.594 157.672 171.517 157.705C171.369 157.774 170.018 158.465 170.619 160.566C170.791 161.225 171.113 161.835 171.56 162.348C172.007 162.862 172.566 163.265 173.195 163.526C173.282 163.553 173.359 163.604 173.417 163.675C173.475 163.745 173.511 163.83 173.52 163.921C173.535 164.009 173.525 164.1 173.492 164.184C173.459 164.267 173.404 164.34 173.333 164.394C173.022 164.699 172.824 165.101 172.772 165.533C172.72 165.965 172.817 166.403 173.047 166.772C173.463 167.814 174.276 168.648 175.306 169.091C175.396 169.122 175.476 169.178 175.534 169.254C175.593 169.329 175.629 169.419 175.637 169.514C175.646 169.609 175.626 169.705 175.581 169.789C175.537 169.873 175.468 169.943 175.385 169.989C175.181 170.123 175.004 170.295 174.867 170.497C174.729 170.699 174.633 170.926 174.583 171.166C174.534 171.405 174.532 171.652 174.578 171.892C174.625 172.132 174.718 172.36 174.852 172.564C175.839 174.784 177.181 175.879 178.799 175.83C180.417 175.781 192.918 175.119 198.957 174.784L202.074 174.616C202.403 174.626 202.729 174.564 203.031 174.435C203.332 174.305 203.602 174.111 203.821 173.866C204.1 173.575 204.436 173.343 204.808 173.186C205.627 172.922 206.482 172.783 207.343 172.771L206.357 154.123C204.92 153.374 203.614 152.398 202.489 151.232C199.43 148.41 194.724 140.754 194.329 139.323C194.157 138.346 194.064 137.356 194.053 136.363C193.974 134.637 193.846 132.032 193.392 131.43C192.681 130.83 191.765 130.529 190.836 130.591Z" fill="black"/>
<path d="M235.956 51.4112L186.031 40.0843C185.193 39.8932 184.325 39.8692 183.477 40.0138C182.63 40.1583 181.819 40.4686 181.091 40.9268C180.364 41.385 179.733 41.9821 179.237 42.6841C178.74 43.386 178.387 44.179 178.197 45.0176L172.168 71.5886L159.273 76.5219L170.846 77.4296L170.402 79.403C170.21 80.2414 170.185 81.1096 170.329 81.9577C170.473 82.8058 170.783 83.6171 171.241 84.345C171.7 85.0729 172.297 85.7032 173 86.1995C173.703 86.6958 174.496 87.0484 175.336 87.2371L225.261 98.564C226.954 98.9473 228.73 98.6431 230.199 97.7181C231.667 96.7931 232.709 95.3231 233.095 93.6307L240.89 59.2454C241.273 57.5524 240.969 55.7765 240.044 54.3077C239.119 52.8388 237.649 51.7971 235.956 51.4112Z" fill="white"/>
<path d="M226.721 99.2251C226.193 99.2245 225.667 99.165 225.153 99.0475L175.267 87.7206C173.446 87.3064 171.864 86.1863 170.868 84.6063C169.873 83.0262 169.546 81.1157 169.958 79.2944L170.274 77.8737L159.273 77.0153C159.208 77.0243 159.142 77.0205 159.079 77.0041C159.015 76.9877 158.956 76.959 158.904 76.9196C158.851 76.8802 158.808 76.8309 158.774 76.7745C158.741 76.7181 158.719 76.6558 158.71 76.591C158.701 76.5262 158.705 76.4603 158.722 76.3969C158.738 76.3336 158.767 76.2741 158.806 76.2219C158.845 76.1697 158.895 76.1257 158.951 76.0926C159.007 76.0594 159.07 76.0377 159.135 76.0286L171.784 71.2038L177.753 44.8795C178.176 43.0786 179.291 41.5165 180.857 40.5307C182.422 39.5448 184.313 39.2144 186.12 39.6107L236.045 50.9278C237.865 51.3443 239.445 52.4649 240.44 54.0443C241.435 55.6236 241.764 57.5329 241.354 59.3539L233.559 93.7392C233.202 95.3024 232.324 96.6975 231.069 97.6946C229.813 98.6918 228.255 99.2316 226.652 99.2251H226.721ZM161.453 76.1963L170.846 76.9363C170.917 76.9432 170.985 76.9647 171.046 76.9995C171.107 77.0343 171.16 77.0817 171.202 77.1384C171.244 77.1952 171.274 77.2601 171.289 77.3289C171.304 77.3978 171.305 77.4691 171.29 77.5382L170.837 79.5115C170.486 81.0762 170.77 82.716 171.626 84.0717C172.482 85.4274 173.841 86.3883 175.405 86.7438L225.37 98.12C226.144 98.2966 226.946 98.3188 227.73 98.1852C228.513 98.0517 229.263 97.765 229.935 97.3417C230.608 96.9183 231.19 96.3666 231.65 95.718C232.109 95.0694 232.436 94.3367 232.612 93.5617L240.387 59.1368C240.738 57.571 240.454 55.9299 239.598 54.5726C238.742 53.2154 237.383 52.2525 235.818 51.8947L185.923 40.5678C185.147 40.3913 184.344 40.3696 183.56 40.5038C182.777 40.638 182.027 40.9254 181.354 41.3498C180.681 41.7741 180.099 42.3269 179.64 42.9766C179.181 43.6263 178.855 44.3602 178.681 45.1361L172.652 71.707C172.633 71.7851 172.595 71.8574 172.542 71.9176C172.489 71.9778 172.421 72.024 172.346 72.0523L161.453 76.1963Z" fill="black"/>
<path d="M226.06 70.3553L213.313 68.599L210.757 87.0595L221.788 88.579L226.06 70.3553Z" fill="#2FE784"/>
<path d="M221.788 89.0723H221.719L210.688 87.5529C210.624 87.5432 210.562 87.521 210.506 87.4875C210.451 87.454 210.402 87.4099 210.364 87.3577C210.326 87.3054 210.298 87.2461 210.282 87.1831C210.267 87.1201 210.264 87.0546 210.273 86.9905L212.819 68.5201C212.839 68.3917 212.907 68.2759 213.01 68.1969C213.113 68.1178 213.243 68.0816 213.372 68.0958L226.119 69.8619C226.188 69.8702 226.255 69.893 226.314 69.9287C226.374 69.9644 226.425 70.0123 226.465 70.0691C226.503 70.1267 226.528 70.1914 226.54 70.2593C226.552 70.3272 226.55 70.3968 226.534 70.4638L222.271 88.6875C222.247 88.7971 222.185 88.895 222.097 88.965C222.009 89.035 221.9 89.0728 221.788 89.0723ZM211.319 86.6353L221.413 88.0363L225.448 70.7697L213.747 69.1515L211.319 86.6353Z" fill="black"/>
<path d="M214.615 85.8064C215.432 85.8064 216.095 85.1438 216.095 84.3264C216.095 83.5091 215.432 82.8464 214.615 82.8464C213.798 82.8464 213.135 83.5091 213.135 84.3264C213.135 85.1438 213.798 85.8064 214.615 85.8064Z" fill="black"/>
<path d="M213.145 69.7435C213.145 69.7435 212.385 69.5165 210.412 66.8427C208.386 63.5999 206.849 60.0757 205.853 56.384C205.755 55.2691 206.84 50.8685 206.258 49.872C205.676 48.8755 203.11 47.7803 201.68 49.2405C200.151 50.9561 199.064 53.0187 198.512 55.2493C198.305 56.7589 198.512 62.9848 198.512 62.9848L185.735 61.2285C183.86 60.9621 183.259 62.2152 183.18 63.6952C183.101 65.1752 184.551 67.0893 184.551 67.0893C184.031 67.254 183.592 67.6083 183.322 68.0818C183.051 68.5553 182.969 69.1133 183.091 69.6448C183.129 70.2611 183.312 70.8598 183.624 71.3927C183.936 71.9257 184.368 72.378 184.887 72.7133C184.508 72.9425 184.22 73.2958 184.073 73.7132C183.925 74.1306 183.927 74.5862 184.078 75.0024C184.281 75.996 184.866 76.8706 185.706 77.4395C185.244 77.6224 184.873 77.9792 184.672 78.4332C184.47 78.8871 184.456 79.4019 184.63 79.8667C185.104 81.7808 186.031 83.0733 187.59 83.3496C189.149 83.6259 204.709 85.7077 206.218 85.9149C207.728 86.1221 207.876 85.3624 208.695 85.1947C209.473 85.1283 210.257 85.1714 211.023 85.3229L213.145 69.7435Z" fill="white"/>
<path d="M206.672 86.4478C206.488 86.4615 206.304 86.4615 206.12 86.4478L203.801 86.1321C198.868 85.471 188.735 84.0995 187.472 83.8726C185.814 83.5766 184.679 82.2841 184.127 80.0246C183.976 79.5704 183.961 79.0818 184.083 78.6191C184.206 78.1563 184.461 77.7395 184.818 77.4198C184.189 76.8006 183.754 76.0122 183.565 75.1505C183.451 74.7435 183.436 74.3153 183.522 73.9016C183.608 73.4878 183.792 73.1007 184.058 72.7726C183.194 71.9819 182.665 70.8914 182.578 69.7238C182.486 69.1904 182.551 68.6419 182.765 68.1446C182.979 67.6474 183.332 67.2226 183.782 66.9217C183.118 65.9768 182.729 64.8671 182.657 63.715C182.638 63.259 182.716 62.8042 182.887 62.3807C183.057 61.9572 183.315 61.5746 183.643 61.2582C183.939 61.0317 184.279 60.8712 184.642 60.7878C185.004 60.7044 185.381 60.6999 185.745 60.7747L197.96 62.4225C197.96 60.8241 197.832 56.5025 198.009 55.1803C198.571 52.845 199.703 50.6856 201.305 48.8953C201.654 48.5545 202.08 48.3024 202.547 48.1599C203.014 48.0174 203.508 47.9888 203.988 48.0763C204.52 48.1338 205.034 48.3023 205.496 48.5708C205.958 48.8394 206.359 49.202 206.672 49.6353C207.057 50.3457 206.87 51.8849 206.554 54.1443C206.426 54.8714 206.35 55.6067 206.327 56.3446C207.315 59.9423 208.817 63.3785 210.787 66.5467C212.543 68.9246 213.263 69.2601 213.293 69.2699C213.401 69.3061 213.492 69.3797 213.55 69.4776C213.608 69.5754 213.629 69.6908 213.608 69.8027L211.458 85.3822C211.449 85.4486 211.427 85.5126 211.393 85.5702C211.359 85.6279 211.314 85.678 211.26 85.7177C211.205 85.757 211.142 85.7844 211.076 85.798C211.01 85.8116 210.942 85.8111 210.875 85.7966C210.172 85.6494 209.451 85.6062 208.734 85.6683C208.537 85.7183 208.352 85.809 208.192 85.9347C207.753 86.2644 207.221 86.4443 206.672 86.4478ZM185.242 61.6825C184.888 61.658 184.537 61.7632 184.255 61.9785C183.823 62.4557 183.594 63.0817 183.614 63.7249C183.745 64.8459 184.186 65.9083 184.887 66.7934C184.936 66.8608 184.968 66.9391 184.98 67.0217C184.992 67.1042 184.984 67.1884 184.956 67.267C184.927 67.3439 184.88 67.4124 184.818 67.4659C184.756 67.5194 184.681 67.5562 184.6 67.5729C184.482 67.5729 183.377 67.9281 183.525 69.6054C183.562 70.14 183.72 70.6593 183.986 71.1242C184.253 71.5891 184.621 71.9874 185.064 72.2891C185.143 72.3314 185.208 72.3941 185.254 72.4705C185.299 72.5469 185.323 72.6343 185.323 72.7233C185.323 72.8123 185.299 72.8996 185.254 72.976C185.208 73.0525 185.143 73.1151 185.064 73.1574C184.985 73.1574 184.245 73.631 184.531 74.8939C184.705 75.7539 185.203 76.5138 185.923 77.0153C186.005 77.0616 186.071 77.1315 186.113 77.2159C186.156 77.3003 186.172 77.3953 186.159 77.4889C186.15 77.5817 186.114 77.6698 186.057 77.7432C185.999 77.8165 185.922 77.872 185.834 77.9033C185.663 77.9744 185.508 78.0787 185.377 78.2102C185.247 78.3417 185.144 78.4978 185.074 78.6694C185.004 78.8409 184.969 79.0246 184.971 79.2098C184.973 79.3951 185.011 79.5781 185.084 79.7483C185.548 81.623 186.386 82.6393 187.649 82.8662C188.912 83.0931 199.045 84.4547 203.929 85.1158L206.258 85.4315C206.503 85.489 206.758 85.4905 207.004 85.4358C207.25 85.3811 207.481 85.2718 207.679 85.1158C207.949 84.9236 208.254 84.7861 208.577 84.7113C209.231 84.6152 209.896 84.6152 210.55 84.7113L212.582 69.9113C211.577 69.095 210.702 68.1301 209.987 67.0499C207.913 63.731 206.34 60.1236 205.32 56.3446C205.328 55.5302 205.407 54.718 205.557 53.9174C205.735 52.6347 206.041 50.4937 205.784 49.9707C205.29 49.3741 204.581 48.9951 203.811 48.915C203.485 48.8525 203.148 48.8681 202.829 48.9607C202.51 49.0534 202.218 49.2203 201.976 49.4478C200.524 51.09 199.485 53.0554 198.947 55.1803C198.739 56.6307 198.947 62.7777 198.947 62.8369C198.947 62.9092 198.933 62.9809 198.904 63.0472C198.875 63.1135 198.832 63.173 198.779 63.2217C198.725 63.2671 198.662 63.301 198.594 63.3214C198.526 63.3417 198.455 63.3481 198.384 63.3401L185.607 61.5739L185.242 61.6825Z" fill="black"/>
</svg>
