<svg width="20" height="20" viewBox="0 0 20 20" fill="none" xmlns="http://www.w3.org/2000/svg">
<path fill-rule="evenodd" clip-rule="evenodd" d="M16.4814 18.3337H3.51848C2.49573 18.3337 1.66663 17.5046 1.66663 16.4818V3.51884C1.66663 2.49609 2.49573 1.66699 3.51848 1.66699H16.4814C17.5042 1.66699 18.3333 2.49609 18.3333 3.51884V16.4818C18.3333 17.5046 17.5042 18.3337 16.4814 18.3337ZM13.4362 15.8337H15.8333V10.9093C15.8333 8.82569 14.6522 7.81826 13.0025 7.81826C11.352 7.81826 10.6573 9.10355 10.6573 9.10355V8.05588H8.34718V15.8337H10.6573V11.7508C10.6573 10.6568 11.1609 10.0058 12.1248 10.0058C13.0108 10.0058 13.4362 10.6314 13.4362 11.7508V15.8337ZM4.16663 5.60222C4.16663 6.3948 4.80427 7.03744 5.59116 7.03744C6.37805 7.03744 7.01531 6.3948 7.01531 5.60222C7.01531 4.80964 6.37805 4.16699 5.59116 4.16699C4.80427 4.16699 4.16663 4.80964 4.16663 5.60222ZM6.8072 15.8337H4.39829V8.05588H6.8072V15.8337Z" fill="white" fill-opacity="0.6"/>
</svg>
