<svg width="48" height="48" viewBox="0 0 48 48" fill="none" xmlns="http://www.w3.org/2000/svg">
<path d="M10.5 8H37.5C40.9661 8 43.7985 10.7129 43.9897 14.1312L44 14.5V33.5C44 36.9661 41.2871 39.7985 37.8688 39.9897L37.5 40H10.5C7.03394 40 4.20151 37.2871 4.01029 33.8688L4 33.5V14.5C4 11.0339 6.71291 8.20151 10.1312 8.01029L10.5 8H37.5H10.5ZM41 18.746L24.6986 27.3274C24.3238 27.5247 23.8863 27.5528 23.4935 27.4119L23.3014 27.3274L7 18.748V33.5C7 35.3363 8.41422 36.8424 10.2129 36.9884L10.5 37H37.5C39.3363 37 40.8424 35.5858 40.9884 33.7871L41 33.5V18.746ZM37.5 11H10.5C8.66365 11 7.15762 12.4142 7.0116 14.2129L7 14.5V15.358L24 24.3049L41 15.356V14.5C41 12.6637 39.5858 11.1576 37.7871 11.0116L37.5 11Z" fill="white"/>
</svg>
