<svg width="296" height="218" viewBox="0 0 296 218" fill="none" xmlns="http://www.w3.org/2000/svg">
<path d="M145.293 202.094C75.1767 202.094 18.1301 162.621 18.1301 114.116C18.1301 65.6111 75.1767 26.1279 145.293 26.1279C215.41 26.1279 272.466 65.6515 272.466 114.116C272.466 129.105 266.911 143.902 256.417 156.926C257.79 175.946 259.336 198.707 259.356 198.939C259.365 199.053 259.333 199.167 259.267 199.261C259.201 199.355 259.103 199.423 258.992 199.453C258.882 199.485 258.763 199.479 258.657 199.435C258.55 199.391 258.462 199.312 258.407 199.211L243.115 170.342C218.854 190.522 183.25 202.094 145.293 202.094ZM145.293 27.1359C75.7322 27.1359 19.1401 66.1555 19.1401 114.116C19.1401 162.076 75.7019 201.086 145.293 201.086C183.26 201.086 218.854 189.454 242.943 169.163C243.064 169.071 243.217 169.031 243.367 169.052C243.442 169.067 243.512 169.099 243.573 169.144C243.634 169.189 243.684 169.247 243.721 169.314L258.184 196.691C257.75 190.32 256.518 172.318 255.387 156.855C255.376 156.727 255.416 156.601 255.498 156.502C265.941 143.62 271.456 128.984 271.456 114.166C271.456 66.1555 214.864 27.1359 145.293 27.1359Z" fill="white" fill-opacity="0.16"/>
<path d="M60.6221 21.9141C60.6221 21.9141 62.9654 17.5998 66.6823 11.6426C66.6823 11.6426 78.6209 20.5432 78.5199 20.0493C78.4189 19.5553 60.6221 21.9141 60.6221 21.9141Z" fill="#323232"/>
<path d="M60.6221 22.4183C60.5343 22.4185 60.448 22.3959 60.3716 22.3527C60.2953 22.3095 60.2315 22.2472 60.1867 22.1719C60.1418 22.0966 60.1174 22.0109 60.1158 21.9233C60.1142 21.8357 60.1356 21.7492 60.1777 21.6724C60.1777 21.6724 62.5715 17.2775 66.2884 11.3707C66.3666 11.2565 66.486 11.177 66.6217 11.1489C66.6901 11.1355 66.7605 11.1367 66.8284 11.1523C66.8963 11.1679 66.9601 11.1977 67.0156 11.2396C71.1568 14.3241 77.9745 19.3036 78.6714 19.5858C79.0047 19.6665 79.0249 19.7975 79.0552 19.9487C79.0745 20.0522 79.0628 20.1591 79.0214 20.2559C78.9801 20.3527 78.911 20.4352 78.8229 20.493C78.7219 20.5535 78.631 20.614 78.3381 20.493C77.2169 20.3418 66.9651 21.5817 60.6827 22.4183H60.6221ZM66.854 12.3383C64.2683 16.461 62.3796 19.7572 61.5412 21.249C70.1972 20.1201 74.5404 19.6463 76.6917 19.5254C75.1666 18.4972 72.2779 16.4106 66.854 12.3686V12.3383Z" fill="#2FE784"/>
<path d="M218.803 201.691L224.762 191.772L216.521 184.333L218.803 201.691Z" fill="#231F20"/>
<path d="M218.803 202.195H218.682C218.578 202.176 218.483 202.123 218.412 202.045C218.341 201.966 218.297 201.867 218.288 201.762L215.995 184.414C215.982 184.311 216.001 184.206 216.05 184.114C216.099 184.022 216.175 183.947 216.268 183.9C216.358 183.851 216.461 183.831 216.562 183.844C216.664 183.856 216.759 183.901 216.834 183.971L225.086 191.41C225.172 191.488 225.229 191.595 225.245 191.711C225.262 191.827 225.238 191.945 225.177 192.045L219.217 201.963C219.173 202.033 219.112 202.09 219.039 202.131C218.967 202.171 218.886 202.193 218.803 202.195ZM217.197 185.604L219.116 200.169L224.116 191.853L217.197 185.604Z" fill="#231F20"/>
<path d="M214.945 203.747L118.992 217.385C117.024 217.641 115.03 217.19 113.365 216.113C111.699 215.037 110.472 213.405 109.902 211.508L60.2787 26.1678C59.2687 22.3274 61.723 18.9506 65.7935 18.6179L163.625 10.7455C165.56 10.6519 167.471 11.2089 169.051 12.3274C170.632 13.4458 171.79 15.061 172.342 16.9144L219.955 196.126C220.202 196.958 220.264 197.834 220.138 198.692C220.011 199.55 219.698 200.371 219.222 201.096C218.745 201.822 218.115 202.435 217.376 202.893C216.638 203.35 215.808 203.642 214.945 203.747Z" fill="#323232"/>
<path d="M117.931 218C116.023 217.992 114.167 217.373 112.638 216.233C111.109 215.093 109.987 213.494 109.437 211.67L59.7939 26.3393C59.5218 25.4249 59.4586 24.4613 59.6089 23.5193C59.7593 22.5773 60.1193 21.6809 60.6626 20.8961C61.2495 20.0956 62.0067 19.4347 62.8799 18.9607C63.753 18.4866 64.7204 18.2113 65.7127 18.1544L163.585 10.2114C165.639 10.1099 167.667 10.701 169.343 11.8894C171.02 13.0779 172.246 14.7946 172.827 16.7634L220.439 195.965C220.703 196.878 220.766 197.836 220.625 198.776C220.484 199.715 220.141 200.613 219.621 201.408C219.103 202.183 218.423 202.837 217.628 203.326C216.833 203.815 215.942 204.127 215.016 204.241L119.063 217.889C118.688 217.95 118.31 217.987 117.931 218ZM164.221 11.2194H163.666L65.8339 19.0918C64.9813 19.1314 64.1483 19.36 63.3953 19.761C62.6423 20.1621 61.9883 20.7254 61.4807 21.4102C61.0274 22.0774 60.728 22.8366 60.604 23.6332C60.48 24.4297 60.5345 25.2438 60.7636 26.0168L110.417 211.407C110.952 213.186 112.103 214.717 113.665 215.726C115.226 216.736 117.096 217.16 118.941 216.921L214.894 203.273C215.679 203.176 216.434 202.913 217.108 202.501C217.783 202.089 218.36 201.538 218.803 200.884C219.241 200.206 219.528 199.442 219.646 198.645C219.765 197.847 219.712 197.033 219.49 196.257L171.847 17.0456C171.358 15.3938 170.356 13.9397 168.985 12.8926C167.615 11.8456 165.947 11.2597 164.221 11.2194Z" fill="#231F20"/>
<path d="M221.187 193.545L125.234 207.183C123.266 207.443 121.269 206.994 119.603 205.917C117.937 204.84 116.71 203.205 116.144 201.307L66.5207 15.9363C65.5107 12.0958 67.965 8.71901 72.0355 8.38637L169.877 0.51392C171.811 0.420885 173.72 0.978273 175.299 2.09679C176.877 3.21531 178.034 4.83023 178.584 6.68286L226.197 185.895C226.449 186.728 226.516 187.607 226.392 188.469C226.267 189.331 225.956 190.156 225.478 190.885C225.001 191.614 224.369 192.23 223.628 192.69C222.887 193.149 222.053 193.441 221.187 193.545Z" fill="white"/>
<path d="M124.173 207.779C122.265 207.769 120.41 207.149 118.881 206.01C117.352 204.871 116.23 203.272 115.679 201.449L66.0359 16.0681C65.7659 15.1534 65.7039 14.1902 65.8541 13.2486C66.0044 12.3069 66.3632 11.4106 66.9045 10.6249C67.493 9.82592 68.2505 9.16607 69.1233 8.69221C69.9962 8.21836 70.9628 7.94213 71.9547 7.88315L169.796 0.0107008C171.849 -0.088447 173.874 0.503676 175.549 1.69195C177.223 2.88022 178.448 4.59566 179.028 6.56268L226.651 185.764C226.912 186.677 226.974 187.635 226.833 188.574C226.691 189.513 226.351 190.411 225.833 191.207C225.312 191.982 224.631 192.637 223.834 193.125C223.038 193.614 222.145 193.926 221.217 194.04L125.264 207.688C124.903 207.741 124.538 207.771 124.173 207.779ZM170.463 0.998537H169.918L72.0759 8.87099C71.2247 8.91064 70.3932 9.13934 69.6418 9.54041C68.8904 9.94149 68.2382 10.5048 67.7327 11.1894C67.2752 11.8546 66.9724 12.6135 66.8465 13.4105C66.7207 14.2075 66.775 15.0225 67.0055 15.7959L116.669 201.177C117.206 202.954 118.357 204.483 119.918 205.493C121.479 206.503 123.349 206.927 125.193 206.69L221.146 193.042C221.931 192.946 222.686 192.682 223.36 192.27C224.035 191.858 224.613 191.307 225.055 190.653C225.495 189.976 225.784 189.212 225.902 188.414C226.021 187.616 225.966 186.802 225.742 186.026L178.099 6.81468C177.606 5.16397 176.601 3.71173 175.229 2.6667C173.857 1.62166 172.189 1.03763 170.463 0.998537Z" fill="#231F20"/>
<path d="M75.9948 28.1343L176.16 19.4756L214.591 164.083L115.901 177.177L75.9948 28.1343Z" fill="#2FE784"/>
<path d="M181.533 192.468L162.817 195.099C161.628 195.245 160.425 194.964 159.424 194.307C158.423 193.649 157.689 192.658 157.353 191.51L155.494 184.595C155.339 184.067 155.302 183.511 155.386 182.967C155.47 182.423 155.672 181.904 155.98 181.447C156.288 180.99 156.692 180.606 157.165 180.323C157.638 180.039 158.168 179.863 158.716 179.807L177.473 177.267C178.651 177.139 179.837 177.428 180.823 178.084C181.809 178.74 182.532 179.721 182.866 180.856L184.705 187.76C184.852 188.28 184.884 188.825 184.798 189.358C184.713 189.891 184.513 190.399 184.211 190.847C183.909 191.295 183.513 191.672 183.051 191.952C182.588 192.231 182.071 192.408 181.533 192.468Z" fill="white"/>
<path d="M162.181 195.683C160.978 195.671 159.812 195.273 158.855 194.546C157.897 193.82 157.201 192.804 156.868 191.651L155.05 184.676C154.881 184.082 154.842 183.458 154.936 182.847C155.03 182.237 155.255 181.654 155.595 181.138C155.946 180.618 156.406 180.18 156.943 179.854C157.481 179.529 158.082 179.324 158.706 179.253L177.452 176.723C178.752 176.576 180.061 176.892 181.15 177.615C182.238 178.338 183.036 179.421 183.402 180.674L185.25 187.579C185.423 188.171 185.465 188.794 185.371 189.404C185.278 190.014 185.052 190.597 184.709 191.11C184.367 191.624 183.916 192.057 183.388 192.378C182.86 192.7 182.269 192.902 181.654 192.972L162.938 195.592C162.689 195.645 162.436 195.676 162.181 195.683ZM178.079 177.721C177.897 177.706 177.715 177.706 177.533 177.721L158.787 180.251C158.307 180.306 157.844 180.463 157.429 180.712C157.014 180.961 156.658 181.295 156.383 181.692C156.123 182.09 155.952 182.539 155.882 183.009C155.812 183.479 155.845 183.958 155.979 184.414L157.838 191.379C158.143 192.408 158.803 193.295 159.702 193.884C160.601 194.473 161.679 194.724 162.746 194.595L181.462 191.974C181.935 191.919 182.39 191.763 182.796 191.516C183.203 191.269 183.55 190.937 183.816 190.542C184.076 190.149 184.248 189.703 184.317 189.236C184.387 188.77 184.354 188.293 184.22 187.841L182.381 180.936C182.107 180.006 181.541 179.188 180.767 178.602C179.993 178.016 179.05 177.693 178.079 177.68V177.721Z" fill="#E6E7E8"/>
<path d="M105.629 15.706C105.495 15.706 105.367 15.6529 105.272 15.5584C105.177 15.4639 105.124 15.3357 105.124 15.202C105.124 15.0683 105.177 14.9401 105.272 14.8456C105.367 14.7511 105.495 14.698 105.629 14.698L134.243 12.3191C134.309 12.3122 134.376 12.3185 134.439 12.3377C134.502 12.3569 134.561 12.3886 134.612 12.4309C134.663 12.4732 134.705 12.5252 134.735 12.5839C134.766 12.6427 134.784 12.7069 134.789 12.7727C134.794 12.839 134.787 12.9056 134.766 12.9689C134.746 13.0322 134.713 13.0908 134.67 13.1414C134.627 13.1919 134.574 13.2335 134.515 13.2637C134.455 13.2938 134.391 13.312 134.324 13.3171L105.71 15.706H105.629Z" fill="#E6E7E8"/>
<path d="M138.213 12.9835C138.079 12.9835 137.95 12.9304 137.856 12.8359C137.761 12.7414 137.708 12.6132 137.708 12.4795C137.708 12.3459 137.761 12.2177 137.856 12.1232C137.95 12.0286 138.079 11.9755 138.213 11.9755L142.01 11.653C142.144 11.6423 142.277 11.6851 142.379 11.7721C142.482 11.859 142.545 11.983 142.556 12.1167C142.567 12.2503 142.524 12.3828 142.437 12.4848C142.349 12.5869 142.225 12.6503 142.091 12.661L138.304 12.9735L138.213 12.9835Z" fill="#E6E7E8"/>
<path d="M111.831 97.9077C111.726 97.9072 111.624 97.8756 111.538 97.817C111.431 97.7399 111.358 97.6248 111.333 97.4954C111.309 97.366 111.335 97.2321 111.407 97.1215L156.727 31.0876C156.802 30.9767 156.918 30.9 157.049 30.8745C157.181 30.849 157.317 30.8767 157.429 30.9515C157.54 31.0264 157.617 31.1423 157.642 31.2736C157.668 31.405 157.64 31.5412 157.565 31.6521L112.245 97.686C112.198 97.7525 112.136 97.8071 112.064 97.8456C111.992 97.8841 111.912 97.9054 111.831 97.9077Z" fill="white"/>
<path d="M148.636 153.721C148.532 153.72 148.43 153.689 148.343 153.63C148.289 153.592 148.242 153.543 148.207 153.487C148.171 153.431 148.147 153.368 148.135 153.302C148.124 153.237 148.126 153.17 148.141 153.105C148.156 153.04 148.183 152.978 148.222 152.924L175.493 113.824C175.572 113.722 175.688 113.654 175.816 113.635C175.944 113.615 176.074 113.645 176.18 113.719C176.287 113.793 176.361 113.904 176.387 114.031C176.413 114.157 176.389 114.289 176.321 114.399L149.05 153.509C149.003 153.574 148.941 153.627 148.869 153.664C148.797 153.701 148.717 153.72 148.636 153.721Z" fill="white"/>
<path d="M141.162 116.677C141.061 116.675 140.963 116.644 140.879 116.586C140.824 116.55 140.777 116.503 140.74 116.448C140.704 116.393 140.679 116.331 140.667 116.266C140.654 116.201 140.655 116.135 140.669 116.07C140.683 116.006 140.71 115.945 140.748 115.891L151.404 100.075C151.478 99.9649 151.593 99.8881 151.723 99.8616C151.854 99.8352 151.989 99.8613 152.101 99.9342C152.212 100.01 152.289 100.126 152.316 100.258C152.342 100.39 152.316 100.527 152.242 100.64L141.586 116.455C141.538 116.523 141.475 116.579 141.401 116.617C141.327 116.656 141.245 116.676 141.162 116.677Z" fill="white"/>
<path d="M106.861 72.3651L56.6022 76.4777C55.7035 76.4833 54.8309 76.1766 54.1343 75.61C53.4376 75.0435 52.9603 74.2526 52.7843 73.3731L45.3808 39.706C45.2578 39.3214 45.2234 38.9141 45.2802 38.5144C45.337 38.1147 45.4835 37.733 45.7088 37.3977C45.9341 37.0624 46.2323 36.7822 46.5813 36.578C46.9302 36.3737 47.3208 36.2508 47.724 36.2183L97.8519 33.1943C98.7117 33.2163 99.5391 33.5266 100.201 34.0752C100.862 34.6238 101.319 35.3788 101.498 36.2183L109.023 68.8673C109.437 70.6918 108.467 72.234 106.861 72.3651Z" fill="white"/>
<path d="M98.0135 33.1939C98.8429 33.257 99.6299 33.5853 100.258 34.13C100.885 34.6748 101.32 35.4069 101.498 36.2178L109.023 68.8668C109.437 70.6611 108.467 72.2235 106.861 72.3545L56.6022 76.4671H56.3699C55.5132 76.4157 54.6974 76.0836 54.0491 75.5222C53.4007 74.9609 52.9562 74.2017 52.7843 73.3625L45.3807 39.6954C45.2578 39.3108 45.2234 38.9035 45.2802 38.5038C45.337 38.1041 45.4835 37.7224 45.7088 37.3871C45.9341 37.0518 46.2323 36.7716 46.5812 36.5674C46.9302 36.3632 47.3208 36.2403 47.724 36.2078L97.8519 33.1838H98.0135M98.0135 32.1758H97.7913L47.6634 35.1998C47.1513 35.2248 46.6508 35.3615 46.1971 35.6C45.7435 35.8386 45.3476 36.1733 45.0373 36.5807C44.6927 37.0564 44.4564 37.6014 44.3447 38.1777C44.2331 38.754 44.2488 39.3476 44.3909 39.9172L51.7944 73.5843C52.0155 74.648 52.5853 75.6079 53.4139 76.3124C54.2424 77.017 55.2825 77.4261 56.3699 77.4751H56.683L106.942 73.3726C107.427 73.3339 107.899 73.1914 108.324 72.9549C108.749 72.7183 109.118 72.3933 109.407 72.0017C109.739 71.5182 109.964 70.9697 110.066 70.3926C110.169 69.8155 110.147 69.2232 110.003 68.6552L102.528 35.9961C102.306 34.9602 101.749 34.0259 100.942 33.3374C100.135 32.6489 99.1239 32.2442 98.064 32.1859L98.0135 32.1758Z" fill="#231F20"/>
<path d="M79.1562 61.9927C79.0498 61.9944 78.9461 61.9587 78.8633 61.8919L45.5323 37.7C45.4257 37.6197 45.3546 37.5013 45.3339 37.3696C45.3132 37.238 45.3444 37.1035 45.4212 36.9944C45.4593 36.9396 45.5082 36.893 45.5649 36.8576C45.6216 36.8221 45.6848 36.7985 45.7509 36.7881C45.817 36.7778 45.8845 36.7809 45.9493 36.7973C46.0142 36.8137 46.075 36.843 46.1282 36.8835L79.0653 60.8235L99.6498 33.6781C99.7315 33.5712 99.8524 33.501 99.9859 33.4831C100.119 33.4651 100.255 33.5008 100.362 33.5824C100.469 33.6639 100.539 33.7846 100.557 33.9178C100.575 34.0511 100.54 34.1861 100.458 34.293L79.5704 61.8214C79.5187 61.8792 79.4547 61.9247 79.3829 61.9544C79.3112 61.984 79.2337 61.9972 79.1562 61.9927Z" fill="#D1D3D4"/>
<path d="M108.589 71.8508C108.487 71.849 108.389 71.8174 108.306 71.7601L83.9639 55.1887C83.9089 55.1522 83.8617 55.1051 83.8251 55.0501C83.7886 54.9951 83.7635 54.9334 83.7512 54.8685C83.739 54.8037 83.7399 54.7371 83.7539 54.6726C83.7679 54.6081 83.7946 54.5471 83.8326 54.4931C83.9086 54.382 84.0251 54.3049 84.1573 54.2785C84.2895 54.2522 84.4268 54.2785 84.5397 54.352L108.912 70.9335C108.999 70.9946 109.065 71.0819 109.1 71.1828C109.135 71.2837 109.137 71.3931 109.105 71.4951C109.074 71.5971 109.011 71.6865 108.925 71.7504C108.84 71.8144 108.736 71.8495 108.629 71.8508H108.589Z" fill="#D1D3D4"/>
<path d="M54.3296 76.2549C54.213 76.2521 54.1001 76.2134 54.0064 76.1441C53.9047 76.0563 53.8414 75.9323 53.8301 75.7985C53.8188 75.6648 53.8603 75.532 53.9458 75.4284L70.8133 55.3793C70.899 55.2764 71.0222 55.2117 71.1558 55.1994C71.2893 55.1871 71.4223 55.2283 71.5254 55.3138C71.6285 55.3994 71.6934 55.5223 71.7057 55.6556C71.718 55.7888 71.6768 55.9215 71.591 56.0244L54.7235 76.0735C54.6755 76.131 54.6152 76.1772 54.5471 76.2086C54.4789 76.24 54.4046 76.2558 54.3296 76.2549Z" fill="#D1D3D4"/>
<path d="M211.036 26.7526L158.514 30.1798C157.794 30.2203 157.09 30.4173 156.454 30.7572C155.817 31.097 155.262 31.5715 154.829 32.1475C154.395 32.7234 154.092 33.387 153.942 34.0917C153.792 34.7965 153.798 35.5255 153.959 36.2278L162.342 67.9595C162.678 69.5037 163.561 70.8754 164.828 71.8232C166.095 72.7711 167.661 73.2316 169.241 73.1205L171.746 72.8785L172.756 85.1559L179.937 72.052L221.187 69.5824C221.906 69.5275 222.605 69.3147 223.232 68.9592C223.86 68.6037 224.401 68.1142 224.816 67.5258C225.232 66.9374 225.513 66.2646 225.638 65.5554C225.763 64.8463 225.73 64.1183 225.54 63.4235L217.753 31.712C217.377 30.2395 216.504 28.9416 215.28 28.0379C214.056 27.1342 212.557 26.6802 211.036 26.7526Z" fill="white"/>
<path d="M172.837 85.6398H172.736C172.629 85.6203 172.532 85.5663 172.459 85.4862C172.386 85.406 172.341 85.3042 172.332 85.1963L171.322 73.4329L169.302 73.6144C167.598 73.7425 165.905 73.2506 164.537 72.2296C163.168 71.2085 162.216 69.7275 161.858 68.0603L153.484 36.3588C153.306 35.5827 153.301 34.777 153.468 33.9985C153.636 33.22 153.972 32.4875 154.453 31.8524C154.934 31.2174 155.549 30.6953 156.254 30.3227C156.959 29.9502 157.738 29.7363 158.535 29.696L211.056 26.2688C212.713 26.1769 214.351 26.664 215.687 27.6463C217.024 28.6286 217.975 30.0448 218.379 31.6515L226.166 63.353C226.363 64.1357 226.388 64.9514 226.239 65.7446C226.091 66.5378 225.773 67.2898 225.308 67.9494C224.849 68.5765 224.259 69.0968 223.579 69.4744C222.899 69.852 222.145 70.078 221.369 70.1368L180.301 72.5661L173.231 85.3777C173.191 85.4496 173.134 85.511 173.066 85.5566C172.997 85.6022 172.919 85.6307 172.837 85.6398ZM171.827 72.3544C171.946 72.3528 172.061 72.396 172.15 72.4753C172.201 72.5177 172.244 72.5697 172.275 72.6286C172.306 72.6874 172.326 72.7518 172.332 72.8181L173.241 83.4323L179.614 71.8403C179.655 71.7651 179.715 71.7016 179.787 71.6557C179.859 71.6099 179.942 71.5832 180.028 71.5782L221.278 69.1187C221.908 69.0689 222.519 68.8848 223.072 68.5787C223.624 68.2727 224.104 67.8518 224.48 67.3446C224.859 66.8006 225.118 66.1819 225.238 65.5299C225.358 64.878 225.337 64.2079 225.177 63.5647L217.389 31.8632C217.053 30.484 216.241 29.2669 215.097 28.4247C213.952 27.5826 212.546 27.1691 211.127 27.2566L158.605 30.6838C157.959 30.7205 157.328 30.8974 156.757 31.2021C156.186 31.5069 155.689 31.9322 155.3 32.4484C154.91 32.9646 154.638 33.5594 154.503 34.1912C154.367 34.823 154.371 35.4768 154.515 36.1068L162.888 67.8083C163.19 69.2411 164.002 70.5159 165.174 71.3964C166.346 72.2769 167.798 72.7032 169.261 72.5963L171.756 72.3544H171.827Z" fill="#231F20"/>
<path d="M194.249 64.8857C193.441 64.2708 192.664 63.6458 191.866 63.0511L185.169 58.1422C183.695 57.0535 182.21 55.9649 180.836 54.7452C179.598 53.6908 178.538 52.4453 177.695 51.0559C177.16 50.128 176.746 49.1354 176.463 48.1025C176.198 47.2071 176.015 46.2893 175.917 45.3608C175.685 43.8909 175.968 42.3862 176.719 41.1006C177.47 39.815 178.642 38.8275 180.038 38.3048C183.068 37.1758 186.098 37.8109 188.846 40.0184C189.477 40.5321 190.049 41.1135 190.553 41.7521L190.674 41.8832C190.674 41.8227 190.674 41.7622 190.755 41.7118C191.407 40.2791 192.486 39.0821 193.845 38.2846C195.089 37.5598 196.517 37.2097 197.956 37.2766C199.758 37.3514 201.494 37.9694 202.937 39.0491C204.379 40.1288 205.46 41.6195 206.036 43.3246C206.322 44.2171 206.495 45.1414 206.552 46.0764C206.668 47.044 206.668 48.022 206.552 48.9896C206.349 50.4314 205.824 51.8093 205.016 53.0215C204.165 54.2934 203.198 55.4844 202.128 56.5798C200.582 58.2026 199.007 59.7953 197.471 61.4282C196.411 62.5471 195.381 63.6962 194.34 64.8353L194.249 64.8857Z" fill="#D1D3D4"/>
<path d="M114.992 119.075L113.427 119.186L113.144 108.098C113.144 108.098 109.326 115.426 106.902 119.659L58.4202 123.278C55.7942 123.47 53.9761 125.455 54.3801 127.723L60.6726 163.427C60.9754 164.667 61.7263 165.752 62.7813 166.474C63.8363 167.195 65.1211 167.503 66.3894 167.338L124.971 161.582C125.536 161.565 126.09 161.423 126.593 161.167C127.096 160.911 127.536 160.546 127.881 160.1C128.226 159.654 128.467 159.136 128.588 158.586C128.708 158.035 128.704 157.464 128.577 156.915L120.396 122.643C120.039 121.522 119.308 120.556 118.325 119.907C117.342 119.258 116.166 118.964 114.992 119.075Z" fill="white"/>
<path d="M65.844 167.853C64.5419 167.887 63.2675 167.473 62.2355 166.68C61.2035 165.887 60.4767 164.763 60.1777 163.498L53.8852 127.795C53.7883 127.239 53.8093 126.67 53.9467 126.123C54.0842 125.576 54.335 125.064 54.6831 124.62C55.1391 124.069 55.7051 123.618 56.345 123.297C56.9849 122.976 57.6847 122.791 58.4 122.755L106.568 119.166C108.962 114.953 112.629 107.917 112.629 107.847C112.679 107.748 112.761 107.669 112.862 107.622C112.962 107.574 113.076 107.561 113.184 107.585C113.294 107.611 113.392 107.673 113.463 107.76C113.534 107.848 113.575 107.956 113.578 108.068L113.851 118.612L114.861 118.541C116.155 118.436 117.447 118.773 118.524 119.496C119.601 120.22 120.4 121.287 120.79 122.523L128.961 156.795C129.111 157.376 129.131 157.983 129.021 158.574C128.911 159.164 128.674 159.723 128.325 160.212C127.922 160.749 127.409 161.194 126.821 161.518C126.232 161.841 125.581 162.035 124.911 162.087L66.3288 167.843C66.1674 167.853 66.0056 167.856 65.844 167.853ZM112.689 110.004C111.407 112.433 109.023 116.919 107.346 119.862C107.306 119.934 107.247 119.996 107.177 120.04C107.106 120.084 107.025 120.109 106.942 120.114L58.4606 123.733C57.8795 123.753 57.3092 123.895 56.7871 124.151C56.2649 124.406 55.8027 124.769 55.4305 125.214C55.1677 125.544 54.9785 125.926 54.8757 126.334C54.773 126.743 54.7589 127.169 54.8346 127.583L61.117 163.286C61.3952 164.404 62.0766 165.38 63.0308 166.027C63.985 166.674 65.1449 166.947 66.2884 166.794L124.87 161.029C125.396 160.994 125.909 160.847 126.373 160.596C126.837 160.346 127.24 159.998 127.557 159.577C127.819 159.203 127.996 158.777 128.078 158.328C128.16 157.88 128.144 157.418 128.032 156.976L119.86 122.705C119.534 121.696 118.873 120.829 117.986 120.246C117.099 119.663 116.039 119.4 114.982 119.499L113.427 119.61C113.359 119.614 113.291 119.605 113.226 119.583C113.162 119.56 113.103 119.525 113.053 119.479C112.999 119.435 112.955 119.38 112.926 119.317C112.896 119.254 112.881 119.185 112.881 119.116L112.689 110.004Z" fill="#231F20"/>
<path d="M83.2771 157.117L76.3988 157.762L72.9344 139.699L79.7319 139.124L83.2771 157.117Z" fill="#D1D3D4"/>
<path d="M76.3988 157.914C76.3621 157.915 76.3261 157.904 76.2967 157.882C76.2674 157.86 76.2464 157.828 76.2372 157.793L72.7829 139.719C72.7801 139.698 72.7815 139.677 72.7871 139.656C72.7927 139.635 72.8024 139.616 72.8155 139.599C72.8287 139.582 72.8451 139.568 72.8638 139.558C72.8824 139.547 72.903 139.54 72.9243 139.538L79.7117 138.963C79.7515 138.96 79.791 138.972 79.8228 138.996C79.8545 139.02 79.8761 139.055 79.8834 139.094L83.4387 157.087C83.4416 157.108 83.4401 157.13 83.4345 157.151C83.4289 157.171 83.4193 157.191 83.4061 157.207C83.3929 157.224 83.3766 157.238 83.3579 157.249C83.3392 157.259 83.3186 157.266 83.2973 157.269L76.4089 157.914H76.3988ZM73.1263 139.84L76.52 157.591L83.0953 156.976L79.6006 139.296L73.1263 139.84Z" fill="#D1D3D4"/>
<path d="M82.5802 140.374C82.5802 140.374 88.1455 138.509 89.8827 135.152C91.62 131.796 90.8928 126.242 91.7715 125.869C92.5272 125.664 93.3282 125.701 94.0619 125.974C94.7956 126.247 95.4251 126.742 95.8621 127.391C97.0742 129.084 97.5489 134.225 96.2358 137.743C96.2358 137.743 103.609 137.047 106.932 136.735C110.255 136.423 111.508 139.265 109.841 140.596C109.841 140.596 112.538 140.686 112.103 143.116C111.669 145.545 110.71 145.716 109.245 145.847C109.743 145.915 110.198 146.165 110.521 146.549C110.844 146.932 111.012 147.423 110.992 147.924C110.831 149.728 108.619 150.383 108.619 150.383C108.619 150.383 110.942 151.2 109.841 153.296C108.74 155.393 105.134 155.554 96.6398 155.826C88.1455 156.099 85.4083 154.456 85.4083 154.456L82.5802 140.374Z" fill="#D1D3D4"/>
<path d="M94.7309 156.049C87.7212 156.049 85.4184 154.688 85.3174 154.628C85.2828 154.603 85.2578 154.568 85.2467 154.527L82.4287 140.415C82.4214 140.377 82.4276 140.339 82.4461 140.306C82.4645 140.272 82.4941 140.247 82.5297 140.233C82.5903 140.233 88.0546 138.348 89.7413 135.093C90.7513 133.208 90.9129 130.546 91.0644 128.601C91.216 126.656 91.2867 125.92 91.7109 125.738C92.4995 125.513 93.3394 125.545 94.1092 125.827C94.879 126.11 95.5388 126.629 95.9934 127.311C97.2358 129.045 97.6802 134.054 96.4681 137.572C97.7913 137.441 103.973 136.867 106.922 136.564C109.023 136.403 110.205 137.411 110.578 138.338C110.727 138.693 110.77 139.083 110.704 139.461C110.638 139.84 110.464 140.192 110.205 140.475C110.848 140.552 111.443 140.856 111.881 141.332C112.075 141.586 112.209 141.879 112.274 142.192C112.339 142.504 112.332 142.827 112.255 143.136C111.881 145.233 111.134 145.727 109.982 145.908C110.372 146.07 110.697 146.355 110.909 146.719C111.12 147.083 111.206 147.507 111.154 147.924C111.056 148.487 110.807 149.013 110.433 149.446C110.06 149.879 109.576 150.203 109.033 150.384C109.539 150.638 109.941 151.058 110.174 151.573C110.277 151.866 110.314 152.178 110.28 152.487C110.247 152.796 110.145 153.093 109.982 153.357C108.811 155.585 105.003 155.706 96.6499 155.978L94.7309 156.049ZM85.5497 154.355C85.984 154.577 88.903 155.928 96.66 155.676C104.882 155.404 108.639 155.283 109.72 153.226C109.859 152.999 109.947 152.745 109.979 152.48C110.01 152.216 109.984 151.948 109.902 151.694C109.627 151.155 109.158 150.741 108.589 150.535C108.558 150.524 108.531 150.503 108.512 150.476C108.493 150.449 108.483 150.417 108.483 150.384C108.483 150.351 108.493 150.319 108.512 150.292C108.531 150.265 108.558 150.244 108.589 150.233C108.589 150.233 110.689 149.588 110.841 147.904C110.872 147.441 110.722 146.984 110.423 146.628C110.123 146.273 109.698 146.048 109.235 145.999C109.197 145.994 109.162 145.975 109.137 145.945C109.113 145.915 109.101 145.876 109.104 145.838C109.104 145.799 109.118 145.762 109.144 145.734C109.171 145.706 109.207 145.689 109.245 145.687C110.619 145.566 111.528 145.485 111.952 143.096C112.021 142.831 112.029 142.554 111.977 142.286C111.924 142.017 111.812 141.764 111.649 141.544C111.166 141.066 110.521 140.785 109.841 140.757C109.809 140.756 109.777 140.745 109.752 140.725C109.727 140.705 109.708 140.678 109.7 140.647C109.683 140.621 109.675 140.591 109.675 140.561C109.675 140.531 109.683 140.501 109.7 140.475C110.002 140.247 110.219 139.925 110.318 139.56C110.417 139.195 110.391 138.808 110.245 138.459C109.912 137.633 108.831 136.705 106.902 136.887C103.619 137.159 96.2863 137.895 96.2156 137.895C96.1887 137.899 96.161 137.896 96.136 137.885C96.1109 137.875 96.0894 137.857 96.0742 137.834C96.0618 137.811 96.0554 137.785 96.0554 137.759C96.0554 137.732 96.0618 137.706 96.0742 137.683C97.3267 134.306 96.9226 129.166 95.7207 127.482C95.3025 126.865 94.7032 126.393 94.0052 126.129C93.3072 125.866 92.5446 125.824 91.822 126.011C91.5493 126.131 91.4483 127.391 91.3574 128.611C91.216 130.627 91.0039 133.288 90.0039 135.224C88.3778 138.348 83.6205 140.173 82.7418 140.485L85.5497 154.355Z" fill="#D1D3D4"/>
<path d="M227.368 151.069L177.796 155.857C175.963 155.958 174.153 155.416 172.678 154.327C171.203 153.237 170.155 151.668 169.716 149.89L162.464 120.406C161.555 116.707 163.706 113.35 167.271 112.967L217.046 107.564C218.918 107.43 220.777 107.964 222.291 109.072C223.805 110.18 224.874 111.79 225.308 113.612L232.378 143.661C232.622 144.48 232.681 145.343 232.551 146.187C232.421 147.032 232.106 147.838 231.627 148.546C231.148 149.254 230.517 149.848 229.781 150.284C229.045 150.721 228.221 150.989 227.368 151.069Z" fill="white"/>
<path d="M177.17 156.371C175.336 156.304 173.574 155.646 172.147 154.496C170.719 153.345 169.704 151.765 169.251 149.991L162.009 120.497C161.757 119.565 161.708 118.589 161.865 117.637C162.022 116.684 162.381 115.776 162.918 114.973C163.413 114.263 164.058 113.669 164.806 113.232C165.554 112.795 166.388 112.526 167.251 112.443L217.015 107.04C219.014 106.897 220.999 107.469 222.614 108.653C224.23 109.837 225.371 111.555 225.833 113.501L232.903 143.55C233.14 144.479 233.172 145.449 232.998 146.392C232.824 147.335 232.447 148.229 231.893 149.013C231.37 149.736 230.697 150.337 229.919 150.775C229.142 151.214 228.278 151.479 227.388 151.553L177.846 156.371C177.624 156.371 177.392 156.371 177.17 156.371ZM217.834 107.987C217.598 107.973 217.362 107.973 217.127 107.987L167.362 113.38C166.644 113.453 165.949 113.679 165.325 114.042C164.701 114.405 164.163 114.898 163.746 115.487C163.287 116.172 162.982 116.949 162.851 117.763C162.72 118.577 162.767 119.41 162.989 120.204L170.2 149.769C170.612 151.423 171.584 152.884 172.952 153.903C174.32 154.923 175.999 155.439 177.705 155.363L227.277 150.575C228.025 150.513 228.75 150.291 229.403 149.924C230.057 149.557 230.624 149.054 231.065 148.448C231.527 147.778 231.838 147.015 231.978 146.213C232.117 145.411 232.081 144.589 231.873 143.802L224.803 113.753C224.43 112.165 223.547 110.742 222.289 109.702C221.031 108.661 219.466 108.059 217.834 107.987Z" fill="#231F20"/>
<path d="M211.662 131.444L193.876 145.284C192.603 146.292 190.532 145.364 190.108 143.641L184.432 120.235C184.327 119.863 184.331 119.468 184.445 119.098C184.559 118.728 184.776 118.399 185.072 118.149C185.368 117.9 185.73 117.74 186.114 117.69C186.499 117.64 186.889 117.701 187.24 117.866L210.713 127.412C212.46 128.148 212.996 130.406 211.662 131.444Z" fill="#D1D3D4"/>
<path d="M244.943 107.988C244.854 107.988 244.766 107.964 244.69 107.917C244.588 107.856 244.511 107.761 244.472 107.648C244.433 107.536 244.435 107.413 244.478 107.302L248.882 95.559C243.125 91.275 239.842 85.2371 239.842 78.927C239.842 66.4481 252.437 56.3076 267.921 56.3076C283.405 56.3076 296 66.4481 296 78.927C296 91.406 283.405 101.557 267.921 101.557C262.951 101.578 258.039 100.486 253.548 98.3612L245.327 107.816C245.278 107.87 245.219 107.912 245.153 107.942C245.087 107.971 245.015 107.987 244.943 107.988ZM267.921 57.3156C252.993 57.3156 240.852 67.0125 240.852 78.927C240.852 85.0254 244.105 90.8718 249.781 94.9643C249.869 95.0304 249.934 95.1224 249.966 95.2273C249.999 95.3323 249.998 95.4447 249.963 95.5489L246.397 105.044L253.043 97.4137C253.116 97.3279 253.215 97.2692 253.325 97.2472C253.435 97.2252 253.55 97.2413 253.649 97.2927C258.092 99.46 262.976 100.574 267.921 100.549C282.839 100.549 294.99 90.8516 294.99 78.927C294.99 67.0025 282.799 57.3559 267.881 57.3559L267.921 57.3156Z" fill="white" fill-opacity="0.16"/>
<path d="M38.3711 134.196C38.2584 134.198 38.1482 134.162 38.058 134.095C34.7193 131.51 31.5701 128.691 28.6344 125.658C28.2304 125.658 27.8264 125.658 27.4224 125.658C12.2719 125.658 0 117.534 0 107.514C0 97.4946 12.3022 89.3701 27.4224 89.3701C42.5425 89.3701 54.8346 97.4946 54.8346 107.514C54.8346 114.933 47.8856 121.626 37.4924 124.378L38.8963 133.591C38.9132 133.69 38.8989 133.791 38.8555 133.881C38.812 133.972 38.7416 134.046 38.6539 134.095C38.5731 134.158 38.4738 134.194 38.3711 134.196ZM28.796 124.62C28.8638 124.618 28.9313 124.631 28.9939 124.657C29.0565 124.683 29.113 124.722 29.1596 124.771C31.8194 127.523 34.6533 130.102 37.6439 132.492L36.4319 124.116C36.4105 123.992 36.4372 123.865 36.5067 123.76C36.5761 123.655 36.683 123.58 36.8056 123.551C46.9867 121.031 53.8246 114.6 53.8246 107.554C53.8246 98.1095 41.9769 90.4184 27.4224 90.4184C12.8678 90.4184 1.01003 98.0893 1.01003 107.554C1.01003 117.019 12.8577 124.69 27.4224 124.69H28.8162L28.796 124.62Z" fill="white" fill-opacity="0.16"/>
</svg>
