<svg width="296" height="213" viewBox="0 0 296 213" fill="none" xmlns="http://www.w3.org/2000/svg">
<path d="M284.853 206.26H11.3644C11.2384 206.26 11.1176 206.21 11.0285 206.121C10.9394 206.031 10.8893 205.91 10.8893 205.784C10.8893 205.658 10.9394 205.537 11.0285 205.448C11.1176 205.358 11.2384 205.308 11.3644 205.308H284.853C284.979 205.308 285.099 205.358 285.189 205.448C285.278 205.537 285.328 205.658 285.328 205.784C285.328 205.91 285.278 206.031 285.189 206.121C285.099 206.21 284.979 206.26 284.853 206.26Z" fill="#D1D3D4"/>
<path d="M275.921 9.72461H12.4382C5.84166 9.72461 0.49411 15.0821 0.49411 21.691V156.082C0.49411 162.69 5.84166 168.048 12.4382 168.048H275.921C282.517 168.048 287.865 162.69 287.865 156.082V21.691C287.865 15.0821 282.517 9.72461 275.921 9.72461Z" fill="white"/>
<path d="M275.921 168.543H12.4382C9.14015 168.54 5.97791 167.227 3.64584 164.89C1.31377 162.554 0.00251663 159.386 0 156.081V21.6909C0.00251663 18.3867 1.31377 15.2185 3.64584 12.8821C5.97791 10.5457 9.14015 9.23201 12.4382 9.22949H275.921C279.219 9.23201 282.381 10.5457 284.713 12.8821C287.045 15.2185 288.356 18.3867 288.359 21.6909V156.081C288.356 159.386 287.045 162.554 284.713 164.89C282.381 167.227 279.219 168.54 275.921 168.543ZM12.4382 10.21C9.40059 10.2126 6.48827 11.4232 4.34126 13.576C2.19424 15.7289 0.98821 18.6476 0.988211 21.6909V156.081C1.00327 159.115 2.21595 162.019 4.36134 164.159C6.50672 166.3 9.41045 167.503 12.4382 167.505H275.921C278.94 167.49 281.832 166.282 283.967 164.143C286.102 162.004 287.308 159.107 287.323 156.081V21.6909C287.323 18.6558 286.124 15.7443 283.987 13.5928C281.85 11.4414 278.95 10.2251 275.921 10.21H12.4382Z" fill="black"/>
<path d="M287.865 27.7358H0.49411V150.027H287.865V27.7358Z" fill="white"/>
<path d="M287.865 150.522H0.494107C0.429673 150.523 0.365633 150.511 0.305737 150.487C0.24584 150.464 0.191291 150.428 0.14528 150.383C0.0992689 150.338 0.0627192 150.284 0.0377735 150.224C0.0128278 150.165 -1.23811e-05 150.101 8.95823e-09 150.036V27.7356C-1.23811e-05 27.671 0.0128278 27.6071 0.0377735 27.5476C0.0627192 27.488 0.0992689 27.4341 0.14528 27.3889C0.191291 27.3437 0.24584 27.3081 0.305737 27.2843C0.365633 27.2604 0.429673 27.2488 0.494107 27.2501H287.865C287.929 27.2488 287.993 27.2604 288.053 27.2843C288.113 27.3081 288.168 27.3437 288.214 27.3889C288.26 27.4341 288.296 27.488 288.321 27.5476C288.346 27.6071 288.359 27.671 288.359 27.7356V150.036C288.359 150.101 288.346 150.165 288.321 150.224C288.296 150.284 288.26 150.338 288.214 150.383C288.168 150.428 288.113 150.464 288.053 150.487C287.993 150.511 287.929 150.523 287.865 150.522ZM0.988211 149.57H287.371V28.2306H0.988211V149.57Z" fill="black"/>
<path d="M194.422 202.738H93.9373L105.302 168.048H183.057L194.422 202.738Z" fill="white"/>
<path d="M194.422 203.233H93.9373C93.8601 203.233 93.7841 203.214 93.7161 203.177C93.6481 203.141 93.5903 203.088 93.5477 203.023C93.5005 202.962 93.4688 202.89 93.4556 202.814C93.4423 202.738 93.4479 202.659 93.4717 202.585L104.874 167.895C104.906 167.797 104.968 167.71 105.052 167.649C105.135 167.587 105.236 167.554 105.34 167.553H183.095C183.199 167.554 183.3 167.587 183.383 167.649C183.467 167.71 183.529 167.797 183.561 167.895L194.963 202.585C194.987 202.659 194.993 202.738 194.979 202.814C194.966 202.89 194.934 202.962 194.887 203.023C194.838 203.1 194.768 203.161 194.686 203.198C194.603 203.235 194.511 203.247 194.422 203.233ZM94.65 202.281H193.737L182.706 168.581H105.653L94.65 202.281Z" fill="black"/>
<path d="M202.717 202.738H85.642C82.9499 202.738 80.7675 204.924 80.7675 207.621C80.7675 210.319 82.9499 212.505 85.642 212.505H202.717C205.409 212.505 207.591 210.319 207.591 207.621C207.591 204.924 205.409 202.738 202.717 202.738Z" fill="white"/>
<path d="M202.717 213H85.642C84.2182 213 82.8526 212.433 81.8458 211.425C80.839 210.416 80.2734 209.048 80.2734 207.621C80.2734 206.195 80.839 204.827 81.8458 203.818C82.8526 202.809 84.2182 202.243 85.642 202.243H202.717C204.141 202.243 205.506 202.809 206.513 203.818C207.52 204.827 208.086 206.195 208.086 207.621C208.086 209.048 207.52 210.416 206.513 211.425C205.506 212.433 204.141 213 202.717 213ZM85.642 203.233C84.4803 203.233 83.3661 203.695 82.5446 204.518C81.7231 205.341 81.2616 206.457 81.2616 207.621C81.2616 208.785 81.7231 209.902 82.5446 210.725C83.3661 211.548 84.4803 212.01 85.642 212.01H202.717C203.879 212.01 204.993 211.548 205.814 210.725C206.636 209.902 207.097 208.785 207.097 207.621C207.097 206.457 206.636 205.341 205.814 204.518C204.993 203.695 203.879 203.233 202.717 203.233H85.642Z" fill="black"/>
<path d="M97.3011 193.542C98.9259 192.685 185.908 176.758 185.908 176.758L183.057 168.048H105.264L97.3011 193.542Z" fill="black"/>
<path d="M97.3201 194.008C97.2022 194.01 97.0876 193.969 96.997 193.894C96.9293 193.833 96.88 193.754 96.8548 193.667C96.8296 193.579 96.8295 193.487 96.8545 193.399L104.846 167.905C104.876 167.808 104.937 167.723 105.019 167.663C105.101 167.603 105.2 167.571 105.302 167.572H183.057C183.157 167.572 183.255 167.603 183.336 167.661C183.418 167.719 183.48 167.801 183.513 167.895L186.364 176.606C186.392 176.667 186.407 176.734 186.407 176.801C186.407 176.869 186.392 176.935 186.364 176.996C186.33 177.055 186.283 177.106 186.227 177.146C186.171 177.185 186.108 177.212 186.041 177.225C156.214 182.689 99.325 193.218 97.5576 193.97C97.4837 194.005 97.4012 194.019 97.3201 194.008ZM105.644 168.524L98.0422 192.866C106.936 190.762 174.828 178.31 185.319 176.387L182.744 168.524H105.644Z" fill="black"/>
<path d="M185.86 51.7067C185.86 51.7067 129.18 37.7888 111.573 51.7067C93.9658 65.6246 76.1115 81.1228 76.1115 81.1228L90.1745 108.597L111.915 90.6711L102.413 138.156L177.042 139.241L181.252 96.1165C181.252 96.1165 188.948 121.734 197.253 122.772C205.558 123.809 219.868 112.548 212.038 94.2125C204.209 75.8774 185.86 51.7067 185.86 51.7067Z" fill="#72B0F9"/>
<path d="M230.406 82.408C231.152 83.8773 231.481 85.524 231.356 87.1679C231.153 88.7166 230.673 90.216 229.94 91.5946C226.291 99.6007 222.633 107.597 218.538 115.394C216.124 119.992 212.01 125.276 206.356 125.79C201.472 126.247 193.234 121.629 192.103 116.651C190.602 109.987 199.334 102.095 203.011 97.2493C207.952 90.7473 212.865 83.7408 218.566 77.8766C221.692 74.6684 222.747 74.3638 226.234 77.4006C227.936 78.7828 229.353 80.4836 230.406 82.408Z" fill="white"/>
<path d="M205.577 126.323C199.61 126.323 192.635 121.011 191.685 116.803C190.44 111.282 195.676 105.227 199.876 100.362C200.93 99.1438 201.919 97.9919 202.679 96.9924C203.629 95.7072 204.636 94.3935 205.624 93.0797C209.503 87.6434 213.727 82.4634 218.272 77.572C221.54 74.2116 222.861 73.7641 226.615 77.0675C228.348 78.493 229.785 80.2462 230.843 82.2272C231.642 83.7761 232.003 85.5141 231.888 87.2536C231.673 88.8603 231.177 90.4166 230.425 91.8517C226.833 99.734 223.118 107.873 219.022 115.651C217.065 119.383 212.827 125.723 206.442 126.313C206.154 126.331 205.865 126.334 205.577 126.323ZM222.529 75.7918C221.483 75.7918 220.533 76.6201 218.975 78.2194C214.458 83.0803 210.258 88.2285 206.404 93.6319L203.458 97.554C202.679 98.5726 201.681 99.7341 200.607 100.962C196.55 105.665 191.495 111.52 192.626 116.546C193.671 121.192 201.71 125.723 206.347 125.304C212.266 124.762 216.276 118.716 218.148 115.166C222.225 107.397 225.93 99.2676 229.551 91.3662C230.258 90.0341 230.725 88.5869 230.928 87.0918C231.029 85.5289 230.701 83.9683 229.978 82.5794C228.982 80.7119 227.626 79.0616 225.987 77.7243C224.429 76.4297 223.441 75.7918 222.529 75.7918Z" fill="black"/>
<path d="M203.591 68.014L218.338 96.6495C219.659 99.2008 222.424 100.21 224.705 98.9533L231.641 95.0692C234.083 93.7269 235.071 90.3093 233.836 87.4534L224.334 65.5579L229.437 59.2178C229.437 59.2178 205.529 66.5956 203.591 68.014Z" fill="white"/>
<path d="M222.605 99.9814C222.128 99.9778 221.655 99.9073 221.198 99.7719C220.479 99.5335 219.815 99.154 219.244 98.6555C218.673 98.1569 218.207 97.5494 217.873 96.8684L203.135 68.2425C203.083 68.1365 203.07 68.0155 203.097 67.9007C203.125 67.7859 203.192 67.6845 203.287 67.6142C205.187 66.1957 226.862 59.5604 229.323 58.8084C229.421 58.7749 229.528 58.7755 229.626 58.81C229.724 58.8445 229.808 58.911 229.864 58.9988C229.927 59.0826 229.96 59.1845 229.96 59.2891C229.96 59.3938 229.927 59.4956 229.864 59.5795L224.99 65.6912L234.378 87.3106C235.708 90.3759 234.625 94.0601 231.964 95.5261L224.961 99.3816C224.241 99.7829 223.429 99.9896 222.605 99.9814ZM204.247 68.2044L218.747 96.421C219.018 96.9858 219.401 97.4901 219.871 97.9038C220.341 98.3176 220.889 98.6324 221.483 98.8295C221.973 98.98 222.488 99.0297 222.998 98.9758C223.507 98.9218 224.001 98.7651 224.448 98.5153L231.451 94.7074C233.675 93.4794 234.558 90.3569 233.427 87.7389L223.925 65.8435C223.891 65.761 223.879 65.6708 223.891 65.5822C223.902 65.4935 223.937 65.4096 223.992 65.3389L228.097 60.2458C221.037 62.3878 206.936 66.8335 204.247 68.2044Z" fill="#72B0F9"/>
<path d="M193.443 41.7588L186.725 43.9007C186.725 43.9007 183.874 62.4643 196.541 69.1376L203.03 66.8434L193.443 41.7588Z" fill="black"/>
<path d="M196.54 69.6416C196.464 69.642 196.389 69.6223 196.322 69.5845C183.542 62.8349 186.231 44.0524 186.259 43.8811C186.273 43.7938 186.31 43.712 186.367 43.6448C186.424 43.5775 186.499 43.5275 186.582 43.5003L193.3 41.3488C193.415 41.3121 193.54 41.3213 193.648 41.3745C193.756 41.4278 193.839 41.5209 193.88 41.6344L203.477 66.7285C203.5 66.7872 203.51 66.8498 203.508 66.9126C203.506 66.9754 203.491 67.0371 203.464 67.094C203.437 67.1509 203.4 67.2018 203.353 67.2437C203.306 67.2856 203.251 67.3176 203.192 67.3378L196.702 69.632C196.649 69.6451 196.594 69.6483 196.54 69.6416ZM187.152 44.2904C186.877 46.6418 185.452 62.5874 196.588 68.6515L202.422 66.5857L193.158 42.3674L187.152 44.2904Z" fill="black"/>
<path d="M267.863 2.09912C267.863 2.09912 258.123 15.5886 238.188 24.5563C220.913 32.3244 192.056 39.9307 192.056 39.9307C192.056 39.9307 185.651 58.5513 201.339 69.442C201.339 69.442 228.021 62.2165 240.202 60.1316C255.871 57.4471 287.095 64.8915 287.095 64.8915L267.863 2.09912Z" fill="white"/>
<path d="M201.339 69.9465C201.24 69.9427 201.144 69.9095 201.064 69.8513C185.243 58.875 191.561 39.9592 191.561 39.7688C191.588 39.6924 191.634 39.6238 191.693 39.569C191.753 39.5142 191.825 39.475 191.904 39.4547C192.189 39.3785 220.923 31.7722 237.96 24.1088C257.544 15.2935 267.34 1.94679 267.416 1.81351C267.471 1.73884 267.545 1.68069 267.631 1.64542C267.716 1.61016 267.81 1.59915 267.901 1.6136C267.991 1.62896 268.075 1.66914 268.144 1.72965C268.213 1.79016 268.264 1.86863 268.291 1.95631L287.513 64.7011C287.539 64.7842 287.543 64.8726 287.525 64.9576C287.506 65.0427 287.466 65.1216 287.409 65.1866C287.347 65.248 287.272 65.2931 287.189 65.3181C287.106 65.343 287.018 65.3469 286.934 65.3294C286.62 65.2532 255.634 57.9897 240.24 60.6266C228.22 62.6829 201.691 69.8513 201.425 69.9274L201.339 69.9465ZM192.445 40.3305C191.78 42.5391 187.419 59.0178 201.434 68.8898C204.038 68.1853 228.638 61.5977 240.126 59.6271C254.275 57.1995 281.299 63.0066 286.373 64.1489L267.673 3.14628C259.686 12.5659 249.674 20.0515 238.388 25.0417C222.139 32.3053 195.381 39.5499 192.445 40.3305Z" fill="black"/>
<path d="M288.92 64.6059C283.494 66.1957 276.443 59.3224 271.094 48.2128C269.291 44.4146 267.797 40.4764 266.628 36.4369C265.464 32.5073 264.622 28.4894 264.11 24.4229C262.551 12.0472 264.784 2.28948 270.258 0.680635C277.413 -1.41371 287.361 11.1524 292.54 28.8401C297.718 46.5278 296.075 62.5306 288.92 64.6059Z" fill="black"/>
<path d="M287.333 65.3294C282.088 65.3294 275.75 58.9892 270.676 48.4508C268.856 44.629 267.35 40.6652 266.172 36.5987C265.003 32.6435 264.155 28.6004 263.635 24.5086C261.991 11.4094 264.537 1.88962 270.124 0.252221C277.65 -1.95637 287.694 10.5716 292.996 28.7354C298.222 46.604 296.455 62.9113 289.053 65.0914C288.493 65.2523 287.914 65.3325 287.333 65.3294ZM271.901 0.947164C271.39 0.947152 270.881 1.02089 270.39 1.16612C265.354 2.64168 263.017 11.9711 264.575 24.3848C265.085 28.4291 265.924 32.4249 267.084 36.3321C268.253 40.3502 269.746 44.2662 271.55 48.0415C276.899 59.151 283.845 65.634 288.815 64.2251C295.713 62.1974 297.196 46.4231 292.112 29.0495C287.38 12.8754 278.648 0.947164 271.901 0.947164Z" fill="black"/>
<path d="M192.056 39.9304C192.056 39.9304 185.651 58.551 201.339 69.4417C201.339 69.4417 219.298 64.577 232.468 61.683C229.779 58.9413 226.481 53.9815 224.866 45.309C223.83 40.3316 223.51 35.2313 223.916 30.1631C208.399 35.6179 192.056 39.9304 192.056 39.9304Z" fill="white"/>
<path d="M201.339 69.9464C201.24 69.9426 201.144 69.9095 201.064 69.8512C185.243 58.8749 191.561 39.9591 191.561 39.7688C191.588 39.6923 191.634 39.6237 191.693 39.5689C191.753 39.5142 191.825 39.4749 191.904 39.4546C192.065 39.4546 208.409 35.085 223.669 29.7159C223.747 29.6878 223.83 29.68 223.912 29.6934C223.993 29.7067 224.07 29.7407 224.135 29.792C224.197 29.8432 224.247 29.909 224.278 29.9837C224.31 30.0584 224.322 30.1397 224.315 30.2204C223.919 35.2413 224.239 40.2931 225.265 45.2236C226.928 53.9246 230.263 58.7988 232.772 61.3501C232.833 61.4132 232.876 61.4912 232.898 61.5764C232.92 61.6615 232.919 61.7509 232.895 61.8356C232.871 61.9188 232.825 61.9938 232.761 62.0525C232.698 62.1112 232.619 62.1514 232.534 62.1688C219.517 65.0247 201.605 69.8798 201.425 69.9274L201.339 69.9464ZM192.445 40.3304C191.78 42.539 187.419 59.0177 201.434 68.8897C203.496 68.3376 219.364 64.1298 231.527 61.3691C229.009 58.5798 225.93 53.6486 224.344 45.3759C223.362 40.6034 223.011 35.7224 223.298 30.8582C209.273 35.7895 194.583 39.7687 192.445 40.3304Z" fill="black"/>
<path d="M280.615 44.5574L271.113 48.2415C269.31 44.4433 267.816 40.5051 266.647 36.4656C265.483 32.536 264.641 28.5181 264.129 24.4516L274.4 23.0332L280.615 44.5574Z" fill="white"/>
<path d="M271.094 48.7366C271.002 48.7355 270.913 48.7091 270.836 48.6603C270.759 48.6116 270.697 48.5425 270.657 48.4605C268.841 44.6371 267.334 40.6736 266.153 36.6084C264.984 32.6499 264.136 28.6037 263.616 24.5088C263.602 24.3803 263.639 24.2517 263.719 24.1503C263.799 24.0489 263.915 23.9828 264.043 23.9661L274.315 22.5477C274.433 22.5295 274.553 22.5553 274.653 22.6203C274.753 22.6852 274.825 22.7848 274.856 22.8999L281.052 44.4146C281.084 44.5334 281.072 44.6599 281.018 44.7704C280.964 44.8808 280.871 44.9676 280.757 45.0143L271.255 48.6985C271.205 48.7227 271.15 48.7357 271.094 48.7366ZM264.651 24.8705C265.173 28.7352 265.99 32.5543 267.093 36.2942C268.215 40.1624 269.635 43.9372 271.341 47.5847L280.016 44.2242L274.03 23.5378L264.651 24.8705Z" fill="black"/>
<path d="M280.622 44.5772C282.361 44.0715 282.374 38.8439 280.652 32.9011C278.93 26.9583 276.124 22.5507 274.385 23.0564C272.647 23.5622 272.633 28.7898 274.355 34.7326C276.078 40.6754 278.883 45.083 280.622 44.5772Z" fill="white"/>
<path d="M280.339 45.0905C279.389 45.0905 278.23 44.1385 277.07 42.3107C275.673 39.9797 274.599 37.4688 273.878 34.8472C272.3 29.4019 271.892 23.2426 274.248 22.5667C275.332 22.243 276.605 23.1855 277.935 25.2703C279.329 27.6053 280.4 30.1193 281.118 32.7433C282.696 38.1887 283.104 44.3384 280.757 45.0238C280.621 45.0646 280.481 45.087 280.339 45.0905ZM274.638 23.4901C274.588 23.4801 274.536 23.4801 274.486 23.4901C273.374 23.8138 272.947 28.1834 274.799 34.5521C275.499 37.0845 276.541 39.5091 277.897 41.7586C279.104 43.6625 280.026 44.1861 280.482 44.0528C281.603 43.7292 282.021 39.3596 280.178 32.9909C279.489 30.456 278.457 28.0279 277.108 25.7749C276.016 24.0899 275.161 23.4901 274.666 23.4901H274.638Z" fill="black"/>
<path d="M222.187 71.8311C221.067 71.8626 219.984 72.2418 219.089 72.9164C218.272 73.678 218.139 75.2392 219.089 75.7723C219.402 75.9297 219.746 76.0174 220.096 76.0293C221.554 76.1718 223.025 76.0884 224.458 75.7818C223.217 76.3674 222.143 77.2542 221.331 78.3617C221.144 78.5743 221.043 78.8492 221.046 79.1328C221.113 79.6659 221.769 79.8563 222.291 79.8753C223.622 79.9379 224.95 79.7005 226.177 79.1804C225.352 79.3579 224.579 79.7227 223.916 80.2466C222.196 81.8364 223.764 83.1025 225.284 82.9597C227.859 82.6836 233.009 85.5015 233.009 85.5015C233.009 85.5015 234.359 82.7408 234.254 81.3414C234.073 79.8698 233.739 78.4212 233.256 77.0194C232.468 74.2682 231.461 71.1171 229.522 68.9371C226.672 65.7385 217.597 65.7575 217.559 71.279C219.047 71.7832 220.623 71.9712 222.187 71.8311Z" fill="white"/>
<path d="M233.019 86.0156C232.935 86.0162 232.853 85.9931 232.781 85.949C232.734 85.949 227.736 83.2168 225.341 83.4643C224.851 83.5425 224.348 83.4708 223.899 83.2586C223.45 83.0463 223.075 82.7033 222.823 82.2744C222.69 81.9586 222.65 81.611 222.709 81.2732C222.768 80.9355 222.923 80.622 223.156 80.3704C222.861 80.3704 222.576 80.3704 222.282 80.3704C221.331 80.3704 220.647 79.8754 220.571 79.1995C220.557 78.9964 220.584 78.7925 220.649 78.5997C220.714 78.4069 220.817 78.229 220.951 78.0762C221.353 77.5163 221.823 77.008 222.348 76.5625C221.586 76.6243 220.82 76.6243 220.058 76.5625C219.637 76.5505 219.225 76.4431 218.851 76.2484C218.59 76.0996 218.368 75.8909 218.203 75.6394C218.037 75.3878 217.934 75.1006 217.901 74.8014C217.862 74.3955 217.913 73.9859 218.051 73.6023C218.189 73.2187 218.411 72.8706 218.699 72.5832C218.838 72.4609 218.984 72.3465 219.136 72.2405C218.527 72.1504 217.928 71.9972 217.35 71.7836C217.256 71.7481 217.175 71.6841 217.119 71.6005C217.063 71.5169 217.034 71.4179 217.036 71.3171C217.036 70.3193 217.358 69.3482 217.954 68.5488C218.55 67.7493 219.388 67.1642 220.343 66.8809C223.498 65.6814 227.945 66.5192 229.845 68.6516C231.746 70.784 232.876 74.1064 233.646 76.9338L233.817 77.524C234.226 78.7615 234.51 80.0373 234.663 81.3319C234.767 82.8265 233.513 85.454 233.361 85.7491C233.332 85.8073 233.292 85.8593 233.243 85.9018C233.195 85.9443 233.138 85.9765 233.076 85.9966C233.057 86.0043 233.038 86.0106 233.019 86.0156ZM225.655 82.4648C227.954 82.4648 231.518 84.1878 232.791 84.8447C233.315 83.7606 233.637 82.5894 233.741 81.389C233.6 80.1612 233.329 78.9517 232.933 77.781L232.762 77.1718C231.983 74.4491 230.985 71.3742 229.123 69.2799C227.489 67.4426 223.479 66.7191 220.704 67.7662C219.996 67.9747 219.365 68.3889 218.891 68.9566C218.418 69.5242 218.123 70.2198 218.044 70.9554C219.367 71.3327 220.749 71.4618 222.12 71.3362C222.227 71.355 222.325 71.4086 222.398 71.4887C222.472 71.5688 222.517 71.671 222.527 71.7793C222.536 71.8877 222.51 71.9963 222.452 72.0882C222.394 72.1802 222.307 72.2505 222.206 72.2881C221.18 72.3025 220.184 72.6351 219.355 73.2401C219.175 73.4188 219.038 73.6355 218.952 73.8743C218.867 74.1131 218.835 74.368 218.861 74.6205C218.869 74.763 218.911 74.9014 218.984 75.0241C219.056 75.1468 219.158 75.25 219.279 75.3249C219.53 75.4505 219.806 75.5188 220.087 75.5249C221.497 75.66 222.919 75.5798 224.306 75.2869C224.432 75.2465 224.568 75.2579 224.686 75.3186C224.804 75.3793 224.892 75.4843 224.933 75.6105C224.973 75.7368 224.962 75.8739 224.901 75.9917C224.84 76.1096 224.736 76.1984 224.61 76.2388C223.442 76.7828 222.432 77.6148 221.673 78.6569C221.616 78.733 221.455 78.9615 221.474 79.0852C221.493 79.209 221.845 79.3804 222.263 79.3994C223.107 79.4344 223.953 79.3446 224.771 79.1328C225.165 78.9695 225.568 78.8296 225.978 78.714C226.099 78.6817 226.228 78.6948 226.34 78.7509C226.452 78.807 226.539 78.9022 226.586 79.0186C226.627 79.1375 226.622 79.2677 226.57 79.3826C226.519 79.4976 226.426 79.5887 226.31 79.6374C225.912 79.8084 225.503 79.9516 225.085 80.0658C224.757 80.1969 224.455 80.3837 224.192 80.6179C223.906 80.8845 223.45 81.4081 223.65 81.8555C223.818 82.0935 224.05 82.2789 224.319 82.3901C224.588 82.5013 224.883 82.5338 225.17 82.4838C225.331 82.4643 225.493 82.458 225.655 82.4648Z" fill="black"/>
<path d="M164.367 65.2151L146.512 109.701L141.077 58.6846L164.367 65.2151Z" fill="black"/>
<path d="M146.512 110.177H146.446C146.341 110.161 146.245 110.112 146.171 110.036C146.098 109.961 146.05 109.863 146.037 109.758L140.602 58.7322C140.595 58.6552 140.607 58.5777 140.637 58.5064C140.667 58.435 140.713 58.3721 140.773 58.3229C140.83 58.2716 140.899 58.2358 140.974 58.2191C141.049 58.2025 141.127 58.2054 141.201 58.2277L164.5 64.7582C164.563 64.7767 164.622 64.8082 164.673 64.8508C164.724 64.8934 164.765 64.9462 164.794 65.0058C164.82 65.0676 164.833 65.1339 164.833 65.2009C164.833 65.2679 164.82 65.3343 164.794 65.3961L146.93 109.882C146.896 109.966 146.838 110.038 146.764 110.091C146.69 110.143 146.603 110.173 146.512 110.177ZM141.619 59.3224L146.778 107.769L163.73 65.5579L141.619 59.3224Z" fill="black"/>
<path d="M145.239 5.65006C146.354 5.50591 147.487 5.70118 148.49 6.21049C149.494 6.7198 150.321 7.5196 150.864 8.50599C150.914 7.57513 151.212 6.67469 151.727 5.89801C152.242 5.12133 152.954 4.49668 153.791 4.08882C155.475 3.29437 157.308 2.86302 159.169 2.82269C161.748 2.53273 164.359 2.71009 166.875 3.34628C173.327 5.25023 177.28 11.8379 179.228 18.2923C180.254 21.7289 181.043 26.4793 178.914 29.716C176.957 32.6957 171.313 34.733 168.148 36.1419C163.568 38.1601 158.646 39.6166 153.62 39.2739C140.402 38.379 133.618 24.8038 137.761 12.8756C138.711 10.0768 140.507 7.37314 143.215 6.21173C143.853 5.91169 144.538 5.7218 145.239 5.65006Z" fill="white"/>
<path d="M155.055 39.7784C154.56 39.7784 154.057 39.7784 153.563 39.7784C150.734 39.6113 147.985 38.7797 145.537 37.3508C143.089 35.922 141.011 33.9359 139.471 31.5533C137.7 28.7846 136.585 25.6461 136.213 22.3786C135.841 19.1111 136.221 15.8016 137.324 12.7042C138.502 9.30564 140.535 6.82098 143.025 5.71669C143.726 5.41818 144.47 5.23495 145.229 5.17406C146.218 5.06862 147.217 5.1962 148.148 5.54662C149.078 5.89703 149.914 6.46058 150.589 7.19225C151.088 5.6711 152.163 4.40661 153.582 3.66994C155.323 2.83811 157.221 2.38704 159.15 2.34669C161.79 2.05681 164.461 2.24056 167.037 2.88931C172.681 4.57431 177.289 10.1339 179.684 18.1209C180.739 21.6528 181.527 26.5745 179.313 29.9255C177.536 32.6196 173.042 34.5235 169.754 35.9134L168.338 36.5227C164.185 38.5229 159.66 39.6318 155.055 39.7784ZM145.277 6.12604C144.622 6.17177 143.979 6.32954 143.377 6.59251C140.326 7.93479 138.806 11.1906 138.179 13.0088C137.12 15.9689 136.754 19.133 137.108 22.2574C137.462 25.3817 138.527 28.3829 140.222 31.0298C141.69 33.2853 143.669 35.1623 145.996 36.5086C148.324 37.855 150.936 38.6328 153.62 38.7788C157.867 39.074 162.552 38.0553 167.93 35.6944C168.367 35.4945 168.88 35.2946 169.365 35.0757C172.529 33.7334 176.871 31.896 178.496 29.4399C180.501 26.3936 179.741 21.767 178.743 18.4256C177.65 14.7795 174.306 6.04988 166.733 3.80322C164.268 3.18362 161.713 3.01272 159.188 3.29867C157.396 3.33403 155.632 3.74592 154.009 4.50768C153.249 4.87441 152.601 5.43719 152.13 6.13819C151.659 6.83919 151.383 7.65315 151.33 8.49646C151.332 8.60532 151.296 8.71155 151.229 8.79675C151.161 8.88194 151.066 8.94073 150.959 8.96293C150.854 8.98836 150.744 8.97665 150.647 8.92978C150.55 8.88292 150.472 8.80379 150.427 8.70589C149.477 6.71626 147.168 5.97372 145.267 6.12604H145.277Z" fill="black"/>
<path d="M163.787 51.1926L164.367 65.2153C164.367 65.2153 158.732 73.1452 150.113 69.4801C141.495 65.815 141.096 58.6847 141.096 58.6847L143.871 31.9532C143.871 31.9532 151.13 29.4971 151.558 14.6558C158.383 19.0398 166.26 21.5027 174.363 21.7861C174.363 21.7861 175.864 38.1982 173.679 44.9953C171.493 51.7924 163.787 51.1926 163.787 51.1926Z" fill="white"/>
<path d="M154.598 70.9175C152.986 70.9166 151.39 70.5929 149.904 69.9656C141.096 66.2243 140.621 59.0559 140.602 58.7513L143.377 31.9531C143.386 31.8625 143.422 31.7766 143.479 31.7057C143.537 31.6349 143.613 31.5819 143.7 31.5533C143.766 31.5533 150.646 28.9639 151.064 14.6938C151.066 14.6076 151.092 14.5237 151.139 14.4514C151.186 14.3792 151.252 14.3214 151.33 14.2845C151.403 14.2399 151.487 14.2163 151.572 14.2163C151.658 14.2163 151.741 14.2399 151.814 14.2845C158.581 18.5998 166.375 21.0284 174.391 21.3196C174.506 21.3236 174.616 21.3692 174.7 21.448C174.783 21.5268 174.836 21.6333 174.847 21.7479C174.914 22.4239 176.32 38.3409 174.078 45.1571C172.111 51.1545 166.115 51.6686 164.281 51.6876L164.842 65.2057C164.852 65.3114 164.821 65.4168 164.756 65.5008C164.709 65.5579 160.813 70.9175 154.598 70.9175ZM144.289 32.2863L141.552 58.7322C141.552 58.9322 142.037 65.5389 150.275 69.0422C157.962 72.2979 163.112 66.091 163.891 65.0724L163.312 51.2116C163.31 51.077 163.361 50.9471 163.454 50.8499C163.504 50.8034 163.562 50.7676 163.626 50.7447C163.69 50.7217 163.757 50.7122 163.825 50.7166C164.129 50.7166 171.085 51.2021 173.175 44.8524C175.161 38.8169 174.125 24.8609 173.935 22.243C166.175 21.8648 158.631 19.5549 151.985 15.522C151.368 28.3071 145.676 31.658 144.289 32.2863Z" fill="black"/>
<path d="M147.605 39.0073C146.68 39.2448 145.716 39.2973 144.771 39.1618C143.825 39.0262 142.915 38.7052 142.094 38.2171C140.971 37.4887 140.053 36.4842 139.427 35.2992C138.802 34.1143 138.49 32.7886 138.521 31.4486C138.475 30.4718 138.643 29.4968 139.015 28.5926C139.214 28.1432 139.505 27.7411 139.871 27.4129C140.236 27.0846 140.667 26.8378 141.134 26.6887C142.32 26.4967 143.537 26.6937 144.602 27.2504C146.246 27.8977 146.351 28.8021 147.377 30.0397C147.263 29.9254 147.158 29.5922 147.054 29.478" fill="white"/>
<path d="M145.809 39.7117C144.418 39.7117 143.053 39.3369 141.856 38.6265C140.661 37.8596 139.684 36.797 139.018 35.5414C138.352 34.2858 138.021 32.8795 138.055 31.4581C137.997 30.3927 138.183 29.328 138.597 28.3451C138.82 27.8252 139.152 27.3592 139.57 26.9782C139.988 26.5973 140.482 26.3103 141.02 26.1365C142.316 25.9097 143.651 26.1136 144.821 26.7173C145.785 27.0789 146.585 27.7792 147.073 28.6878L147.253 28.9544C147.314 28.9766 147.37 29.0124 147.415 29.0591C147.523 29.1797 147.61 29.3182 147.671 29.4685C147.693 29.5211 147.718 29.572 147.747 29.6208C147.794 29.6652 147.832 29.7183 147.858 29.7773C147.884 29.8362 147.899 29.8998 147.901 29.9643C147.902 30.0288 147.891 30.0931 147.868 30.1534C147.845 30.2137 147.811 30.2689 147.766 30.3157C147.722 30.3626 147.669 30.4003 147.61 30.4266C147.551 30.4529 147.488 30.4674 147.424 30.4692C147.359 30.4709 147.295 30.46 147.235 30.4369C147.175 30.4139 147.12 30.3791 147.073 30.3348L146.997 30.2491C146.702 29.8873 146.484 29.5637 146.284 29.2971C145.895 28.5476 145.241 27.9704 144.45 27.6788C143.483 27.1661 142.378 26.976 141.296 27.1361C140.896 27.2616 140.527 27.4696 140.213 27.7467C139.899 28.0238 139.646 28.3639 139.471 28.745C139.117 29.5968 138.962 30.518 139.015 31.4391C138.977 32.6953 139.261 33.9404 139.839 35.0554C140.418 36.1705 141.273 37.1181 142.322 37.8078C143.875 38.7212 145.724 38.9878 147.472 38.5503C147.534 38.5347 147.599 38.5315 147.663 38.541C147.726 38.5505 147.787 38.5724 147.843 38.6056C147.898 38.6387 147.946 38.6825 147.984 38.7342C148.022 38.786 148.05 38.8448 148.066 38.9073C148.081 38.9698 148.085 39.0348 148.075 39.0985C148.066 39.1623 148.044 39.2235 148.011 39.2787C147.978 39.334 147.934 39.3822 147.882 39.4205C147.831 39.4589 147.772 39.4867 147.709 39.5023C147.087 39.651 146.449 39.7213 145.809 39.7117Z" fill="black"/>
<path d="M164.091 58.5611C162.493 58.6076 160.908 58.2634 159.473 57.5585C158.037 56.8536 156.795 55.8091 155.853 54.5152C152.527 50.0314 153.363 46.8994 153.363 46.8994C153.363 46.8994 157.696 51.4308 163.815 51.2214L164.091 58.5611Z" fill="black"/>
<path d="M163.701 59.056C162.094 59.0372 160.513 58.6427 159.084 57.904C157.656 57.1652 156.419 56.1026 155.473 54.8006C152.052 50.1835 152.869 46.8897 152.907 46.7564C152.927 46.6746 152.968 46.5995 153.026 46.5392C153.085 46.4788 153.159 46.4355 153.24 46.4137C153.322 46.3868 153.411 46.3824 153.496 46.4008C153.581 46.4192 153.66 46.4598 153.724 46.5184C153.724 46.5184 157.991 50.8499 163.787 50.6881C163.85 50.6813 163.914 50.6881 163.975 50.7081C164.035 50.7282 164.091 50.7609 164.138 50.8042C164.184 50.8475 164.221 50.9003 164.246 50.9591C164.271 51.0178 164.283 51.0813 164.281 51.145L164.585 58.5133C164.591 58.635 164.549 58.7541 164.47 58.8462C164.39 58.9383 164.278 58.9963 164.158 59.0084C164.158 59.0084 163.948 59.056 163.701 59.056ZM153.724 47.8798C153.859 50.2107 154.731 52.4381 156.214 54.239C157.063 55.4059 158.169 56.3615 159.446 57.0317C160.723 57.7019 162.137 58.0688 163.578 58.104L163.312 51.6686C159.776 51.5492 156.389 50.2109 153.724 47.8798Z" fill="black"/>
<path d="M162.666 28.9355C162.666 28.9355 166.467 36.6275 165.203 37.7128C163.939 38.798 160.87 37.5795 160.87 37.5795" fill="white"/>
<path d="M163.644 38.6455C162.633 38.6099 161.637 38.3972 160.699 38.0172C160.633 38.0002 160.572 37.9695 160.52 37.927C160.467 37.8846 160.424 37.8314 160.394 37.7709C160.363 37.7105 160.346 37.6443 160.343 37.5766C160.34 37.509 160.352 37.4415 160.377 37.3787C160.402 37.3159 160.44 37.2592 160.489 37.2124C160.538 37.1656 160.596 37.1297 160.66 37.1073C160.724 37.0848 160.791 37.0762 160.859 37.0821C160.926 37.088 160.991 37.1082 161.05 37.1413C161.82 37.446 164.024 38.0933 164.851 37.3508C165.383 36.9033 164.139 33.0669 162.191 29.1447C162.157 29.0887 162.135 29.0262 162.127 28.9613C162.118 28.8964 162.123 28.8305 162.141 28.7676C162.159 28.7047 162.19 28.6462 162.232 28.5958C162.273 28.5453 162.325 28.5041 162.383 28.4745C162.442 28.445 162.505 28.4278 162.571 28.4241C162.636 28.4204 162.701 28.4302 162.762 28.4529C162.824 28.4756 162.88 28.5107 162.927 28.556C162.974 28.6013 163.011 28.6559 163.036 28.7163C164.243 31.1344 166.837 36.8843 165.459 38.0743C164.94 38.4715 164.297 38.6737 163.644 38.6455Z" fill="black"/>
<path d="M158.187 27.9521C158.382 27.0528 158.024 26.2119 157.388 26.0738C156.752 25.9357 156.079 26.5527 155.884 27.4519C155.69 28.3511 156.048 29.192 156.684 29.3301C157.32 29.4682 157.993 28.8513 158.187 27.9521Z" fill="black"/>
<path d="M168.235 30.8324C168.884 30.7766 169.345 29.9883 169.267 29.0715C169.188 28.1548 168.599 27.4569 167.951 27.5127C167.302 27.5685 166.84 28.3569 166.919 29.2736C166.998 30.1903 167.587 30.8882 168.235 30.8324Z" fill="black"/>
<path d="M163.103 48.3461C162.784 48.3453 162.465 48.3134 162.153 48.2509C161.152 48.0525 160.21 47.6277 159.398 47.009C158.586 46.3903 157.926 45.5941 157.468 44.681C156.724 43.205 156.337 41.5746 156.337 39.9211C156.336 39.8527 156.35 39.7847 156.378 39.7222C156.406 39.6597 156.447 39.6041 156.499 39.5594C156.708 39.3785 156.793 39.2928 167.512 40.5114C167.623 40.5247 167.726 40.5768 167.802 40.6587C167.879 40.7405 167.924 40.8468 167.93 40.9588C167.93 41.1302 168.167 45.2998 165.801 47.4227C165.043 48.0467 164.084 48.3747 163.103 48.3461ZM157.288 40.3781C157.344 41.7054 157.688 43.0046 158.295 44.186C158.678 44.9766 159.235 45.6695 159.925 46.2121C160.615 46.7548 161.419 47.133 162.276 47.318C162.765 47.4364 163.275 47.4448 163.767 47.3428C164.26 47.2408 164.724 47.0307 165.127 46.7278C166.78 45.2522 166.961 42.4534 166.961 41.4253C163.635 41.035 158.779 40.4923 157.288 40.3781Z" fill="black"/>
<path d="M157.867 44.4621C159.768 48.0606 163.768 48.5746 165.469 47.0896C164.918 45.6901 164.015 44.2812 162.571 43.8814C160.984 43.5074 159.316 43.7133 157.867 44.4621Z" fill="black"/>
<path d="M163.112 48.3366C162.794 48.3345 162.476 48.3058 162.162 48.251C161.163 48.0505 160.224 47.6248 159.414 47.0063C158.604 46.3878 157.945 45.5926 157.487 44.681C157.461 44.6226 157.448 44.5594 157.448 44.4954C157.448 44.4315 157.461 44.3682 157.487 44.3098C157.508 44.2495 157.54 44.1941 157.583 44.1466C157.625 44.0992 157.677 44.0608 157.734 44.0337C159.28 43.2487 161.053 43.033 162.742 43.4244C164.11 43.7957 165.193 44.9762 165.953 46.9182C165.991 47.0073 165.999 47.106 165.977 47.2001C165.955 47.2942 165.903 47.3788 165.83 47.4418C165.064 48.0631 164.097 48.3814 163.112 48.3366ZM158.551 44.681C158.955 45.356 159.495 45.9392 160.136 46.3933C160.777 46.8473 161.506 47.1623 162.276 47.318C163.149 47.5156 164.064 47.3799 164.842 46.9372C164.656 46.3477 164.34 45.8078 163.918 45.3578C163.495 44.9078 162.976 44.5593 162.4 44.3383C161.113 44.038 159.765 44.1581 158.551 44.681Z" fill="black"/>
<path d="M90.1745 108.597C90.1745 108.597 79.6557 113.252 70.2202 106.455C60.7846 99.6577 36.906 45.5664 36.906 45.5664L47.2252 39.8545L76.1115 81.0941L90.1745 108.597Z" fill="white"/>
<path d="M81.8602 110.624C77.582 110.659 73.4045 109.325 69.9351 106.816C60.4996 100.029 37.4381 47.8987 36.4594 45.6805C36.4106 45.5684 36.405 45.4422 36.4436 45.3262C36.4822 45.2102 36.5623 45.1126 36.6684 45.0522L46.9876 39.4165C47.094 39.3597 47.2175 39.3439 47.3348 39.3719C47.452 39.4 47.555 39.47 47.6243 39.5689L76.5105 80.8085L90.6116 108.397C90.6375 108.459 90.6508 108.525 90.6508 108.592C90.6508 108.659 90.6375 108.725 90.6116 108.787C90.5921 108.849 90.5589 108.906 90.5145 108.954C90.4701 109.002 90.4156 109.039 90.355 109.063C87.6447 110.107 84.764 110.637 81.8602 110.624ZM37.5331 45.7377C39.7756 50.7641 61.7158 99.7338 70.5052 106.055C78.4585 111.767 87.3429 109.12 89.5093 108.34L75.6934 81.3511L47.0732 40.5304L37.5331 45.7377Z" fill="black"/>
<path d="M50.1519 45.2901C51.1864 39.1085 51.597 32.8383 51.3776 26.5742C51.3776 25.2891 50.7125 23.5565 49.4772 23.823C48.8311 23.9658 48.4415 24.6322 48.1754 25.2415C46.8987 28.1608 46.2511 31.3171 46.275 34.5042C45.0588 31.4388 43.8742 28.3798 42.7213 25.3272C42.3602 24.3752 40.1747 17.1687 39.0915 20.3293C38.5784 21.7953 39.2625 24.0801 39.443 25.5747C39.6901 27.5992 40.0068 29.6206 40.3933 31.6388C40.1652 30.2108 38.0082 19.7391 36.0698 21.167C34.4545 22.3951 35.8513 25.2224 36.1553 26.7551C36.5924 28.9542 36.716 31.6578 37.5521 33.7426C36.4784 31.1818 35.3096 28.6686 34.0174 26.222C33.6943 25.5937 32.8961 23.3661 32.2025 23.1186C31.5088 22.8711 30.6536 24.0134 30.5776 24.6798C30.4161 26.1363 31.4613 28.5639 31.8319 30.0109C32.326 31.9148 33.0007 33.8188 33.6753 35.7227C33.1242 34.171 31.7749 32.8097 31.0147 31.3817C30.3591 30.2108 29.8935 28.5258 28.6202 27.8213C28.4282 27.707 28.214 27.6352 27.992 27.6105C27.7701 27.5859 27.5454 27.609 27.3331 27.6784C27.1207 27.7478 26.9257 27.8619 26.7609 28.013C26.5961 28.164 26.4655 28.3486 26.3777 28.5544C26.3137 28.9972 26.3867 29.449 26.5868 29.849C30.1285 39.1747 35.2741 47.8064 41.79 55.3525" fill="white"/>
<path d="M41.714 55.8952C41.5741 55.8922 41.4409 55.8341 41.3434 55.7334C34.812 48.1453 29.6656 39.4639 26.1402 30.0871C25.9016 29.5936 25.8219 29.0381 25.9121 28.4973C25.9739 28.2508 26.0919 28.0219 26.2568 27.8287C26.4216 27.6355 26.6289 27.4831 26.8623 27.3835C27.1772 27.2463 27.5184 27.1803 27.8616 27.1902C28.2049 27.2 28.5417 27.2855 28.8482 27.4406C29.8529 28.1333 30.6038 29.1363 30.9862 30.2966C31.1382 30.6297 31.2808 30.9439 31.4423 31.2485C31.6038 31.5532 31.6799 31.6579 31.8129 31.8673C31.6513 31.3247 31.4993 30.7725 31.3568 30.2299C31.2523 29.8301 31.1002 29.3541 30.9292 28.8496C30.368 27.5104 30.0712 26.075 30.055 24.6228C30.1776 23.9263 30.5705 23.3067 31.1477 22.8997C31.3146 22.7873 31.504 22.7129 31.7026 22.6817C31.9012 22.6504 32.1043 22.6631 32.2975 22.7188C32.9911 22.9092 33.5233 24.0135 34.1314 25.4319C34.2454 25.689 34.3404 25.9175 34.4164 26.0603C34.9676 27.1074 35.4902 28.1641 36.0033 29.2399V29.1732C35.8893 28.3736 35.7847 27.6215 35.6422 26.917C35.5646 26.5437 35.4662 26.1751 35.3476 25.8127C34.863 24.2039 34.2074 22.0048 35.7467 20.8434C35.8942 20.7113 36.0757 20.6235 36.2706 20.5898C36.4655 20.5561 36.6659 20.578 36.849 20.653C37.6681 21.2226 38.2683 22.0556 38.5498 23.0139C38.3656 22.0665 38.4014 21.0893 38.6544 20.158C38.9109 19.4059 39.291 19.0347 39.7851 19.0347C40.7353 19.0347 41.619 20.5293 43.0158 24.5752C43.1013 24.8322 43.1678 25.0321 43.2153 25.1368C44.099 27.4311 44.9732 29.7539 45.8189 32.0672C46.0805 29.6369 46.7218 27.2629 47.7193 25.0321C47.8383 24.6371 48.0507 24.2768 48.3386 23.9817C48.6265 23.6867 48.9812 23.4657 49.3727 23.3376C49.603 23.284 49.8424 23.2835 50.0729 23.3363C50.3034 23.3891 50.5188 23.4937 50.703 23.6422C51.4366 24.4206 51.8358 25.4564 51.8147 26.5267C52.0436 32.8257 51.6329 39.1316 50.5889 45.3473C50.5798 45.4111 50.5579 45.4724 50.5244 45.5275C50.4909 45.5825 50.4466 45.6302 50.3942 45.6676C50.3417 45.705 50.2823 45.7313 50.2194 45.745C50.1565 45.7587 50.0915 45.7594 50.0283 45.7471C49.9642 45.7368 49.9029 45.7137 49.8479 45.6792C49.7928 45.6447 49.7453 45.5995 49.7081 45.5462C49.6709 45.4929 49.6447 45.4327 49.6312 45.3691C49.6176 45.3055 49.617 45.2398 49.6292 45.1759C50.6574 39.0289 51.0617 32.7934 50.836 26.5648C50.8503 25.7684 50.5693 24.9951 50.0473 24.3943C49.9739 24.3345 49.8875 24.293 49.795 24.2731C49.7025 24.2532 49.6066 24.2556 49.5152 24.2801C49.0686 24.3657 48.7645 24.9369 48.565 25.4129C47.3075 28.268 46.6602 31.3551 46.6646 34.4757C46.6641 34.5918 46.6229 34.704 46.5482 34.7928C46.4736 34.8815 46.3701 34.9411 46.256 34.9612C46.1418 34.9839 46.0232 34.9647 45.922 34.907C45.8208 34.8493 45.7438 34.757 45.7049 34.6471C44.6026 31.6008 43.4529 28.5068 42.2746 25.4796C42.2746 25.3558 42.1606 25.1464 42.0656 24.8798C40.6973 20.8815 40.0417 20.1199 39.7661 19.9962C39.6854 20.1432 39.6155 20.2959 39.5571 20.4531C39.3212 21.7045 39.3699 22.993 39.6996 24.2229C39.7851 24.6894 39.8611 25.1749 39.9086 25.5176C40.1557 27.4977 40.4503 29.5064 40.8018 31.4675C40.7998 31.496 40.7998 31.5246 40.8018 31.5532C40.7958 31.6653 40.7518 31.772 40.6772 31.8558C40.6026 31.9397 40.5018 31.9956 40.3913 32.0144C40.2807 32.0332 40.1671 32.0138 40.0691 31.9594C39.971 31.905 39.8943 31.8188 39.8516 31.715C39.8516 31.4865 39.7756 31.2581 39.7281 31.0296C39.158 27.9833 37.5901 22.0144 36.4404 21.5574C36.4404 21.5574 36.3834 21.5574 36.3169 21.5574C35.3667 22.3095 35.8418 24.0611 36.2598 25.4605C36.3834 25.8984 36.5069 26.3078 36.5734 26.6505C36.7254 27.393 36.83 28.1546 36.944 28.9638C37.0884 30.5241 37.4071 32.0632 37.8942 33.5523C37.9433 33.6785 37.9404 33.8192 37.8861 33.9433C37.8317 34.0673 37.7304 34.1647 37.6044 34.2139C37.4784 34.2632 37.338 34.2602 37.2142 34.2058C37.0903 34.1513 36.9931 34.0498 36.944 33.9236C35.8893 31.4008 34.711 28.8781 33.4377 26.4506C33.3522 26.2982 33.2477 26.0412 33.1147 25.7556C32.8771 25.2035 32.25 23.7374 31.9079 23.5946C31.8468 23.5794 31.7828 23.5792 31.7216 23.5941C31.6604 23.609 31.6036 23.6386 31.5563 23.6803C31.2176 23.9401 30.9873 24.3167 30.9102 24.737C30.9627 26.0112 31.2326 27.2669 31.7084 28.4497C31.8794 28.9733 32.0409 29.4683 32.155 29.8872C32.6586 31.8768 33.3712 33.8379 33.9889 35.5991C34.0107 35.6616 34.02 35.7278 34.0163 35.7939C34.0126 35.86 33.996 35.9248 33.9673 35.9844C33.9386 36.0441 33.8985 36.0975 33.8492 36.1417C33.7999 36.1858 33.7424 36.2198 33.68 36.2416C33.6176 36.2635 33.5516 36.2729 33.4856 36.2692C33.4196 36.2655 33.3549 36.2488 33.2954 36.22C33.2358 36.1913 33.1825 36.1511 33.1384 36.1017C33.0944 36.0523 33.0605 35.9948 33.0386 35.9323C32.643 35.0112 32.1321 34.1443 31.5183 33.3524C31.1182 32.8108 30.7471 32.2484 30.4066 31.6674C30.2355 31.3628 30.074 31.0105 29.9125 30.6583C29.6016 29.7147 29.0076 28.8902 28.2116 28.2974C28.0339 28.2173 27.8412 28.1758 27.6462 28.1758C27.4513 28.1758 27.2586 28.2173 27.0809 28.2974C26.9842 28.3374 26.8974 28.3982 26.8268 28.4755C26.7562 28.5528 26.7034 28.6448 26.6723 28.7448C26.6422 29.0923 26.7079 29.4413 26.8623 29.7539C30.4069 39.0306 35.5603 47.6066 42.0846 55.086C42.1279 55.1344 42.1611 55.1909 42.1822 55.2523C42.2033 55.3137 42.2119 55.3788 42.2075 55.4436C42.2031 55.5084 42.1857 55.5716 42.1564 55.6296C42.1272 55.6875 42.0866 55.739 42.0371 55.781C41.9456 55.855 41.8316 55.8953 41.714 55.8952Z" fill="black"/>
<path d="M41.3244 46.0139C41.2192 46.0139 41.1168 45.9794 41.0328 45.9159C40.9488 45.8523 40.8877 45.7631 40.8588 45.6617C38.7494 38.1887 45.8474 34.1428 45.9234 34.0762C46.0373 34.0217 46.1676 34.0129 46.2877 34.0516C46.4079 34.0904 46.5086 34.1737 46.5694 34.2845C46.6301 34.3953 46.6463 34.5252 46.6145 34.6475C46.5827 34.7698 46.5055 34.8754 46.3985 34.9424C46.1325 35.0852 39.8706 38.6742 41.7995 45.4142C41.835 45.5392 41.82 45.6731 41.7578 45.7871C41.6955 45.901 41.5911 45.9859 41.467 46.0235L41.3244 46.0139Z" fill="black"/>
<path d="M102.356 138.156L98.3178 150.036H176.985V139.241L102.356 138.156Z" fill="white"/>
<path d="M176.985 150.522H98.3178C98.2405 150.521 98.1645 150.502 98.0954 150.467C98.0263 150.433 97.9659 150.383 97.9187 150.322C97.8745 150.257 97.8463 150.183 97.8364 150.105C97.8265 150.027 97.8351 149.948 97.8617 149.874L101.891 138.003C101.917 137.9 101.98 137.81 102.067 137.749C102.154 137.688 102.26 137.66 102.366 137.67L176.995 138.746C177.123 138.751 177.245 138.805 177.335 138.897C177.426 138.989 177.477 139.112 177.479 139.241V150.036C177.477 150.166 177.424 150.289 177.331 150.38C177.239 150.471 177.115 150.522 176.985 150.522ZM99.0019 149.57H176.529V139.726L102.746 138.651L99.0019 149.57Z" fill="black"/>
<path d="M178.373 124.523C178.308 124.52 178.244 124.503 178.186 124.474C178.127 124.445 178.076 124.404 178.034 124.354C177.992 124.304 177.961 124.246 177.942 124.183C177.924 124.121 177.918 124.055 177.926 123.99L182.382 72.0598C182.386 71.9947 182.403 71.9309 182.432 71.8725C182.461 71.814 182.502 71.7622 182.551 71.7203C182.601 71.6783 182.659 71.6471 182.722 71.6285C182.784 71.61 182.85 71.6045 182.915 71.6124C182.978 71.6172 183.04 71.6346 183.097 71.6636C183.154 71.6925 183.205 71.7325 183.247 71.7811C183.288 71.8298 183.32 71.8862 183.339 71.9471C183.359 72.008 183.366 72.0722 183.361 72.136L178.905 124.076C178.893 124.206 178.83 124.325 178.73 124.409C178.631 124.493 178.502 124.534 178.373 124.523Z" fill="black"/>
<path d="M95.8378 104.408C95.7635 104.409 95.6901 104.393 95.6227 104.361C95.5554 104.33 95.4958 104.284 95.4482 104.227C95.408 104.177 95.378 104.12 95.3601 104.058C95.3421 103.997 95.3365 103.932 95.3436 103.869C95.3507 103.805 95.3703 103.743 95.4013 103.687C95.4323 103.631 95.474 103.582 95.5242 103.542L118.063 85.1401C118.165 85.0776 118.286 85.0542 118.404 85.0745C118.522 85.0947 118.629 85.1572 118.704 85.2503C118.78 85.3433 118.819 85.4606 118.815 85.5804C118.81 85.7003 118.763 85.8144 118.681 85.9017L96.1418 104.303C96.0557 104.373 95.9482 104.41 95.8378 104.408Z" fill="black"/>
<path d="M23.7171 112.871H25.3895C25.4478 112.896 25.5082 112.915 25.57 112.928C28.0833 113.066 30.5113 113.889 32.5921 115.308C34.8864 116.764 36.7224 118.842 37.8877 121.3C39.053 123.757 39.5 126.496 39.177 129.198C38.9133 132.472 37.4913 135.544 35.1671 137.86C33.6255 139.509 31.7196 140.773 29.6024 141.55C27.4852 142.327 25.2157 142.596 22.976 142.335C20.6142 142.125 18.3463 141.308 16.3911 139.964C14.6563 138.825 13.1842 137.328 12.0732 135.573C10.9622 133.818 10.2379 131.846 9.94866 129.788C9.88214 129.359 9.83463 128.931 9.77762 128.512V126.837L9.83463 126.522C9.92015 125.904 9.96766 125.266 10.1007 124.618C10.7191 121.647 12.2369 118.938 14.4474 116.861C16.6578 114.785 19.4534 113.441 22.4534 113.014C22.8429 112.976 23.28 112.928 23.7171 112.871ZM35.3287 135.88C37.0003 133.683 37.9588 131.025 38.0747 128.265H32.231C32.136 129.312 32.0789 130.349 31.9364 131.378C31.7939 132.406 31.5943 133.405 31.4138 134.376L35.3287 135.88ZM10.9844 128.265C11.1003 131.025 12.0588 133.683 13.7305 135.88L17.6833 134.338C17.1776 132.346 16.9065 130.301 16.8757 128.246L10.9844 128.265ZM38.0557 127.075C38.1698 124.895 36.5924 120.582 35.3096 119.459L31.3758 120.982C31.8782 122.975 32.1523 125.019 32.193 127.075H38.0557ZM17.6833 120.991L13.7495 119.459C12.3242 120.963 10.7563 125.275 11.0224 127.075H16.8947C16.9184 125.017 17.1831 122.969 17.6833 120.972V120.991ZM25.1234 133.558C25.9881 133.624 26.8338 133.672 27.67 133.767C28.5062 133.862 29.3519 134.005 30.207 134.138C30.207 134.062 30.207 133.986 30.2736 133.9C30.7083 132.149 30.9504 130.355 30.9957 128.55C30.9957 128.303 30.9387 128.246 30.7011 128.246H25.38H25.1234V133.558ZM18.0634 128.255C18.0665 130.226 18.3122 132.189 18.7951 134.1L23.8787 133.519V128.265L18.0634 128.255ZM31.0052 127.065C30.9793 125.105 30.7177 123.155 30.226 121.258L25.1234 121.839V127.065H31.0052ZM18.7951 121.239C18.3039 123.136 18.0455 125.086 18.0254 127.046H23.9262V121.82L18.7951 121.239ZM29.827 120.02C29.4283 118.738 28.8423 117.523 28.0881 116.412C27.5822 115.632 26.9024 114.981 26.1022 114.508C25.7886 114.337 25.4465 114.232 25.0854 114.08V120.544C26.6915 120.52 28.2917 120.344 29.865 120.02H29.827ZM25.0759 134.757V141.154C25.7869 141.024 26.4461 140.694 26.9763 140.202C28.0796 139.137 28.9275 137.835 29.4564 136.394C29.5894 136.061 29.7129 135.719 29.846 135.347C28.2971 135.002 26.719 134.804 25.1329 134.757H25.0759ZM23.8692 141.173V134.748C22.2717 134.782 20.681 134.967 19.1181 135.3C19.3937 135.976 19.6408 136.632 19.9353 137.261C20.4336 138.4 21.169 139.419 22.0923 140.25C22.611 140.715 23.2439 141.034 23.9262 141.173H23.8692ZM19.0706 120.001C20.649 120.338 22.2558 120.523 23.8692 120.554V114.109C23.381 114.202 22.92 114.404 22.5199 114.699C21.5579 115.395 20.7813 116.316 20.2584 117.383C19.8878 118.24 19.5362 119.116 19.1276 120.001H19.0706ZM34.4355 136.87C33.3378 136.308 32.1808 135.871 30.9862 135.566C30.4198 137.478 29.4473 139.245 28.1356 140.745C30.5731 140.071 32.7746 138.729 34.4925 136.87H34.4355ZM20.8855 114.613C19.4127 114.67 15.3458 117.165 14.5762 118.516L17.9494 119.821C18.377 118.869 18.7476 117.917 19.1752 117.069C19.6148 116.167 20.1918 115.338 20.8855 114.613ZM14.5667 136.87C16.2909 138.735 18.4982 140.083 20.9425 140.764C19.597 139.268 18.6034 137.488 18.0349 135.557C16.8331 135.862 15.6697 136.303 14.5667 136.87ZM28.2306 114.623C28.8899 115.349 29.4463 116.163 29.884 117.041C30.3021 117.926 30.6821 118.821 31.0812 119.735C32.2645 119.433 33.4091 118.995 34.4925 118.431C32.8059 116.594 30.6349 115.274 28.2306 114.623Z" fill="#D1D3D4"/>
<path d="M249.99 144.782H214.946C214.82 144.782 214.699 144.731 214.61 144.642C214.521 144.553 214.471 144.432 214.471 144.306V124.961C214.473 124.836 214.524 124.716 214.613 124.627C214.701 124.539 214.821 124.488 214.946 124.485H249.99C250.116 124.485 250.236 124.536 250.326 124.625C250.415 124.714 250.465 124.835 250.465 124.961V144.306C250.465 144.432 250.415 144.553 250.326 144.642C250.236 144.731 250.116 144.782 249.99 144.782ZM215.421 143.83H249.514V125.437H215.421V143.83Z" fill="#D1D3D4"/>
<path d="M232.477 137.508C232.382 137.509 232.288 137.479 232.211 137.423L214.68 125.352C214.625 125.318 214.578 125.273 214.541 125.22C214.504 125.167 214.478 125.107 214.465 125.044C214.452 124.98 214.452 124.915 214.465 124.852C214.478 124.789 214.504 124.729 214.54 124.676C214.577 124.622 214.624 124.577 214.679 124.543C214.734 124.509 214.795 124.486 214.859 124.477C214.922 124.467 214.987 124.47 215.05 124.486C215.112 124.503 215.171 124.531 215.222 124.571L232.477 136.452L249.695 124.581C249.746 124.541 249.804 124.512 249.867 124.496C249.929 124.48 249.994 124.476 250.058 124.486C250.122 124.496 250.183 124.519 250.238 124.553C250.292 124.587 250.339 124.632 250.376 124.685C250.413 124.738 250.439 124.798 250.452 124.861C250.464 124.925 250.464 124.99 250.451 125.053C250.438 125.116 250.413 125.176 250.376 125.229C250.339 125.282 250.291 125.327 250.237 125.361L232.715 137.432C232.644 137.48 232.562 137.506 232.477 137.508Z" fill="#D1D3D4"/>
<path d="M214.946 144.781C214.845 144.78 214.748 144.747 214.667 144.686C214.587 144.626 214.527 144.542 214.498 144.445C214.468 144.349 214.47 144.246 214.503 144.15C214.535 144.055 214.597 143.973 214.68 143.915L228.724 134.243C228.775 134.203 228.833 134.175 228.896 134.158C228.958 134.142 229.023 134.139 229.087 134.149C229.151 134.158 229.212 134.181 229.266 134.215C229.321 134.249 229.368 134.294 229.405 134.347C229.442 134.4 229.468 134.46 229.48 134.524C229.493 134.587 229.493 134.652 229.48 134.715C229.467 134.779 229.441 134.839 229.405 134.892C229.368 134.945 229.32 134.989 229.266 135.023L215.222 144.696C215.14 144.751 215.044 144.781 214.946 144.781Z" fill="#D1D3D4"/>
<path d="M249.99 144.781C249.894 144.78 249.802 144.75 249.724 144.696L235.689 135.052C235.634 135.018 235.587 134.973 235.55 134.92C235.513 134.867 235.487 134.808 235.474 134.744C235.461 134.681 235.461 134.616 235.474 134.552C235.487 134.489 235.513 134.429 235.549 134.376C235.586 134.323 235.633 134.278 235.688 134.244C235.743 134.21 235.804 134.187 235.868 134.177C235.931 134.168 235.996 134.171 236.059 134.187C236.121 134.203 236.18 134.232 236.231 134.272L250.265 143.944C250.348 144.002 250.411 144.085 250.443 144.181C250.476 144.278 250.477 144.382 250.446 144.479C250.415 144.575 250.354 144.66 250.272 144.719C250.19 144.779 250.091 144.811 249.99 144.81V144.781Z" fill="#D1D3D4"/>
<path d="M263.625 99.2104C260.659 99.2123 257.758 98.3326 255.291 96.6827C252.824 95.0327 250.901 92.6867 249.764 89.9414C248.628 87.196 248.331 84.1748 248.909 81.2599C249.487 78.345 250.915 75.6674 253.013 73.5659C255.111 71.4645 257.783 70.0335 260.693 69.4542C263.602 68.8749 266.618 69.1732 269.358 70.3113C272.098 71.4495 274.44 73.3764 276.087 75.8483C277.734 78.3201 278.612 81.2258 278.61 84.1977C278.602 88.177 277.021 91.9912 274.213 94.805C271.404 97.6187 267.597 99.2029 263.625 99.2104ZM263.625 70.1275C260.847 70.1256 258.131 70.9492 255.82 72.4941C253.509 74.0391 251.708 76.2359 250.643 78.8067C249.579 81.3775 249.299 84.2069 249.84 86.9369C250.381 89.6668 251.718 92.1748 253.682 94.1435C255.645 96.1122 258.148 97.4532 260.872 97.9969C263.597 98.5406 266.421 98.2625 268.988 97.1978C271.555 96.1332 273.748 94.3298 275.292 92.0157C276.836 89.7017 277.66 86.981 277.66 84.1977C277.655 80.4693 276.175 76.8948 273.544 74.2575C270.913 71.6202 267.347 70.1351 263.625 70.1275Z" fill="#D1D3D4"/>
<path d="M267.834 98.5821C267.733 98.5812 267.635 98.5487 267.553 98.4889C267.471 98.4291 267.41 98.3452 267.378 98.2489L263.169 84.331C263.146 84.2625 263.14 84.1894 263.152 84.1181C263.164 84.0468 263.192 83.9794 263.236 83.9216L271.664 72.0886C271.7 72.0371 271.746 71.9933 271.799 71.9596C271.852 71.926 271.911 71.9032 271.973 71.8926C272.034 71.882 272.098 71.8837 272.159 71.8978C272.22 71.9118 272.278 71.9378 272.329 71.9743C272.429 72.0502 272.496 72.1621 272.516 72.2864C272.535 72.4107 272.506 72.5377 272.433 72.6407L264.148 84.2834L268.291 97.9252C268.327 98.0464 268.314 98.1769 268.255 98.2889C268.197 98.4009 268.097 98.4856 267.977 98.525L267.834 98.5821Z" fill="#D1D3D4"/>
<path d="M263.616 84.6734C263.539 84.6712 263.465 84.6517 263.397 84.6163L250.569 77.8192C250.514 77.7898 250.465 77.7498 250.424 77.7013C250.384 77.6529 250.354 77.5971 250.336 77.5369C250.317 77.4768 250.311 77.4136 250.316 77.351C250.322 77.2884 250.34 77.2275 250.37 77.1719C250.399 77.1162 250.439 77.0669 250.487 77.0268C250.536 76.9866 250.591 76.9564 250.651 76.9378C250.711 76.9193 250.774 76.9127 250.837 76.9186C250.9 76.9244 250.96 76.9426 251.016 76.9719L263.844 83.7691C263.955 83.8296 264.037 83.9312 264.075 84.0521C264.112 84.173 264.101 84.3037 264.043 84.4164C264.002 84.494 263.94 84.559 263.865 84.6043C263.79 84.6495 263.703 84.6734 263.616 84.6734Z" fill="#D1D3D4"/>
<path d="M63.2647 138.965H58.2856C58.1596 138.965 58.0387 138.915 57.9496 138.826C57.8605 138.736 57.8105 138.615 57.8105 138.489V115.642C57.8105 115.515 57.8605 115.394 57.9496 115.305C58.0387 115.216 58.1596 115.166 58.2856 115.166H63.2647C63.3907 115.166 63.5115 115.216 63.6006 115.305C63.6897 115.394 63.7398 115.515 63.7398 115.642V138.489C63.7398 138.615 63.6897 138.736 63.6006 138.826C63.5115 138.915 63.3907 138.965 63.2647 138.965ZM58.7607 138.013H62.7896V116.118H58.7607V138.013Z" fill="#D1D3D4"/>
<path d="M74.154 138.965H69.1559C69.0299 138.965 68.9091 138.915 68.82 138.826C68.7309 138.736 68.6808 138.615 68.6808 138.489V122.677C68.6808 122.55 68.7309 122.429 68.82 122.34C68.9091 122.251 69.0299 122.201 69.1559 122.201H74.135C74.261 122.201 74.3819 122.251 74.471 122.34C74.5601 122.429 74.6101 122.55 74.6101 122.677V138.518C74.6031 138.636 74.5526 138.747 74.4683 138.829C74.3839 138.912 74.2719 138.96 74.154 138.965ZM69.6501 138.013H73.6789V123.124H69.6501V138.013Z" fill="#D1D3D4"/>
<path d="M85.0434 138.965H80.0643C79.9383 138.965 79.8175 138.915 79.7284 138.825C79.6393 138.736 79.5892 138.615 79.5892 138.489V128.322C79.5892 128.195 79.6393 128.074 79.7284 127.985C79.8175 127.896 79.9383 127.846 80.0643 127.846H85.0434C85.1694 127.846 85.2902 127.896 85.3793 127.985C85.4684 128.074 85.5185 128.195 85.5185 128.322V138.489C85.5185 138.615 85.4684 138.736 85.3793 138.825C85.2902 138.915 85.1694 138.965 85.0434 138.965ZM80.5394 138.013H84.5683V128.798H80.5584L80.5394 138.013Z" fill="#D1D3D4"/>
<path d="M89.1578 138.965H53.4396C53.3136 138.965 53.1927 138.915 53.1036 138.825C53.0145 138.736 52.9645 138.615 52.9645 138.489C52.9645 138.362 53.0145 138.241 53.1036 138.152C53.1927 138.063 53.3136 138.013 53.4396 138.013H89.1578C89.2838 138.013 89.4047 138.063 89.4938 138.152C89.5829 138.241 89.6329 138.362 89.6329 138.489C89.6329 138.615 89.5829 138.736 89.4938 138.825C89.4047 138.915 89.2838 138.965 89.1578 138.965Z" fill="#D1D3D4"/>
<path d="M35.4332 81.2274H14.4051C13.2282 81.2274 12.0995 80.759 11.2674 79.9253C10.4352 79.0916 9.96765 77.9608 9.96765 76.7817V64.7963C9.96765 64.2125 10.0824 63.6344 10.3054 63.095C10.5284 62.5556 10.8553 62.0655 11.2674 61.6527C11.6794 61.2399 12.1686 60.9124 12.707 60.689C13.2453 60.4656 13.8224 60.3506 14.4051 60.3506H35.4332C36.0159 60.3506 36.5929 60.4656 37.1313 60.689C37.6697 60.9124 38.1589 61.2399 38.5709 61.6527C38.983 62.0655 39.3098 62.5556 39.5328 63.095C39.7558 63.6344 39.8706 64.2125 39.8706 64.7963V76.7817C39.8706 77.9608 39.4031 79.0916 38.5709 79.9253C37.7387 80.759 36.6101 81.2274 35.4332 81.2274ZM14.4051 61.3026C13.4802 61.3026 12.5932 61.6707 11.9393 62.3259C11.2853 62.9811 10.9179 63.8697 10.9179 64.7963V76.7817C10.9204 77.7075 11.2886 78.5947 11.942 79.2494C12.5955 79.904 13.481 80.2729 14.4051 80.2755H35.4332C36.358 80.2755 37.245 79.9074 37.899 79.2522C38.553 78.597 38.9204 77.7083 38.9204 76.7817V64.7963C38.9204 63.8697 38.553 62.9811 37.899 62.3259C37.245 61.6707 36.358 61.3026 35.4332 61.3026H14.4051Z" fill="#D1D3D4"/>
<path d="M20.0873 77.3435C19.9988 77.3463 19.9119 77.3195 19.8403 77.2674C19.771 77.2262 19.7136 77.1677 19.6736 77.0976C19.6336 77.0275 19.6125 76.9483 19.6122 76.8675V64.7108C19.6135 64.629 19.635 64.5488 19.6748 64.4774C19.7146 64.4059 19.7715 64.3455 19.8403 64.3015C19.9096 64.2613 19.9883 64.2402 20.0683 64.2402C20.1484 64.2402 20.2271 64.2613 20.2964 64.3015L32.7821 70.3179C32.865 70.3558 32.9354 70.4168 32.9847 70.4936C33.034 70.5704 33.0602 70.6598 33.0602 70.7511C33.0602 70.8424 33.034 70.9318 32.9847 71.0086C32.9354 71.0854 32.865 71.1464 32.7821 71.1842L20.2964 77.2579C20.2339 77.3016 20.1625 77.3309 20.0873 77.3435ZM20.5624 65.4724V76.106L31.4898 70.7939L20.5624 65.4724Z" fill="#D1D3D4"/>
<path d="M99.9331 54.8957H69.8021C69.6761 54.8957 69.5552 54.8455 69.4661 54.7563C69.3771 54.667 69.327 54.5459 69.327 54.4197V33.3334C69.327 33.2072 69.3771 33.0861 69.4661 32.9968C69.5552 32.9076 69.6761 32.8574 69.8021 32.8574H99.9331C100.059 32.8574 100.18 32.9076 100.269 32.9968C100.358 33.0861 100.408 33.2072 100.408 33.3334V54.4197C100.408 54.5459 100.358 54.667 100.269 54.7563C100.18 54.8455 100.059 54.8957 99.9331 54.8957ZM70.2772 53.9437H99.458V33.8094H70.2772V53.9437Z" fill="#D1D3D4"/>
<path d="M69.8021 54.8958C69.6992 54.8965 69.5989 54.863 69.517 54.8006C69.4183 54.7234 69.3532 54.6108 69.3355 54.4866C69.3178 54.3623 69.3488 54.2361 69.422 54.1342L81.3186 38.0839C81.3631 38.0283 81.4195 37.9834 81.4837 37.9526C81.5478 37.9218 81.618 37.9058 81.6892 37.9058C81.7603 37.9058 81.8305 37.9218 81.8947 37.9526C81.9588 37.9834 82.0152 38.0283 82.0597 38.0839L91.3718 49.1363C91.4537 49.2335 91.4937 49.3594 91.483 49.4861C91.4723 49.6129 91.4118 49.7302 91.3148 49.8122C91.2177 49.8943 91.0921 49.9344 90.9656 49.9237C90.8391 49.913 90.722 49.8523 90.6401 49.7551L81.7177 39.1596L70.1822 54.7054C70.1374 54.764 70.0799 54.8116 70.0141 54.8446C69.9482 54.8776 69.8757 54.8951 69.8021 54.8958Z" fill="#D1D3D4"/>
<path d="M88.4546 46.8703C88.3563 46.8699 88.2604 46.84 88.1791 46.7846C88.078 46.7119 88.0094 46.6024 87.9881 46.4795C87.9668 46.3567 87.9944 46.2304 88.0651 46.1278L92.9111 39.1498C92.9509 39.0921 93.0032 39.0442 93.0641 39.0096C93.125 38.975 93.1928 38.9546 93.2627 38.9499C93.3326 38.9441 93.403 38.9539 93.4687 38.9785C93.5344 39.0032 93.5939 39.0422 93.6428 39.0927L100.294 46.0706C100.338 46.1141 100.374 46.1659 100.398 46.2231C100.422 46.2803 100.434 46.3418 100.434 46.4038C100.434 46.4659 100.422 46.5273 100.398 46.5845C100.374 46.6418 100.338 46.6936 100.294 46.737C100.25 46.7817 100.197 46.8171 100.14 46.8412C100.082 46.8654 100.02 46.8778 99.9569 46.8778C99.8942 46.8778 99.8321 46.8654 99.7742 46.8412C99.7163 46.8171 99.6637 46.7817 99.6196 46.737L93.3577 40.1779L88.8727 46.6799C88.8254 46.7451 88.762 46.797 88.6888 46.8304C88.6155 46.8637 88.5348 46.8775 88.4546 46.8703Z" fill="#D1D3D4"/>
<path d="M88.9773 39.902C88.5149 39.902 88.063 39.7646 87.6786 39.5073C87.2942 39.25 86.9946 38.8842 86.8177 38.4563C86.6407 38.0284 86.5945 37.5575 86.6847 37.1033C86.7748 36.649 86.9975 36.2317 87.3244 35.9042C87.6513 35.5767 88.0678 35.3536 88.5212 35.2633C88.9747 35.1729 89.4447 35.2193 89.8718 35.3965C90.2989 35.5738 90.664 35.8739 90.9208 36.2591C91.1777 36.6442 91.3148 37.0969 91.3148 37.5601C91.3148 38.1812 91.0685 38.7769 90.6301 39.2161C90.1918 39.6553 89.5972 39.902 88.9773 39.902ZM88.9773 36.1702C88.7029 36.1702 88.4347 36.2518 88.2065 36.4045C87.9784 36.5572 87.8006 36.7743 87.6956 37.0282C87.5906 37.2822 87.5631 37.5617 87.6166 37.8313C87.6701 38.1009 87.8023 38.3485 87.9963 38.5429C88.1903 38.7373 88.4375 38.8697 88.7066 38.9233C88.9757 38.9769 89.2546 38.9494 89.5081 38.8442C89.7616 38.739 89.9783 38.5609 90.1307 38.3323C90.2832 38.1037 90.3646 37.835 90.3646 37.5601C90.3646 37.1915 90.2184 36.838 89.9582 36.5773C89.6981 36.3167 89.3452 36.1702 88.9773 36.1702Z" fill="#D1D3D4"/>
<path d="M253.163 106.188H235.87C235.744 106.188 235.623 106.138 235.534 106.049C235.444 105.96 235.394 105.839 235.394 105.712C235.394 105.586 235.444 105.465 235.534 105.376C235.623 105.286 235.744 105.236 235.87 105.236H253.163C253.289 105.236 253.41 105.286 253.499 105.376C253.588 105.465 253.638 105.586 253.638 105.712C253.638 105.839 253.588 105.96 253.499 106.049C253.41 106.138 253.289 106.188 253.163 106.188Z" fill="#D1D3D4"/>
<path d="M253.163 109.92H235.87C235.744 109.92 235.623 109.87 235.534 109.781C235.444 109.692 235.394 109.57 235.394 109.444C235.394 109.318 235.444 109.197 235.534 109.108C235.623 109.018 235.744 108.968 235.87 108.968H253.163C253.289 108.968 253.41 109.018 253.499 109.108C253.588 109.197 253.638 109.318 253.638 109.444C253.638 109.57 253.588 109.692 253.499 109.781C253.41 109.87 253.289 109.92 253.163 109.92Z" fill="#D1D3D4"/>
<path d="M247.909 113.661H235.87C235.744 113.661 235.623 113.611 235.534 113.522C235.444 113.432 235.394 113.311 235.394 113.185C235.394 113.059 235.444 112.938 235.534 112.848C235.623 112.759 235.744 112.709 235.87 112.709H247.909C248.035 112.709 248.155 112.759 248.245 112.848C248.334 112.938 248.384 113.059 248.384 113.185C248.384 113.311 248.334 113.432 248.245 113.522C248.155 113.611 248.035 113.661 247.909 113.661Z" fill="#D1D3D4"/>
<path d="M43.814 91.2615H14.5286C14.4026 91.2615 14.2818 91.2114 14.1927 91.1221C14.1036 91.0329 14.0535 90.9118 14.0535 90.7856C14.0535 90.6593 14.1036 90.5383 14.1927 90.449C14.2818 90.3597 14.4026 90.3096 14.5286 90.3096H43.814C43.94 90.3096 44.0608 90.3597 44.1499 90.449C44.239 90.5383 44.2891 90.6593 44.2891 90.7856C44.2891 90.9118 44.239 91.0329 44.1499 91.1221C44.0608 91.2114 43.94 91.2615 43.814 91.2615Z" fill="#D1D3D4"/>
<path d="M43.814 94.9837H14.5286C14.4026 94.9837 14.2818 94.9336 14.1927 94.8443C14.1036 94.755 14.0535 94.634 14.0535 94.5077C14.0535 94.3815 14.1036 94.2604 14.1927 94.1711C14.2818 94.0819 14.4026 94.0317 14.5286 94.0317H43.814C43.9392 94.0342 44.0586 94.0851 44.1472 94.1738C44.2358 94.2626 44.2866 94.3822 44.2891 94.5077C44.2891 94.634 44.239 94.755 44.1499 94.8443C44.0608 94.9336 43.94 94.9837 43.814 94.9837Z" fill="#D1D3D4"/>
<path d="M34.9485 98.7249H14.5286C14.4026 98.7249 14.2818 98.6748 14.1927 98.5855C14.1036 98.4963 14.0535 98.3752 14.0535 98.2489C14.0535 98.1227 14.1036 98.0016 14.1927 97.9124C14.2818 97.8231 14.4026 97.7729 14.5286 97.7729H34.9485C35.0746 97.7729 35.1954 97.8231 35.2845 97.9124C35.3736 98.0016 35.4237 98.1227 35.4237 98.2489C35.4237 98.3752 35.3736 98.4963 35.2845 98.5855C35.1954 98.6748 35.0746 98.7249 34.9485 98.7249Z" fill="#D1D3D4"/>
<path d="M269.526 122.286H267.226V120.877H269.811L270.276 118.821H267.967V117.402H270.6L271.369 113.89H273.621L272.852 117.402H275.493L276.263 113.89H278.486L277.717 117.402H280.026V118.868H277.413L276.975 120.925H279.284V122.334H276.719L275.93 125.856H273.697L274.467 122.334H271.806L271.037 125.856H268.813L269.526 122.286ZM272.5 118.868L272.063 120.925H274.704L275.142 118.868H272.5Z" fill="#D1D3D4"/>
<path d="M235.489 131.597C235.168 132.042 234.74 132.398 234.245 132.634C233.75 132.874 233.207 132.997 232.658 132.996C232.183 133 231.712 132.913 231.271 132.739C230.849 132.58 230.461 132.341 230.13 132.035C229.805 131.727 229.543 131.358 229.361 130.949C229.169 130.515 229.072 130.044 229.076 129.569C229.072 129.098 229.166 128.631 229.351 128.198C229.531 127.79 229.789 127.421 230.111 127.113C230.436 126.8 230.816 126.551 231.233 126.38C232.054 126.058 232.963 126.037 233.798 126.323C234.179 126.451 234.533 126.648 234.843 126.903C235.152 127.167 235.405 127.491 235.584 127.855C235.78 128.259 235.877 128.702 235.87 129.15C235.877 129.437 235.835 129.724 235.746 129.997C235.685 130.216 235.585 130.423 235.451 130.607C235.346 130.767 235.21 130.906 235.052 131.016C234.911 131.114 234.757 131.194 234.596 131.254C234.458 131.307 234.315 131.346 234.169 131.368C234.052 131.38 233.934 131.38 233.817 131.368C233.62 131.385 233.423 131.327 233.266 131.206C233.163 131.12 233.099 130.997 233.085 130.864C232.945 130.997 232.789 131.112 232.62 131.206C232.397 131.322 232.148 131.377 231.898 131.368C231.714 131.37 231.532 131.331 231.366 131.254C231.202 131.177 231.057 131.067 230.938 130.93C230.82 130.787 230.729 130.622 230.672 130.445C230.605 130.242 230.573 130.03 230.577 129.816C230.574 129.551 230.616 129.287 230.7 129.036C230.782 128.795 230.904 128.569 231.061 128.369C231.221 128.176 231.418 128.017 231.641 127.903C231.884 127.785 232.151 127.726 232.42 127.732C232.63 127.727 232.837 127.769 233.028 127.855C233.2 127.942 233.335 128.087 233.408 128.265L233.485 127.846H234.349L234.007 129.664L233.96 129.921C233.95 130.013 233.95 130.105 233.96 130.197C233.957 130.282 233.973 130.367 234.007 130.445C234.03 130.475 234.061 130.499 234.096 130.514C234.131 130.529 234.169 130.535 234.207 130.53C234.31 130.531 234.411 130.505 234.501 130.454C234.604 130.395 234.689 130.309 234.748 130.207C234.831 130.074 234.891 129.93 234.929 129.778C235.047 129.249 235.007 128.696 234.815 128.189C234.707 127.916 234.538 127.671 234.321 127.475C234.101 127.279 233.842 127.133 233.561 127.046C233.253 126.95 232.932 126.902 232.61 126.903C232.253 126.901 231.899 126.965 231.565 127.094C231.262 127.218 230.99 127.406 230.767 127.646C230.536 127.882 230.358 128.164 230.244 128.474C230.116 128.808 230.052 129.163 230.054 129.521C230.046 129.894 230.118 130.264 230.263 130.607C230.39 130.916 230.581 131.195 230.824 131.425C231.078 131.649 231.371 131.824 231.689 131.939C232.038 132.056 232.404 132.114 232.772 132.111C233.094 132.112 233.415 132.064 233.722 131.968C234.005 131.877 234.269 131.735 234.501 131.549L235.489 131.597ZM232.477 128.617C232.336 128.615 232.197 128.644 232.069 128.703C231.949 128.759 231.842 128.84 231.755 128.941C231.673 129.05 231.609 129.172 231.565 129.302C231.526 129.442 231.507 129.586 231.508 129.731C231.504 129.804 231.504 129.877 231.508 129.95C231.519 130.049 231.548 130.146 231.594 130.235C231.649 130.332 231.727 130.414 231.822 130.473C231.952 130.554 232.106 130.591 232.259 130.578C232.41 130.582 232.56 130.549 232.696 130.483C232.807 130.417 232.902 130.326 232.971 130.216C233.04 130.105 233.088 129.983 233.114 129.854C233.128 129.725 233.128 129.594 233.114 129.464C233.121 129.25 233.065 129.038 232.952 128.855C232.897 128.781 232.826 128.721 232.743 128.679C232.661 128.638 232.57 128.617 232.477 128.617Z" fill="#D1D3D4"/>
</svg>
