<svg width="296" height="226" viewBox="0 0 296 226" fill="none" xmlns="http://www.w3.org/2000/svg">
<path d="M201.126 217.497L199.289 224.282L170.665 213.92L180.842 211.437" fill="white"/>
<path d="M199.288 224.77C199.234 224.78 199.177 224.78 199.122 224.77L170.499 214.408C170.4 214.372 170.314 214.305 170.256 214.217C170.198 214.129 170.17 214.025 170.176 213.919C170.18 213.814 170.218 213.713 170.286 213.631C170.353 213.55 170.445 213.493 170.548 213.47L180.724 210.996C180.854 210.965 180.991 210.987 181.104 211.057C181.218 211.126 181.299 211.238 181.33 211.368C181.361 211.497 181.34 211.634 181.27 211.748C181.201 211.861 181.089 211.943 180.959 211.974L172.346 214.066L198.956 223.705L200.647 217.429C200.682 217.302 200.765 217.194 200.878 217.128C200.992 217.062 201.126 217.044 201.253 217.077C201.377 217.115 201.481 217.2 201.544 217.312C201.608 217.425 201.626 217.557 201.596 217.683L199.758 224.467C199.72 224.599 199.632 224.712 199.513 224.78C199.438 224.792 199.362 224.788 199.288 224.77Z" fill="black"/>
<path d="M98.2071 205.874C98.0775 205.874 97.9532 205.822 97.8615 205.731C97.7698 205.639 97.7183 205.515 97.7183 205.385V0.602557C97.7183 0.472923 97.7698 0.348597 97.8615 0.256932C97.9532 0.165266 98.0775 0.11377 98.2071 0.11377C98.3367 0.11377 98.4611 0.165266 98.5527 0.256932C98.6444 0.348597 98.6959 0.472923 98.6959 0.602557V205.385C98.6959 205.515 98.6444 205.639 98.5527 205.731C98.4611 205.822 98.3367 205.874 98.2071 205.874Z" fill="#D1D3D4"/>
<path d="M116.742 224.956C116.61 224.956 116.483 224.903 116.39 224.809L98.2952 206.118L80.2003 224.809C80.1549 224.855 80.1008 224.892 80.0413 224.916C79.9817 224.941 79.9178 224.954 79.8533 224.954C79.7888 224.954 79.7249 224.941 79.6653 224.916C79.6057 224.892 79.5517 224.855 79.5063 224.809C79.4161 224.716 79.3656 224.592 79.3656 224.462C79.3656 224.333 79.4161 224.208 79.5063 224.115L97.9531 205.072C98.0465 204.979 98.1731 204.927 98.305 204.927C98.4369 204.927 98.5635 204.979 98.6569 205.072L117.104 224.115C117.15 224.161 117.186 224.215 117.211 224.274C117.236 224.334 117.248 224.398 117.248 224.462C117.248 224.527 117.236 224.591 117.211 224.65C117.186 224.71 117.15 224.764 117.104 224.809C117.057 224.858 117.001 224.896 116.939 224.921C116.876 224.947 116.809 224.958 116.742 224.956Z" fill="#D1D3D4"/>
<path d="M98.2071 205.874C98.0775 205.874 97.9532 205.822 97.8615 205.731C97.7698 205.639 97.7183 205.515 97.7183 205.385V0.602557C97.7183 0.472923 97.7698 0.348597 97.8615 0.256932C97.9532 0.165266 98.0775 0.11377 98.2071 0.11377C98.3367 0.11377 98.4611 0.165266 98.5527 0.256932C98.6444 0.348597 98.6959 0.472923 98.6959 0.602557V205.385C98.6959 205.515 98.6444 205.639 98.5527 205.731C98.4611 205.822 98.3367 205.874 98.2071 205.874Z" fill="black"/>
<path d="M116.742 224.956C116.61 224.956 116.483 224.903 116.39 224.809L98.2952 206.118L80.2003 224.809C80.1549 224.855 80.1008 224.892 80.0413 224.916C79.9817 224.941 79.9178 224.954 79.8533 224.954C79.7888 224.954 79.7249 224.941 79.6653 224.916C79.6057 224.892 79.5517 224.855 79.5063 224.809C79.4161 224.716 79.3656 224.592 79.3656 224.462C79.3656 224.333 79.4161 224.208 79.5063 224.115L97.9531 205.072C98.0465 204.979 98.1731 204.927 98.305 204.927C98.4369 204.927 98.5635 204.979 98.6569 205.072L117.104 224.115C117.15 224.161 117.186 224.215 117.211 224.274C117.236 224.334 117.248 224.398 117.248 224.462C117.248 224.527 117.236 224.591 117.211 224.65C117.186 224.71 117.15 224.764 117.104 224.809C117.057 224.858 117.001 224.896 116.939 224.921C116.876 224.947 116.809 224.958 116.742 224.956Z" fill="black"/>
<path d="M178.036 4.98206H18.564V122.848H178.036V4.98206Z" fill="white"/>
<path d="M178.026 123.357H18.5249C18.3901 123.357 18.2608 123.303 18.1655 123.208C18.0702 123.112 18.0166 122.983 18.0166 122.848V4.98206C18.0166 4.91575 18.0298 4.85011 18.0555 4.78898C18.0811 4.72784 18.1187 4.67244 18.1661 4.62602C18.2134 4.57959 18.2695 4.54307 18.3311 4.5186C18.3928 4.49413 18.4586 4.48219 18.5249 4.48349H178.026C178.092 4.48219 178.158 4.49413 178.22 4.5186C178.282 4.54307 178.338 4.57959 178.385 4.62602C178.432 4.67244 178.47 4.72784 178.496 4.78898C178.521 4.85011 178.534 4.91575 178.534 4.98206V122.848C178.534 122.915 178.521 122.981 178.496 123.043C178.47 123.104 178.433 123.161 178.386 123.208C178.338 123.255 178.282 123.292 178.221 123.318C178.159 123.343 178.093 123.357 178.026 123.357ZM19.0626 122.379H177.528V5.4904H19.0626V122.379Z" fill="black"/>
<path d="M53.7763 58.2209C55.1962 58.2209 56.3473 57.0698 56.3473 55.6499C56.3473 54.2299 55.1962 53.0789 53.7763 53.0789C52.3563 53.0789 51.2053 54.2299 51.2053 55.6499C51.2053 57.0698 52.3563 58.2209 53.7763 58.2209Z" fill="white"/>
<path d="M83.6803 48.4939C85.1003 48.4939 86.2514 47.3428 86.2514 45.9228C86.2514 44.5029 85.1003 43.3518 83.6803 43.3518C82.2604 43.3518 81.1093 44.5029 81.1093 45.9228C81.1093 47.3428 82.2604 48.4939 83.6803 48.4939Z" fill="white"/>
<path d="M102.215 60.0586C103.635 60.0586 104.786 58.9075 104.786 57.4875C104.786 56.0676 103.635 54.9165 102.215 54.9165C100.795 54.9165 99.6441 56.0676 99.6441 57.4875C99.6441 58.9075 100.795 60.0586 102.215 60.0586Z" fill="white"/>
<path d="M70.1018 71.0664C71.5218 71.0664 72.6729 69.9153 72.6729 68.4953C72.6729 67.0754 71.5218 65.9243 70.1018 65.9243C68.6819 65.9243 67.5308 67.0754 67.5308 68.4953C67.5308 69.9153 68.6819 71.0664 70.1018 71.0664Z" fill="white"/>
<path d="M203.404 98.5559C203.404 98.5559 186.521 150.67 180.802 211.436L201.077 217.497L228.449 129.418L238.724 218.377L260.181 218.837C260.181 218.837 260.377 165.705 254.873 98.595C243.758 98.3603 203.404 98.5559 203.404 98.5559Z" fill="black"/>
<path d="M150.107 71.6627C150.107 71.6627 172.112 99.1521 182.259 98.2723C192.406 97.3925 204.988 76.6484 204.988 76.6484L194.616 58.3384C194.616 58.3384 181.379 74.439 178.974 73.3442C176.57 72.2493 160.225 60.3229 160.225 60.3229" fill="white"/>
<path d="M181.78 98.7804C171.31 98.7804 150.615 73.0799 149.725 71.9655C149.679 71.9163 149.643 71.8579 149.621 71.7942C149.598 71.7304 149.589 71.6627 149.593 71.5951C149.598 71.5276 149.617 71.4619 149.649 71.402C149.68 71.3421 149.724 71.2895 149.777 71.2473C149.83 71.2052 149.891 71.1746 149.956 71.1573C150.022 71.1401 150.09 71.1366 150.157 71.1472C150.224 71.1577 150.288 71.182 150.345 71.2185C150.402 71.2551 150.451 71.303 150.488 71.3594C150.713 71.6233 172.454 98.624 182.22 97.7539C191.419 96.9523 202.964 78.9258 204.411 76.609L194.538 59.1593C193.501 60.4008 190.852 63.5388 188.046 66.5595C180.578 74.5952 179.297 74.0086 178.75 73.7545C176.306 72.64 160.577 61.1731 159.902 60.6843C159.799 60.6064 159.73 60.4915 159.71 60.3639C159.69 60.2362 159.72 60.1057 159.794 60C159.872 59.8963 159.988 59.8277 160.116 59.8094C160.245 59.791 160.375 59.8244 160.479 59.9022C160.645 60.0195 176.795 71.7993 179.15 72.8649C180.128 73.3048 186.209 67.7717 194.234 57.9959C194.284 57.934 194.349 57.8855 194.422 57.8548C194.496 57.8241 194.576 57.8121 194.655 57.82C194.734 57.8252 194.81 57.8504 194.877 57.8931C194.944 57.9359 194.998 57.9948 195.036 58.0644L205.408 76.3744C205.454 76.4495 205.478 76.5357 205.478 76.6236C205.478 76.7116 205.454 76.7978 205.408 76.8729C204.89 77.7332 192.592 97.8321 182.308 98.7315L181.78 98.7804Z" fill="black"/>
<path d="M252.293 67.0777L265.852 61.4958C261.032 51.2117 255.607 45.1018 251.863 42.7166C247.082 38.7378 235.244 38.4641 224.363 38.0437C220.889 37.8276 217.402 38.1575 214.03 39.0213C201.322 42.5308 189.591 60.8799 189.591 60.8799L200.941 67.6447C200.941 67.6447 199.68 92.612 201.312 101.058C201.312 101.058 230.747 113.767 255.46 106.816C255.44 106.845 251.999 70.3037 252.293 67.0777Z" fill="#2FE784"/>
<path d="M226.25 34.7005L224.559 42.8535C224.559 42.8535 226.367 48.2692 231.842 47.7413C233.462 47.5554 235.021 47.0117 236.406 46.1495C237.791 45.2872 238.966 44.128 239.848 42.7557L241.803 27.7695C241.803 27.7695 238.147 25.1398 240.454 16.7522C235.86 18.0376 231.004 18.0612 226.397 16.8206C226.397 16.8206 222.74 25.7654 222.828 29.969C222.916 34.1726 226.25 34.7005 226.25 34.7005Z" fill="white"/>
<path d="M231.05 48.2594C225.888 48.2594 224.099 43.0782 224.08 43.0293C224.056 42.943 224.056 42.8517 224.08 42.7654L225.683 35.0621C224.651 34.6806 223.77 33.9778 223.168 33.0573C222.566 32.1368 222.276 31.0473 222.34 29.9494C222.252 25.6871 225.791 16.9672 225.937 16.5957C225.983 16.4821 226.069 16.3893 226.179 16.3352C226.289 16.2811 226.415 16.2694 226.533 16.3024C231.045 17.5048 235.796 17.4846 240.298 16.2438C240.384 16.2143 240.477 16.2088 240.567 16.2277C240.656 16.2466 240.739 16.2893 240.806 16.3513C240.872 16.414 240.92 16.4936 240.944 16.5815C240.968 16.6694 240.968 16.7622 240.943 16.8499C238.782 24.7487 242.077 27.3099 242.106 27.3295C242.18 27.3841 242.237 27.4571 242.274 27.5413C242.31 27.6254 242.323 27.7176 242.312 27.8085L240.356 42.7947C240.347 42.8595 240.327 42.9222 240.298 42.9804C239.38 44.4244 238.15 45.644 236.699 46.5492C235.247 47.4544 233.611 48.0221 231.91 48.2105C231.636 48.2398 231.324 48.2594 231.05 48.2594ZM225.077 42.824C225.38 43.6159 227.169 47.7119 231.793 47.2036C233.319 47.0208 234.787 46.5071 236.093 45.6983C237.4 44.8895 238.515 43.8052 239.359 42.521L241.256 27.8574C240.464 27.1046 238.108 24.1915 239.731 17.3582C235.442 18.3842 230.969 18.3641 226.69 17.2996C225.986 19.0885 223.249 26.2932 223.327 29.8321C223.405 33.5468 226.26 34.1041 226.338 34.1236C226.405 34.1353 226.47 34.1604 226.527 34.1975C226.584 34.2345 226.634 34.2828 226.672 34.3394C226.71 34.396 226.737 34.4597 226.75 34.5268C226.763 34.5938 226.763 34.6629 226.749 34.7297L225.077 42.824Z" fill="black"/>
<path d="M238.714 27.0657C238.991 26.3577 239.492 25.7601 240.141 25.3647C240.751 25.0316 241.412 24.8004 242.097 24.6804C242.473 24.5928 242.864 24.5928 243.24 24.6804C243.502 24.7584 243.748 24.8844 243.964 25.0519C244.5 25.4099 244.892 25.947 245.068 26.5672C245.145 27.0791 245.098 27.602 244.931 28.0922C244.788 28.6373 244.578 29.1627 244.306 29.6563C244.018 30.1384 243.637 30.5585 243.185 30.8925C242.733 31.2266 242.22 31.4678 241.675 31.6023C241.129 31.7368 240.563 31.762 240.008 31.6763C239.452 31.5906 238.92 31.3958 238.44 31.1031" fill="white"/>
<path d="M240.698 32.1784C239.82 32.1796 238.957 31.9395 238.206 31.4843C238.092 31.4137 238.011 31.3012 237.98 31.1714C237.949 31.0415 237.97 30.9046 238.039 30.7903C238.073 30.7331 238.119 30.6834 238.172 30.644C238.226 30.6047 238.287 30.5764 238.351 30.5609C238.416 30.5454 238.483 30.543 238.549 30.5539C238.614 30.5647 238.677 30.5886 238.733 30.6241C239.155 30.8824 239.625 31.0542 240.114 31.1296C240.603 31.2051 241.102 31.1825 241.582 31.0634C242.062 30.9442 242.514 30.7308 242.911 30.4356C243.308 30.1403 243.643 29.7691 243.895 29.3434C244.153 28.8934 244.347 28.4098 244.472 27.9064C244.614 27.4955 244.658 27.0567 244.599 26.6258C244.449 26.1268 244.127 25.6972 243.69 25.4136C243.533 25.2796 243.35 25.1797 243.152 25.1203C242.849 25.0535 242.536 25.0535 242.233 25.1203C241.593 25.2251 240.975 25.4366 240.405 25.746C239.852 26.0837 239.424 26.5913 239.183 27.1928C239.135 27.3184 239.039 27.4198 238.916 27.4747C238.793 27.5297 238.654 27.5338 238.528 27.486C238.406 27.434 238.308 27.337 238.256 27.2152C238.203 27.0933 238.199 26.9558 238.245 26.8311C238.563 26.0199 239.136 25.3339 239.877 24.8759C240.548 24.5077 241.274 24.2534 242.028 24.1232C242.478 24.0153 242.947 24.0153 243.396 24.1232C243.724 24.2136 244.03 24.37 244.296 24.5827C244.929 25.0112 245.387 25.6531 245.586 26.3912C245.683 26.9841 245.632 27.5916 245.44 28.1606C245.295 28.7499 245.068 29.3159 244.765 29.842C244.115 30.9284 243.06 31.7124 241.832 32.022C241.463 32.123 241.082 32.1755 240.698 32.1784Z" fill="black"/>
<path d="M242.546 35.8538C242.434 35.839 242.331 35.7873 242.251 35.7071C242.172 35.6268 242.122 35.5225 242.109 35.4105C242.095 35.2986 242.119 35.1853 242.177 35.0886C242.235 34.9919 242.324 34.9172 242.429 34.8763C243.962 34.486 245.4 33.7871 246.654 32.8223C247.907 31.8575 248.951 30.6471 249.721 29.265C252.104 25.0571 252.865 20.1235 251.862 15.3932C251.207 12.7831 250.357 12.0401 249.751 11.8739C249.457 11.8361 249.157 11.8657 248.876 11.9605C248.595 12.0554 248.339 12.213 248.128 12.4214C248.055 12.4967 247.96 12.5475 247.857 12.5667C247.753 12.586 247.647 12.5728 247.551 12.5289C247.459 12.4823 247.382 12.4089 247.331 12.3183C247.281 12.2277 247.259 12.1239 247.268 12.0206C247.268 11.8837 247.551 8.73591 244.335 5.56857C241.94 3.25172 234.1 0.367867 228.166 1.14015C225.116 1.54096 222.926 2.82158 221.655 4.94292C220.296 7.23045 219.896 9.34201 220.463 11.2287C221.168 13.1386 222.563 14.7151 224.373 15.6474C224.433 15.6756 224.486 15.7153 224.531 15.7643C224.575 15.8132 224.609 15.8704 224.631 15.9326C224.654 15.9948 224.663 16.0607 224.66 16.1267C224.657 16.1926 224.641 16.2573 224.612 16.317C224.584 16.3767 224.544 16.4303 224.496 16.4746C224.447 16.5189 224.389 16.5532 224.327 16.5754C224.202 16.6204 224.063 16.6136 223.943 16.5565C221.861 15.5205 220.261 13.7202 219.475 11.5318C218.811 9.36156 219.241 6.9665 220.766 4.4248C222.193 2.02975 224.627 0.582937 228 0.143028C234.442 -0.707462 242.507 2.411 245.01 4.84516C246.796 6.48221 247.946 8.69845 248.255 11.1016C248.792 10.808 249.421 10.7277 250.015 10.8768C251.266 11.219 252.214 12.6462 252.84 15.1293C253.908 20.1288 253.104 25.3462 250.582 29.7929C249.742 31.2874 248.608 32.5966 247.249 33.6416C245.89 34.6866 244.333 35.4457 242.673 35.8734L242.546 35.8538Z" fill="black"/>
<path d="M225.595 38.7867C226.561 39.0285 227.567 39.0611 228.547 38.8824C229.526 38.7037 230.456 38.3178 231.274 37.7505C233.914 35.7953 233.885 34.4756 233.885 34.4756C233.885 34.4756 229.837 36.0299 226.455 34.8666L225.595 38.7867Z" fill="black"/>
<path d="M227.325 39.4906C226.695 39.4959 226.067 39.417 225.458 39.2559C225.341 39.2216 225.241 39.1438 225.18 39.0384C225.118 38.933 225.099 38.808 225.126 38.6889L225.976 34.7786C225.991 34.7116 226.02 34.6484 226.06 34.5929C226.1 34.5373 226.152 34.4908 226.211 34.456C226.275 34.4294 226.343 34.4157 226.411 34.4157C226.48 34.4157 226.548 34.4294 226.612 34.456C229.779 35.5509 233.67 34.0846 233.709 34.065C233.783 34.0366 233.862 34.0264 233.94 34.0354C234.019 34.0443 234.094 34.072 234.159 34.1162C234.224 34.1603 234.278 34.2196 234.315 34.289C234.353 34.3584 234.373 34.4359 234.374 34.5147C234.374 34.6711 234.325 36.157 231.558 38.1904C230.323 39.066 228.839 39.5218 227.325 39.4906ZM226.182 38.4152C227.858 38.7136 229.585 38.3338 230.982 37.3594C231.814 36.7928 232.53 36.0729 233.093 35.2381C231.057 35.8568 228.897 35.9443 226.817 35.4923L226.182 38.4152Z" fill="black"/>
<path d="M201.332 101.576C201.207 101.574 201.089 101.526 200.998 101.441C200.908 101.356 200.852 101.24 200.843 101.117C200.344 84.0697 201.744 67.0201 205.017 50.2828C205.029 50.2203 205.053 50.1608 205.088 50.1076C205.123 50.0545 205.168 50.0088 205.221 49.9734C205.273 49.9379 205.333 49.9132 205.395 49.9009C205.457 49.8886 205.522 49.8888 205.584 49.9016C205.648 49.9133 205.709 49.9376 205.763 49.973C205.817 50.0085 205.864 50.0544 205.9 50.1081C205.937 50.1617 205.962 50.2221 205.975 50.2857C205.988 50.3493 205.988 50.4148 205.975 50.4784C202.721 67.1257 201.327 84.0833 201.82 101.039C201.824 101.103 201.816 101.167 201.795 101.228C201.774 101.289 201.741 101.345 201.698 101.393C201.655 101.441 201.604 101.48 201.546 101.508C201.488 101.537 201.425 101.553 201.361 101.557L201.332 101.576Z" fill="black"/>
<path d="M227.863 97.0013C227.863 96.2387 223.835 65.7189 223.835 65.7189L194.332 64.2036L199.376 94.5084L227.863 97.0013Z" fill="black"/>
<path d="M264.796 58.6804C264.796 58.6804 287.642 99.1422 273.056 101.616C262.899 103.346 242.634 98.6828 235.068 94.7725C227.501 90.8622 224.363 88.0077 224.363 88.0077C224.363 88.0077 215.917 87.382 216.924 85.3682C217.207 84.8008 217.671 84.3438 218.243 84.0694C218.815 83.7951 219.462 83.7189 220.081 83.853C220.081 83.853 216.044 83.4717 216.552 81.585C217.061 79.6983 220.336 80.3239 220.336 80.3239C220.336 80.3239 214.656 78.3004 216.171 77.1664C217.686 76.0324 220.58 76.9122 220.58 76.9122C220.58 76.9122 216.67 76.2083 216.807 74.5171C217.041 71.6528 229.28 74.7713 231.676 77.0393C234.071 79.3073 248.656 81.585 251.305 81.8392L244.462 67.2538" fill="white"/>
<path d="M267.953 102.476C257.073 102.476 241.422 98.5654 234.843 95.1732C231.048 93.3376 227.468 91.0886 224.168 88.467C222.721 88.3497 217.403 87.8218 216.513 86.2382C216.417 86.0681 216.367 85.8762 216.367 85.6809C216.367 85.4857 216.417 85.2938 216.513 85.1237C216.777 84.5655 217.198 84.0966 217.725 83.7747C217.176 83.5884 216.691 83.2493 216.327 82.7971C216.189 82.6065 216.096 82.3868 216.055 82.1547C216.014 81.9225 216.027 81.6842 216.093 81.4578C216.218 81.0418 216.46 80.67 216.788 80.3861C217.117 80.1022 217.52 79.9178 217.95 79.8546C216.738 79.268 215.575 78.5153 215.457 77.743C215.428 77.5549 215.453 77.3622 215.531 77.1886C215.61 77.0149 215.737 76.8678 215.897 76.7655C216.321 76.4675 216.805 76.2672 217.315 76.1789C217.015 76.0058 216.767 75.7562 216.595 75.4557C216.423 75.1551 216.334 74.8143 216.337 74.4682C216.369 74.1613 216.494 73.8715 216.695 73.6374C216.895 73.4034 217.163 73.2362 217.461 73.1582C220.394 72.0242 229.798 74.5561 232.037 76.6775C234.08 78.6326 246.271 80.7149 250.513 81.2427L244.003 67.4492C243.975 67.3908 243.958 67.3275 243.955 67.2629C243.952 67.1982 243.961 67.1336 243.983 67.0726C244.005 67.0117 244.039 66.9557 244.082 66.9079C244.126 66.8601 244.179 66.8215 244.237 66.7942C244.356 66.7402 244.49 66.7345 244.612 66.7784C244.735 66.8222 244.835 66.9121 244.892 67.0288L251.735 81.624C251.778 81.6983 251.801 81.7826 251.801 81.8684C251.801 81.9542 251.778 82.0385 251.735 82.1128C251.685 82.181 251.618 82.2355 251.541 82.2713C251.465 82.3072 251.38 82.3233 251.295 82.3181C248.861 82.0835 233.953 79.8253 231.372 77.4302C229.417 75.5533 220.414 73.1191 217.813 74.1064C217.344 74.2922 217.325 74.5073 217.315 74.5952C217.266 75.2795 218.615 75.9247 219.876 76.2767C220.174 76.3234 220.468 76.392 220.756 76.482C220.875 76.5163 220.977 76.5956 221.039 76.7032C221.101 76.8108 221.118 76.9383 221.088 77.0587C221.06 77.1799 220.987 77.2859 220.883 77.3549C220.78 77.4239 220.654 77.4508 220.531 77.4302C220.414 77.4302 220.081 77.3422 219.651 77.2249C218.59 76.9553 217.467 77.084 216.494 77.5866C216.494 78.0656 218.449 79.1507 220.521 79.8937C220.639 79.932 220.738 80.0145 220.796 80.1239C220.854 80.2333 220.868 80.361 220.834 80.4802C220.802 80.5998 220.725 80.7027 220.62 80.768C220.515 80.8333 220.389 80.8563 220.267 80.8322C220.267 80.8322 217.422 80.3336 217.051 81.7315C217.021 81.8216 217.013 81.9176 217.029 82.0112C217.044 82.1048 217.082 82.1934 217.139 82.2692C217.853 82.8894 218.747 83.263 219.69 83.3348C219.868 83.3441 220.044 83.367 220.218 83.4032C220.348 83.4239 220.464 83.4953 220.541 83.6017C220.618 83.708 220.65 83.8405 220.629 83.9702C220.608 84.0998 220.537 84.2159 220.43 84.2929C220.324 84.3699 220.191 84.4015 220.062 84.3808L219.632 84.3221C219.176 84.2736 218.716 84.3632 218.311 84.5793C217.907 84.7955 217.577 85.1282 217.364 85.5343C217.344 85.5632 217.334 85.5973 217.334 85.6321C217.334 85.6669 217.344 85.7009 217.364 85.7298C217.862 86.6096 221.782 87.2744 224.402 87.4797C224.511 87.4829 224.615 87.5245 224.696 87.597C224.696 87.597 227.892 90.4711 235.292 94.2934C242.693 98.1157 262.987 102.818 272.968 101.136C273.763 101.04 274.521 100.742 275.168 100.269C275.815 99.797 276.33 99.1665 276.663 98.4383C281.19 88.9167 264.542 59.218 264.366 58.9149C264.31 58.8028 264.3 58.6738 264.337 58.5544C264.374 58.435 264.455 58.3342 264.564 58.2729C264.673 58.2115 264.801 58.1942 264.923 58.2246C265.044 58.2549 265.149 58.3305 265.216 58.4359C265.92 59.6774 282.294 88.8874 277.543 98.8587C277.143 99.7276 276.528 100.481 275.757 101.047C274.986 101.613 274.083 101.973 273.134 102.094C271.421 102.366 269.688 102.494 267.953 102.476Z" fill="black"/>
<path d="M162.766 62.3463C162.766 62.3463 156.901 46.7051 155.62 47.2526C154.339 47.8 156.598 57.5073 156.598 57.5073C156.598 57.5073 147.223 47.3014 146.011 47.9662C144.798 48.631 145.561 51.1531 149.09 56.3342C149.09 56.3342 142.863 49.1491 141.875 50.6448C140.888 52.1404 146.998 58.5827 146.998 58.5827C146.998 58.5827 141.132 52.3751 140.301 53.6166C139.471 54.8581 145.844 61.3101 145.844 61.3101C145.844 61.3101 139.881 54.3693 139.471 56.52C139.06 58.6706 150.879 72.6695 154.271 76.5212" fill="white"/>
<path d="M154.281 77.0102C154.212 77.0121 154.143 76.9981 154.081 76.9693C154.018 76.9405 153.963 76.8976 153.919 76.844C153.763 76.668 138.454 59.2476 139.001 56.4224C139.021 56.2416 139.095 56.071 139.214 55.9331C139.332 55.7952 139.49 55.6965 139.666 55.6502C139.962 55.5971 140.267 55.6417 140.536 55.7772C139.881 54.7312 139.558 53.8221 139.901 53.3529C139.972 53.2425 140.069 53.1505 140.183 53.0842C140.296 53.018 140.424 52.9794 140.556 52.9716C141.256 53.0476 141.917 53.3339 142.452 53.7928C141.543 52.3753 141.005 51.0751 141.475 50.3712C141.559 50.2496 141.669 50.1485 141.798 50.0757C141.926 50.0029 142.07 49.9602 142.217 49.9509C143.136 49.8922 144.71 51.1435 146.196 52.561C144.935 50.1562 144.906 49.12 145.052 48.5139C145.096 48.3073 145.184 48.1127 145.311 47.9439C145.437 47.775 145.6 47.6359 145.786 47.5363C146.763 47.0084 150.087 49.8043 155.728 55.8359C154.818 51.6421 154.193 47.2626 155.444 46.7933C155.532 46.7554 155.627 46.7358 155.723 46.7358C155.819 46.7358 155.913 46.7554 156.001 46.7933C157.663 47.5461 161.955 58.7393 163.226 62.151C163.255 62.2675 163.241 62.3907 163.185 62.4972C163.129 62.6037 163.036 62.6859 162.924 62.7282C162.811 62.7705 162.687 62.77 162.575 62.7266C162.463 62.6833 162.371 62.6002 162.316 62.4932C159.843 55.8848 156.793 48.8071 155.728 47.8296C155.415 48.7485 156.128 53.392 157.086 57.4098C157.112 57.5138 157.101 57.6233 157.057 57.7208C157.013 57.8182 156.937 57.898 156.842 57.9475C156.746 58.0004 156.635 58.0195 156.527 58.0018C156.419 57.984 156.32 57.9305 156.246 57.8497C152.091 53.2746 147.242 48.6116 146.196 48.3868C146.093 48.4659 146.023 48.5811 146.001 48.7094C145.825 49.4328 146.284 51.2999 149.5 56.0216C149.57 56.1246 149.598 56.2503 149.579 56.3732C149.559 56.496 149.493 56.6068 149.395 56.6828C149.296 56.7589 149.172 56.7945 149.049 56.7824C148.925 56.7704 148.81 56.7116 148.728 56.618C145.932 53.392 142.921 50.7525 142.266 50.8894C141.875 51.4955 144.222 54.8974 147.34 58.1821C147.429 58.2767 147.478 58.403 147.474 58.5332C147.47 58.6633 147.415 58.7867 147.32 58.8762C147.226 58.9656 147.1 59.0138 146.969 59.0101C146.839 59.0065 146.716 58.9512 146.626 58.8566C144.094 56.178 141.465 53.9687 140.761 53.9687C140.761 54.5162 141.924 56.1976 143.694 58.2016C144.671 59.1792 145.649 60.3034 146.304 61.017C146.388 61.109 146.435 61.2294 146.435 61.3543C146.435 61.4792 146.388 61.5996 146.304 61.6916C146.212 61.7811 146.09 61.8313 145.962 61.8313C145.834 61.8313 145.711 61.7811 145.619 61.6916C144.828 60.8802 143.87 59.8733 142.97 58.8371C141.563 57.4684 140.389 56.5593 140.038 56.618C139.803 58.1234 148.454 69.0527 154.779 76.2281C154.863 76.3274 154.905 76.4554 154.896 76.5851C154.887 76.7147 154.827 76.8357 154.73 76.9222C154.668 76.9725 154.595 77.0068 154.517 77.0221C154.438 77.0375 154.357 77.0334 154.281 77.0102Z" fill="black"/>
<path d="M156.608 57.5076C155.709 58.0841 155.041 58.9572 154.72 59.9752C154.398 60.9933 154.443 62.0918 154.848 63.0797" fill="white"/>
<path d="M154.848 63.5682C154.747 63.5675 154.648 63.5363 154.564 63.4788C154.48 63.4213 154.416 63.3401 154.379 63.2456C153.942 62.1514 153.898 60.9395 154.255 59.8165C154.611 58.6935 155.346 57.7289 156.334 57.0869C156.389 57.0538 156.45 57.0321 156.514 57.0231C156.577 57.0141 156.642 57.0178 156.704 57.0343C156.766 57.0507 156.824 57.0794 156.874 57.1186C156.925 57.1579 156.967 57.207 156.999 57.2629C157.064 57.3734 157.083 57.5049 157.052 57.6293C157.021 57.7536 156.942 57.8607 156.833 57.9276C156.028 58.4426 155.431 59.2251 155.147 60.1371C154.862 61.0491 154.909 62.0322 155.278 62.9133C155.319 63.0365 155.31 63.1708 155.254 63.2876C155.197 63.4045 155.097 63.4946 154.975 63.5389C154.935 63.555 154.892 63.5648 154.848 63.5682Z" fill="black"/>
<path d="M238.734 218.416L239.35 224.995H269.938C266.877 222.656 263.604 220.607 260.162 218.875" fill="white"/>
<path d="M269.938 225.484H239.349C239.227 225.482 239.109 225.435 239.019 225.352C238.929 225.269 238.873 225.156 238.861 225.034L238.255 218.455C238.248 218.391 238.254 218.327 238.273 218.266C238.291 218.204 238.322 218.147 238.363 218.098C238.404 218.049 238.454 218.008 238.511 217.979C238.568 217.95 238.631 217.932 238.694 217.927C238.758 217.92 238.823 217.927 238.884 217.945C238.945 217.964 239.002 217.995 239.051 218.036C239.101 218.077 239.141 218.127 239.17 218.184C239.2 218.241 239.217 218.303 239.222 218.367L239.799 224.506H268.481C265.772 222.57 262.926 220.832 259.967 219.306C259.851 219.246 259.764 219.143 259.725 219.019C259.685 218.895 259.697 218.761 259.756 218.646C259.816 218.53 259.919 218.443 260.043 218.404C260.166 218.365 260.301 218.376 260.416 218.436C263.875 220.187 267.164 222.256 270.241 224.614C270.321 224.675 270.38 224.76 270.408 224.857C270.436 224.954 270.432 225.057 270.397 225.151C270.363 225.247 270.301 225.33 270.219 225.389C270.137 225.449 270.039 225.482 269.938 225.484Z" fill="black"/>
<path d="M295.511 225.426H0.488788C0.359937 225.423 0.237062 225.371 0.145933 225.28C0.0548044 225.189 0.00250266 225.066 0 224.937C0 224.807 0.0514967 224.683 0.143162 224.591C0.234828 224.5 0.359153 224.448 0.488788 224.448H295.511C295.641 224.448 295.765 224.5 295.857 224.591C295.948 224.683 296 224.807 296 224.937C296 225.066 295.948 225.191 295.857 225.282C295.765 225.374 295.641 225.426 295.511 225.426Z" fill="black"/>
<path d="M237.267 133.211C237.215 133.22 237.162 133.22 237.111 133.211L221.694 127.697C221.574 127.655 221.475 127.566 221.42 127.45C221.365 127.335 221.358 127.202 221.401 127.082C221.444 126.961 221.533 126.862 221.648 126.807C221.764 126.752 221.896 126.745 222.017 126.788L237.433 132.292C237.497 132.303 237.559 132.326 237.614 132.361C237.669 132.396 237.717 132.441 237.755 132.494C237.792 132.547 237.819 132.607 237.834 132.671C237.848 132.734 237.85 132.8 237.839 132.864C237.828 132.928 237.805 132.989 237.77 133.045C237.735 133.1 237.69 133.148 237.637 133.185C237.584 133.223 237.524 133.25 237.46 133.264C237.397 133.279 237.331 133.281 237.267 133.27V133.211Z" fill="white"/>
<path d="M200.022 118.156C199.892 118.163 199.765 118.117 199.669 118.03C199.573 117.943 199.515 117.821 199.508 117.692C199.502 117.562 199.547 117.435 199.634 117.339C199.721 117.243 199.843 117.185 199.973 117.179C206.865 116.494 208.331 108.126 208.351 108.038C208.372 107.912 208.443 107.799 208.547 107.724C208.651 107.649 208.781 107.618 208.908 107.637C209.035 107.661 209.148 107.734 209.223 107.84C209.298 107.946 209.329 108.076 209.309 108.204C209.309 108.292 207.696 117.384 200.071 118.146L200.022 118.156Z" fill="white"/>
<path d="M254.336 118.156C254.291 118.166 254.244 118.166 254.199 118.156C252.39 117.69 250.792 116.626 249.663 115.137C248.535 113.648 247.942 111.822 247.982 109.954C247.984 109.891 247.999 109.829 248.026 109.771C248.054 109.714 248.092 109.663 248.14 109.621C248.187 109.579 248.243 109.547 248.303 109.527C248.363 109.507 248.427 109.499 248.49 109.505C248.554 109.507 248.616 109.522 248.674 109.549C248.732 109.576 248.784 109.615 248.827 109.662C248.869 109.709 248.902 109.765 248.923 109.825C248.945 109.885 248.953 109.949 248.949 110.013C248.907 111.666 249.432 113.283 250.437 114.595C251.442 115.908 252.866 116.837 254.473 117.227C254.602 117.246 254.719 117.314 254.798 117.419C254.877 117.523 254.911 117.655 254.893 117.785C254.875 117.914 254.806 118.031 254.701 118.11C254.597 118.189 254.465 118.223 254.336 118.205V118.156Z" fill="white"/>
<path d="M231.148 22.51C231.148 22.51 227.677 26.1661 228.215 26.9971C228.753 27.828 230.678 27.6716 230.678 27.6716" fill="white"/>
<path d="M230.278 28.1703C229.822 28.2148 229.362 28.1562 228.932 27.9988C228.503 27.8414 228.114 27.5893 227.795 27.2612C227.179 26.2836 229.085 23.9667 230.786 22.1778C230.831 22.132 230.885 22.0956 230.945 22.0708C231.005 22.046 231.068 22.0332 231.133 22.0332C231.198 22.0332 231.261 22.046 231.321 22.0708C231.381 22.0956 231.435 22.132 231.48 22.1778C231.526 22.2224 231.562 22.2756 231.586 22.3344C231.611 22.3931 231.624 22.4562 231.624 22.5199C231.624 22.5837 231.611 22.6468 231.586 22.7055C231.562 22.7643 231.526 22.8175 231.48 22.8621C229.906 24.524 228.547 26.3618 228.626 26.7724C228.85 27.1145 229.945 27.2319 230.581 27.1732C230.709 27.1623 230.836 27.2024 230.935 27.2847C231.034 27.3671 231.096 27.4851 231.109 27.6131C231.115 27.6768 231.109 27.7412 231.091 27.8026C231.072 27.8639 231.041 27.9208 231 27.97C230.959 28.0193 230.909 28.0597 230.852 28.0891C230.795 28.1185 230.733 28.1361 230.669 28.141L230.278 28.1703Z" fill="black"/>
<path d="M229.574 30.5359C229.574 30.5359 232.506 32.0609 233.826 29.2162L229.574 30.5359Z" fill="white"/>
<path d="M231.294 31.4256C230.617 31.4163 229.95 31.2595 229.339 30.9662C229.282 30.9373 229.232 30.8973 229.19 30.8485C229.149 30.7997 229.118 30.7431 229.098 30.682C229.079 30.621 229.073 30.5567 229.079 30.493C229.085 30.4293 229.104 30.3675 229.134 30.3112C229.193 30.1961 229.294 30.1088 229.417 30.0685C229.54 30.0282 229.674 30.0382 229.789 30.0961C230.48 30.439 231.269 30.5256 232.018 30.3405C232.323 30.2229 232.601 30.0443 232.834 29.8157C233.068 29.5872 233.252 29.3133 233.377 29.011C233.44 28.9091 233.538 28.8339 233.653 28.7996C233.767 28.7653 233.891 28.7744 233.999 28.825C234.108 28.8757 234.194 28.9644 234.241 29.0744C234.289 29.1843 234.294 29.3079 234.257 29.4216C234.03 30.0144 233.627 30.5239 233.103 30.882C232.579 31.2401 231.958 31.4297 231.324 31.4256H231.294Z" fill="black"/>
<path d="M236.485 23.4537C236.687 22.9529 236.562 22.4308 236.206 22.2877C235.851 22.1446 235.399 22.4346 235.198 22.9355C234.996 23.4364 235.121 23.9584 235.476 24.1015C235.832 24.2446 236.284 23.9546 236.485 23.4537Z" fill="black"/>
<path d="M229.286 22.2704C229.487 21.7695 229.363 21.2475 229.007 21.1044C228.651 20.9613 228.2 21.2513 227.998 21.7522C227.797 22.253 227.921 22.7751 228.277 22.9182C228.633 23.0613 229.084 22.7712 229.286 22.2704Z" fill="black"/>
<path d="M46.7869 206.206H34.0784C33.9941 206.207 33.911 206.186 33.8373 206.145C33.7637 206.103 33.7019 206.044 33.6581 205.972C29.8846 199.637 25.4562 189.852 25.7592 179.186C25.7601 179.106 25.7812 179.027 25.8205 178.957C25.8598 178.887 25.916 178.828 25.9841 178.786C26.0536 178.75 26.1307 178.731 26.2089 178.731C26.2872 178.731 26.3643 178.75 26.4338 178.786C30.037 180.402 33.3651 182.573 36.2975 185.218C36.3751 185.308 36.4173 185.423 36.4164 185.541C36.4155 185.66 36.3714 185.774 36.2924 185.863C36.2134 185.951 36.1049 186.008 35.9871 186.023C35.8694 186.037 35.7503 186.008 35.6523 185.941C32.9632 183.558 29.9602 181.555 26.727 179.988C26.6488 190.008 30.7742 199.197 34.3521 205.268H46.7673C46.897 205.268 47.0213 205.32 47.113 205.411C47.2046 205.503 47.2561 205.627 47.2561 205.757C47.2561 205.886 47.2046 206.011 47.113 206.102C47.0213 206.194 46.897 206.246 46.7673 206.246L46.7869 206.206Z" fill="black"/>
<path d="M54.0304 206.206H40.3444C40.2431 206.204 40.1449 206.171 40.0628 206.112C39.9807 206.052 39.9187 205.969 39.8849 205.874C37.6159 199.307 36.1327 192.495 35.4663 185.579C34.6065 177.539 35.405 169.407 37.8125 161.687C37.8373 161.613 37.8796 161.546 37.9357 161.492C37.9918 161.437 38.0602 161.397 38.1351 161.374C38.2102 161.354 38.289 161.352 38.3653 161.367C38.4415 161.383 38.5133 161.415 38.575 161.462C38.7118 161.57 51.4985 171.991 54.617 188.248C54.6285 188.312 54.6273 188.378 54.6134 188.442C54.5996 188.505 54.5733 188.566 54.536 188.619C54.4988 188.673 54.4514 188.719 54.3965 188.754C54.3417 188.789 54.2804 188.813 54.2162 188.825C54.152 188.836 54.0862 188.835 54.0224 188.821C53.9587 188.807 53.8983 188.781 53.8448 188.744C53.7912 188.707 53.7455 188.659 53.7103 188.604C53.675 188.549 53.651 188.488 53.6394 188.424C50.9609 174.454 40.9309 164.864 38.4968 162.694C36.3154 170.083 35.6112 177.83 36.4243 185.491C37.0725 192.213 38.4996 198.836 40.6768 205.228H53.9718C54.1014 205.228 54.2257 205.28 54.3174 205.372C54.4091 205.463 54.4606 205.588 54.4606 205.717C54.4606 205.847 54.4091 205.971 54.3174 206.063C54.2257 206.155 54.1014 206.206 53.9718 206.206H54.0304Z" fill="black"/>
<path d="M60.9127 206.206H48.8299C48.7036 206.206 48.5821 206.158 48.491 206.07C48.3999 205.983 48.3461 205.863 48.3411 205.737C48.2336 202.345 48.9472 196.763 52.9846 189.46C53.2485 188.991 53.5027 188.532 53.7569 188.092C60.8247 176.136 67.3354 176.126 67.5896 176.126C67.7005 176.128 67.8075 176.168 67.8928 176.239C67.9781 176.31 68.0366 176.408 68.0588 176.517C70.8058 189.226 65.0185 200.419 61.3233 205.991C61.278 206.058 61.2168 206.113 61.1451 206.15C61.0735 206.188 60.9936 206.207 60.9127 206.206ZM49.3089 205.229H60.6585C64.2267 199.774 69.6131 189.118 67.1985 177.143C65.7517 177.358 60.3555 178.805 54.6074 188.59C54.3532 189.02 54.099 189.47 53.8351 189.939C50.091 196.714 49.2893 201.924 49.3089 205.229Z" fill="black"/>
<path d="M58.7131 224.878H35.0167L31.2041 205.727H62.5354L58.7131 224.878Z" fill="black"/>
<path d="M33.7657 49.5988C33.9075 57.453 37.1272 64.9375 42.7317 70.4418C48.3363 75.946 55.8778 79.03 63.7332 79.03C71.5887 79.03 79.1301 75.946 84.7347 70.4418C90.3393 64.9375 93.5589 57.453 93.7008 49.5988H63.7381V19.6263C55.7897 19.6289 48.1676 22.7876 42.5473 28.4079C36.9269 34.0283 33.7682 41.6504 33.7657 49.5988Z" fill="#2FE784"/>
<path d="M68.5768 15.2076V45.1801H98.5493C98.5467 37.2317 95.3881 29.6096 89.7677 23.9892C84.1473 18.3689 76.5252 15.2102 68.5768 15.2076Z" fill="#E6E7E8"/>
<path d="M58.596 114.94H38.0669V132.986H58.596V114.94Z" fill="#2FE784"/>
<path d="M49.2699 113.073H46.8846V116.699H49.2699V113.073Z" fill="#E6E7E8"/>
<path d="M48.0871 120.727H41.8697C41.7401 120.727 41.6158 120.676 41.5241 120.584C41.4324 120.492 41.381 120.368 41.381 120.238C41.381 120.109 41.4324 119.984 41.5241 119.893C41.6158 119.801 41.7401 119.75 41.8697 119.75H48.0871C48.2168 119.75 48.3411 119.801 48.4327 119.893C48.5244 119.984 48.5759 120.109 48.5759 120.238C48.5759 120.368 48.5244 120.492 48.4327 120.584C48.3411 120.676 48.2168 120.727 48.0871 120.727Z" fill="white"/>
<path d="M52.8577 124.637H41.8697C41.7401 124.637 41.6158 124.586 41.5241 124.494C41.4324 124.403 41.381 124.278 41.381 124.149C41.381 124.019 41.4324 123.895 41.5241 123.803C41.6158 123.711 41.7401 123.66 41.8697 123.66H52.8577C52.9873 123.66 53.1116 123.711 53.2033 123.803C53.295 123.895 53.3465 124.019 53.3465 124.149C53.3465 124.278 53.295 124.403 53.2033 124.494C53.1116 124.586 52.9873 124.637 52.8577 124.637Z" fill="white"/>
<path d="M55.4285 120.874H50.8436C50.714 120.874 50.5897 120.822 50.498 120.731C50.4064 120.639 50.3549 120.515 50.3549 120.385C50.3549 120.255 50.4064 120.131 50.498 120.039C50.5897 119.948 50.714 119.896 50.8436 119.896H55.4285C55.5581 119.896 55.6824 119.948 55.7741 120.039C55.8658 120.131 55.9173 120.255 55.9173 120.385C55.9173 120.515 55.8658 120.639 55.7741 120.731C55.6824 120.822 55.5581 120.874 55.4285 120.874Z" fill="white"/>
<path d="M30.725 10.877H12.6008V26.8016H30.725V10.877Z" fill="#2FE784"/>
<path d="M22.4745 9.23462H20.3727V12.4411H22.4745V9.23462Z" fill="#E6E7E8"/>
<path d="M27.6652 15.9112H15.9343C15.8462 15.9112 15.7616 15.8762 15.6993 15.8139C15.637 15.7515 15.602 15.667 15.602 15.5788C15.602 15.4907 15.637 15.4061 15.6993 15.3438C15.7616 15.2815 15.8462 15.2465 15.9343 15.2465H27.6652C27.7534 15.2465 27.8379 15.2815 27.9003 15.3438C27.9626 15.4061 27.9976 15.4907 27.9976 15.5788C27.9976 15.667 27.9626 15.7515 27.9003 15.8139C27.8379 15.8762 27.7534 15.9112 27.6652 15.9112Z" fill="white"/>
<path d="M27.6654 19.333H15.9345C15.8549 19.3194 15.7826 19.2781 15.7306 19.2163C15.6785 19.1546 15.6499 19.0765 15.6499 18.9957C15.6499 18.915 15.6785 18.8368 15.7306 18.7751C15.7826 18.7134 15.8549 18.6721 15.9345 18.6585H27.6654C27.7145 18.6501 27.7648 18.6525 27.8128 18.6656C27.8609 18.6787 27.9055 18.7021 27.9436 18.7342C27.9817 18.7663 28.0123 18.8064 28.0333 18.8515C28.0543 18.8967 28.0651 18.9459 28.0651 18.9957C28.0651 19.0455 28.0543 19.0947 28.0333 19.1399C28.0123 19.1851 27.9817 19.2251 27.9436 19.2572C27.9055 19.2894 27.8609 19.3128 27.8128 19.3259C27.7648 19.3389 27.7145 19.3414 27.6654 19.333Z" fill="white"/>
<path d="M23.413 22.745H15.9541C15.866 22.745 15.7815 22.7099 15.7191 22.6476C15.6568 22.5853 15.6218 22.5007 15.6218 22.4126C15.6218 22.3244 15.6568 22.2399 15.7191 22.1775C15.7815 22.1152 15.866 22.0802 15.9541 22.0802H23.413C23.5012 22.0802 23.5857 22.1152 23.6481 22.1775C23.7104 22.2399 23.7454 22.3244 23.7454 22.4126C23.7454 22.5007 23.7104 22.5853 23.6481 22.6476C23.5857 22.7099 23.5012 22.745 23.413 22.745Z" fill="white"/>
<path d="M68.3129 92.1626H35.1438C35.0347 92.1465 34.935 92.0918 34.8629 92.0083C34.7908 91.9249 34.7512 91.8183 34.7512 91.708C34.7512 91.5977 34.7908 91.4911 34.8629 91.4077C34.935 91.3242 35.0347 91.2695 35.1438 91.2534H68.3129C68.422 91.2695 68.5217 91.3242 68.5938 91.4077C68.6659 91.4911 68.7056 91.5977 68.7056 91.708C68.7056 91.8183 68.6659 91.9249 68.5938 92.0083C68.5217 92.0918 68.422 92.1465 68.3129 92.1626Z" fill="#D1D3D4"/>
<path d="M80.8162 92.1626H74.5011C74.392 92.1465 74.2923 92.0918 74.2202 92.0083C74.1481 91.9249 74.1085 91.8183 74.1085 91.708C74.1085 91.5977 74.1481 91.4911 74.2202 91.4077C74.2923 91.3242 74.392 91.2695 74.5011 91.2534H80.8162C80.9253 91.2695 81.025 91.3242 81.0971 91.4077C81.1692 91.4911 81.2088 91.5977 81.2088 91.708C81.2088 91.8183 81.1692 91.9249 81.0971 92.0083C81.025 92.0918 80.9253 92.1465 80.8162 92.1626Z" fill="#D1D3D4"/>
<path d="M92.4883 91.6054H86.1829C86.0636 91.6054 85.9493 91.5581 85.8649 91.4737C85.7806 91.3894 85.7332 91.275 85.7332 91.1557C85.7357 91.0373 85.7839 90.9243 85.8677 90.8405C85.9515 90.7567 86.0644 90.7085 86.1829 90.7061H92.4883C92.6075 90.7061 92.7219 90.7534 92.8062 90.8378C92.8906 90.9221 92.9379 91.0365 92.9379 91.1557C92.9393 91.2152 92.9286 91.2742 92.9064 91.3294C92.8843 91.3846 92.8512 91.4347 92.8092 91.4767C92.7672 91.5187 92.7171 91.5518 92.6619 91.5739C92.6067 91.596 92.5477 91.6068 92.4883 91.6054Z" fill="#D1D3D4"/>
<path d="M83.7685 99.8655H34.8897C34.7713 99.863 34.6583 99.8149 34.5745 99.7311C34.4907 99.6473 34.4426 99.5343 34.4401 99.4159C34.4401 99.2966 34.4874 99.1822 34.5718 99.0979C34.6561 99.0135 34.7705 98.9662 34.8897 98.9662H83.7685C83.8279 98.9648 83.887 98.9756 83.9422 98.9977C83.9973 99.0198 84.0474 99.0529 84.0895 99.0949C84.1315 99.1369 84.1646 99.187 84.1867 99.2422C84.2088 99.2974 84.2195 99.3564 84.2182 99.4159C84.2182 99.4749 84.2066 99.5334 84.184 99.5879C84.1614 99.6425 84.1282 99.6921 84.0865 99.7338C84.0447 99.7756 83.9951 99.8087 83.9406 99.8313C83.886 99.8539 83.8276 99.8655 83.7685 99.8655Z" fill="#D1D3D4"/>
<path d="M50.9122 107.569H35.0266C34.9073 107.569 34.793 107.521 34.7086 107.437C34.6243 107.353 34.5769 107.238 34.5769 107.119C34.5794 107.001 34.6276 106.888 34.7114 106.804C34.7952 106.72 34.9081 106.672 35.0266 106.669H50.9122C51.0307 106.672 51.1436 106.72 51.2274 106.804C51.3112 106.888 51.3594 107.001 51.3619 107.119C51.3619 107.238 51.3145 107.353 51.2302 107.437C51.1458 107.521 51.0314 107.569 50.9122 107.569Z" fill="#D1D3D4"/>
<path d="M88.9888 107.295H60.7271C60.6677 107.296 60.6086 107.286 60.5535 107.264C60.4983 107.241 60.4482 107.208 60.4062 107.166C60.3642 107.124 60.3311 107.074 60.309 107.019C60.2868 106.964 60.2761 106.905 60.2775 106.845C60.2775 106.726 60.3248 106.612 60.4092 106.527C60.4935 106.443 60.6079 106.396 60.7271 106.396H88.9888C89.1073 106.398 89.2203 106.446 89.3041 106.53C89.3879 106.614 89.436 106.727 89.4385 106.845C89.4385 106.965 89.3911 107.079 89.3068 107.163C89.2225 107.248 89.1081 107.295 88.9888 107.295Z" fill="#D1D3D4"/>
<path d="M68.3129 92.1917H35.1438C35.0142 92.1917 34.8898 92.1402 34.7982 92.0485C34.7065 91.9569 34.655 91.8325 34.655 91.7029C34.6575 91.574 34.7098 91.4512 34.8009 91.36C34.8921 91.2689 35.0149 91.2166 35.1438 91.2141H68.3129C68.4425 91.2141 68.5669 91.2656 68.6585 91.3573C68.7502 91.4489 68.8017 91.5733 68.8017 91.7029C68.8017 91.8325 68.7502 91.9569 68.6585 92.0485C68.5669 92.1402 68.4425 92.1917 68.3129 92.1917Z" fill="#E6E7E8"/>
<path d="M80.8162 92.1917H74.501C74.3714 92.1917 74.2471 92.1402 74.1554 92.0485C74.0637 91.9569 74.0122 91.8325 74.0122 91.7029C74.0147 91.574 74.0671 91.4512 74.1582 91.36C74.2493 91.2689 74.3722 91.2166 74.501 91.2141H80.8162C80.945 91.2166 81.0679 91.2689 81.159 91.36C81.2502 91.4512 81.3025 91.574 81.305 91.7029C81.305 91.8325 81.2534 91.9569 81.1618 92.0485C81.0701 92.1402 80.9458 92.1917 80.8162 92.1917Z" fill="#E6E7E8"/>
<path d="M92.4882 91.6443H86.1828C86.0532 91.6443 85.9289 91.5928 85.8372 91.5012C85.7456 91.4095 85.6941 91.2852 85.6941 91.1555C85.6941 91.0259 85.7456 90.9016 85.8372 90.8099C85.9289 90.7183 86.0532 90.6667 86.1828 90.6667H92.4882C92.6178 90.6667 92.7422 90.7183 92.8338 90.8099C92.9255 90.9016 92.977 91.0259 92.977 91.1555C92.977 91.2852 92.9255 91.4095 92.8338 91.5012C92.7422 91.5928 92.6178 91.6443 92.4882 91.6443Z" fill="#E6E7E8"/>
<path d="M83.7685 99.9048H34.8897C34.7601 99.9048 34.6357 99.8533 34.5441 99.7617C34.4524 99.67 34.4009 99.5457 34.4009 99.416C34.4009 99.2864 34.4524 99.1621 34.5441 99.0704C34.6357 98.9788 34.7601 98.9272 34.8897 98.9272H83.7685C83.8981 98.9272 84.0224 98.9788 84.1141 99.0704C84.2057 99.1621 84.2572 99.2864 84.2572 99.416C84.2572 99.5457 84.2057 99.67 84.1141 99.7617C84.0224 99.8533 83.8981 99.9048 83.7685 99.9048Z" fill="#E6E7E8"/>
<path d="M50.9121 107.608H35.0265C34.8969 107.608 34.7726 107.557 34.6809 107.465C34.5892 107.373 34.5378 107.249 34.5378 107.119C34.5403 106.991 34.5926 106.868 34.6837 106.777C34.7748 106.685 34.8977 106.633 35.0265 106.631H50.9121C51.0418 106.631 51.1661 106.682 51.2578 106.774C51.3494 106.865 51.4009 106.99 51.4009 107.119C51.4009 107.249 51.3494 107.373 51.2578 107.465C51.1661 107.557 51.0418 107.608 50.9121 107.608Z" fill="#E6E7E8"/>
<path d="M88.9889 107.335H60.7272C60.5976 107.335 60.4732 107.283 60.3816 107.191C60.2899 107.1 60.2384 106.975 60.2384 106.846C60.2384 106.716 60.2899 106.592 60.3816 106.5C60.4732 106.408 60.5976 106.357 60.7272 106.357H88.9889C89.1185 106.357 89.2428 106.408 89.3345 106.5C89.4262 106.592 89.4777 106.716 89.4777 106.846C89.4777 106.975 89.4262 107.1 89.3345 107.191C89.2428 107.283 89.1185 107.335 88.9889 107.335Z" fill="#E6E7E8"/>
<path d="M121.337 83.0806H111.229V111.743H121.337V83.0806Z" fill="#2FE784"/>
<path d="M138.777 92.8174H128.669V111.753H138.777V92.8174Z" fill="#E6E7E8"/>
<path d="M156.207 87.2747H146.099V111.743H156.207V87.2747Z" fill="#E6E7E8"/>
<path d="M160.596 21.5523H107.807C107.677 21.5523 107.553 21.5008 107.461 21.4091C107.37 21.3175 107.318 21.1931 107.318 21.0635C107.318 20.9339 107.37 20.8095 107.461 20.7179C107.553 20.6262 107.677 20.5747 107.807 20.5747H160.596C160.726 20.5747 160.85 20.6262 160.942 20.7179C161.033 20.8095 161.085 20.9339 161.085 21.0635C161.082 21.1923 161.03 21.3152 160.939 21.4064C160.848 21.4975 160.725 21.5498 160.596 21.5523Z" fill="#D1D3D4"/>
<path d="M149.207 29.2554H108.599C108.469 29.2554 108.345 29.2039 108.253 29.1122C108.162 29.0206 108.11 28.8963 108.11 28.7666C108.113 28.6378 108.165 28.5149 108.256 28.4238C108.347 28.3326 108.47 28.2803 108.599 28.2778H149.207C149.337 28.2778 149.461 28.3293 149.553 28.421C149.645 28.5127 149.696 28.637 149.696 28.7666C149.696 28.8963 149.645 29.0206 149.553 29.1122C149.461 29.2039 149.337 29.2554 149.207 29.2554Z" fill="#D1D3D4"/>
<path d="M154.907 36.6558H107.827C107.697 36.6558 107.573 36.6043 107.481 36.5126C107.389 36.421 107.338 36.2966 107.338 36.167C107.338 36.0374 107.389 35.9131 107.481 35.8214C107.573 35.7297 107.697 35.6782 107.827 35.6782H154.907C155.035 35.6807 155.158 35.733 155.249 35.8242C155.341 35.9153 155.393 36.0382 155.395 36.167C155.395 36.2966 155.344 36.421 155.252 36.5126C155.161 36.6043 155.036 36.6558 154.907 36.6558Z" fill="#D1D3D4"/>
<path d="M162.404 28.8938H154.906C154.777 28.8938 154.652 28.8423 154.561 28.7507C154.469 28.659 154.418 28.5347 154.418 28.405C154.418 28.2754 154.469 28.1511 154.561 28.0594C154.652 27.9678 154.777 27.9163 154.906 27.9163H162.404C162.534 27.9163 162.658 27.9678 162.75 28.0594C162.842 28.1511 162.893 28.2754 162.893 28.405C162.893 28.5347 162.842 28.659 162.75 28.7507C162.658 28.8423 162.534 28.8938 162.404 28.8938Z" fill="#D1D3D4"/>
<path d="M136.254 74.302H108.726C108.596 74.302 108.472 74.2505 108.38 74.1588C108.289 74.0671 108.237 73.9428 108.237 73.8132V51.2508C108.237 51.1211 108.289 50.9968 108.38 50.9051C108.472 50.8135 108.596 50.762 108.726 50.762C108.856 50.762 108.98 50.8135 109.072 50.9051C109.163 50.9968 109.215 51.1211 109.215 51.2508V73.3244H136.254C136.384 73.3244 136.508 73.3759 136.6 73.4676C136.692 73.5592 136.743 73.6836 136.743 73.8132C136.743 73.9428 136.692 74.0671 136.6 74.1588C136.508 74.2505 136.384 74.302 136.254 74.302Z" fill="#E6E7E8"/>
<path d="M108.726 74.3018C108.629 74.3052 108.534 74.2794 108.453 74.2276C108.371 74.1758 108.307 74.1006 108.269 74.0118C108.231 73.9229 108.22 73.8247 108.239 73.7299C108.258 73.6351 108.305 73.5482 108.374 73.4806L119.929 61.0948C119.981 61.0402 120.046 60.9986 120.117 60.9731C120.188 60.9477 120.265 60.9391 120.34 60.9481C120.413 60.9544 120.485 60.9781 120.547 61.0171C120.61 61.0562 120.663 61.1096 120.701 61.173L123.126 65.0051L130.946 56.4024C130.992 56.3566 131.046 56.3202 131.105 56.2954C131.165 56.2706 131.229 56.2578 131.293 56.2578C131.358 56.2578 131.422 56.2706 131.481 56.2954C131.541 56.3202 131.595 56.3566 131.64 56.4024C131.686 56.447 131.722 56.5002 131.747 56.559C131.771 56.6177 131.784 56.6808 131.784 56.7445C131.784 56.8083 131.771 56.8714 131.747 56.9301C131.722 56.9889 131.686 57.0421 131.64 57.0867L123.39 66.1684C123.338 66.2253 123.275 66.2698 123.203 66.2985C123.132 66.3273 123.056 66.3396 122.979 66.3346C122.903 66.3279 122.829 66.3032 122.765 66.2624C122.7 66.2215 122.646 66.1658 122.608 66.0999L120.193 62.1896L109.068 74.1063C109.028 74.1613 108.977 74.2071 108.918 74.2409C108.859 74.2746 108.794 74.2953 108.726 74.3018Z" fill="#E6E7E8"/>
<path d="M164.057 112.017H104.053C103.923 112.017 103.799 111.965 103.707 111.874C103.616 111.782 103.564 111.658 103.564 111.528C103.564 111.398 103.616 111.274 103.707 111.182C103.799 111.091 103.923 111.039 104.053 111.039H164.057C164.186 111.039 164.311 111.091 164.402 111.182C164.494 111.274 164.545 111.398 164.545 111.528C164.543 111.657 164.491 111.78 164.399 111.871C164.308 111.962 164.185 112.014 164.057 112.017Z" fill="#E6E7E8"/>
</svg>
