<svg width="28" height="28" viewBox="0 0 28 28" fill="none" xmlns="http://www.w3.org/2000/svg">
<path d="M13.1994 18.0824C13.4005 17.46 13.6799 16.8728 14.026 16.3324H6.12824C4.67921 16.3324 3.50455 17.5071 3.50455 18.9561V19.6301C3.50455 20.6716 3.87615 21.679 4.55254 22.4711C6.37989 24.611 9.16358 25.6671 12.8337 25.6671C13.5336 25.6671 14.2014 25.6287 14.8364 25.5517C14.3802 25.0561 13.9891 24.4997 13.6768 23.8958C13.403 23.91 13.1221 23.9171 12.8337 23.9171C9.63906 23.9171 7.34554 23.047 5.88334 21.3347C5.47751 20.8594 5.25455 20.255 5.25455 19.6301V18.9561C5.25455 18.4736 5.64571 18.0824 6.12824 18.0824H13.1994ZM12.8337 2.33789C16.0554 2.33789 18.6671 4.94956 18.6671 8.17122C18.6671 11.3929 16.0554 14.0046 12.8337 14.0046C9.61209 14.0046 7.00042 11.3929 7.00042 8.17122C7.00042 4.94956 9.61209 2.33789 12.8337 2.33789ZM12.8337 4.08789C10.5786 4.08789 8.75042 5.91606 8.75042 8.17122C8.75042 10.4264 10.5786 12.2546 12.8337 12.2546C15.0889 12.2546 16.9171 10.4264 16.9171 8.17122C16.9171 5.91606 15.0889 4.08789 12.8337 4.08789ZM26.8333 20.4167C26.8333 23.9605 23.9605 26.8333 20.4167 26.8333C16.8728 26.8333 14 23.9605 14 20.4167C14 16.8728 16.8728 14 20.4167 14C23.9605 14 26.8333 16.8728 26.8333 20.4167ZM21.0646 16.8241C20.8606 16.1698 19.9727 16.1698 19.7687 16.8241L19.1189 18.9089H17.0159C16.3559 18.9089 16.0815 19.7893 16.6155 20.1937L18.3168 21.4822L17.6669 23.5671C17.463 24.2214 18.1814 24.7655 18.7153 24.3612L20.4167 23.0727L22.118 24.3612C22.6519 24.7655 23.3703 24.2214 23.1664 23.5671L22.5165 21.4822L24.2179 20.1937C24.7518 19.7893 24.4774 18.9089 23.8174 18.9089H21.7144L21.0646 16.8241Z" fill="white"/>
</svg>
