<svg width="296" height="247" viewBox="0 0 296 247" fill="none" xmlns="http://www.w3.org/2000/svg">
<path d="M36.8171 161.72V168.603L121.347 246.467L295.466 186.929V180.131L36.8171 161.72Z" fill="black"/>
<path d="M121.315 247C121.182 247 121.052 246.951 120.953 246.861L36.4543 168.997C36.4009 168.946 36.3584 168.885 36.3291 168.817C36.2997 168.749 36.2843 168.676 36.2835 168.603V161.72C36.2845 161.647 36.3001 161.576 36.3295 161.51C36.3588 161.444 36.4013 161.385 36.4543 161.336C36.5044 161.283 36.5663 161.243 36.6349 161.219C36.7036 161.195 36.777 161.188 36.8491 161.198L295.498 179.598C295.634 179.606 295.762 179.666 295.855 179.765C295.948 179.864 296 179.995 296 180.131V186.929C295.998 187.039 295.962 187.146 295.897 187.236C295.832 187.325 295.741 187.393 295.637 187.429L121.518 246.968L121.315 247ZM37.3187 168.368L121.443 245.86L294.901 186.545V180.632L37.3507 162.295L37.3187 168.368Z" fill="black"/>
<path d="M36.8171 161.72L0.522705 37.2726L179.647 0.535156L205.173 110.034L36.8171 161.72Z" fill="white"/>
<path d="M36.8171 162.252C36.7278 162.252 36.6401 162.23 36.561 162.189C36.4985 162.156 36.4435 162.11 36.3995 162.055C36.3554 162 36.3232 161.937 36.3048 161.869L0.0211434 37.422C0.000815828 37.3528 -0.00493843 37.2801 0.004245 37.2086C0.0134284 37.1371 0.0373496 37.0682 0.0745009 37.0064C0.113367 36.9427 0.164503 36.8873 0.22495 36.8434C0.285397 36.7995 0.353957 36.768 0.426668 36.7507L179.54 0.0132768C179.608 -0.00233943 179.679 -0.00419986 179.747 0.00780199C179.816 0.0198038 179.882 0.0454274 179.94 0.0831609C179.999 0.120894 180.05 0.169976 180.089 0.22751C180.128 0.285044 180.156 0.349865 180.17 0.418157L205.696 109.906C205.729 110.037 205.71 110.176 205.642 110.293C205.574 110.411 205.464 110.497 205.333 110.535L37.0092 162.231C36.9477 162.253 36.8819 162.261 36.8171 162.252ZM1.19503 37.6883L37.1799 161.059L204.554 109.65L179.241 1.16399L1.19503 37.6883Z" fill="black"/>
<path d="M42.0248 151.502L9.72168 44.0386L173.265 9.18701L196.721 106.23L42.0248 151.502Z" fill="white"/>
<path d="M42.0355 152.034C41.9196 152.036 41.8064 151.999 41.7137 151.93C41.621 151.861 41.554 151.762 41.5233 151.651L9.2628 44.1875C9.23431 44.1219 9.2196 44.0512 9.2196 43.9797C9.2196 43.9082 9.23431 43.8375 9.2628 43.772C9.3007 43.7074 9.35155 43.6514 9.41215 43.6074C9.47275 43.5634 9.5418 43.5324 9.61496 43.5162L173.158 8.66471C173.295 8.6389 173.437 8.6665 173.554 8.74183C173.671 8.81715 173.755 8.93446 173.788 9.06958L197.266 106.102C197.299 106.235 197.28 106.375 197.212 106.494C197.145 106.613 197.034 106.702 196.903 106.741L42.1636 152.013L42.0355 152.034ZM10.4047 44.4432L42.4197 150.841L196.092 105.857L172.87 9.81541L10.4047 44.4432Z" fill="black"/>
<path d="M205.173 110.034L36.8171 161.72L121.454 237.581L295.466 180.131L205.173 110.034Z" fill="white"/>
<path d="M121.454 238.114C121.324 238.111 121.199 238.062 121.102 237.975L36.4649 162.124C36.3945 162.062 36.3419 161.982 36.3125 161.893C36.2831 161.803 36.2778 161.708 36.2973 161.616C36.3169 161.524 36.3604 161.439 36.4236 161.369C36.4867 161.299 36.5672 161.247 36.657 161.219L205.013 109.522C205.096 109.495 205.184 109.489 205.269 109.504C205.355 109.519 205.435 109.554 205.504 109.607L295.797 179.705C295.871 179.766 295.927 179.845 295.961 179.935C295.994 180.025 296.004 180.121 295.989 180.216C295.976 180.311 295.935 180.401 295.873 180.474C295.811 180.548 295.729 180.602 295.637 180.632L121.625 238.082C121.571 238.104 121.513 238.115 121.454 238.114ZM37.8735 161.954L121.582 236.974L294.346 179.971L205.067 110.651L37.8735 161.954Z" fill="black"/>
<path d="M202.388 119.804L56.7411 167.154L95.5006 201.195L245.342 151.502L202.388 119.804Z" fill="white"/>
<path d="M95.5006 201.728C95.3704 201.725 95.2455 201.676 95.1485 201.59L56.3889 167.558C56.3166 167.497 56.2624 167.417 56.2323 167.326C56.2023 167.236 56.1974 167.14 56.2182 167.047C56.2375 166.956 56.2801 166.872 56.3419 166.803C56.4037 166.734 56.4824 166.682 56.5704 166.653L202.228 119.293C202.308 119.268 202.394 119.262 202.477 119.275C202.56 119.288 202.639 119.319 202.708 119.367L245.662 151.076C245.74 151.134 245.8 151.212 245.836 151.303C245.872 151.393 245.882 151.491 245.864 151.587C245.852 151.683 245.812 151.773 245.75 151.847C245.687 151.921 245.605 151.975 245.512 152.003L95.7034 201.696C95.6394 201.723 95.5698 201.734 95.5006 201.728ZM57.7976 167.377L95.618 200.588L244.2 151.321L202.292 120.422L57.7976 167.377Z" fill="#E6E7E8"/>
<path d="M170.789 95.3515C170.789 95.3515 125.082 113.294 81.8835 102.65C38.6846 92.0059 12.9552 54.7891 12.9552 54.7891L36.0914 131.737C36.0914 131.737 52.4617 141.838 92.9607 141.327C144.622 140.719 179.465 115.02 179.465 115.02L167.726 94.8401" fill="white"/>
<path d="M90.2608 141.913C52.0135 141.913 35.974 132.324 35.8353 132.196C35.7255 132.126 35.6427 132.021 35.6005 131.897L12.4643 54.9386C12.4319 54.8179 12.4429 54.6898 12.4954 54.5764C12.548 54.4631 12.6388 54.3718 12.7519 54.3185C12.865 54.2652 12.9933 54.2533 13.1144 54.2848C13.2354 54.3164 13.3415 54.3894 13.4141 54.4911C13.6702 54.8533 39.5277 91.6653 82.033 102.128C118.37 111.078 156.937 99.5605 167.694 95.9059L167.246 95.1494C167.21 95.0895 167.186 95.023 167.177 94.9538C167.167 94.8846 167.171 94.8141 167.189 94.7466C167.207 94.679 167.238 94.6157 167.281 94.5605C167.324 94.5052 167.377 94.4591 167.438 94.4249C167.499 94.3882 167.565 94.3637 167.635 94.3529C167.705 94.3422 167.776 94.3453 167.844 94.3621C167.913 94.379 167.977 94.4092 168.034 94.4511C168.091 94.4929 168.139 94.5456 168.175 94.606L168.719 95.5436L170.619 94.8617C170.683 94.8344 170.752 94.8205 170.822 94.8209C170.892 94.8212 170.961 94.8358 171.025 94.8637C171.088 94.8917 171.146 94.9324 171.194 94.9833C171.241 95.0343 171.278 95.0944 171.301 95.1601C171.327 95.2251 171.34 95.2947 171.339 95.3647C171.338 95.4347 171.324 95.5039 171.296 95.5682C171.268 95.6325 171.228 95.6908 171.178 95.7396C171.127 95.7884 171.068 95.8268 171.003 95.8526L169.263 96.4813L179.935 114.797C180.002 114.91 180.024 115.044 179.996 115.172C179.968 115.3 179.893 115.414 179.785 115.489C179.444 115.745 144.217 141.306 92.9714 141.902L90.2608 141.913ZM36.5396 131.386C38.3858 132.452 55.2364 141.263 92.9501 140.837C140.973 140.272 174.78 117.684 178.761 114.903L168.271 96.8648C157.695 100.477 118.626 112.261 81.8302 103.183C45.3331 94.2011 21.0017 65.9875 14.4066 57.5277L36.5396 131.386Z" fill="black"/>
<path d="M159.349 98.1432L173.639 120.252L185.996 116.054L168.271 88.6392L159.349 98.1432Z" fill="white"/>
<path d="M173.607 120.785C173.518 120.784 173.43 120.761 173.352 120.718C173.274 120.675 173.207 120.614 173.158 120.54L158.869 98.4417C158.805 98.34 158.777 98.22 158.788 98.1005C158.8 97.981 158.851 97.8687 158.933 97.7811L167.855 88.2771C167.911 88.2185 167.979 88.1728 168.054 88.1434C168.13 88.1139 168.211 88.1014 168.292 88.1066C168.372 88.1158 168.449 88.1426 168.517 88.1849C168.585 88.2273 168.643 88.2843 168.687 88.3517L186.413 115.766C186.456 115.834 186.483 115.911 186.492 115.991C186.501 116.071 186.492 116.152 186.465 116.228C186.438 116.303 186.395 116.372 186.338 116.429C186.281 116.486 186.211 116.529 186.135 116.555L173.777 120.753C173.723 120.775 173.665 120.785 173.607 120.785ZM159.99 98.2073L173.863 119.613L185.175 115.766L168.196 89.5024L159.99 98.2073Z" fill="black"/>
<path d="M226.346 105.729C226.346 105.729 226.581 121.989 217.104 133.805C207.628 145.621 178.313 151.502 178.313 151.502L187.576 115.67L226.346 105.729Z" fill="#72B0F9"/>
<path d="M178.313 152.034C178.167 152.03 178.029 151.969 177.929 151.864C177.866 151.798 177.822 151.718 177.8 151.63C177.777 151.543 177.778 151.451 177.801 151.363L187.053 115.542C187.079 115.451 187.127 115.367 187.195 115.3C187.262 115.233 187.345 115.184 187.437 115.159L226.218 105.218C226.296 105.194 226.379 105.189 226.46 105.204C226.541 105.218 226.617 105.252 226.681 105.302C226.746 105.352 226.798 105.417 226.833 105.492C226.867 105.566 226.883 105.647 226.88 105.729C226.88 105.889 227.008 122.308 217.51 134.135C208.012 145.961 179.625 151.779 178.419 152.024L178.313 152.034ZM188.013 116.117L179.049 150.799C183.894 149.733 208.322 143.884 216.688 133.463C224.852 123.299 225.716 109.607 225.802 106.422L188.013 116.117Z" fill="black"/>
<path d="M193.968 55.6415C193.968 55.6415 179.22 48.7266 164.536 52.4451C149.851 56.1636 132.414 80.435 132.414 80.435L168.922 86.7639L193.968 55.6415Z" fill="#72B0F9"/>
<path d="M168.922 87.35H168.826L132.318 81.0104C132.23 80.9961 132.147 80.959 132.078 80.903C132.009 80.8469 131.955 80.7738 131.923 80.6908C131.887 80.6082 131.873 80.5177 131.882 80.4281C131.892 80.3384 131.924 80.2528 131.976 80.1793C132.691 79.1885 149.702 55.7481 164.408 51.9764C179.113 48.2046 194.043 55.0875 194.192 55.1728C194.266 55.2056 194.331 55.2556 194.381 55.3187C194.431 55.3817 194.465 55.456 194.48 55.535C194.499 55.612 194.501 55.6923 194.484 55.7698C194.467 55.8474 194.433 55.9201 194.384 55.9825L169.338 87.1582C169.287 87.219 169.223 87.2678 169.151 87.301C169.079 87.3341 169.001 87.3509 168.922 87.35ZM133.353 80.1154L168.708 86.2099L193.114 55.8227C190.169 54.5868 177.31 49.7389 164.674 52.9779C151.719 56.3767 136.33 76.1519 133.353 80.1154Z" fill="black"/>
<path d="M160.865 86.0075C170.949 71.3572 188.611 54.8318 210.883 40.4906C244.616 18.7443 274.198 26.0002 284.218 29.5482C285.303 29.9315 286.231 30.6613 286.858 31.6244C287.485 32.5876 287.776 33.7303 287.687 34.8755C286.79 45.4556 281.284 75.3634 247.487 97.099C225.225 111.451 202.868 120.72 185.345 123.853C185.345 123.853 178.729 119.985 170.202 106.805C161.676 93.6256 160.865 86.0075 160.865 86.0075Z" fill="#72B0F9"/>
<path d="M185.345 124.407C185.248 124.409 185.151 124.383 185.068 124.332C184.801 124.172 178.259 120.251 169.754 107.103C161.249 93.9555 160.363 86.38 160.331 86.071C160.32 85.9428 160.354 85.8147 160.427 85.7088C170.896 70.4832 189.177 53.8299 210.584 40.0427C244.136 18.4243 273.376 25.1261 284.4 29.0471C285.6 29.4679 286.625 30.2753 287.315 31.342C288.005 32.4087 288.319 33.6742 288.21 34.9391C287.228 46.5741 281.326 75.9491 247.785 97.5675C226.378 111.419 203.647 121.146 185.431 124.396L185.345 124.407ZM161.42 86.1456C161.612 87.3816 163.031 94.744 170.651 106.517C178.27 118.291 184.396 122.627 185.452 123.32C203.498 120.049 226.005 110.342 247.198 96.6831C280.355 75.3737 286.182 46.3397 287.153 34.8858C287.239 33.855 286.981 32.8248 286.419 31.9557C285.858 31.0866 285.024 30.4273 284.048 30.0806C273.173 26.2342 244.317 19.607 211.171 40.959C189.956 54.597 171.835 71.0692 161.42 86.1456Z" fill="black"/>
<path d="M287.687 34.8969C286.367 48.0134 281.749 60.5844 274.262 71.4425L245.342 26.6928C258.333 24.3462 271.708 25.3249 284.218 29.5376C285.309 29.9223 286.241 30.657 286.868 31.6267C287.496 32.5964 287.784 33.7464 287.687 34.8969Z" fill="white"/>
<path d="M274.272 71.9752C274.185 71.9742 274.099 71.9513 274.022 71.9085C273.946 71.8656 273.881 71.8043 273.835 71.7301L244.904 26.9804C244.865 26.9028 244.844 26.817 244.844 26.73C244.844 26.643 244.865 26.5572 244.904 26.4796C244.94 26.3969 244.996 26.3245 245.066 26.2687C245.137 26.2129 245.221 26.1755 245.31 26.16C258.391 23.7904 271.861 24.7803 284.453 29.0367C285.653 29.4576 286.679 30.2649 287.368 31.3316C288.058 32.3984 288.373 33.6638 288.263 34.9288C286.964 48.1408 282.318 60.8054 274.763 71.7301C274.712 71.8124 274.639 71.8789 274.553 71.9221C274.466 71.9654 274.369 71.9838 274.272 71.9752ZM246.227 27.0869L274.272 70.4729C281.463 59.8526 285.89 47.611 287.153 34.8542C287.239 33.8234 286.981 32.7932 286.419 31.924C285.858 31.0549 285.024 30.3956 284.048 30.0489C271.885 25.9326 258.884 24.9145 246.227 27.0869Z" fill="black"/>
<path d="M234.008 84.6859C245.377 84.6859 254.594 75.4841 254.594 64.133C254.594 52.7819 245.377 43.5801 234.008 43.5801C222.639 43.5801 213.423 52.7819 213.423 64.133C213.423 75.4841 222.639 84.6859 234.008 84.6859Z" fill="white"/>
<path d="M234.04 85.2081C228.963 85.2105 224.055 83.3856 220.216 80.0679C216.377 76.7502 213.864 72.1621 213.138 67.1447C212.413 62.1274 213.523 57.017 216.265 52.7506C219.008 48.4842 223.198 45.3476 228.069 43.916C232.94 42.4844 238.164 42.8536 242.784 44.956C247.405 47.0583 251.111 50.753 253.224 55.3625C255.337 59.9721 255.715 65.1876 254.289 70.0529C252.863 74.9182 249.728 79.1072 245.459 81.8519C242.054 84.0411 238.09 85.2062 234.04 85.2081ZM233.966 44.1023C230.361 44.1069 226.825 45.0813 223.729 46.9229C220.632 48.7646 218.09 51.4054 216.37 54.5676C214.65 57.7298 213.815 61.2964 213.954 64.8922C214.093 68.488 215.199 71.9801 217.158 75.0009C218.948 77.7676 221.394 80.0509 224.279 81.6485C227.164 83.2461 230.399 84.1087 233.698 84.16C236.996 84.2112 240.257 83.4495 243.19 81.9423C246.124 80.4351 248.639 78.229 250.515 75.5192C252.391 72.8094 253.568 69.6797 253.943 66.4072C254.317 63.1347 253.878 59.8205 252.664 56.7579C251.449 53.6954 249.497 50.9791 246.98 48.8497C244.463 46.7202 241.459 45.2433 238.234 44.5498C236.831 44.2535 235.4 44.1035 233.966 44.1023Z" fill="black"/>
<path d="M234.008 76.8123C241.022 76.8123 246.708 71.1357 246.708 64.1332C246.708 57.1307 241.022 51.4541 234.008 51.4541C226.995 51.4541 221.309 57.1307 221.309 64.1332C221.309 71.1357 226.995 76.8123 234.008 76.8123Z" fill="black"/>
<path d="M234.03 77.3449C230.847 77.3585 227.765 76.2261 225.351 74.1554C222.936 72.0847 221.35 69.2143 220.883 66.0707C220.417 62.9271 221.1 59.7208 222.809 57.0397C224.518 54.3586 227.138 52.3824 230.188 51.4734C233.238 50.5644 236.514 50.7835 239.416 52.0905C242.317 53.3976 244.649 55.705 245.985 58.5897C247.32 61.4744 247.57 64.7431 246.687 67.7964C245.805 70.8498 243.849 73.4833 241.18 75.214C239.05 76.5938 236.568 77.3335 234.03 77.3449ZM234.03 51.9867C231.693 51.9813 229.405 52.6551 227.445 53.9259C224.981 55.5113 223.171 57.9306 222.348 60.7401C221.526 63.5496 221.745 66.5611 222.966 69.2223C224.187 71.8835 226.328 74.0159 228.997 75.2287C231.665 76.4414 234.682 76.6531 237.494 75.8249C240.306 74.9968 242.725 73.1843 244.307 70.7198C245.888 68.2553 246.528 65.3041 246.107 62.4073C245.686 59.5105 244.233 56.8623 242.015 54.9483C239.796 53.0343 236.961 51.9828 234.03 51.9867Z" fill="black"/>
<path d="M242.524 59.1681C242.43 59.1676 242.337 59.1415 242.256 59.0928C242.176 59.044 242.11 58.9743 242.065 58.8911C241.895 58.6034 237.957 51.7737 229.75 55.5242C229.634 55.5706 229.505 55.5747 229.386 55.5357C229.267 55.4967 229.165 55.4172 229.099 55.3111C229.069 55.2483 229.051 55.18 229.048 55.1104C229.044 55.0407 229.055 54.971 229.079 54.9055C229.102 54.8399 229.139 54.7798 229.187 54.7287C229.234 54.6776 229.292 54.6365 229.355 54.6079C238.48 50.4525 243.004 58.3583 243.047 58.4329C243.113 58.5577 243.127 58.7031 243.087 58.8382C243.047 58.9734 242.956 59.0879 242.834 59.1574C242.734 59.1914 242.626 59.1952 242.524 59.1681Z" fill="white"/>
<path d="M243.922 63.5791C243.853 63.5738 243.786 63.5549 243.725 63.5235C243.664 63.4922 243.609 63.449 243.564 63.3966C243.52 63.3441 243.486 63.2833 243.465 63.2177C243.444 63.1521 243.436 63.083 243.442 63.0144C243.48 62.3448 243.356 61.6759 243.079 61.0646C243.021 60.9373 243.015 60.7922 243.063 60.6606C243.111 60.529 243.209 60.4215 243.335 60.3614C243.4 60.3317 243.469 60.3153 243.54 60.3132C243.611 60.3111 243.681 60.3234 243.747 60.3493C243.813 60.3752 243.873 60.4142 243.923 60.4639C243.973 60.5136 244.013 60.573 244.04 60.6384C244.391 61.4205 244.549 62.2758 244.498 63.1316C244.48 63.2665 244.409 63.3888 244.302 63.4724C244.194 63.556 244.058 63.5943 243.922 63.5791Z" fill="white"/>
<path d="M167.332 85.3361C167.211 85.3346 167.095 85.2934 167.001 85.2189C166.891 85.131 166.82 85.0033 166.804 84.8636C166.788 84.7239 166.828 84.5835 166.915 84.4731C174.509 75.336 182.649 66.665 191.29 58.5076C191.393 58.422 191.526 58.3788 191.66 58.3867C191.795 58.3945 191.921 58.4528 192.014 58.5499C192.108 58.647 192.161 58.7756 192.163 58.91C192.165 59.0445 192.116 59.1747 192.026 59.2747C183.419 67.4017 175.311 76.0406 167.748 85.1443C167.698 85.2058 167.634 85.255 167.562 85.2882C167.49 85.3214 167.411 85.3378 167.332 85.3361Z" fill="white"/>
<path d="M191.311 99.9759C176.445 109.565 157.279 118.952 155.614 116.374C153.949 113.795 170.405 100.232 185.281 90.6424C200.158 81.0532 209.463 81.6711 209.463 81.6711C209.463 81.6711 206.187 90.3973 191.311 99.9759Z" fill="#72B0F9"/>
<path d="M156.831 117.29C156.523 117.333 156.209 117.297 155.918 117.188C155.627 117.078 155.368 116.897 155.166 116.661C154.803 116.107 153.704 114.413 163.895 105.729C170.601 100.125 177.647 94.9408 184.993 90.2055C199.838 80.6162 209.111 81.117 209.538 81.1383C209.621 81.1452 209.702 81.1708 209.774 81.2132C209.846 81.2557 209.908 81.3138 209.954 81.3834C209.997 81.4547 210.024 81.5345 210.034 81.6172C210.043 81.7 210.034 81.7838 210.008 81.8628C209.869 82.2251 206.497 90.8554 191.642 100.423C181.749 106.774 162.807 117.29 156.831 117.29ZM208.62 82.2144C206.08 82.321 197.65 83.2799 185.569 91.0898C178.263 95.8011 171.256 100.961 164.589 106.539C157.119 112.932 155.731 115.574 156.052 116.128C157.236 117.972 174.407 110.268 191.012 99.5709C203.103 91.7504 207.478 84.4839 208.62 82.2144Z" fill="black"/>
<path d="M212.58 170.478L156.361 187.802L181.781 207.609L237.071 189.038L212.58 170.478Z" fill="white"/>
<path d="M181.781 208.142C181.661 208.141 181.545 208.1 181.45 208.025L156.041 188.229C155.963 188.168 155.903 188.088 155.867 187.996C155.831 187.904 155.821 187.804 155.838 187.707C155.857 187.611 155.901 187.523 155.967 187.451C156.033 187.38 156.118 187.328 156.212 187.302L212.419 169.967C212.5 169.941 212.586 169.935 212.67 169.95C212.754 169.965 212.833 170 212.9 170.052L237.391 188.612C237.47 188.67 237.531 188.748 237.567 188.839C237.603 188.929 237.612 189.028 237.594 189.124C237.584 189.222 237.545 189.314 237.482 189.39C237.419 189.466 237.336 189.521 237.242 189.55L181.952 208.111C181.897 208.131 181.839 208.142 181.781 208.142ZM157.503 188.016L181.888 207.013L235.95 188.9L212.473 171.107L157.503 188.016Z" fill="#E6E7E8"/>
<path d="M106.108 122.638C89.6632 122.638 70.7103 119.943 53.5183 110.833C53.4559 110.801 53.4006 110.758 53.3554 110.705C53.3102 110.651 53.2762 110.59 53.2553 110.523C53.2344 110.457 53.2271 110.387 53.2338 110.317C53.2404 110.248 53.261 110.18 53.2942 110.119C53.3267 110.056 53.3714 110.001 53.4257 109.956C53.4799 109.911 53.5426 109.877 53.6101 109.856C53.6777 109.835 53.7486 109.828 53.819 109.835C53.8893 109.841 53.9576 109.862 54.0198 109.895C95.7781 131.993 148.048 115.99 148.571 115.83C148.639 115.802 148.713 115.788 148.787 115.79C148.861 115.791 148.933 115.808 149 115.839C149.067 115.871 149.127 115.915 149.176 115.971C149.225 116.026 149.262 116.091 149.284 116.162C149.306 116.232 149.313 116.306 149.305 116.38C149.297 116.453 149.274 116.524 149.237 116.588C149.2 116.652 149.15 116.708 149.091 116.752C149.031 116.795 148.963 116.826 148.891 116.842C134.958 120.696 120.566 122.646 106.108 122.638Z" fill="#E6E7E8"/>
<path d="M96.8559 132.771C62.5038 132.771 40.0506 116.896 39.7945 116.704C39.7367 116.664 39.6876 116.612 39.6499 116.553C39.6122 116.493 39.5867 116.427 39.5747 116.358C39.5628 116.288 39.5648 116.217 39.5805 116.149C39.5963 116.08 39.6254 116.015 39.6664 115.958C39.7514 115.846 39.8768 115.771 40.0162 115.749C40.1555 115.727 40.298 115.76 40.4134 115.841C40.7229 116.065 71.6601 137.928 116.492 129.969C116.562 129.957 116.634 129.959 116.703 129.975C116.772 129.991 116.838 130.02 116.896 130.061C116.954 130.102 117.003 130.154 117.041 130.214C117.079 130.274 117.104 130.341 117.116 130.411C117.128 130.481 117.126 130.553 117.11 130.622C117.094 130.691 117.065 130.757 117.024 130.814C116.983 130.872 116.931 130.921 116.87 130.959C116.81 130.997 116.743 131.023 116.673 131.034C110.131 132.194 103.5 132.775 96.8559 132.771Z" fill="#E6E7E8"/>
<path d="M62.7919 106.262C62.7217 106.278 62.6487 106.278 62.5785 106.262C28.9734 91.0685 20.7669 72.2736 20.6815 72.0925C20.6509 72.0276 20.6338 71.9573 20.6311 71.8856C20.6284 71.814 20.6403 71.7425 20.6659 71.6755C20.6915 71.6086 20.7305 71.5475 20.7803 71.4959C20.8302 71.4443 20.89 71.4032 20.9561 71.3753C21.0222 71.3473 21.0933 71.3329 21.1651 71.333C21.2369 71.3331 21.308 71.3477 21.374 71.3759C21.44 71.404 21.4997 71.4452 21.5494 71.497C21.5991 71.5487 21.6378 71.6099 21.6633 71.677C21.6633 71.677 23.6802 76.3544 29.7524 82.7898C35.355 88.7245 45.6746 97.4507 63.016 105.293C63.1446 105.351 63.2449 105.457 63.2949 105.589C63.3449 105.721 63.3406 105.867 63.2828 105.996C63.2319 106.08 63.1596 106.148 63.0734 106.195C62.9872 106.242 62.89 106.265 62.7919 106.262Z" fill="#E6E7E8"/>
<path d="M122.841 112.335C122.7 112.335 122.564 112.279 122.464 112.179C122.364 112.079 122.308 111.944 122.308 111.802C122.311 111.662 122.368 111.528 122.467 111.429C122.567 111.329 122.701 111.272 122.841 111.27C123.034 111.27 141.538 111.27 149.99 107.146C150.054 107.11 150.124 107.087 150.197 107.08C150.27 107.072 150.344 107.079 150.414 107.101C150.484 107.123 150.548 107.159 150.604 107.207C150.659 107.255 150.704 107.314 150.735 107.38C150.767 107.446 150.785 107.518 150.787 107.591C150.79 107.664 150.777 107.737 150.75 107.805C150.724 107.873 150.683 107.935 150.631 107.986C150.579 108.038 150.517 108.079 150.449 108.105C141.784 112.293 123.62 112.335 122.841 112.335Z" fill="#E6E7E8"/>
<path d="M99.4065 93.2526L96.7812 90.4504L92.9928 91.0257L94.839 87.6589L93.1315 84.228L96.8986 84.9632L99.6306 82.2676L100.111 86.0713L103.515 87.84L100.036 89.4702L99.4065 93.2526Z" fill="#72B0F9"/>
<path d="M134.324 96.6406L132.702 94.9145L130.354 95.2661L131.507 93.1884L130.44 91.0682L132.777 91.5157L134.463 89.8535L134.762 92.2082L136.864 93.295L134.719 94.3072L134.324 96.6406Z" fill="#72B0F9"/>
<path d="M118.498 162.433L112.906 159.162L107.037 161.911L108.435 155.593L104.006 150.862L110.452 150.234L113.589 144.565L116.182 150.489L122.543 151.715L117.698 156.019L118.498 162.433Z" fill="#72B0F9"/>
<path d="M79.5144 122.756L76.0355 119.048L70.9984 119.804L73.4636 115.35L71.1798 110.812L76.1849 111.771L79.8026 108.201L80.4322 113.252L84.957 115.585L80.3468 117.748L79.5144 122.756Z" fill="#72B0F9"/>
<path d="M12.9552 55.3114C12.8137 55.3269 12.6718 55.2857 12.5608 55.1968C12.4497 55.1078 12.3785 54.9785 12.363 54.8372C12.3474 54.6959 12.3887 54.5543 12.4777 54.4434C12.5668 54.3325 12.6963 54.2614 12.8379 54.2459L175.57 18.6698C175.64 18.6551 175.713 18.6544 175.783 18.6676C175.853 18.6808 175.92 18.7077 175.98 18.7468C176.04 18.7858 176.092 18.8363 176.132 18.8953C176.173 18.9543 176.201 19.0207 176.216 19.0907C176.231 19.1606 176.231 19.2328 176.218 19.3031C176.205 19.3733 176.178 19.4403 176.139 19.5002C176.1 19.56 176.049 19.6116 175.99 19.6519C175.931 19.6923 175.864 19.7206 175.794 19.7353L13.0726 55.3114H12.9552Z" fill="black"/>
<path d="M20.5108 49.483C21.7072 49.483 22.6771 48.5147 22.6771 47.3201C22.6771 46.1256 21.7072 45.1572 20.5108 45.1572C19.3143 45.1572 18.3444 46.1256 18.3444 47.3201C18.3444 48.5147 19.3143 49.483 20.5108 49.483Z" fill="#72B0F9"/>
<path d="M28.2584 47.5118C29.4548 47.5118 30.4247 46.5435 30.4247 45.3489C30.4247 44.1544 29.4548 43.186 28.2584 43.186C27.062 43.186 26.092 44.1544 26.092 45.3489C26.092 46.5435 27.062 47.5118 28.2584 47.5118Z" fill="#E6E7E8"/>
<path d="M35.6325 45.818C36.829 45.818 37.7989 44.8496 37.7989 43.6551C37.7989 42.4606 36.829 41.4922 35.6325 41.4922C34.4361 41.4922 33.4662 42.4606 33.4662 43.6551C33.4662 44.8496 34.4361 45.818 35.6325 45.818Z" fill="#E6E7E8"/>
<path d="M149.833 39.5538L53.2585 62.2047C50.1946 62.9233 48.2943 65.9857 49.0141 69.0447L49.0165 69.0551C49.7362 72.1141 52.8035 74.0114 55.8674 73.2927L152.442 50.6418C155.506 49.9232 157.406 46.8608 156.687 43.8018L156.684 43.7914C155.964 40.7324 152.897 38.8352 149.833 39.5538Z" fill="#E6E7E8"/>
</svg>
