<svg width="296" height="215" viewBox="0 0 296 215" fill="none" xmlns="http://www.w3.org/2000/svg">
<path d="M114.369 6.23729C112.567 1.96645 107.259 0.0735809 102.675 0.786973C98.0903 1.50036 94.097 4.23028 90.4087 7.00775C83.8898 11.8778 77.5329 17.2806 73.4348 24.3004C69.3366 31.3201 66.6871 38.3875 62.2745 45.2265C56.7563 53.7302 50.6853 62.7094 41.3073 66.5617C34.836 69.225 26.4396 69.8433 23.1992 76.0736C19.6729 82.8841 25.2387 91.8443 21.6743 98.6453C19.4918 102.764 14.5836 104.666 10.7714 107.52C3.46141 113.008 0.211493 122.672 0.516471 131.794C0.821449 140.916 4.23339 149.648 8.14092 157.914C11.3337 164.705 14.9839 171.468 20.5306 176.538C27.3259 182.759 36.3704 185.888 45.3101 188.152C56.0129 190.854 67.1256 192.537 78.1143 191.396C89.103 190.254 100.035 186.079 107.878 178.345C118.362 168.054 122.403 152.758 132.105 141.725C139.081 133.792 148.964 128.275 154.54 119.124C160.724 108.89 165.228 97.7342 167.883 86.0801C172.648 65.1539 166.444 43.4573 160.258 22.8926C158.991 18.6788 157.694 14.3319 155.15 10.7745C147.888 0.358938 132.82 -0.915655 120.373 1.605C117.647 2.13766 114.407 3.49786 114.369 6.23729Z" fill="white"/>
<path d="M70.8711 192.176C62.1756 192.037 53.5313 190.817 45.1386 188.542C36.8279 186.44 27.345 183.415 20.1494 176.824C14.4883 171.649 10.7904 164.734 7.64535 158.047C4.05233 150.438 0.325876 141.278 0.0208981 131.747C-0.322202 121.474 3.5758 112.247 10.5045 107.073C11.6482 106.217 12.8967 105.437 14.1071 104.695C17.0329 102.878 19.8254 101.166 21.2931 98.322C23.0086 95.0499 22.5226 91.2832 22.0174 87.2978C21.5123 83.3123 20.9881 79.2792 22.818 75.7503C25.2578 70.9944 30.5568 69.4249 35.6938 67.8745C37.5237 67.3228 39.4202 66.7521 41.1357 66.0482C50.0087 62.4051 55.7842 54.3105 61.8933 44.8937C64.2417 41.1224 66.3643 37.2157 68.2502 33.1941C69.7369 30.1788 71.2714 27.0589 73.0155 24.0247C77.2661 16.7481 84.0423 11.1265 90.1133 6.58935C93.8302 3.80237 97.8616 1.0249 102.589 0.282969C106.639 -0.344816 111.786 1.05343 114.159 4.80112C115.169 2.3851 118.619 1.4244 120.23 1.10099C126.139 -0.0975063 146.163 -2.94156 155.607 10.4417C158.219 14.1323 159.524 18.4792 160.782 22.693C166.644 42.297 173.296 64.5453 168.407 86.1183C165.728 97.8245 161.191 109.028 154.969 119.305C151.595 124.851 146.601 129.122 141.769 133.25C138.472 135.938 135.367 138.853 132.477 141.972C127.997 147.07 124.671 153.206 121.45 159.094C117.723 165.952 113.882 173.028 108.231 178.583C100.854 185.831 90.18 190.511 78.181 191.757C75.7534 192.024 73.3134 192.164 70.8711 192.176ZM104.552 1.12002C103.949 1.11874 103.346 1.16646 102.751 1.2627C98.2333 1.96658 94.3163 4.67746 90.6851 7.38835C84.395 12.1443 77.9999 17.4329 73.8446 24.5098C72.091 27.5155 70.5661 30.6259 69.0793 33.6221C67.1778 37.6773 65.036 41.6159 62.6653 45.4169C56.4704 54.9763 50.5901 63.1851 41.4693 66.9328C39.7157 67.6557 37.8 68.2359 35.9416 68.8352C30.7856 70.4237 25.8964 71.86 23.6376 76.2259C21.9507 79.498 22.4272 83.2457 22.9419 87.2217C23.4565 91.1976 23.9712 95.2592 22.1223 98.7976C20.5116 101.879 17.4999 103.734 14.5931 105.542C13.4018 106.274 12.1628 107.044 11.0573 107.872C4.38589 112.856 0.659446 121.788 0.993016 131.747C1.31705 141.116 4.99585 150.114 8.55075 157.686C11.6482 164.287 15.2889 171.098 20.8356 176.167C27.8787 182.607 37.2091 185.594 45.415 187.658C58.1001 190.863 68.4694 191.891 78.0476 190.892C89.8369 189.665 100.311 185.08 107.535 177.984C113.082 172.524 116.894 165.505 120.582 158.723C123.823 152.74 127.187 146.566 131.733 141.382C134.651 138.226 137.788 135.28 141.121 132.565C145.886 128.484 150.823 124.261 154.13 118.849C160.303 108.66 164.807 97.5529 167.473 85.9471C172.333 64.5929 165.729 42.4967 159.848 22.9974C158.609 18.8692 157.332 14.5889 154.816 11.0219C145.724 -1.86672 126.196 0.901243 120.43 2.07121C118.762 2.40412 114.883 3.47897 114.845 6.23742C114.843 6.34791 114.803 6.45434 114.732 6.53909C114.661 6.62385 114.563 6.68185 114.454 6.7035C114.347 6.72265 114.237 6.70481 114.142 6.65291C114.047 6.60102 113.972 6.51819 113.93 6.41814C112.405 2.80362 108.279 1.12002 104.552 1.12002Z" fill="black"/>
<path d="M176.546 104.238C209.674 123.937 243.937 214.576 243.937 214.576H85.0526C85.0526 214.576 33.7877 124.537 56.5181 104.533C71.6431 91.2926 162.546 95.9154 176.546 104.238Z" fill="#F1D767"/>
<path d="M165.605 215.004C165.509 215.005 165.416 214.975 165.338 214.921C165.259 214.867 165.2 214.789 165.166 214.7L153.387 185.213C153.363 185.155 153.352 185.093 153.353 185.031C153.354 184.968 153.367 184.906 153.392 184.849C153.416 184.791 153.452 184.739 153.497 184.696C153.542 184.652 153.595 184.618 153.654 184.595C153.711 184.572 153.773 184.561 153.835 184.562C153.897 184.563 153.958 184.576 154.014 184.601C154.071 184.625 154.122 184.661 154.165 184.706C154.208 184.751 154.241 184.804 154.264 184.861L166.043 214.348C166.068 214.405 166.081 214.467 166.082 214.53C166.082 214.592 166.07 214.654 166.046 214.712C166.022 214.769 165.986 214.822 165.942 214.865C165.897 214.909 165.844 214.944 165.786 214.966C165.728 214.988 165.667 215.001 165.605 215.004Z" fill="black"/>
<path d="M213.363 215.004C213.277 215.004 213.193 214.98 213.12 214.937C213.046 214.894 212.985 214.832 212.943 214.757C212.4 213.806 209.493 208.251 205.471 200.594C193.024 176.89 167.13 127.571 165.338 125.992C165.285 125.964 165.237 125.926 165.199 125.879C165.161 125.833 165.133 125.779 165.116 125.721C165.099 125.664 165.094 125.603 165.101 125.543C165.108 125.484 165.127 125.426 165.157 125.374C165.221 125.261 165.326 125.178 165.45 125.141C165.575 125.104 165.708 125.116 165.824 125.174C166.93 125.735 177.909 146.053 206.31 200.147C210.332 207.756 213.239 213.34 213.772 214.301C213.803 214.354 213.822 214.413 213.829 214.474C213.837 214.536 213.832 214.598 213.815 214.657C213.798 214.716 213.77 214.771 213.731 214.82C213.693 214.868 213.645 214.908 213.591 214.938C213.523 214.982 213.444 215.005 213.363 215.004Z" fill="black"/>
<path d="M136.784 107.901L153.825 185.061C153.825 185.061 100.654 117.631 97.1754 97.5043C108.65 85.8142 136.784 107.901 136.784 107.901Z" fill="black"/>
<path d="M153.825 185.517C153.754 185.516 153.683 185.5 153.619 185.468C153.555 185.437 153.498 185.392 153.453 185.337C153.32 185.165 139.996 168.215 126.415 149.087C108.164 123.319 98.1666 105.979 96.7084 97.5705C96.6949 97.4959 96.699 97.4192 96.7205 97.3465C96.7421 97.2738 96.7803 97.2072 96.8323 97.152C101.683 92.2153 110.175 92.4626 121.488 97.8749C126.984 100.582 132.206 103.812 137.08 107.52C137.164 107.588 137.224 107.681 137.251 107.786L154.292 184.947C154.315 185.053 154.301 185.163 154.253 185.26C154.204 185.357 154.124 185.434 154.025 185.479C153.962 185.505 153.894 185.518 153.825 185.517ZM97.6901 97.6466C101.15 115.947 144.809 172.686 152.91 183.101L136.356 108.148C134.268 106.569 108.45 87.193 97.6901 97.6656V97.6466Z" fill="black"/>
<path d="M137.747 85.6427L136.794 107.882C136.794 107.882 128.54 120.723 114.683 115.643C110.598 114.103 106.909 111.675 103.882 108.534C100.855 105.393 98.5676 101.619 97.1849 97.485L101.998 57.3639C101.998 57.3639 113.701 47.1005 113.215 23.8154C124.766 30.1797 137.753 33.4993 150.947 33.4605C150.947 33.4605 152.777 64.7166 149.794 75.5316C146.811 86.3466 137.747 85.6427 137.747 85.6427Z" fill="white"/>
<path d="M121.021 117.317C118.793 117.303 116.586 116.894 114.502 116.109C100.578 111.001 96.7561 97.7607 96.718 97.6275C96.708 97.5677 96.708 97.5066 96.718 97.4468L101.531 57.3256C101.542 57.2114 101.597 57.1059 101.683 57.0307C101.788 56.9261 113.187 46.6438 112.748 23.8152C112.747 23.7306 112.769 23.6472 112.811 23.5737C112.852 23.5001 112.913 23.439 112.987 23.3967C113.06 23.3522 113.144 23.3286 113.23 23.3286C113.315 23.3286 113.399 23.3522 113.473 23.3967C124.96 29.6784 137.848 32.9694 150.947 32.9657C151.009 32.9604 151.071 32.968 151.13 32.9881C151.189 33.0082 151.243 33.0403 151.289 33.0824C151.334 33.1244 151.371 33.1755 151.396 33.2324C151.42 33.2893 151.433 33.3507 151.433 33.4127C151.509 34.6873 153.244 64.8495 150.261 75.617C147.602 85.224 140.196 86.0801 138.214 86.0801L137.261 107.862C137.26 107.947 137.234 108.03 137.185 108.1C137.118 108.271 131.152 117.317 121.021 117.317ZM97.6615 97.4658C98.0141 98.5977 101.96 110.497 114.817 115.215C127.511 119.876 135.479 108.937 136.298 107.748L137.251 85.633C137.261 85.5055 137.319 85.3865 137.413 85.3001C137.461 85.258 137.517 85.2262 137.578 85.2066C137.639 85.187 137.703 85.1799 137.766 85.1859C138.119 85.1859 146.468 85.6996 149.317 75.4077C152.062 65.4868 150.69 37.8358 150.48 33.9549H150.146C137.429 33.8069 124.932 30.6202 113.701 24.6618C113.787 36.3424 110.776 44.6368 108.193 49.5544C106.73 52.5275 104.799 55.2475 102.474 57.611L97.6615 97.4658Z" fill="black"/>
<path d="M107.402 57.0404C107.135 55.0346 106.229 53.1674 104.819 51.7138C103.44 50.4229 101.847 49.3802 100.111 48.6319C99.2101 48.1142 98.2029 47.8084 97.1659 47.7378C96.4348 47.7692 95.7165 47.9403 95.0501 48.2419C93.4415 48.8302 92.0918 49.9651 91.2379 51.4474C90.6942 52.722 90.4685 54.1092 90.5803 55.49C90.5837 56.9937 90.7855 58.4904 91.1807 59.9416C91.6064 61.3859 92.3163 62.731 93.2689 63.8984C94.2214 65.0658 95.3976 66.0319 96.7286 66.7404C98.0596 67.4489 99.5188 67.8855 101.021 68.0247C102.523 68.1639 104.038 68.0029 105.477 67.5511" fill="white"/>
<path d="M102.046 68.5213C99.491 68.5306 97.0024 67.7121 94.9538 66.189C92.9053 64.6658 91.4073 62.5203 90.6851 60.0747C90.2763 58.5838 90.068 57.0452 90.0656 55.4995C89.9517 54.043 90.1938 52.5807 90.7709 51.2382C91.6764 49.637 93.1322 48.4173 94.869 47.8044C95.594 47.4821 96.3731 47.2983 97.1659 47.2622C98.2776 47.3283 99.3581 47.6541 100.321 48.2134C102.094 48.9906 103.719 50.0687 105.124 51.3999C106.615 52.9231 107.569 54.8899 107.84 57.0024C107.857 57.1285 107.822 57.256 107.744 57.3568C107.667 57.4576 107.552 57.5234 107.426 57.5398C107.299 57.5562 107.171 57.5218 107.07 57.4442C106.969 57.3666 106.904 57.2522 106.887 57.126C106.645 55.215 105.785 53.4349 104.438 52.0562C103.092 50.8136 101.545 49.807 99.863 49.079C99.0296 48.5963 98.098 48.307 97.1373 48.2324C96.4781 48.2662 95.8313 48.4243 95.2312 48.6985C93.7213 49.2449 92.448 50.2971 91.6286 51.6757C91.1229 52.8769 90.9137 54.1818 91.0187 55.4805C91.0193 56.9425 91.2148 58.3979 91.6 59.8084C92.0084 61.1883 92.6879 62.4734 93.5988 63.5886C94.5098 64.7039 95.634 65.627 96.906 66.3043C98.178 66.9815 99.5724 67.3993 101.008 67.5334C102.443 67.6674 103.891 67.515 105.267 67.085C105.329 67.0662 105.395 67.06 105.46 67.0666C105.525 67.0732 105.588 67.0925 105.646 67.1234C105.703 67.1543 105.754 67.1962 105.795 67.2468C105.837 67.2973 105.868 67.3554 105.886 67.4179C105.905 67.4804 105.911 67.5459 105.905 67.6108C105.898 67.6756 105.879 67.7386 105.848 67.796C105.817 67.8534 105.775 67.9042 105.724 67.9454C105.674 67.9866 105.615 68.0174 105.553 68.0362C104.415 68.3723 103.232 68.5358 102.046 68.5213Z" fill="black"/>
<path d="M134.669 65.2018C133.243 65.1584 131.831 64.9117 130.475 64.4694C130.416 64.4488 130.361 64.4167 130.314 64.3749C130.267 64.3332 130.229 64.2826 130.201 64.2261C130.174 64.1695 130.158 64.1082 130.154 64.0455C130.15 63.9828 130.159 63.9199 130.18 63.8606C130.2 63.8013 130.233 63.7466 130.274 63.6997C130.316 63.6527 130.367 63.6145 130.424 63.5871C130.48 63.5597 130.542 63.5437 130.604 63.5401C130.667 63.5364 130.73 63.5451 130.79 63.5657C132.076 64.0033 135.717 64.8689 137.128 63.5657C138.157 62.6146 135.46 56.0894 132.362 50.582C132.3 50.4722 132.285 50.3425 132.319 50.2213C132.353 50.1 132.434 49.9971 132.543 49.9352C132.655 49.8769 132.785 49.8641 132.906 49.8996C133.027 49.9351 133.129 50.0161 133.191 50.1254C134.783 52.979 139.815 62.3577 137.766 64.2601C136.886 64.9452 135.782 65.2807 134.669 65.2018Z" fill="black"/>
<path d="M117.761 170.137C117.685 170.138 117.609 170.121 117.541 170.086C117.473 170.051 117.414 170 117.371 169.937C117.228 169.728 102.122 148.869 84.6618 122.473C84.5928 122.368 84.5681 122.24 84.5931 122.117C84.6181 121.995 84.6908 121.886 84.7952 121.817C84.901 121.75 85.0283 121.727 85.1507 121.752C85.2732 121.777 85.3814 121.848 85.4528 121.95C102.941 148.336 117.99 169.176 118.143 169.386C118.215 169.487 118.244 169.613 118.224 169.735C118.205 169.858 118.138 169.968 118.038 170.042C117.959 170.104 117.862 170.138 117.761 170.137Z" fill="black"/>
<path d="M132.229 77.5955C131.441 77.5924 130.657 77.4934 129.894 77.3006C120.687 75.1034 120.764 63.9174 120.764 63.8032C120.766 63.6779 120.817 63.5583 120.906 63.4696C120.995 63.381 121.114 63.3301 121.24 63.3276C121.303 63.3289 121.364 63.3424 121.422 63.3675C121.479 63.3925 121.531 63.4286 121.574 63.4736C121.618 63.5187 121.652 63.5718 121.674 63.63C121.697 63.6882 121.708 63.7503 121.707 63.8127C121.707 63.9174 121.65 74.3519 130.113 76.378C131.086 76.6531 132.106 76.7241 133.108 76.5866C134.111 76.4491 135.073 76.106 135.936 75.5789C139.615 73.258 140.787 67.8743 140.806 67.8173C140.819 67.756 140.843 67.6979 140.878 67.6461C140.913 67.5943 140.958 67.55 141.01 67.5155C141.063 67.4811 141.121 67.4572 141.183 67.4453C141.244 67.4335 141.307 67.4338 141.369 67.4463C141.43 67.4587 141.488 67.4831 141.539 67.5182C141.591 67.5533 141.635 67.5984 141.668 67.6507C141.702 67.703 141.725 67.7615 141.736 67.8228C141.746 67.884 141.745 67.9469 141.731 68.0075C141.731 68.2453 140.473 73.8383 136.451 76.378C135.19 77.181 133.724 77.6037 132.229 77.5955Z" fill="black"/>
<path d="M137.747 85.6429C137.747 85.6429 123.928 85.9282 115.522 75.0371C115.522 75.0371 119.811 97.1808 137.166 98.9595L137.747 85.6429Z" fill="black"/>
<path d="M137.166 99.4542H137.118C119.61 97.6565 115.093 75.3701 115.055 75.1418C115.03 75.0362 115.043 74.9254 115.092 74.8283C115.14 74.7313 115.221 74.6542 115.32 74.6103C115.42 74.5664 115.531 74.5584 115.636 74.5877C115.74 74.617 115.832 74.6818 115.893 74.7709C124.052 85.3291 137.595 85.1769 137.738 85.2339C137.803 85.2328 137.868 85.2449 137.928 85.2694C137.989 85.2939 138.044 85.3304 138.09 85.3766C138.135 85.4231 138.17 85.4783 138.193 85.5389C138.216 85.5994 138.226 85.6639 138.224 85.7286L137.642 99.0452C137.639 99.111 137.622 99.1755 137.592 99.2344C137.563 99.2934 137.521 99.3455 137.471 99.3876C137.38 99.4456 137.272 99.4692 137.166 99.4542ZM116.484 76.9396C118 82.2852 123.327 96.7338 136.708 98.4555L137.251 86.09C134.812 86.0424 124.033 85.2244 116.484 76.9396Z" fill="black"/>
<path d="M98.9671 207.395C98.855 207.394 98.7468 207.354 98.6622 207.28C98.4334 207.081 75.6363 187.182 60.7401 158.503C60.7119 158.448 60.6949 158.389 60.6899 158.327C60.685 158.265 60.6922 158.204 60.7113 158.145C60.7303 158.086 60.7607 158.032 60.8008 157.985C60.8409 157.938 60.8899 157.899 60.945 157.871C61 157.843 61.0601 157.826 61.1218 157.821C61.1834 157.816 61.2454 157.823 61.3043 157.842C61.3632 157.861 61.4177 157.892 61.4648 157.932C61.5119 157.972 61.5506 158.02 61.5788 158.075C76.3892 186.611 99.0529 206.367 99.2816 206.586C99.326 206.629 99.3613 206.681 99.3853 206.738C99.4094 206.796 99.4218 206.857 99.4218 206.919C99.4218 206.981 99.4094 207.042 99.3853 207.1C99.3613 207.157 99.326 207.208 99.2816 207.252C99.1973 207.336 99.0857 207.386 98.9671 207.395Z" fill="black"/>
<path d="M123.661 45.2078C124.587 45.2078 125.338 43.6492 125.338 41.7265C125.338 39.8038 124.587 38.2451 123.661 38.2451C122.734 38.2451 121.983 39.8038 121.983 41.7265C121.983 43.6492 122.734 45.2078 123.661 45.2078Z" fill="black"/>
<path d="M144.172 44.9807C144.249 43.058 143.561 41.4694 142.634 41.4324C141.708 41.3954 140.894 42.9241 140.817 44.8468C140.74 46.7695 141.429 48.3581 142.355 48.3951C143.282 48.4321 144.095 46.9034 144.172 44.9807Z" fill="black"/>
<path d="M95.0882 183.691C105.991 171.915 180.863 137.083 187.706 131.642C194.549 126.201 194.587 121.959 203.632 119.438C212.676 116.918 227.087 111.99 228.497 113.541C229.908 115.091 228.954 119.067 226.782 120.913C224.609 122.758 218.947 124.128 216.917 126.021C216.917 126.021 228.678 128.132 232.471 126.173C236.264 124.213 242.745 119.096 246.081 118.563C248.197 118.284 250.349 118.635 252.266 119.571C252.266 119.571 256.517 116.642 258.032 118.868C259.042 120.342 258.242 122.083 257.003 123.119C259.814 122.244 257.861 125.84 257.308 126.848C242.707 153.291 208.464 147.365 203.308 147.651C203.308 147.651 186.925 161.975 183.37 165.362C174.525 173.799 165.49 182.036 156.084 189.836C145.8 198.397 134.478 208.051 121.688 212.569C95.2502 221.938 84.1567 195.476 95.0882 183.691Z" fill="white"/>
<path d="M111.119 215.005C103.828 215.005 97.7092 211.951 93.8397 206.111C88.9792 198.749 89.3604 189.189 94.7928 183.377C101.826 175.768 135.383 158.599 159.887 146.062C173.391 139.166 185.047 133.202 187.458 131.271C189.375 129.7 191.146 127.959 192.748 126.068C195.426 123.044 197.513 120.656 203.556 118.982C205.7 118.383 208.111 117.66 210.656 116.899C222.188 113.446 227.744 111.953 228.897 113.218C229.21 113.618 229.44 114.077 229.572 114.567C229.705 115.057 229.738 115.568 229.669 116.071C229.517 118.065 228.615 119.927 227.144 121.284C225.613 122.351 223.947 123.209 222.188 123.833C220.795 124.365 219.444 125.001 218.147 125.735C221.13 126.201 229.355 127.286 232.3 125.735C233.624 125.051 235.292 123.966 237.065 122.825C240.382 120.675 243.813 118.449 246.062 118.069C248.185 117.787 250.344 118.118 252.285 119.02C253.01 118.563 255.24 117.289 256.955 117.612C257.262 117.661 257.555 117.77 257.818 117.934C258.082 118.097 258.31 118.311 258.49 118.563C258.875 119.168 259.057 119.88 259.009 120.595C258.961 121.31 258.686 121.991 258.223 122.539C258.435 122.589 258.623 122.71 258.757 122.882C259.309 123.548 259.004 124.832 257.804 127.048C244.918 150.381 217.118 148.802 206.653 148.212C205.309 148.136 204.223 148.079 203.575 148.098C202.04 149.439 187.115 162.489 183.77 165.676C173.82 175.188 164.89 183.187 156.465 190.178L155.14 191.272C145.343 199.405 134.24 208.632 121.917 212.988C118.46 214.274 114.807 214.956 111.119 215.005ZM227.334 113.674C224.685 113.674 216.536 116.119 210.885 117.812C208.33 118.573 205.919 119.296 203.756 119.895C198.037 121.493 195.988 123.795 193.415 126.696C191.779 128.631 189.967 130.411 188.002 132.013C185.514 134.001 174.382 139.699 160.277 146.909C135.831 159.417 102.36 176.538 95.4695 184.005C90.3801 189.513 90.0466 198.577 94.6689 205.578C100.054 213.73 110.108 216.174 121.555 212.122C133.716 207.823 144.752 198.654 154.483 190.568L155.807 189.475C164.213 182.502 173.124 174.503 183.065 165.02C186.591 161.662 202.86 147.442 203.022 147.299C203.1 147.226 203.201 147.182 203.308 147.175C203.994 147.175 205.109 147.175 206.653 147.289C216.965 147.879 244.327 149.42 256.917 126.611C258.356 124.014 258.004 123.529 257.994 123.51C257.985 123.491 257.746 123.395 257.174 123.576C257.063 123.644 256.929 123.666 256.803 123.635C256.676 123.605 256.566 123.526 256.498 123.415C256.43 123.304 256.408 123.17 256.439 123.043C256.469 122.917 256.549 122.807 256.66 122.739C257.746 121.836 258.452 120.361 257.613 119.115C257.505 118.955 257.364 118.82 257.2 118.718C257.036 118.616 256.852 118.551 256.66 118.525C255.297 118.269 253.181 119.477 252.476 119.943C252.402 119.989 252.316 120.014 252.228 120.014C252.14 120.014 252.055 119.989 251.98 119.943C250.156 119.057 248.111 118.726 246.1 118.991C244.051 119.315 240.553 121.579 237.475 123.586C235.693 124.746 234.006 125.84 232.633 126.544C228.993 128.446 218.757 126.782 217.013 126.477L216.288 127.153C216.261 127.228 216.215 127.295 216.155 127.348C216.095 127.401 216.022 127.438 215.944 127.455C215.866 127.473 215.784 127.47 215.707 127.448C215.63 127.426 215.56 127.384 215.503 127.328C215.446 127.271 215.405 127.201 215.383 127.124C215.36 127.047 215.358 126.966 215.375 126.888C215.393 126.81 215.429 126.737 215.483 126.677C215.536 126.617 215.603 126.571 215.678 126.544L216.574 125.707C218.151 124.541 219.896 123.621 221.749 122.977C223.416 122.389 224.999 121.587 226.457 120.589C227.74 119.402 228.523 117.774 228.649 116.033C228.761 115.279 228.573 114.511 228.125 113.893C227.895 113.732 227.615 113.655 227.334 113.674Z" fill="black"/>
<path d="M252.266 119.581C252.266 119.581 246.748 126.62 235.607 131.661L252.266 119.581Z" fill="white"/>
<path d="M235.607 132.137C235.515 132.136 235.426 132.109 235.349 132.061C235.271 132.012 235.209 131.943 235.168 131.861C235.117 131.746 235.113 131.616 235.158 131.498C235.202 131.38 235.292 131.285 235.407 131.233C246.3 126.297 251.828 119.353 251.885 119.286C251.962 119.187 252.076 119.122 252.201 119.106C252.326 119.09 252.452 119.124 252.552 119.201C252.652 119.279 252.718 119.394 252.734 119.521C252.75 119.647 252.715 119.775 252.638 119.876C252.581 119.943 246.92 127.067 235.797 132.099C235.738 132.126 235.672 132.139 235.607 132.137Z" fill="black"/>
<path d="M257.003 123.129C257.003 123.129 247.186 135.732 240.153 136.836L257.003 123.129Z" fill="white"/>
<path d="M240.153 137.311C240.09 137.316 240.027 137.309 239.968 137.289C239.908 137.27 239.853 137.239 239.805 137.199C239.757 137.158 239.718 137.108 239.689 137.053C239.661 136.997 239.643 136.936 239.638 136.874C239.633 136.811 239.641 136.748 239.66 136.689C239.679 136.629 239.71 136.574 239.751 136.526C239.792 136.478 239.841 136.439 239.897 136.411C239.953 136.382 240.014 136.365 240.077 136.36C246.843 135.295 256.526 122.958 256.622 122.824C256.703 122.728 256.819 122.666 256.945 122.652C257.071 122.638 257.197 122.672 257.298 122.748C257.397 122.827 257.46 122.941 257.474 123.066C257.488 123.19 257.453 123.316 257.375 123.414C256.974 123.937 247.358 136.179 240.22 137.302L240.153 137.311Z" fill="black"/>
<path d="M176.393 172.42C176.294 172.42 176.197 172.389 176.116 172.331C176.036 172.273 175.976 172.191 175.946 172.096C175.879 171.925 169.693 154.794 156.503 148.64C156.446 148.613 156.395 148.576 156.352 148.529C156.309 148.483 156.277 148.428 156.255 148.369C156.234 148.31 156.225 148.247 156.228 148.184C156.231 148.121 156.247 148.059 156.274 148.002C156.328 147.89 156.424 147.802 156.542 147.76C156.66 147.717 156.79 147.722 156.903 147.774C170.465 154.1 176.784 171.611 176.841 171.782C176.884 171.901 176.878 172.032 176.825 172.146C176.771 172.26 176.674 172.348 176.555 172.391L176.393 172.42Z" fill="black"/>
<path d="M122.851 50.696C122.532 50.6951 122.214 50.676 121.898 50.6389L114.654 49.8019C113.559 49.6767 112.499 49.3371 111.535 48.8026C110.571 48.2681 109.722 47.5491 109.037 46.6868C108.352 45.8245 107.844 44.8358 107.542 43.7774C107.24 42.7189 107.15 41.6114 107.278 40.5182L107.764 36.295C107.858 35.4862 108.269 34.7476 108.908 34.2404C109.55 33.7374 110.364 33.5053 111.176 33.5936L128.95 35.6482C129.756 35.7461 130.491 36.1557 130.997 36.789C131.503 37.4223 131.74 38.2286 131.657 39.0344L131.171 43.2672C130.935 45.3053 129.957 47.186 128.423 48.552C126.89 49.918 124.906 50.6742 122.851 50.6769V50.696ZM110.766 34.5923C110.263 34.5977 109.78 34.7847 109.405 35.1188C109.03 35.4528 108.789 35.9113 108.726 36.4091L108.24 40.6419C108.129 41.602 108.208 42.5746 108.474 43.504C108.739 44.4335 109.186 45.3016 109.787 46.0587C110.389 46.8159 111.135 47.4471 111.982 47.9164C112.828 48.3857 113.759 48.6837 114.721 48.7936L121.983 49.6306C122.945 49.7419 123.92 49.6628 124.851 49.3979C125.783 49.133 126.652 48.6874 127.411 48.0867C128.17 47.4859 128.802 46.7418 129.272 45.8969C129.742 45.0519 130.041 44.1228 130.151 43.1625L130.647 38.9393C130.706 38.3987 130.549 37.8567 130.21 37.431C129.871 37.0053 129.377 36.7304 128.836 36.6659L111.014 34.6114L110.766 34.5923Z" fill="black"/>
<path d="M146.506 53.5114C146.187 53.5107 145.869 53.4917 145.553 53.4543L138.281 52.6173C137.186 52.4909 136.127 52.1505 135.164 51.6155C134.201 51.0805 133.354 50.3613 132.67 49.4992C131.985 48.637 131.478 47.6487 131.177 46.5908C130.876 45.5329 130.786 44.4261 130.914 43.3337L131.4 39.1104C131.446 38.7094 131.571 38.3213 131.767 37.9685C131.964 37.6157 132.228 37.3049 132.545 37.0541C132.862 36.8032 133.225 36.6171 133.614 36.5064C134.003 36.3957 134.41 36.3626 134.812 36.409L152.634 38.4636C153.441 38.5601 154.177 38.9702 154.683 39.605C154.936 39.9205 155.124 40.2832 155.235 40.6719C155.346 41.0605 155.379 41.4675 155.331 41.8688L154.835 46.0921C154.599 48.1328 153.621 50.0159 152.085 51.3836C150.549 52.7514 148.564 53.5086 146.506 53.5114ZM145.657 52.4461C147.6 52.6682 149.551 52.1118 151.082 50.899C152.614 49.6862 153.6 47.9162 153.825 45.978L154.311 41.7547C154.343 41.4873 154.322 41.2162 154.248 40.9571C154.175 40.6979 154.051 40.4558 153.884 40.2446C153.716 40.0334 153.509 39.8572 153.273 39.7262C153.037 39.5953 152.778 39.512 152.51 39.4814L134.669 37.4268C134.402 37.3935 134.131 37.4142 133.872 37.4877C133.613 37.5613 133.372 37.6861 133.163 37.8548C132.95 38.0207 132.772 38.2272 132.639 38.4623C132.507 38.6975 132.422 38.9566 132.391 39.2245L131.905 43.4573C131.793 44.4174 131.873 45.39 132.138 46.3195C132.403 47.2489 132.85 48.1171 133.452 48.8742C134.054 49.6313 134.799 50.2625 135.646 50.7318C136.493 51.2011 137.423 51.4992 138.386 51.609L145.657 52.4461Z" fill="black"/>
<path d="M224.408 84.3678C217.299 83.2264 217.423 82.1801 216.727 78.1375C215.459 70.8514 211.819 64.8209 208.006 58.6381C193.872 35.7145 204.899 5.13375 235.359 4.56304C256.012 4.17305 271.08 17.4707 271.365 37.5218C271.536 47.2118 267.856 56.5753 261.13 63.5653C256.536 68.5115 252.552 73.6384 250.446 80.1255C249.064 84.3107 248.978 86.898 241.42 85.69C238.685 85.2429 235.893 85.2334 233.119 85.0241C230.346 84.8149 227.287 84.8339 224.408 84.3678Z" fill="white"/>
<path d="M244.594 86.3274C243.511 86.3125 242.431 86.2139 241.363 86.0325C239.502 85.7687 237.628 85.6035 235.75 85.5379C234.863 85.5379 233.977 85.4428 233.1 85.3762C232.223 85.3096 231.127 85.2525 230.136 85.205C228.2 85.1512 226.269 84.9893 224.351 84.7199C217.556 83.626 217.137 82.6463 216.46 78.6798L216.374 78.1947C215.097 70.823 211.342 64.7164 207.701 58.819C200.277 46.7674 199.515 32.1857 205.729 20.8856C211.447 10.4225 221.997 4.45854 235.35 4.21123C245.9 4.00197 255.364 7.41674 261.968 13.7992C268.211 19.8298 271.585 28.0671 271.718 37.5124C271.859 47.2699 268.164 56.6941 261.425 63.7652C257.451 68.0455 253.076 73.3532 250.818 80.2017L250.494 81.21C249.531 84.2062 248.854 86.3274 244.594 86.3274ZM236.226 4.90559H235.369C222.283 5.1529 211.971 10.9456 206.348 21.209C200.258 32.3759 201.001 46.6438 208.302 58.4575C211.971 64.4025 215.764 70.5662 217.07 78.0711L217.156 78.5657C217.756 82.1231 217.899 82.9697 224.466 84.0255C226.362 84.2886 228.271 84.4473 230.184 84.5011C231.137 84.5011 232.166 84.5962 233.157 84.6723C234.149 84.7484 234.911 84.7865 235.797 84.834C237.711 84.8979 239.62 85.0662 241.516 85.3382C248.13 86.4035 248.702 84.6152 249.817 81.0388C249.922 80.7154 250.027 80.3729 250.15 80.021C252.447 73.0393 256.879 67.6555 260.91 63.3276C264.219 59.9037 266.818 55.8618 268.558 51.4335C270.298 47.0052 271.145 42.2776 271.051 37.5219C270.918 28.2288 267.62 20.2007 261.52 14.3033C255.183 8.22525 246.243 4.90559 236.226 4.90559Z" fill="black"/>
<path d="M219.668 92.4699L245.399 94.4595C246.47 94.5423 247.405 93.7432 247.488 92.6747L247.839 88.1511C247.922 87.0827 247.121 86.1494 246.051 86.0666L220.319 84.077C219.249 83.9943 218.313 84.7933 218.23 85.8618L217.879 90.3854C217.796 91.4539 218.597 92.3871 219.668 92.4699Z" fill="white"/>
<path d="M245.547 94.8121H245.366L219.634 92.8241C219.333 92.8013 219.04 92.7193 218.771 92.583C218.502 92.4466 218.263 92.2586 218.067 92.0296C217.871 91.8006 217.723 91.5353 217.63 91.2488C217.538 90.9624 217.503 90.6605 217.527 90.3605L217.88 85.8424C217.898 85.5409 217.978 85.2463 218.114 84.9764C218.25 84.7066 218.439 84.4672 218.671 84.2729C218.901 84.0758 219.167 83.9263 219.455 83.8333C219.743 83.7402 220.047 83.7053 220.348 83.7307L246.081 85.7187C246.688 85.7673 247.251 86.0536 247.648 86.5152C248.044 86.9767 248.241 87.576 248.197 88.1823L247.844 92.7099C247.794 93.2835 247.53 93.8176 247.105 94.2067C246.68 94.5959 246.124 94.8119 245.547 94.8121ZM220.167 84.4156C219.766 84.4144 219.379 84.5646 219.084 84.8363C218.788 85.1079 218.607 85.4809 218.576 85.8804L218.223 90.4081C218.194 90.8275 218.332 91.2414 218.607 91.5601C218.881 91.8788 219.271 92.0767 219.691 92.1107L245.423 94.1082C245.844 94.1396 246.26 94.003 246.58 93.7283C246.9 93.4536 247.098 93.0634 247.129 92.6434L247.482 88.1157C247.513 87.6957 247.377 87.2804 247.101 86.9611C246.826 86.6418 246.435 86.4447 246.014 86.4131L220.282 84.4251L220.167 84.4156Z" fill="black"/>
<path d="M218.506 99.6816L244.315 101.742C245.388 101.828 246.329 101.029 246.414 99.957L246.778 95.4199C246.864 94.3482 246.063 93.4099 244.989 93.3242L219.181 91.2636C218.107 91.1778 217.167 91.9771 217.081 93.0487L216.717 97.5859C216.631 98.6576 217.432 99.5958 218.506 99.6816Z" fill="white"/>
<path d="M244.89 103.211H244.708L218.976 101.223C218.37 101.172 217.808 100.885 217.412 100.424C217.016 99.9627 216.818 99.3648 216.86 98.7591L217.213 94.2315C217.264 93.6265 217.552 93.0658 218.013 92.6707C218.475 92.2756 219.074 92.0777 219.681 92.1198L245.414 94.1173C245.714 94.1401 246.008 94.2221 246.277 94.3584C246.545 94.4948 246.785 94.6829 246.98 94.9118C247.176 95.1408 247.325 95.4061 247.417 95.6926C247.51 95.979 247.545 96.2809 247.52 96.5809L247.167 101.099C247.146 101.4 247.065 101.693 246.929 101.963C246.793 102.232 246.606 102.472 246.376 102.669C245.96 103.018 245.434 103.21 244.89 103.211ZM219.491 92.8142C219.091 92.8154 218.706 92.9667 218.413 93.2381C218.12 93.5096 217.94 93.8812 217.909 94.279L217.556 98.7972C217.525 99.219 217.662 99.6359 217.937 99.9576C218.073 100.116 218.239 100.247 218.425 100.341C218.612 100.436 218.815 100.493 219.024 100.509L244.756 102.497C245.178 102.529 245.595 102.392 245.917 102.118C246.238 101.844 246.438 101.453 246.472 101.032L246.824 96.5143C246.856 96.0933 246.719 95.6769 246.444 95.3561C246.169 95.0353 245.778 94.8362 245.357 94.8022L219.624 92.8142H219.491Z" fill="black"/>
<path d="M220.444 100.966C220.196 104.134 225.142 107.092 231.48 107.625C237.818 108.157 243.107 105.903 243.317 102.764L220.444 100.966Z" fill="black"/>
<path d="M233.215 108.005C232.624 108.005 232.014 108.005 231.404 107.939C228.564 107.778 225.796 106.985 223.303 105.618C221.092 104.296 219.958 102.65 220.082 100.976C220.093 100.884 220.139 100.8 220.21 100.741C220.28 100.681 220.37 100.649 220.463 100.653L243.422 102.431C243.468 102.434 243.513 102.445 243.554 102.465C243.596 102.485 243.632 102.514 243.663 102.548C243.693 102.583 243.716 102.623 243.73 102.667C243.744 102.71 243.75 102.756 243.746 102.802C243.613 104.476 242.231 105.932 239.848 106.892C237.728 107.681 235.477 108.059 233.215 108.005ZM220.749 101.347C220.815 102.622 221.826 103.896 223.608 104.98C226.037 106.256 228.702 107.023 231.439 107.234C234.176 107.445 236.927 107.096 239.524 106.207C241.43 105.418 242.669 104.305 242.936 103.059L220.749 101.347Z" fill="black"/>
<path d="M221.12 29.2468C223.484 29.2468 225.4 27.3346 225.4 24.9759C225.4 22.6172 223.484 20.7051 221.12 20.7051C218.757 20.7051 216.841 22.6172 216.841 24.9759C216.841 27.3346 218.757 29.2468 221.12 29.2468Z" fill="#D1D3D4"/>
<path d="M237.236 36.0285C239.6 36.0285 241.516 34.1164 241.516 31.7577C241.516 29.3989 239.6 27.4868 237.236 27.4868C234.873 27.4868 232.957 29.3989 232.957 31.7577C232.957 34.1164 234.873 36.0285 237.236 36.0285Z" fill="#D1D3D4"/>
<path d="M227.001 46.5104C229.364 46.5104 231.28 44.5983 231.28 42.2396C231.28 39.8809 229.364 37.9688 227.001 37.9688C224.637 37.9688 222.722 39.8809 222.722 42.2396C222.722 44.5983 224.637 46.5104 227.001 46.5104Z" fill="#D1D3D4"/>
<path d="M238.637 57.4303C241.001 57.4303 242.917 55.5182 242.917 53.1595C242.917 50.8008 241.001 48.8887 238.637 48.8887C236.274 48.8887 234.358 50.8008 234.358 53.1595C234.358 55.5182 236.274 57.4303 238.637 57.4303Z" fill="#D1D3D4"/>
<path d="M246.386 69.1774C248.749 69.1774 250.665 67.2653 250.665 64.9066C250.665 62.5479 248.749 60.6357 246.386 60.6357C244.023 60.6357 242.107 62.5479 242.107 64.9066C242.107 67.2653 244.023 69.1774 246.386 69.1774Z" fill="#D1D3D4"/>
<path d="M246.5 47.0817C248.864 47.0817 250.779 45.1696 250.779 42.8109C250.779 40.4522 248.864 38.54 246.5 38.54C244.137 38.54 242.221 40.4522 242.221 42.8109C242.221 45.1696 244.137 47.0817 246.5 47.0817Z" fill="#D1D3D4"/>
<path d="M259.195 50.7814C261.558 50.7814 263.474 48.8693 263.474 46.5106C263.474 44.1519 261.558 42.2397 259.195 42.2397C256.832 42.2397 254.916 44.1519 254.916 46.5106C254.916 48.8693 256.832 50.7814 259.195 50.7814Z" fill="#D1D3D4"/>
<path d="M232.767 69.2726C235.13 69.2726 237.046 67.3605 237.046 65.0018C237.046 62.6431 235.13 60.731 232.767 60.731C230.403 60.731 228.488 62.6431 228.488 65.0018C228.488 67.3605 230.403 69.2726 232.767 69.2726Z" fill="#D1D3D4"/>
<path d="M221.12 61.4919C223.484 61.4919 225.4 59.5798 225.4 57.221C225.4 54.8623 223.484 52.9502 221.12 52.9502C218.757 52.9502 216.841 54.8623 216.841 57.221C216.841 59.5798 218.757 61.4919 221.12 61.4919Z" fill="#D1D3D4"/>
<path d="M248.502 30.6354C250.865 30.6354 252.781 28.7233 252.781 26.3646C252.781 24.0059 250.865 22.0938 248.502 22.0938C246.138 22.0938 244.223 24.0059 244.223 26.3646C244.223 28.7233 246.138 30.6354 248.502 30.6354Z" fill="#D1D3D4"/>
<path d="M237.237 32.5375C237.138 32.537 237.041 32.5176 236.951 32.4804L220.034 25.7175C219.939 25.68 219.853 25.6243 219.78 25.5536C219.707 25.4829 219.649 25.3985 219.609 25.3054C219.569 25.2122 219.547 25.112 219.546 25.0105C219.544 24.909 219.563 24.8083 219.6 24.714C219.638 24.6197 219.694 24.5337 219.764 24.4609C219.835 24.3881 219.92 24.3299 220.013 24.2897C220.107 24.2496 220.207 24.2281 220.309 24.2266C220.41 24.2252 220.511 24.2437 220.606 24.2812L237.237 30.9395L250.179 25.9077C250.274 25.871 250.376 25.8535 250.477 25.8562C250.579 25.8588 250.68 25.8816 250.773 25.9231C250.866 25.9647 250.95 26.0242 251.019 26.0983C251.089 26.1724 251.144 26.2596 251.18 26.3548C251.243 26.5392 251.232 26.7406 251.151 26.9176C251.069 27.0945 250.923 27.2335 250.741 27.306L237.522 32.4424C237.434 32.4928 237.337 32.5251 237.237 32.5375Z" fill="#D1D3D4"/>
<path d="M232.767 65.7726C232.63 65.7704 232.496 65.7345 232.376 65.6679C232.288 65.6168 232.211 65.549 232.15 65.4682C232.089 65.3874 232.044 65.2954 232.018 65.1973C231.993 65.0992 231.986 64.997 232 64.8966C232.014 64.7962 232.048 64.6995 232.1 64.6121L238.647 53.3025L226.496 42.8394C226.415 42.7703 226.349 42.686 226.302 42.5912C226.254 42.4965 226.226 42.3934 226.219 42.2877C226.215 42.1813 226.232 42.0751 226.27 41.9755C226.308 41.8759 226.365 41.7847 226.438 41.7075L236.684 31.2444C236.83 31.1009 237.027 31.0205 237.232 31.0205C237.437 31.0205 237.634 31.1009 237.78 31.2444C237.852 31.316 237.91 31.4012 237.949 31.4951C237.988 31.589 238.008 31.6897 238.008 31.7913C238.008 31.893 237.988 31.9937 237.949 32.0876C237.91 32.1814 237.852 32.2666 237.78 32.3383L228.116 42.2306L240.134 52.551C240.265 52.6675 240.353 52.8252 240.382 52.9982C240.412 53.1711 240.381 53.349 240.296 53.5022L233.434 65.4016C233.362 65.514 233.264 65.6068 233.147 65.6716C233.031 65.7364 232.9 65.7711 232.767 65.7726Z" fill="#D1D3D4"/>
<path d="M220.32 57.9915C220.134 57.9832 219.957 57.9089 219.821 57.7819C219.685 57.6549 219.599 57.4837 219.578 57.299C219.558 57.1143 219.604 56.9283 219.708 56.7745C219.813 56.6207 219.969 56.5092 220.148 56.4601L238.19 52.4651L245.881 42.3445C245.976 42.2171 246.11 42.1229 246.262 42.0751C246.414 42.0273 246.577 42.0284 246.729 42.0781L258.566 45.7688C258.758 45.8302 258.919 45.9636 259.015 46.1409C259.111 46.3182 259.135 46.5257 259.081 46.7199C259.019 46.9115 258.885 47.0715 258.707 47.1657C258.529 47.2599 258.321 47.2808 258.128 47.2241L246.767 43.6952L239.228 53.6066C239.121 53.7556 238.961 53.8578 238.781 53.8919L220.472 57.9535L220.32 57.9915Z" fill="#D1D3D4"/>
<path d="M233.786 66.5044C233.583 66.5044 233.388 66.4245 233.244 66.2821C233.099 66.1396 233.017 65.9461 233.015 65.7434C233.012 65.6427 233.03 65.5425 233.066 65.4486C233.103 65.3547 233.158 65.2689 233.228 65.1964C233.298 65.1238 233.381 65.0659 233.474 65.0259C233.567 64.9859 233.666 64.9647 233.767 64.9634L246.434 64.7066C246.536 64.7 246.639 64.7147 246.735 64.7496C246.831 64.7845 246.92 64.839 246.994 64.9096C247.068 64.9802 247.127 65.0653 247.167 65.1597C247.206 65.2541 247.226 65.3557 247.225 65.458C247.227 65.6633 247.149 65.8613 247.006 66.0091C246.863 66.1569 246.668 66.2425 246.462 66.2475L233.806 66.5044H233.786Z" fill="#D1D3D4"/>
<path d="M193.32 18.9357H193.205L175.221 14.1798C175.161 14.1644 175.104 14.137 175.054 14.0993C175.004 14.0615 174.963 14.0142 174.931 13.9601C174.9 13.906 174.88 13.8462 174.873 13.7843C174.865 13.7223 174.87 13.6595 174.888 13.5996C174.902 13.5384 174.929 13.4808 174.966 13.4304C175.004 13.38 175.051 13.3379 175.106 13.3067C175.16 13.2754 175.221 13.2557 175.283 13.2488C175.346 13.242 175.409 13.248 175.469 13.2666L193.444 18.0226C193.57 18.039 193.685 18.1048 193.762 18.2056C193.84 18.3064 193.875 18.4339 193.858 18.56C193.842 18.6861 193.776 18.8006 193.675 18.8782C193.574 18.9558 193.446 18.9902 193.32 18.9738V18.9357Z" fill="#D1D3D4"/>
<path d="M187.277 87.545C187.2 87.5444 187.124 87.525 187.056 87.4885C186.988 87.4521 186.93 87.3996 186.887 87.3358C186.851 87.2848 186.826 87.2272 186.812 87.1664C186.799 87.1056 186.798 87.0427 186.81 86.9815C186.821 86.9203 186.845 86.8621 186.88 86.8102C186.914 86.7583 186.959 86.7139 187.011 86.6794L199.886 77.8619C199.937 77.8224 199.996 77.7936 200.059 77.7774C200.121 77.7612 200.187 77.7579 200.25 77.7677C200.314 77.7775 200.376 77.8001 200.43 77.8343C200.485 77.8684 200.533 77.9134 200.57 77.9663C200.606 78.0193 200.632 78.0793 200.645 78.1425C200.658 78.2057 200.658 78.2709 200.645 78.3341C200.632 78.3973 200.606 78.4572 200.569 78.5101C200.532 78.563 200.485 78.6079 200.43 78.6419L187.544 87.4594C187.467 87.5157 187.373 87.5457 187.277 87.545Z" fill="#D1D3D4"/>
<path d="M177.89 51.1337C177.827 51.1381 177.764 51.1301 177.705 51.1103C177.645 51.0904 177.59 51.059 177.543 51.018C177.447 50.935 177.389 50.8175 177.38 50.6914C177.371 50.5653 177.413 50.4408 177.496 50.3454C177.579 50.2499 177.697 50.1914 177.823 50.1825C179.672 49.9542 188.945 48.8033 189.765 48.9365C189.827 48.9458 189.886 48.9672 189.94 48.9995C189.994 49.0318 190.041 49.0743 190.078 49.1247C190.115 49.175 190.142 49.2322 190.157 49.293C190.172 49.3537 190.175 49.4168 190.165 49.4786C190.156 49.5402 190.134 49.5993 190.102 49.6525C190.069 49.7056 190.027 49.7517 189.976 49.788C189.925 49.8244 189.868 49.8503 189.807 49.8641C189.746 49.8779 189.683 49.8795 189.622 49.8686C188.983 49.802 182.131 50.601 177.947 51.1242L177.89 51.1337Z" fill="#D1D3D4"/>
<path d="M277.884 19.849C277.775 19.8517 277.669 19.8171 277.583 19.751C277.496 19.6848 277.435 19.5911 277.409 19.4855C277.384 19.3798 277.395 19.2686 277.442 19.1704C277.488 19.0721 277.567 18.9927 277.665 18.9454L290.541 12.3441C290.655 12.2873 290.787 12.2774 290.908 12.3165C291.029 12.3557 291.13 12.4407 291.189 12.5534C291.246 12.6657 291.255 12.7958 291.216 12.9152C291.177 13.0346 291.092 13.1337 290.979 13.1907L278.094 19.792C278.03 19.8282 277.958 19.8479 277.884 19.849Z" fill="#D1D3D4"/>
<path d="M295.526 62.0246H295.44L277.789 58.724C277.666 58.7009 277.556 58.6299 277.485 58.5266C277.413 58.4232 277.386 58.2959 277.408 58.1723C277.433 58.0482 277.506 57.9389 277.611 57.8678C277.717 57.7967 277.845 57.7694 277.97 57.7918L295.611 61.083C295.735 61.1061 295.844 61.1771 295.916 61.2804C295.987 61.3838 296.015 61.5111 295.993 61.6346C295.971 61.743 295.913 61.8408 295.828 61.9117C295.743 61.9826 295.636 62.0224 295.526 62.0246Z" fill="#D1D3D4"/>
<path d="M273.119 95.3636C273.039 95.3628 272.961 95.3433 272.89 95.3065L260.501 88.6482C260.389 88.5876 260.307 88.4855 260.271 88.3642C260.235 88.2429 260.249 88.1124 260.31 88.0014C260.371 87.8904 260.473 87.808 260.595 87.7723C260.716 87.7366 260.847 87.7506 260.958 87.8111L273.348 94.4695C273.404 94.4985 273.453 94.5384 273.494 94.5867C273.534 94.6351 273.565 94.691 273.583 94.7511C273.602 94.8113 273.608 94.8746 273.602 94.9372C273.596 94.9999 273.578 95.0608 273.548 95.1163C273.505 95.1921 273.443 95.255 273.367 95.2985C273.292 95.3421 273.206 95.3645 273.119 95.3636Z" fill="#D1D3D4"/>
<path d="M264.923 29.722C264.819 29.7235 264.718 29.6908 264.635 29.6288C264.553 29.5668 264.493 29.4791 264.465 29.3795C259.767 13.8181 239.734 8.99554 239.505 8.94798C239.442 8.93362 239.383 8.90709 239.331 8.86992C239.279 8.83274 239.234 8.78565 239.2 8.73133C239.166 8.67701 239.143 8.61653 239.132 8.55333C239.122 8.49013 239.124 8.42546 239.138 8.363C239.152 8.30055 239.179 8.24153 239.216 8.18932C239.253 8.13712 239.301 8.09275 239.355 8.05874C239.409 8.02474 239.47 8.00176 239.533 7.99113C239.597 7.98051 239.662 7.98243 239.724 7.99679C239.934 7.99679 260.501 12.9905 265.352 29.0847C265.388 29.2057 265.375 29.3361 265.316 29.448C265.258 29.5599 265.158 29.6446 265.037 29.6839L264.923 29.722Z" fill="#D1D3D4"/>
<path d="M265.847 36.5424C265.74 36.5408 265.637 36.5033 265.554 36.436C265.471 36.3687 265.413 36.2755 265.39 36.1715L264.599 32.8328C264.57 32.7105 264.591 32.5818 264.657 32.4749C264.723 32.3679 264.829 32.2914 264.951 32.2621C265.012 32.2466 265.075 32.2435 265.137 32.2529C265.199 32.2623 265.259 32.2841 265.312 32.3169C265.365 32.3498 265.412 32.393 265.448 32.444C265.484 32.4951 265.51 32.5529 265.523 32.614L266.314 35.9622C266.34 36.0843 266.318 36.2118 266.253 36.3181C266.187 36.4245 266.083 36.5014 265.962 36.5329L265.847 36.5424Z" fill="#D1D3D4"/>
</svg>
