<svg width="296" height="212" viewBox="0 0 296 212" fill="none" xmlns="http://www.w3.org/2000/svg">
<path d="M295.48 203.785H0.519897L29.3981 167.61H266.602L295.48 203.785Z" fill="white"/>
<path d="M295.48 204.304H0.519877C0.422742 204.304 0.327507 204.277 0.245034 204.225C0.162561 204.174 0.0961685 204.101 0.0534293 204.013C0.00962596 203.926 -0.00781303 203.827 0.00322385 203.73C0.0142607 203.632 0.0533024 203.54 0.115624 203.464L28.9939 167.288C29.0426 167.228 29.1041 167.179 29.174 167.145C29.2439 167.111 29.3204 167.093 29.3981 167.092H266.602C266.68 167.093 266.756 167.111 266.826 167.145C266.896 167.179 266.957 167.228 267.006 167.288L295.884 203.464C295.947 203.54 295.986 203.632 295.997 203.73C296.008 203.827 295.99 203.926 295.947 204.013C295.904 204.101 295.837 204.174 295.755 204.225C295.673 204.277 295.577 204.304 295.48 204.304ZM1.59788 203.267H294.402L266.343 168.138H29.6573L1.59788 203.267Z" fill="black"/>
<path d="M175.51 175.394H120.49L126.958 145.562H169.042L175.51 175.394Z" fill="white"/>
<path d="M175.51 175.913H120.48C120.403 175.913 120.328 175.895 120.259 175.861C120.191 175.827 120.131 175.777 120.086 175.716C120.033 175.658 119.996 175.587 119.978 175.511C119.96 175.435 119.961 175.356 119.982 175.28L126.46 145.448C126.484 145.334 126.547 145.232 126.637 145.158C126.728 145.084 126.841 145.044 126.958 145.044H169.042C169.159 145.044 169.272 145.084 169.362 145.158C169.453 145.232 169.516 145.334 169.539 145.448L175.987 175.28C176.007 175.356 176.009 175.435 175.991 175.511C175.972 175.587 175.935 175.658 175.883 175.716C175.839 175.774 175.783 175.822 175.718 175.856C175.654 175.89 175.583 175.909 175.51 175.913ZM121.122 174.876H174.867L168.648 146.081H127.383L121.122 174.876Z" fill="black"/>
<path d="M184.144 173.715H111.845C110.431 173.715 109.285 174.861 109.285 176.275V177.986C109.285 179.4 110.431 180.546 111.845 180.546H184.144C185.558 180.546 186.705 179.4 186.705 177.986V176.275C186.705 174.861 185.558 173.715 184.144 173.715Z" fill="white"/>
<path d="M184.155 181.054H111.845C111.02 181.054 110.229 180.726 109.646 180.143C109.063 179.56 108.736 178.769 108.736 177.944V176.234C108.736 175.409 109.063 174.618 109.646 174.035C110.229 173.452 111.02 173.125 111.845 173.125H184.155C184.98 173.125 185.77 173.452 186.354 174.035C186.937 174.618 187.264 175.409 187.264 176.234V177.944C187.264 178.769 186.937 179.56 186.354 180.143C185.77 180.726 184.98 181.054 184.155 181.054ZM111.845 174.234C111.295 174.234 110.768 174.452 110.379 174.841C109.99 175.23 109.772 175.757 109.772 176.307V178.017C109.772 178.567 109.99 179.094 110.379 179.483C110.768 179.872 111.295 180.09 111.845 180.09H184.155C184.705 180.09 185.232 179.872 185.621 179.483C186.009 179.094 186.228 178.567 186.228 178.017V176.307C186.228 175.757 186.009 175.23 185.621 174.841C185.232 174.452 184.705 174.234 184.155 174.234H111.845Z" fill="black"/>
<path d="M122.978 163.909L170.763 153.492L169.042 147.21H126.958L122.978 163.909Z" fill="black"/>
<path d="M122.978 164.428C122.839 164.423 122.706 164.368 122.605 164.272C122.543 164.209 122.499 164.131 122.475 164.046C122.452 163.961 122.45 163.871 122.47 163.785L126.45 147.097C126.478 146.983 126.544 146.883 126.636 146.811C126.728 146.74 126.841 146.702 126.958 146.703H169.042C169.154 146.703 169.263 146.739 169.353 146.806C169.443 146.874 169.508 146.968 169.539 147.076L171.26 153.357C171.281 153.425 171.287 153.497 171.276 153.567C171.265 153.637 171.238 153.703 171.198 153.762C171.161 153.821 171.113 153.873 171.056 153.914C170.999 153.955 170.935 153.984 170.866 154L123.092 164.365L122.978 164.428ZM127.373 147.739L123.672 163.225L170.12 153.098L168.648 147.739H127.373Z" fill="black"/>
<path d="M252.173 4.89246H43.8165C39.9752 4.89246 36.8613 8.00643 36.8613 11.8477V140.266C36.8613 144.107 39.9752 147.221 43.8165 147.221H252.173C256.014 147.221 259.128 144.107 259.128 140.266V11.8477C259.128 8.00643 256.014 4.89246 252.173 4.89246Z" fill="white"/>
<path d="M252.173 147.739H43.8268C41.8428 147.736 39.9409 146.947 38.538 145.544C37.1351 144.141 36.3457 142.239 36.343 140.255V11.8475C36.343 9.86268 37.1314 7.95912 38.5349 6.55562C39.9384 5.15213 41.842 4.36365 43.8268 4.36365H252.173C254.156 4.36365 256.058 5.1507 257.461 6.55196C258.865 7.95322 259.654 9.85411 259.657 11.8372V140.255C259.654 142.239 258.865 144.141 257.462 145.544C256.059 146.947 254.157 147.736 252.173 147.739ZM43.8268 5.4002C42.1187 5.40019 40.4804 6.07804 39.2715 7.28491C38.0627 8.49178 37.3823 10.129 37.3795 11.8372V140.255C37.3822 141.964 38.0624 143.603 39.2709 144.811C40.4794 146.02 42.1177 146.7 43.8268 146.702H252.173C253.882 146.7 255.52 146.02 256.729 144.811C257.938 143.603 258.618 141.964 258.62 140.255V11.8475C258.62 10.1376 257.941 8.49769 256.732 7.28858C255.523 6.07947 253.883 5.4002 252.173 5.4002H43.8268Z" fill="black"/>
<path d="M259.139 125.226H36.8612C36.7238 125.226 36.592 125.171 36.4948 125.074C36.3976 124.977 36.343 124.845 36.343 124.707C36.343 124.57 36.3976 124.438 36.4948 124.341C36.592 124.244 36.7238 124.189 36.8612 124.189H259.139C259.276 124.189 259.408 124.244 259.505 124.341C259.602 124.438 259.657 124.57 259.657 124.707C259.657 124.845 259.602 124.977 259.505 125.074C259.408 125.171 259.276 125.226 259.139 125.226Z" fill="black"/>
<path d="M251.199 116.508H44.8012C44.6638 116.508 44.532 116.453 44.4348 116.356C44.3376 116.259 44.283 116.127 44.283 115.99V11.6195C44.283 11.482 44.3376 11.3502 44.4348 11.253C44.532 11.1558 44.6638 11.1012 44.8012 11.1012H251.199C251.336 11.1012 251.468 11.1558 251.565 11.253C251.662 11.3502 251.717 11.482 251.717 11.6195V115.99C251.717 116.127 251.662 116.259 251.565 116.356C251.468 116.453 251.336 116.508 251.199 116.508ZM45.3195 115.471H250.68V12.117H45.3195V115.471Z" fill="#D1D3D4"/>
<path d="M139.086 71.1381H53.9954C53.8579 71.1381 53.7261 71.0835 53.6289 70.9863C53.5317 70.8891 53.4771 70.7573 53.4771 70.6198C53.4771 70.4824 53.5317 70.3506 53.6289 70.2534C53.7261 70.1562 53.8579 70.1016 53.9954 70.1016H139.086C139.223 70.1016 139.355 70.1562 139.452 70.2534C139.549 70.3506 139.604 70.4824 139.604 70.6198C139.604 70.7573 139.549 70.8891 139.452 70.9863C139.355 71.0835 139.223 71.1381 139.086 71.1381Z" fill="white"/>
<path d="M139.086 78.0834H53.9954C53.8579 78.0834 53.7261 78.0288 53.6289 77.9316C53.5317 77.8344 53.4771 77.7026 53.4771 77.5651C53.4771 77.4277 53.5317 77.2959 53.6289 77.1987C53.7261 77.1015 53.8579 77.0469 53.9954 77.0469H139.086C139.223 77.0469 139.355 77.1015 139.452 77.1987C139.549 77.2959 139.604 77.4277 139.604 77.5651C139.604 77.7026 139.549 77.8344 139.452 77.9316C139.355 78.0288 139.223 78.0834 139.086 78.0834Z" fill="white"/>
<path d="M127.269 85.0387H53.9954C53.8579 85.0387 53.7261 84.9841 53.6289 84.8869C53.5317 84.7898 53.4771 84.6579 53.4771 84.5205C53.4771 84.383 53.5317 84.2512 53.6289 84.154C53.7261 84.0568 53.8579 84.0022 53.9954 84.0022H127.269C127.406 84.0022 127.538 84.0568 127.635 84.154C127.733 84.2512 127.787 84.383 127.787 84.5205C127.787 84.6579 127.733 84.7898 127.635 84.8869C127.538 84.9841 127.406 85.0387 127.269 85.0387Z" fill="white"/>
<path d="M78.2506 107.542H53.9954C53.8579 107.542 53.7261 107.487 53.6289 107.39C53.5317 107.293 53.4771 107.161 53.4771 107.023V90.1069C53.4771 89.9694 53.5317 89.8376 53.6289 89.7404C53.7261 89.6432 53.8579 89.5886 53.9954 89.5886H78.2506C78.3881 89.5886 78.5199 89.6432 78.6171 89.7404C78.7143 89.8376 78.7689 89.9694 78.7689 90.1069V106.982C78.7746 107.053 78.7655 107.125 78.742 107.193C78.7186 107.261 78.6813 107.323 78.6326 107.375C78.5839 107.428 78.5248 107.47 78.459 107.499C78.3933 107.527 78.3223 107.542 78.2506 107.542ZM54.5137 106.505H77.7324V90.6252H54.5137V106.505Z" fill="white"/>
<path d="M108.673 107.542H84.4077C84.2703 107.542 84.1385 107.487 84.0413 107.39C83.9441 107.293 83.8895 107.161 83.8895 107.023V90.1069C83.8895 89.9694 83.9441 89.8376 84.0413 89.7404C84.1385 89.6432 84.2703 89.5886 84.4077 89.5886H108.673C108.811 89.5886 108.943 89.6432 109.04 89.7404C109.137 89.8376 109.192 89.9694 109.192 90.1069V106.982C109.197 107.053 109.188 107.125 109.165 107.193C109.141 107.261 109.104 107.323 109.055 107.375C109.007 107.428 108.947 107.47 108.882 107.499C108.816 107.527 108.745 107.542 108.673 107.542ZM84.926 106.505H108.155V90.6252H84.926V106.505Z" fill="white"/>
<path d="M139.086 107.542H114.83C114.693 107.542 114.561 107.487 114.464 107.39C114.367 107.293 114.312 107.161 114.312 107.023V90.1069C114.312 89.9694 114.367 89.8376 114.464 89.7404C114.561 89.6432 114.693 89.5886 114.83 89.5886H139.086C139.223 89.5886 139.355 89.6432 139.452 89.7404C139.549 89.8376 139.604 89.9694 139.604 90.1069V106.982C139.61 107.053 139.601 107.125 139.577 107.193C139.554 107.261 139.516 107.323 139.468 107.375C139.419 107.428 139.36 107.47 139.294 107.499C139.228 107.527 139.157 107.542 139.086 107.542ZM115.349 106.505H138.567V90.6252H115.349V106.505Z" fill="white"/>
<path d="M230.623 32.2261H98.5877C97.8138 32.259 97.0412 32.135 96.3164 31.8615C95.5916 31.588 94.9297 31.1707 94.3704 30.6347C93.8112 30.0987 93.3661 29.4551 93.0621 28.7426C92.758 28.0301 92.6013 27.2635 92.6013 26.4888C92.6013 25.7142 92.758 24.9475 93.0621 24.235C93.3661 23.5225 93.8112 22.8789 94.3704 22.3429C94.9297 21.8069 95.5916 21.3896 96.3164 21.1161C97.0412 20.8426 97.8138 20.7186 98.5877 20.7515H230.623C231.397 20.7186 232.17 20.8426 232.895 21.1161C233.619 21.3896 234.281 21.8069 234.841 22.3429C235.4 22.8789 235.845 23.5225 236.149 24.235C236.453 24.9475 236.61 25.7142 236.61 26.4888C236.61 27.2635 236.453 28.0301 236.149 28.7426C235.845 29.4551 235.4 30.0987 234.841 30.6347C234.281 31.1707 233.619 31.588 232.895 31.8615C232.17 32.135 231.397 32.259 230.623 32.2261ZM98.5877 21.7881C97.9518 21.7582 97.3165 21.8577 96.7202 22.0804C96.1238 22.3032 95.5789 22.6446 95.1183 23.0841C94.6577 23.5235 94.2911 24.0518 94.0406 24.637C93.7901 25.2223 93.661 25.8522 93.661 26.4888C93.661 27.1254 93.7901 27.7554 94.0406 28.3406C94.2911 28.9258 94.6577 29.4541 95.1183 29.8936C95.5789 30.333 96.1238 30.6745 96.7202 30.8972C97.3165 31.12 97.9518 31.2194 98.5877 31.1896H230.623C231.259 31.2194 231.894 31.12 232.491 30.8972C233.087 30.6745 233.632 30.333 234.093 29.8936C234.553 29.4541 234.92 28.9258 235.17 28.3406C235.421 27.7554 235.55 27.1254 235.55 26.4888C235.55 25.8522 235.421 25.2223 235.17 24.637C234.92 24.0518 234.553 23.5235 234.093 23.0841C233.632 22.6446 233.087 22.3032 232.491 22.0804C231.894 21.8577 231.259 21.7582 230.623 21.7881H98.5877Z" fill="#D1D3D4"/>
<path d="M81.7335 21.2698H58.0794C55.8239 21.2698 53.9954 23.0982 53.9954 25.3538V27.6342C53.9954 29.8897 55.8239 31.7182 58.0794 31.7182H81.7335C83.989 31.7182 85.8175 29.8897 85.8175 27.6342V25.3538C85.8175 23.0982 83.989 21.2698 81.7335 21.2698Z" fill="#2FE784"/>
<path d="M220.558 32.2261C220.421 32.2261 220.289 32.1715 220.192 32.0743C220.095 31.9771 220.04 31.8452 220.04 31.7078V21.2697C220.04 21.1323 220.095 21.0005 220.192 20.9033C220.289 20.8061 220.421 20.7515 220.558 20.7515C220.696 20.7515 220.828 20.8061 220.925 20.9033C221.022 21.0005 221.077 21.1323 221.077 21.2697V31.7078C221.077 31.8452 221.022 31.9771 220.925 32.0743C220.828 32.1715 220.696 32.2261 220.558 32.2261Z" fill="#D1D3D4"/>
<path d="M228.975 29.0544C228.375 29.0544 227.787 28.8763 227.288 28.5426C226.788 28.2088 226.399 27.7345 226.169 27.1796C225.939 26.6246 225.879 26.0139 225.996 25.4248C226.114 24.8357 226.403 24.2945 226.828 23.8698C227.252 23.445 227.794 23.1558 228.383 23.0386C228.972 22.9214 229.582 22.9815 230.137 23.2114C230.692 23.4413 231.167 23.8306 231.5 24.33C231.834 24.8294 232.012 25.4166 232.012 26.0173C232.012 26.8228 231.692 27.5953 231.123 28.1649C230.553 28.7344 229.781 29.0544 228.975 29.0544ZM228.975 24.0271C228.579 24.0271 228.192 24.1447 227.863 24.365C227.533 24.5853 227.277 24.8984 227.126 25.2645C226.975 25.6307 226.936 26.0335 227.014 26.4218C227.092 26.8101 227.283 27.1666 227.564 27.4459C227.845 27.7253 228.203 27.915 228.591 27.991C228.98 28.0671 229.383 28.026 229.748 27.8729C230.113 27.7199 230.425 27.4619 230.644 27.1316C230.862 26.8012 230.978 26.4134 230.976 26.0173C230.965 25.494 230.749 24.9957 230.375 24.6295C230.001 24.2632 229.499 24.0581 228.975 24.0582V24.0271Z" fill="#D1D3D4"/>
<path d="M223.523 30.4536C223.446 30.4545 223.37 30.4382 223.3 30.4059C223.23 30.3737 223.168 30.3262 223.119 30.267C223.032 30.1592 222.991 30.0218 223.005 29.8843C223.018 29.7467 223.085 29.6199 223.191 29.5311L226.135 27.1678C226.187 27.1185 226.249 27.0806 226.317 27.0565C226.384 27.0324 226.456 27.0226 226.528 27.0277C226.599 27.0328 226.669 27.0527 226.733 27.0862C226.796 27.1197 226.852 27.166 226.897 27.2221C226.941 27.2783 226.974 27.3432 226.992 27.4126C227.01 27.482 227.014 27.5544 227.003 27.6253C226.992 27.6962 226.966 27.764 226.927 27.8244C226.888 27.8848 226.837 27.9365 226.778 27.9763L223.844 30.35C223.754 30.4234 223.639 30.4604 223.523 30.4536Z" fill="#D1D3D4"/>
<path d="M176.412 49.0805H56.0063C55.4565 49.0805 54.9292 48.8621 54.5404 48.4733C54.1516 48.0845 53.9332 47.5572 53.9332 47.0074C53.9332 46.4576 54.1516 45.9303 54.5404 45.5415C54.9292 45.1527 55.4565 44.9343 56.0063 44.9343H176.412C176.962 44.9343 177.489 45.1527 177.878 45.5415C178.266 45.9303 178.485 46.4576 178.485 47.0074C178.485 47.5572 178.266 48.0845 177.878 48.4733C177.489 48.8621 176.962 49.0805 176.412 49.0805Z" fill="#2FE784"/>
<path d="M186.456 58.6376H56.0063C55.8697 58.635 55.7394 58.5795 55.6428 58.4829C55.5461 58.3863 55.4907 58.256 55.488 58.1193C55.488 57.9819 55.5426 57.8501 55.6398 57.7529C55.737 57.6557 55.8689 57.6011 56.0063 57.6011H186.456C186.593 57.6011 186.725 57.6557 186.822 57.7529C186.92 57.8501 186.974 57.9819 186.974 58.1193C186.974 58.2568 186.92 58.3886 186.822 58.4858C186.725 58.583 186.593 58.6376 186.456 58.6376Z" fill="#D1D3D4"/>
<path d="M157.619 69.7389H56.0374C55.9 69.7389 55.7682 69.6843 55.671 69.5871C55.5738 69.4899 55.5192 69.3581 55.5192 69.2207C55.5192 69.0832 55.5738 68.9514 55.671 68.8542C55.7682 68.757 55.9 68.7024 56.0374 68.7024H157.619C157.757 68.7024 157.888 68.757 157.986 68.8542C158.083 68.9514 158.137 69.0832 158.137 69.2207C158.137 69.3581 158.083 69.4899 157.986 69.5871C157.888 69.6843 157.757 69.7389 157.619 69.7389Z" fill="#D1D3D4"/>
<path d="M148.902 87.9304H56.0063C55.4565 87.9304 54.9292 87.712 54.5404 87.3232C54.1516 86.9344 53.9332 86.4071 53.9332 85.8573C53.9332 85.3074 54.1516 84.7802 54.5404 84.3914C54.9292 84.0026 55.4565 83.7842 56.0063 83.7842H148.902C149.452 83.7842 149.979 84.0026 150.368 84.3914C150.756 84.7802 150.975 85.3074 150.975 85.8573C150.975 86.4071 150.756 86.9344 150.368 87.3232C149.979 87.712 149.452 87.9304 148.902 87.9304Z" fill="#2FE784"/>
<path d="M186.456 97.477H56.0063C55.8689 97.477 55.737 97.4224 55.6398 97.3252C55.5426 97.228 55.488 97.0962 55.488 96.9587C55.4907 96.8221 55.5461 96.6918 55.6428 96.5952C55.7394 96.4985 55.8697 96.4431 56.0063 96.4404H186.456C186.593 96.4404 186.725 96.495 186.822 96.5922C186.92 96.6894 186.974 96.8212 186.974 96.9587C186.974 97.0962 186.92 97.228 186.822 97.3252C186.725 97.4224 186.593 97.477 186.456 97.477Z" fill="#D1D3D4"/>
<path d="M120.075 108.589H56.0063C55.8697 108.586 55.7394 108.531 55.6428 108.434C55.5461 108.337 55.4907 108.207 55.488 108.071C55.488 107.933 55.5426 107.801 55.6398 107.704C55.737 107.607 55.8689 107.552 56.0063 107.552H120.075C120.213 107.552 120.345 107.607 120.442 107.704C120.539 107.801 120.594 107.933 120.594 108.071C120.591 108.207 120.536 108.337 120.439 108.434C120.342 108.531 120.212 108.586 120.075 108.589Z" fill="#D1D3D4"/>
<path d="M244.637 81.9287H197.081C196.944 81.926 196.814 81.8706 196.717 81.774C196.62 81.6773 196.565 81.5471 196.562 81.4104V45.0483C196.562 44.9108 196.617 44.779 196.714 44.6818C196.811 44.5846 196.943 44.53 197.081 44.53H244.637C244.775 44.53 244.907 44.5846 245.004 44.6818C245.101 44.779 245.156 44.9108 245.156 45.0483V81.4104C245.156 81.5479 245.101 81.6797 245.004 81.7769C244.907 81.8741 244.775 81.9287 244.637 81.9287ZM197.599 80.8922H244.119V45.5666H197.599V80.8922Z" fill="#D1D3D4"/>
<path d="M244.637 90.6252H197.081C196.944 90.6225 196.814 90.5671 196.717 90.4704C196.62 90.3738 196.565 90.2435 196.562 90.1069C196.562 89.9694 196.617 89.8376 196.714 89.7404C196.811 89.6432 196.943 89.5886 197.081 89.5886H244.637C244.775 89.5886 244.907 89.6432 245.004 89.7404C245.101 89.8376 245.156 89.9694 245.156 90.1069C245.156 90.2444 245.101 90.3762 245.004 90.4734C244.907 90.5706 244.775 90.6252 244.637 90.6252Z" fill="#D1D3D4"/>
<path d="M244.637 99.6122H197.081C196.944 99.6096 196.814 99.5541 196.717 99.4575C196.62 99.3609 196.565 99.2306 196.562 99.094C196.562 98.9565 196.617 98.8247 196.714 98.7275C196.811 98.6303 196.943 98.5757 197.081 98.5757H244.637C244.775 98.5757 244.907 98.6303 245.004 98.7275C245.101 98.8247 245.156 98.9565 245.156 99.094C245.156 99.2314 245.101 99.3632 245.004 99.4604C244.907 99.5576 244.775 99.6122 244.637 99.6122Z" fill="#D1D3D4"/>
<path d="M236.345 108.589H197.081C196.943 108.589 196.811 108.534 196.714 108.437C196.617 108.34 196.562 108.208 196.562 108.071C196.565 107.934 196.62 107.804 196.717 107.707C196.814 107.61 196.944 107.555 197.081 107.552H236.345C236.482 107.555 236.612 107.61 236.709 107.707C236.805 107.804 236.861 107.934 236.863 108.071C236.863 108.208 236.809 108.34 236.712 108.437C236.614 108.534 236.483 108.589 236.345 108.589Z" fill="#D1D3D4"/>
<path d="M231.142 73.7402C231.011 73.7411 230.885 73.693 230.789 73.6054L214.619 58.6377C214.272 58.3081 213.812 58.1243 213.334 58.1243C212.855 58.1243 212.395 58.3081 212.048 58.6377L197.443 72.828C197.342 72.9113 197.214 72.9533 197.083 72.9456C196.953 72.938 196.83 72.8813 196.739 72.7869C196.649 72.6924 196.597 72.5673 196.595 72.4365C196.593 72.3057 196.641 72.179 196.728 72.0817L211.323 57.9224C211.865 57.4138 212.58 57.1306 213.323 57.1306C214.067 57.1306 214.782 57.4138 215.324 57.9224L231.494 72.8902C231.568 72.9615 231.619 73.0531 231.641 73.1535C231.663 73.2539 231.654 73.3584 231.616 73.454C231.579 73.5495 231.513 73.6316 231.429 73.69C231.344 73.7483 231.244 73.7802 231.142 73.7816V73.7402Z" fill="#D1D3D4"/>
<path d="M244.637 69.5317C244.496 69.5275 244.362 69.468 244.264 69.3659L237.796 62.535C237.623 62.34 237.409 62.1864 237.168 62.0859C236.928 61.9854 236.667 61.9405 236.407 61.9546C236.148 61.9551 235.892 62.0108 235.656 62.1181C235.42 62.2253 235.21 62.3816 235.039 62.5765L229.359 68.9513C229.317 69.0122 229.263 69.0636 229.2 69.1019C229.137 69.1403 229.067 69.1648 228.994 69.1738C228.92 69.1827 228.846 69.176 228.776 69.154C228.705 69.132 228.64 69.0952 228.585 69.0461C228.53 68.9971 228.486 68.9368 228.457 68.8694C228.427 68.802 228.412 68.729 228.412 68.6553C228.413 68.5815 228.429 68.5088 228.46 68.4418C228.491 68.3749 228.536 68.3154 228.592 68.2672L234.272 61.882C234.535 61.5898 234.854 61.3538 235.21 61.1881C235.566 61.0224 235.952 60.9306 236.345 60.918C236.748 60.9027 237.15 60.9754 237.522 61.1312C237.895 61.2869 238.229 61.5219 238.501 61.8198L244.959 68.6507C245.007 68.6989 245.046 68.7562 245.072 68.8193C245.098 68.8825 245.112 68.9502 245.112 69.0186C245.112 69.0871 245.098 69.1548 245.072 69.218C245.046 69.2811 245.007 69.3384 244.959 69.3866C244.87 69.4684 244.757 69.5192 244.637 69.5317Z" fill="#D1D3D4"/>
<path d="M226.861 60.4619C226.096 60.4619 225.348 60.2351 224.713 59.8103C224.077 59.3855 223.581 58.7816 223.289 58.0751C222.996 57.3687 222.919 56.5913 223.069 55.8413C223.218 55.0913 223.586 54.4024 224.127 53.8617C224.667 53.321 225.356 52.9527 226.106 52.8035C226.856 52.6544 227.634 52.7309 228.34 53.0236C229.047 53.3162 229.651 53.8117 230.075 54.4476C230.5 55.0834 230.727 55.8309 230.727 56.5956C230.727 57.621 230.32 58.6044 229.594 59.3295C228.869 60.0546 227.886 60.4619 226.861 60.4619ZM226.861 53.7658C226.301 53.7658 225.754 53.9318 225.288 54.2427C224.823 54.5536 224.46 54.9956 224.246 55.5127C224.032 56.0297 223.976 56.5987 224.085 57.1476C224.194 57.6966 224.464 58.2008 224.86 58.5965C225.255 58.9923 225.76 59.2618 226.309 59.371C226.857 59.4802 227.426 59.4241 227.944 59.2099C228.461 58.9958 228.903 58.6331 229.213 58.1677C229.524 57.7024 229.69 57.1552 229.69 56.5956C229.692 56.2236 229.619 55.855 229.478 55.511C229.336 55.1671 229.128 54.8546 228.865 54.5916C228.602 54.3285 228.289 54.1201 227.945 53.9784C227.601 53.8367 227.233 53.7644 226.861 53.7658Z" fill="#D1D3D4"/>
<path d="M148 139.851C147.059 139.853 146.138 139.576 145.354 139.054C144.57 138.533 143.959 137.79 143.597 136.921C143.235 136.052 143.14 135.095 143.322 134.171C143.504 133.248 143.957 132.399 144.622 131.733C145.287 131.066 146.134 130.612 147.058 130.428C147.981 130.243 148.938 130.337 149.808 130.697C150.678 131.056 151.422 131.666 151.945 132.449C152.468 133.231 152.747 134.152 152.747 135.093C152.747 136.353 152.248 137.562 151.358 138.454C150.468 139.346 149.26 139.848 148 139.851ZM148 131.382C147.263 131.38 146.542 131.597 145.929 132.005C145.315 132.413 144.837 132.994 144.554 133.675C144.271 134.355 144.196 135.104 144.339 135.827C144.483 136.55 144.837 137.214 145.358 137.735C145.879 138.256 146.543 138.611 147.266 138.754C147.989 138.897 148.738 138.822 149.418 138.54C150.099 138.257 150.68 137.778 151.088 137.164C151.496 136.551 151.713 135.83 151.711 135.093C151.711 134.606 151.615 134.123 151.428 133.673C151.242 133.223 150.969 132.814 150.624 132.469C150.279 132.125 149.87 131.851 149.42 131.665C148.97 131.478 148.487 131.382 148 131.382Z" fill="#D1D3D4"/>
<path d="M276.076 101.229H193.629V152.186H276.076V101.229Z" fill="#2FE784"/>
<path d="M276.076 152.704H193.608C193.471 152.702 193.341 152.646 193.245 152.549C193.148 152.453 193.092 152.323 193.09 152.186V101.229C193.09 101.092 193.144 100.96 193.242 100.863C193.339 100.766 193.471 100.711 193.608 100.711H276.066C276.203 100.711 276.335 100.766 276.432 100.863C276.529 100.96 276.584 101.092 276.584 101.229V152.186C276.581 152.321 276.527 152.45 276.433 152.546C276.338 152.642 276.211 152.699 276.076 152.704ZM194.137 151.668H275.558V101.799H194.137V151.668Z" fill="black"/>
<path d="M276.076 93.9321H193.629V101.229H276.076V93.9321Z" fill="white"/>
<path d="M276.076 101.799H193.608C193.471 101.797 193.341 101.741 193.245 101.645C193.148 101.548 193.092 101.418 193.09 101.281V94.0254C193.09 93.8879 193.144 93.7561 193.242 93.6589C193.339 93.5617 193.471 93.5071 193.608 93.5071H276.066C276.203 93.5071 276.335 93.5617 276.432 93.6589C276.529 93.7561 276.584 93.8879 276.584 94.0254V101.281C276.581 101.416 276.527 101.545 276.433 101.641C276.338 101.738 276.211 101.794 276.076 101.799ZM194.137 100.763H275.558V94.5436H194.137V100.763Z" fill="black"/>
<path d="M217.778 142.663L217.787 142.669C220.871 144.449 224.814 143.392 226.595 140.309L240.37 116.449C242.151 113.365 241.094 109.422 238.01 107.641L238.001 107.636C234.918 105.856 230.975 106.912 229.194 109.996L215.419 133.856C213.638 136.94 214.695 140.883 217.778 142.663Z" fill="white"/>
<path d="M220.994 144.059C219.778 144.059 218.583 143.737 217.532 143.126C215.931 142.201 214.763 140.678 214.283 138.893C213.803 137.107 214.051 135.204 214.971 133.601L228.747 109.76C229.205 108.968 229.813 108.273 230.539 107.716C231.265 107.16 232.093 106.751 232.977 106.514C233.86 106.277 234.782 106.217 235.689 106.336C236.596 106.456 237.47 106.753 238.263 107.21C239.055 107.667 239.749 108.276 240.306 109.002C240.863 109.728 241.272 110.556 241.508 111.44C241.745 112.323 241.806 113.245 241.686 114.152C241.567 115.059 241.27 115.933 240.813 116.726L227.047 140.566C226.434 141.629 225.551 142.511 224.489 143.124C223.426 143.737 222.221 144.06 220.994 144.059ZM218.05 142.225C219.411 143.01 221.028 143.223 222.546 142.817C224.064 142.411 225.359 141.418 226.145 140.058L239.921 116.218C240.31 115.543 240.563 114.799 240.665 114.026C240.766 113.254 240.715 112.47 240.513 111.718C240.311 110.965 239.964 110.26 239.489 109.642C239.015 109.025 238.424 108.506 237.75 108.117C237.075 107.728 236.331 107.475 235.558 107.373C234.786 107.272 234.002 107.323 233.25 107.525C232.497 107.727 231.792 108.075 231.174 108.549C230.557 109.023 230.038 109.614 229.649 110.289L215.873 134.129C215.482 134.804 215.228 135.551 215.127 136.325C215.025 137.098 215.078 137.885 215.282 138.638C215.481 139.392 215.828 140.098 216.304 140.716C216.779 141.333 217.373 141.85 218.05 142.235V142.225Z" fill="black"/>
<path d="M221.128 143.313C224.758 143.313 227.7 140.371 227.7 136.741C227.7 133.112 224.758 130.17 221.128 130.17C217.499 130.17 214.557 133.112 214.557 136.741C214.557 140.371 217.499 143.313 221.128 143.313Z" fill="white"/>
<path d="M221.129 143.832C219.723 143.834 218.349 143.419 217.18 142.639C216.011 141.86 215.099 140.751 214.56 139.453C214.022 138.155 213.88 136.727 214.154 135.349C214.427 133.97 215.104 132.704 216.097 131.711C217.091 130.717 218.357 130.04 219.736 129.767C221.114 129.493 222.542 129.635 223.84 130.173C225.138 130.712 226.247 131.624 227.026 132.793C227.806 133.962 228.221 135.336 228.219 136.742C228.216 138.621 227.468 140.423 226.139 141.752C224.81 143.081 223.008 143.829 221.129 143.832ZM221.129 130.678C219.929 130.676 218.755 131.03 217.757 131.695C216.758 132.36 215.979 133.306 215.519 134.414C215.058 135.522 214.937 136.741 215.17 137.918C215.402 139.095 215.979 140.177 216.827 141.026C217.674 141.875 218.755 142.453 219.931 142.688C221.108 142.923 222.328 142.803 223.436 142.345C224.545 141.886 225.493 141.109 226.159 140.112C226.826 139.114 227.182 137.941 227.182 136.742C227.179 135.136 226.541 133.597 225.407 132.46C224.272 131.324 222.734 130.683 221.129 130.678Z" fill="black"/>
<path d="M231.705 107.642L231.696 107.647C228.613 109.428 227.556 113.371 229.337 116.455L243.112 140.315C244.893 143.399 248.836 144.455 251.92 142.675L251.929 142.67C255.012 140.889 256.069 136.946 254.288 133.862L240.513 110.002C238.732 106.918 234.789 105.862 231.705 107.642Z" fill="white"/>
<path d="M248.711 144.059C248.099 144.058 247.489 143.978 246.897 143.821C246.012 143.586 245.182 143.178 244.454 142.621C243.727 142.064 243.116 141.37 242.658 140.577L228.892 116.736C227.969 115.136 227.718 113.235 228.197 111.45C228.675 109.666 229.842 108.144 231.442 107.221C233.042 106.297 234.944 106.047 236.728 106.525C238.513 107.003 240.034 108.17 240.958 109.77L254.733 133.611C255.655 135.213 255.904 137.115 255.426 138.901C254.948 140.686 253.782 142.209 252.184 143.137C251.127 143.745 249.93 144.063 248.711 144.059ZM234.915 107.303C233.87 107.295 232.841 107.563 231.933 108.08C231.025 108.597 230.27 109.344 229.744 110.247C229.218 111.15 228.94 112.176 228.937 113.22C228.935 114.265 229.209 115.292 229.732 116.197L243.508 140.038C243.897 140.719 244.416 141.316 245.037 141.795C245.658 142.274 246.368 142.626 247.126 142.829C247.883 143.032 248.673 143.084 249.451 142.98C250.228 142.876 250.977 142.62 251.655 142.225C253.016 141.436 254.008 140.139 254.414 138.62C254.82 137.1 254.607 135.482 253.821 134.119L240.056 110.278C239.535 109.376 238.785 108.626 237.883 108.103C236.981 107.581 235.957 107.305 234.915 107.303Z" fill="black"/>
<path d="M203.289 98.0988H197.547C197.41 98.0988 197.278 98.0442 197.181 97.947C197.083 97.8498 197.029 97.718 197.029 97.5805C197.029 97.4431 197.083 97.3113 197.181 97.2141C197.278 97.1169 197.41 97.0623 197.547 97.0623H203.289C203.427 97.0623 203.559 97.1169 203.656 97.2141C203.753 97.3113 203.808 97.4431 203.808 97.5805C203.808 97.718 203.753 97.8498 203.656 97.947C203.559 98.0442 203.427 98.0988 203.289 98.0988Z" fill="black"/>
<path d="M295.48 203.786H0.519897V211.062H295.48V203.786Z" fill="black"/>
<path d="M295.48 211.58H0.519861C0.382406 211.58 0.250581 211.526 0.153386 211.428C0.0561903 211.331 0.00158691 211.199 0.00158691 211.062V203.806C0.00158691 203.669 0.0561903 203.537 0.153386 203.44C0.250581 203.342 0.382406 203.288 0.519861 203.288H295.48C295.618 203.288 295.749 203.342 295.847 203.44C295.944 203.537 295.998 203.669 295.998 203.806V211.062C295.998 211.199 295.944 211.331 295.847 211.428C295.749 211.526 295.618 211.58 295.48 211.58ZM1.03814 210.544H294.962V204.324H1.03814V210.544Z" fill="black"/>
<path d="M85.8071 0.518311H15.3529V63.9654H85.8071V0.518311Z" fill="white"/>
<path d="M85.8071 64.4837H15.3218C15.1852 64.481 15.0549 64.4256 14.9583 64.3289C14.8616 64.2323 14.8062 64.102 14.8035 63.9654V0.518274C14.8035 0.380819 14.8581 0.248994 14.9553 0.151799C15.0525 0.0546033 15.1843 0 15.3218 0H85.8071C85.9446 0 86.0764 0.0546033 86.1736 0.151799C86.2708 0.248994 86.3254 0.380819 86.3254 0.518274V63.9654C86.3227 64.102 86.2673 64.2323 86.1706 64.3289C86.074 64.4256 85.9437 64.481 85.8071 64.4837ZM15.8608 63.4471H85.3096V1.03655H15.8608V63.4471Z" fill="black"/>
<path d="M42.5312 42.8093H32.1243V54.9369H42.5312V42.8093Z" fill="#2FE784"/>
<path d="M58.0794 31.7184H47.6725V54.9371H58.0794V31.7184Z" fill="#2FE784"/>
<path d="M73.6173 14.6155H63.2103V54.9372H73.6173V14.6155Z" fill="#2FE784"/>
<path d="M78.7586 55.4448H24.091C23.9536 55.4448 23.8217 55.3902 23.7246 55.293C23.6274 55.1958 23.5728 55.0639 23.5728 54.9265V8.50985C23.5728 8.3724 23.6274 8.24057 23.7246 8.14338C23.8217 8.04618 23.9536 7.99158 24.091 7.99158C24.2285 7.99158 24.3603 8.04618 24.4575 8.14338C24.5547 8.24057 24.6093 8.3724 24.6093 8.50985V54.4082H78.7586C78.896 54.4082 79.0279 54.4628 79.1251 54.56C79.2223 54.6572 79.2769 54.789 79.2769 54.9265C79.2769 55.0639 79.2223 55.1958 79.1251 55.293C79.0279 55.3902 78.896 55.4448 78.7586 55.4448Z" fill="black"/>
<path d="M36.8198 37.72L36.3015 37.6578L35.8143 37.4712C36.4985 34.7347 39.1624 25.8204 44.6561 26.1314C45.4157 26.1032 46.1734 26.2262 46.8851 26.4931C47.5968 26.76 48.2485 27.1655 48.8023 27.6862C49.7835 28.6053 51.0657 29.1359 52.4095 29.1788C54.2027 29.3654 55.1874 26.6393 56.4313 23.1565C58.6391 16.9372 61.614 8.55151 71.9795 8.55151C72.117 8.55151 72.2488 8.60612 72.346 8.70331C72.4432 8.80051 72.4978 8.93233 72.4978 9.06979C72.4978 9.20724 72.4432 9.33907 72.346 9.43626C72.2488 9.53346 72.117 9.58806 71.9795 9.58806C62.3603 9.58806 59.5409 17.3 57.3745 23.4985C55.9752 27.4271 54.8765 30.5471 52.254 30.2154C50.7092 30.136 49.2415 29.5159 48.1078 28.4636C47.6397 28.0188 47.0856 27.6745 46.4795 27.4517C45.8735 27.2288 45.2283 27.1323 44.5835 27.1679C39.7532 26.8984 37.2655 35.906 36.8198 37.72Z" fill="#D1D3D4"/>
<path d="M25.7391 174.078V180.919C25.7391 182.992 33.5235 184.692 43.1427 184.692C52.7619 184.692 60.5464 183.003 60.5464 180.919V174.078H25.7391Z" fill="white"/>
<path d="M43.1427 185.21C34.2388 185.21 25.2208 183.738 25.2208 180.919V174.078C25.2208 173.94 25.2754 173.809 25.3726 173.711C25.4698 173.614 25.6016 173.56 25.7391 173.56H60.5464C60.6838 173.56 60.8157 173.614 60.9129 173.711C61.0101 173.809 61.0647 173.94 61.0647 174.078V180.919C61.0647 183.738 52.0467 185.21 43.1427 185.21ZM26.2574 174.596V180.919C26.2574 182.246 32.8291 184.174 43.1427 184.174C53.4564 184.174 60.0281 182.246 60.0281 180.919V174.596H26.2574Z" fill="black"/>
<path d="M43.1427 177.841C52.7545 177.841 60.5464 176.156 60.5464 174.078C60.5464 172 52.7545 170.315 43.1427 170.315C33.5309 170.315 25.7391 172 25.7391 174.078C25.7391 176.156 33.5309 177.841 43.1427 177.841Z" fill="black"/>
<path d="M43.1427 178.359C34.2388 178.359 25.2208 176.887 25.2208 174.078C25.2208 171.269 34.2388 169.787 43.1427 169.787C52.0467 169.787 61.0647 171.259 61.0647 174.078C61.0647 176.898 52.0467 178.359 43.1427 178.359ZM43.1427 170.823C32.7773 170.823 26.2574 172.751 26.2574 174.078C26.2574 175.405 32.8291 177.323 43.1427 177.323C53.4564 177.323 60.0281 175.405 60.0281 174.078C60.0281 172.751 53.4564 170.823 43.1427 170.823Z" fill="black"/>
<path d="M27.3872 165.029V171.881C27.3872 173.954 35.1821 175.643 44.8012 175.643C54.4204 175.643 62.2049 173.964 62.2049 171.881V165.029H27.3872Z" fill="white"/>
<path d="M44.8012 176.13C35.8869 176.13 26.8689 174.659 26.8689 171.85V165.029C26.8716 164.892 26.927 164.762 27.0236 164.665C27.1203 164.569 27.2505 164.513 27.3872 164.511H62.2048C62.3423 164.511 62.4741 164.565 62.5713 164.663C62.6685 164.76 62.7231 164.892 62.7231 165.029V171.881C62.7231 174.659 53.674 176.13 44.8012 176.13ZM27.9054 165.516V171.85C27.9054 173.176 34.4875 175.094 44.8012 175.094C55.1148 175.094 61.6866 173.176 61.6866 171.85V165.516H27.9054Z" fill="black"/>
<path d="M44.8012 168.761C54.413 168.761 62.2049 167.076 62.2049 164.998C62.2049 162.92 54.413 161.235 44.8012 161.235C35.1895 161.235 27.3976 162.92 27.3976 164.998C27.3976 167.076 35.1895 168.761 44.8012 168.761Z" fill="black"/>
<path d="M44.8012 169.289C35.8869 169.289 26.8689 167.817 26.8689 164.998C26.8689 162.179 35.8869 160.717 44.8012 160.717C53.7155 160.717 62.7231 162.189 62.7231 164.998C62.7231 167.807 53.674 169.289 44.8012 169.289ZM44.8012 161.754C34.4357 161.754 27.9054 163.682 27.9054 164.998C27.9054 166.314 34.4875 168.253 44.8012 168.253C55.1148 168.253 61.6866 166.325 61.6866 164.998C61.6866 163.671 55.1045 161.754 44.8012 161.754Z" fill="black"/>
<path d="M24.9928 155.928V162.769C24.9928 164.842 32.7876 166.542 42.4068 166.542C52.026 166.542 59.8105 164.853 59.8105 162.769V155.928H24.9928Z" fill="white"/>
<path d="M42.4068 167.102C33.4925 167.102 24.4745 165.63 24.4745 162.811V155.969C24.4745 155.832 24.5291 155.7 24.6263 155.603C24.7235 155.506 24.8553 155.451 24.9928 155.451H59.8104C59.9479 155.451 60.0797 155.506 60.1769 155.603C60.2741 155.7 60.3287 155.832 60.3287 155.969V162.811C60.3287 165.589 51.3107 167.102 42.4068 167.102ZM25.511 156.488V162.811C25.511 164.137 32.0931 166.065 42.4068 166.065C52.7204 166.065 59.2921 164.137 59.2921 162.811V156.488H25.511Z" fill="black"/>
<path d="M42.4068 159.691C52.0185 159.691 59.8104 158.006 59.8104 155.928C59.8104 153.85 52.0185 152.165 42.4068 152.165C32.795 152.165 25.0031 153.85 25.0031 155.928C25.0031 158.006 32.795 159.691 42.4068 159.691Z" fill="black"/>
<path d="M42.4068 160.219C33.4925 160.219 24.4745 158.748 24.4745 155.928C24.4745 153.109 33.4925 151.647 42.4068 151.647C51.3211 151.647 60.3287 153.119 60.3287 155.928C60.3287 158.737 51.3107 160.219 42.4068 160.219ZM42.4068 152.684C32.0931 152.684 25.511 154.601 25.511 155.928C25.511 157.255 32.0931 159.183 42.4068 159.183C52.7204 159.183 59.2921 157.255 59.2921 155.928C59.2921 154.601 52.7101 152.684 42.4068 152.684Z" fill="black"/>
<path d="M29.8335 146.62V153.461C29.8335 155.534 37.6283 157.234 47.2371 157.234C56.8459 157.234 64.6512 155.545 64.6512 153.461V146.62H29.8335Z" fill="white"/>
<path d="M47.1957 157.773C38.2917 157.773 29.2737 156.301 29.2737 153.482V146.641C29.2737 146.503 29.3283 146.371 29.4255 146.274C29.5227 146.177 29.6546 146.122 29.792 146.122H64.6097C64.7471 146.122 64.879 146.177 64.9762 146.274C65.0734 146.371 65.128 146.503 65.128 146.641V153.482C65.128 156.28 56.11 157.773 47.1957 157.773ZM30.3103 147.138V153.461C30.3103 154.788 36.8924 156.716 47.1957 156.716C57.499 156.716 64.0914 154.788 64.0914 153.461V147.138H30.3103Z" fill="black"/>
<path d="M47.1956 150.382C56.8074 150.382 64.5993 148.698 64.5993 146.62C64.5993 144.542 56.8074 142.857 47.1956 142.857C37.5839 142.857 29.792 144.542 29.792 146.62C29.792 148.698 37.5839 150.382 47.1956 150.382Z" fill="black"/>
<path d="M47.1957 150.911C38.2917 150.911 29.2737 149.439 29.2737 146.62C29.2737 143.8 38.2917 142.339 47.1957 142.339C56.0996 142.339 65.128 143.811 65.128 146.62C65.128 149.429 56.11 150.911 47.1957 150.911ZM47.1957 143.375C36.8924 143.375 30.3103 145.293 30.3103 146.62C30.3103 147.947 36.8924 149.875 47.1957 149.875C57.499 149.875 64.0914 147.947 64.0914 146.62C64.0914 145.293 57.5093 143.375 47.1957 143.375Z" fill="black"/>
<path d="M24.9928 138.504V145.334C24.9928 147.408 32.7876 149.097 42.4068 149.097C52.026 149.097 59.8105 147.408 59.8105 145.334V138.483L24.9928 138.504Z" fill="white"/>
<path d="M42.4068 149.636C33.4925 149.636 24.4745 148.164 24.4745 145.355V138.504C24.4771 138.367 24.5326 138.237 24.6292 138.14C24.7258 138.043 24.8561 137.988 24.9928 137.985H59.8104C59.9479 137.985 60.0797 138.04 60.1769 138.137C60.2741 138.234 60.3287 138.366 60.3287 138.504V145.334C60.3287 148.164 51.3107 149.636 42.4068 149.636ZM25.511 139.022V145.334C25.511 146.661 32.0931 148.579 42.4068 148.579C52.7204 148.579 59.2921 146.661 59.2921 145.334V139.001L25.511 139.022Z" fill="black"/>
<path d="M42.4068 142.266C52.0185 142.266 59.8104 140.581 59.8104 138.503C59.8104 136.425 52.0185 134.741 42.4068 134.741C32.795 134.741 25.0031 136.425 25.0031 138.503C25.0031 140.581 32.795 142.266 42.4068 142.266Z" fill="white"/>
<path d="M42.4068 142.795C33.4925 142.795 24.4745 141.323 24.4745 138.504C24.4745 135.684 33.4925 134.223 42.4068 134.223C51.3211 134.223 60.3287 135.695 60.3287 138.504C60.3287 141.313 51.3107 142.795 42.4068 142.795ZM42.4068 135.259C32.0931 135.259 25.511 137.187 25.511 138.504C25.511 139.82 32.0931 141.758 42.4068 141.758C52.7204 141.758 59.2921 139.83 59.2921 138.504C59.2921 137.177 52.7101 135.259 42.4068 135.259Z" fill="black"/>
<path d="M42.4068 140.898C41.1526 140.898 30.217 140.836 30.217 138.504C30.217 136.172 41.1526 136.109 42.4068 136.109C43.661 136.109 54.5862 136.182 54.5862 138.504C54.5862 140.826 43.6506 140.898 42.4068 140.898ZM31.3157 138.504C32.0309 139.095 36.146 139.862 42.4068 139.862C48.6675 139.862 52.7723 139.095 53.4875 138.504C52.7723 137.923 48.6572 137.146 42.4068 137.146C36.1564 137.146 32.0309 137.923 31.3157 138.504Z" fill="#D1D3D4"/>
<path d="M236.936 177.322V184.174C236.936 186.247 244.731 187.937 254.339 187.937C263.948 187.937 271.753 186.247 271.753 184.174V177.322H236.936Z" fill="white"/>
<path d="M254.34 188.455C245.436 188.455 236.418 186.983 236.418 184.174V177.322C236.418 177.185 236.472 177.053 236.569 176.956C236.667 176.859 236.798 176.804 236.936 176.804H271.743C271.881 176.804 272.012 176.859 272.11 176.956C272.207 177.053 272.261 177.185 272.261 177.322V184.174C272.261 186.983 263.243 188.455 254.34 188.455ZM237.454 177.841V184.174C237.454 185.49 244.026 187.418 254.34 187.418C264.653 187.418 271.225 185.49 271.225 184.174V177.841H237.454Z" fill="black"/>
<path d="M254.339 181.085C263.951 181.085 271.743 179.4 271.743 177.322C271.743 175.244 263.951 173.56 254.339 173.56C244.728 173.56 236.936 175.244 236.936 177.322C236.936 179.4 244.728 181.085 254.339 181.085Z" fill="black"/>
<path d="M254.34 181.614C245.436 181.614 236.418 180.142 236.418 177.322C236.418 174.503 245.436 173.041 254.34 173.041C263.243 173.041 272.261 174.513 272.261 177.322C272.261 180.131 263.243 181.614 254.34 181.614ZM254.34 174.078C244.026 174.078 237.454 175.995 237.454 177.322C237.454 178.649 244.026 180.577 254.34 180.577C264.653 180.577 271.225 178.649 271.225 177.322C271.225 175.995 264.653 174.078 254.34 174.078Z" fill="black"/>
<path d="M234.531 168.253V175.094C234.531 177.167 242.326 178.867 251.945 178.867C261.564 178.867 269.349 177.177 269.349 175.094V168.253H234.531Z" fill="white"/>
<path d="M251.945 179.385C243.031 179.385 234.013 177.913 234.013 175.094V168.253C234.013 168.115 234.067 167.983 234.165 167.886C234.262 167.789 234.394 167.734 234.531 167.734H269.349C269.486 167.734 269.618 167.789 269.715 167.886C269.812 167.983 269.867 168.115 269.867 168.253V175.094C269.867 177.913 260.849 179.385 251.945 179.385ZM235.07 168.771V175.094C235.07 176.421 241.652 178.349 251.966 178.349C262.279 178.349 268.851 176.421 268.851 175.094V168.771H235.07Z" fill="black"/>
<path d="M251.945 172.015C261.557 172.015 269.349 170.33 269.349 168.252C269.349 166.174 261.557 164.49 251.945 164.49C242.333 164.49 234.541 166.174 234.541 168.252C234.541 170.33 242.333 172.015 251.945 172.015Z" fill="black"/>
<path d="M251.945 172.533C243.031 172.533 234.013 171.062 234.013 168.252C234.013 165.443 243.031 163.961 251.945 163.961C260.859 163.961 269.867 165.433 269.867 168.252C269.867 171.072 260.849 172.533 251.945 172.533ZM251.945 164.998C241.631 164.998 235.049 166.926 235.049 168.252C235.049 169.579 241.631 171.497 251.945 171.497C262.259 171.497 268.83 169.579 268.83 168.252C268.83 166.926 262.248 165.029 251.945 165.029V164.998Z" fill="black"/>
<path d="M239.33 158.944V165.786C239.33 167.859 247.125 169.559 256.734 169.559C266.343 169.559 274.148 167.869 274.148 165.786V158.944H239.33Z" fill="white"/>
<path d="M256.734 170.077C247.83 170.077 238.812 168.605 238.812 165.786V158.944C238.812 158.807 238.867 158.675 238.964 158.578C239.061 158.481 239.193 158.426 239.33 158.426H274.148C274.285 158.426 274.417 158.481 274.514 158.578C274.612 158.675 274.666 158.807 274.666 158.944V165.786C274.666 168.605 265.648 170.077 256.734 170.077ZM239.849 159.463V165.786C239.849 167.112 246.431 169.04 256.734 169.04C267.037 169.04 273.63 167.112 273.63 165.786V159.463H239.849Z" fill="black"/>
<path d="M256.734 162.707C266.346 162.707 274.138 161.022 274.138 158.944C274.138 156.866 266.346 155.182 256.734 155.182C247.122 155.182 239.33 156.866 239.33 158.944C239.33 161.022 247.122 162.707 256.734 162.707Z" fill="black"/>
<path d="M256.734 163.225C247.83 163.225 238.812 161.753 238.812 158.944C238.812 156.135 247.83 154.663 256.734 154.663C265.638 154.663 274.666 156.135 274.666 158.944C274.666 161.753 265.648 163.225 256.734 163.225ZM256.734 155.7C246.431 155.7 239.849 157.617 239.849 158.944C239.849 160.271 246.431 162.189 256.734 162.189C267.037 162.189 273.63 160.271 273.63 158.944C273.63 157.617 267.048 155.7 256.734 155.7Z" fill="black"/>
<path d="M234.531 150.828V157.68C234.531 159.753 242.326 161.442 251.945 161.442C261.564 161.442 269.349 159.753 269.349 157.68V150.828H234.531Z" fill="white"/>
<path d="M251.945 161.919C243.031 161.919 234.013 160.447 234.013 157.638V150.828C234.015 150.691 234.071 150.561 234.168 150.465C234.264 150.368 234.394 150.312 234.531 150.31H269.349C269.486 150.31 269.618 150.364 269.715 150.462C269.812 150.559 269.867 150.691 269.867 150.828V157.68C269.867 160.489 260.849 161.919 251.945 161.919ZM235.07 151.346V157.68C235.07 158.996 241.652 160.924 251.966 160.924C262.279 160.924 268.851 158.996 268.851 157.68V151.346H235.07Z" fill="black"/>
<path d="M251.945 154.591C261.557 154.591 269.349 152.906 269.349 150.828C269.349 148.75 261.557 147.065 251.945 147.065C242.333 147.065 234.541 148.75 234.541 150.828C234.541 152.906 242.333 154.591 251.945 154.591Z" fill="white"/>
<path d="M251.945 155.119C243.031 155.119 234.013 153.647 234.013 150.828C234.013 148.009 243.031 146.547 251.945 146.547C260.859 146.547 269.867 148.019 269.867 150.828C269.867 153.637 260.849 155.119 251.945 155.119ZM251.945 147.584C241.631 147.584 235.049 149.501 235.049 150.828C235.049 152.155 241.631 154.083 251.945 154.083C262.259 154.083 268.83 152.155 268.83 150.828C268.83 149.501 262.248 147.584 251.945 147.584Z" fill="black"/>
<path d="M251.945 153.223C250.701 153.223 239.766 153.16 239.766 150.828C239.766 148.496 250.701 148.444 251.945 148.444C253.189 148.444 264.125 148.517 264.125 150.839C264.125 153.16 253.189 153.223 251.945 153.223ZM240.854 150.828C241.569 151.419 245.684 152.186 251.945 152.186C258.206 152.186 262.311 151.419 263.026 150.828C262.311 150.248 258.206 149.47 251.945 149.47C245.684 149.47 241.569 150.248 240.854 150.828Z" fill="#D1D3D4"/>
<path d="M102.568 176.431V182.93C102.568 184.91 95.1567 186.516 85.9833 186.516C76.8098 186.516 69.3985 184.91 69.3985 182.93V176.431H102.568Z" fill="white"/>
<path d="M86.0248 187.014C79.1628 187.014 68.9528 185.925 68.9528 182.868V176.431C68.9528 176.293 69.0074 176.161 69.1046 176.064C69.2018 175.967 69.3336 175.912 69.4711 175.912H102.568C102.706 175.912 102.837 175.967 102.935 176.064C103.032 176.161 103.086 176.293 103.086 176.431V182.93C103.086 185.925 92.8867 187.014 86.0248 187.014ZM69.9894 176.928V182.909C69.9894 184.163 76.2087 186.019 86.0248 186.019C95.8409 186.019 102.05 184.205 102.05 182.909V176.928H69.9894Z" fill="black"/>
<path d="M86.0248 179.996C95.1614 179.996 102.568 178.391 102.568 176.41C102.568 174.429 95.1614 172.823 86.0248 172.823C76.8881 172.823 69.4814 174.429 69.4814 176.41C69.4814 178.391 76.8881 179.996 86.0248 179.996Z" fill="black"/>
<path d="M86.0248 180.505C79.1628 180.505 68.9528 179.416 68.9528 176.358C68.9528 173.301 79.1628 172.212 86.0248 172.212C92.8867 172.212 103.086 173.311 103.086 176.358C103.086 179.406 92.8867 180.505 86.0248 180.505ZM86.0248 173.342C76.2398 173.342 69.9894 175.156 69.9894 176.452C69.9894 177.747 76.2087 179.561 86.0248 179.561C95.8409 179.561 102.05 177.747 102.05 176.452C102.05 175.156 95.8098 173.321 86.0248 173.321V173.342Z" fill="black"/>
<path d="M98.0073 167.558V174.067C98.0073 176.047 90.6063 177.643 81.4225 177.643C72.2387 177.643 64.8377 176.047 64.8377 174.067V167.558H98.0073Z" fill="white"/>
<path d="M81.4639 178.162C74.602 178.162 64.4023 177.125 64.4023 174.067V167.558C64.4023 167.42 64.4569 167.289 64.5541 167.191C64.6513 167.094 64.7832 167.04 64.9206 167.04H98.0072C98.1447 167.04 98.2765 167.094 98.3737 167.191C98.4709 167.289 98.5255 167.42 98.5255 167.558V174.067C98.5255 177.073 88.3259 178.162 81.4639 178.162ZM65.4389 168.076V174.067C65.4389 175.311 71.6582 177.125 81.4639 177.125C91.2697 177.125 97.489 175.311 97.489 174.067V168.076H65.4389Z" fill="black"/>
<path d="M81.464 171.145C90.6006 171.145 98.0073 169.539 98.0073 167.558C98.0073 165.577 90.6006 163.972 81.464 163.972C72.3273 163.972 64.9207 165.577 64.9207 167.558C64.9207 169.539 72.3273 171.145 81.464 171.145Z" fill="black"/>
<path d="M81.4639 171.663C74.602 171.663 64.4023 170.564 64.4023 167.516C64.4023 164.469 74.602 163.422 81.4639 163.422C88.3259 163.422 98.5255 164.459 98.5255 167.516C98.5255 170.574 88.3259 171.663 81.4639 171.663ZM81.4639 164.5C71.6789 164.5 65.4389 166.314 65.4389 167.558C65.4389 168.802 71.6582 170.668 81.4639 170.668C91.2697 170.668 97.489 168.854 97.489 167.558C97.489 166.262 91.2489 164.5 81.4639 164.5Z" fill="black"/>
<path d="M102.568 159.846V166.355C102.568 168.335 95.1567 169.932 85.9833 169.932C76.8098 169.932 69.3985 168.335 69.3985 166.355V159.846H102.568Z" fill="white"/>
<path d="M86.0248 170.45C79.1628 170.45 68.9528 169.413 68.9528 166.355V159.846C68.9555 159.709 69.0109 159.579 69.1076 159.482C69.2042 159.386 69.3345 159.33 69.4711 159.328H102.568C102.706 159.328 102.837 159.382 102.935 159.479C103.032 159.577 103.086 159.708 103.086 159.846V166.355C103.086 169.361 92.8867 170.45 86.0248 170.45ZM69.9894 160.364V166.355C69.9894 167.599 76.2087 169.413 86.0248 169.413C95.8409 169.413 102.05 167.599 102.05 166.355V160.364H69.9894Z" fill="black"/>
<path d="M86.0248 163.432C95.1614 163.432 102.568 161.827 102.568 159.846C102.568 157.865 95.1614 156.26 86.0248 156.26C76.8881 156.26 69.4814 157.865 69.4814 159.846C69.4814 161.827 76.8881 163.432 86.0248 163.432Z" fill="white"/>
<path d="M86.0248 163.992C79.1628 163.992 68.9528 162.894 68.9528 159.846C68.9528 156.799 79.1628 155.752 86.0248 155.752C92.8867 155.752 103.086 156.788 103.086 159.846C103.086 162.904 92.8867 163.992 86.0248 163.992ZM86.0248 156.83C76.2398 156.83 69.9894 158.644 69.9894 159.888C69.9894 161.131 76.2087 162.997 86.0248 162.997C95.8409 162.997 102.05 161.183 102.05 159.888C102.05 158.592 95.8098 156.788 86.0248 156.788V156.83Z" fill="black"/>
<path d="M86.0248 162.147C84.0864 162.147 74.4154 162.044 74.4154 159.846C74.4154 157.649 84.0864 157.545 86.0248 157.545C87.9631 157.545 97.6237 157.659 97.6237 159.846C97.6237 162.033 87.9631 162.147 86.0248 162.147ZM75.5245 159.846C76.2812 160.396 80.1683 161.111 86.0248 161.111C91.8813 161.111 95.7683 160.396 96.5146 159.846C95.7683 159.297 91.8709 158.582 86.0248 158.582C80.1786 158.582 76.2812 159.297 75.5245 159.846Z" fill="#D1D3D4"/>
<path d="M229.618 171.922V178.431C229.618 180.401 222.217 182.008 213.033 182.008C203.849 182.008 196.448 180.401 196.448 178.431V171.922H229.618Z" fill="white"/>
<path d="M213.075 182.526C206.213 182.526 196.013 181.489 196.013 178.431V171.922C196.013 171.784 196.068 171.653 196.165 171.555C196.262 171.458 196.394 171.404 196.531 171.404H229.618C229.755 171.404 229.887 171.458 229.984 171.555C230.082 171.653 230.136 171.784 230.136 171.922V178.431C230.136 181.437 219.936 182.526 213.075 182.526ZM197.049 172.44V178.431C197.049 179.675 203.269 181.489 213.075 181.489C222.88 181.489 229.1 179.675 229.1 178.431V172.44H197.049Z" fill="black"/>
<path d="M213.074 175.508C222.211 175.508 229.618 173.903 229.618 171.922C229.618 169.941 222.211 168.335 213.074 168.335C203.938 168.335 196.531 169.941 196.531 171.922C196.531 173.903 203.938 175.508 213.074 175.508Z" fill="black"/>
<path d="M213.075 176.016C206.213 176.016 196.013 174.98 196.013 171.922C196.013 168.864 206.213 167.776 213.075 167.776C219.936 167.776 230.136 168.874 230.136 171.922C230.136 174.969 219.936 176.016 213.075 176.016ZM213.075 168.854C203.29 168.854 197.049 170.668 197.049 171.963C197.049 173.259 203.269 175.021 213.075 175.021C222.88 175.021 229.1 173.207 229.1 171.963C229.1 170.719 222.86 168.854 213.075 168.854Z" fill="black"/>
<path d="M226.715 163.298V169.797C226.715 171.777 219.314 173.383 210.131 173.383C200.947 173.383 193.546 171.777 193.546 169.797V163.298H226.715Z" fill="white"/>
<path d="M210.193 173.902C203.331 173.902 193.121 172.813 193.121 169.755V163.256C193.121 163.119 193.176 162.987 193.273 162.89C193.37 162.793 193.502 162.738 193.639 162.738H226.736C226.874 162.738 227.006 162.793 227.103 162.89C227.2 162.987 227.255 163.119 227.255 163.256V169.755C227.234 172.813 217.034 173.902 210.193 173.902ZM194.158 163.816V169.797C194.158 171.051 200.377 172.907 210.193 172.907C220.009 172.907 226.218 171.093 226.218 169.797V163.816H194.158Z" fill="black"/>
<path d="M210.172 166.885C219.309 166.885 226.715 165.279 226.715 163.298C226.715 161.317 219.309 159.712 210.172 159.712C201.036 159.712 193.629 161.317 193.629 163.298C193.629 165.279 201.036 166.885 210.172 166.885Z" fill="white"/>
<path d="M210.193 167.392C203.331 167.392 193.121 166.304 193.121 163.298C193.121 160.292 203.331 159.152 210.193 159.152C217.055 159.152 227.255 160.25 227.255 163.298C227.255 166.345 217.034 167.392 210.193 167.392ZM210.193 160.23C200.408 160.23 194.158 162.044 194.158 163.339C194.158 164.635 200.377 166.397 210.193 166.397C220.009 166.397 226.218 164.583 226.218 163.339C226.218 162.095 219.957 160.23 210.193 160.23Z" fill="black"/>
<path d="M210.193 165.599C208.255 165.599 198.584 165.485 198.584 163.298C198.584 161.111 208.255 160.997 210.193 160.997C212.131 160.997 221.802 161.1 221.802 163.298C221.802 165.495 212.111 165.599 210.193 165.599ZM199.693 163.298C200.449 163.847 204.336 164.562 210.193 164.562C216.049 164.562 219.936 163.847 220.683 163.298C219.936 162.748 216.049 162.033 210.193 162.033C204.336 162.033 200.429 162.748 199.672 163.298H199.693Z" fill="#D1D3D4"/>
<path d="M76.3538 185.594V192.093C76.3538 194.073 68.9528 195.68 59.769 195.68C50.5852 195.68 43.3086 194.052 43.3086 192.093V185.594H76.3538Z" fill="white"/>
<path d="M59.8104 196.198C52.9485 196.198 42.7488 195.099 42.7488 192.052V185.552C42.7488 185.415 42.8034 185.283 42.9006 185.186C42.9978 185.089 43.1297 185.034 43.2671 185.034H76.3537C76.4912 185.034 76.623 185.089 76.7202 185.186C76.8174 185.283 76.872 185.415 76.872 185.552V192.052C76.872 195.089 66.6724 196.198 59.8104 196.198ZM43.7854 186.112V192.093C43.7854 193.347 50.0047 195.203 59.8104 195.203C69.6162 195.203 75.8355 193.389 75.8355 192.093V186.112H43.7854Z" fill="black"/>
<path d="M59.8105 189.18C68.9471 189.18 76.3538 187.575 76.3538 185.594C76.3538 183.613 68.9471 182.008 59.8105 182.008C50.6738 182.008 43.2672 183.613 43.2672 185.594C43.2672 187.575 50.6738 189.18 59.8105 189.18Z" fill="white"/>
<path d="M59.8104 189.688C52.9485 189.688 42.7488 188.652 42.7488 185.594C42.7488 182.536 52.9485 181.448 59.8104 181.448C66.6724 181.448 76.872 182.536 76.872 185.594C76.872 188.652 66.6724 189.688 59.8104 189.688ZM59.8104 182.526C50.0254 182.526 43.7854 184.34 43.7854 185.635C43.7854 186.931 50.0047 188.693 59.8104 188.693C69.6162 188.693 75.8355 186.879 75.8355 185.635C75.8355 184.392 69.5954 182.526 59.8104 182.526Z" fill="black"/>
<path d="M59.8105 187.895C57.8721 187.895 48.2011 187.781 48.2011 185.594C48.2011 183.407 57.8721 183.293 59.8105 183.293C61.7488 183.293 71.4198 183.397 71.4198 185.594C71.4198 187.792 61.7488 187.895 59.8105 187.895ZM49.3206 185.594C50.0669 186.143 53.954 186.859 59.8105 186.859C65.667 186.859 69.554 186.143 70.3003 185.594C69.554 185.045 65.667 184.33 59.8105 184.33C53.954 184.33 50.0669 185.045 49.3206 185.594Z" fill="#D1D3D4"/>
<path d="M210.348 180.898V187.408C210.348 189.388 202.937 190.984 193.764 190.984C184.59 190.984 177.179 189.388 177.179 187.408V180.898H210.348Z" fill="white"/>
<path d="M193.795 191.502C186.933 191.502 176.733 190.466 176.733 187.408V180.898C176.733 180.761 176.788 180.629 176.885 180.532C176.982 180.435 177.114 180.38 177.251 180.38H210.348C210.485 180.383 210.615 180.438 210.712 180.535C210.809 180.631 210.864 180.762 210.867 180.898V187.408C210.867 190.414 200.657 191.502 193.795 191.502ZM177.77 181.417V187.408C177.77 188.652 183.989 190.466 193.795 190.466C203.6 190.466 209.83 188.652 209.83 187.408V181.417H177.77Z" fill="black"/>
<path d="M193.795 184.485C202.931 184.485 210.338 182.879 210.338 180.898C210.338 178.918 202.931 177.312 193.795 177.312C184.658 177.312 177.251 178.918 177.251 180.898C177.251 182.879 184.658 184.485 193.795 184.485Z" fill="white"/>
<path d="M193.795 185.003C186.933 185.003 176.733 183.905 176.733 180.857C176.733 177.81 186.933 176.763 193.795 176.763C200.657 176.763 210.867 177.799 210.867 180.857C210.867 183.915 200.657 185.003 193.795 185.003ZM193.795 177.841C184.01 177.841 177.77 179.655 177.77 180.899C177.77 182.142 183.989 184.008 193.795 184.008C203.6 184.008 209.83 182.194 209.83 180.899C209.83 179.603 203.58 177.841 193.795 177.841Z" fill="black"/>
<path d="M193.795 183.199C191.856 183.199 182.196 183.096 182.196 180.898C182.196 178.701 191.856 178.597 193.795 178.597C195.733 178.597 205.404 178.711 205.404 180.898C205.404 183.085 195.733 183.199 193.795 183.199ZM183.305 180.898C184.051 181.448 187.938 182.163 193.795 182.163C199.651 182.163 203.549 181.448 204.295 180.898C203.538 180.349 199.651 179.634 193.795 179.634C187.938 179.634 184.051 180.349 183.305 180.898Z" fill="#D1D3D4"/>
<path d="M237.06 186.185V192.694C237.06 194.674 229.649 196.27 220.475 196.27C211.302 196.27 203.891 194.674 203.891 192.694V186.185H237.06Z" fill="white"/>
<path d="M220.558 196.789C213.696 196.789 203.486 195.752 203.486 192.694V186.185C203.489 186.048 203.545 185.918 203.641 185.821C203.738 185.725 203.868 185.669 204.005 185.667H237.102C237.239 185.667 237.371 185.721 237.468 185.818C237.565 185.915 237.62 186.047 237.62 186.185V192.694C237.579 195.7 227.369 196.789 220.558 196.789ZM204.523 186.703V192.694C204.523 193.938 210.742 195.752 220.558 195.752C230.375 195.752 236.583 193.938 236.583 192.694V186.703H204.523Z" fill="black"/>
<path d="M220.517 189.771C229.654 189.771 237.06 188.165 237.06 186.185C237.06 184.204 229.654 182.598 220.517 182.598C211.38 182.598 203.974 184.204 203.974 186.185C203.974 188.165 211.38 189.771 220.517 189.771Z" fill="white"/>
<path d="M220.558 190.289C213.696 190.289 203.486 189.191 203.486 186.143C203.486 183.096 213.696 182.049 220.558 182.049C227.42 182.049 237.62 183.085 237.62 186.143C237.62 189.201 227.369 190.289 220.558 190.289ZM220.558 183.127C210.773 183.127 204.523 184.941 204.523 186.185C204.523 187.429 210.742 189.294 220.558 189.294C230.375 189.294 236.583 187.48 236.583 186.185C236.583 184.889 230.292 183.127 220.558 183.127Z" fill="black"/>
<path d="M220.558 188.486C218.61 188.486 208.949 188.382 208.949 186.185C208.949 183.987 218.61 183.884 220.558 183.884C222.507 183.884 232.157 183.998 232.157 186.185C232.157 188.372 222.455 188.486 220.558 188.486ZM210.058 186.185C210.804 186.734 214.702 187.45 220.558 187.45C226.415 187.45 230.302 186.734 231.048 186.185C230.302 185.636 226.405 184.92 220.558 184.92C214.712 184.92 210.763 185.636 210.017 186.185H210.058Z" fill="#D1D3D4"/>
</svg>
