<svg width="296" height="242" viewBox="0 0 296 242" fill="none" xmlns="http://www.w3.org/2000/svg">
<path d="M295.574 211.473H2.73338C2.65629 211.495 2.57513 211.499 2.49631 211.484C2.41748 211.47 2.34314 211.437 2.27913 211.388C2.21512 211.34 2.16319 211.278 2.12743 211.206C2.09167 211.134 2.07306 211.055 2.07306 210.974C2.07306 210.894 2.09167 210.815 2.12743 210.743C2.16319 210.671 2.21512 210.609 2.27913 210.56C2.34314 210.512 2.41748 210.479 2.49631 210.464C2.57513 210.45 2.65629 210.453 2.73338 210.476H295.624C295.732 210.506 295.828 210.572 295.895 210.662C295.963 210.752 296 210.862 296 210.974C296 211.087 295.963 211.197 295.895 211.287C295.828 211.377 295.732 211.442 295.624 211.473H295.574Z" fill="#D1D3D4"/>
<path d="M278.509 7.70166H19.7988V159.019H278.509V7.70166Z" fill="white"/>
<path d="M278.519 159.537H19.7988C19.7308 159.537 19.6634 159.524 19.6006 159.498C19.5377 159.472 19.4806 159.434 19.4325 159.386C19.3844 159.337 19.3462 159.28 19.3202 159.217C19.2942 159.154 19.2808 159.087 19.2808 159.019V7.70137C19.2808 7.56379 19.3353 7.43184 19.4325 7.33455C19.5296 7.23727 19.6614 7.18262 19.7988 7.18262H278.519C278.587 7.1826 278.654 7.19608 278.716 7.22228C278.778 7.24847 278.835 7.28684 278.882 7.33514C278.929 7.38345 278.966 7.44072 278.991 7.50361C279.016 7.56649 279.028 7.63372 279.027 7.70137V159.019C279.027 159.155 278.974 159.285 278.879 159.382C278.784 159.479 278.655 159.535 278.519 159.537ZM20.3168 158.54H277.991V8.22013H20.3069L20.3168 158.54Z" fill="#D1D3D4"/>
<path d="M278.509 0.518555H19.7988V7.70134H278.509V0.518555Z" fill="white"/>
<path d="M278.519 8.2203H19.7987C19.6614 8.2203 19.5296 8.16564 19.4324 8.06836C19.3353 7.97107 19.2807 7.83912 19.2807 7.70154V0.518757C19.2807 0.381174 19.3353 0.249223 19.4324 0.151938C19.5296 0.0546519 19.6614 9.40513e-09 19.7987 9.40513e-09H278.519C278.587 -1.29988e-05 278.653 0.0134677 278.716 0.0396579C278.778 0.0658481 278.834 0.104221 278.882 0.152528C278.929 0.200834 278.966 0.258105 278.991 0.320989C279.016 0.383873 279.028 0.451108 279.027 0.518757V7.70154C279.027 7.83741 278.974 7.96787 278.879 8.06488C278.784 8.16188 278.655 8.21768 278.519 8.2203ZM20.3168 7.22269H277.991V1.02754H20.3068L20.3168 7.22269Z" fill="#D1D3D4"/>
<path d="M157.597 102.774H143.53V147.986H157.597V102.774Z" fill="white"/>
<path d="M157.597 148.494H143.53C143.463 148.495 143.395 148.483 143.333 148.458C143.27 148.433 143.213 148.396 143.164 148.349C143.116 148.301 143.078 148.245 143.052 148.182C143.026 148.12 143.012 148.053 143.012 147.985V102.774C143.012 102.636 143.067 102.504 143.164 102.407C143.261 102.31 143.393 102.255 143.53 102.255H157.597C157.734 102.255 157.866 102.31 157.963 102.407C158.06 102.504 158.115 102.636 158.115 102.774V147.985C158.115 148.053 158.102 148.12 158.075 148.182C158.049 148.245 158.011 148.301 157.963 148.349C157.914 148.396 157.857 148.433 157.794 148.458C157.732 148.483 157.664 148.495 157.597 148.494ZM144.048 147.496H157.089V103.282H144.028L144.048 147.496Z" fill="#D1D3D4"/>
<path d="M89.8535 159.019C89.8535 159.019 92.9318 141.86 104.508 137.151C116.084 132.443 122.37 142.139 122.37 142.139C122.37 142.139 125.359 126.178 143.749 126.178C162.14 126.178 166.384 138.728 166.384 138.728C166.384 138.728 170.159 131.146 178.458 131.665C186.756 132.183 188.022 142.638 188.022 142.638C190.437 141.566 193.05 141.012 195.693 141.012C198.335 141.012 200.948 141.566 203.364 142.638C211.333 146.349 214.691 159.069 214.691 159.069L89.8535 159.019Z" fill="white"/>
<path d="M214.691 159.538H89.8535C89.7773 159.537 89.7023 159.519 89.6335 159.487C89.5647 159.454 89.5038 159.407 89.455 159.348C89.3647 159.228 89.3253 159.078 89.3454 158.929C89.4749 158.211 92.613 141.431 104.289 136.672C107.314 135.305 110.709 134.985 113.936 135.764C117.163 136.543 120.039 138.375 122.111 140.972C123.197 137.361 127.939 125.649 143.729 125.649C159.241 125.649 164.969 134.627 166.433 137.62C167.778 135.575 171.694 130.727 178.478 131.166C185.83 131.625 187.932 139.486 188.44 141.87C190.855 140.885 193.444 140.402 196.05 140.45C198.657 140.498 201.226 141.076 203.603 142.149C211.702 145.91 215.059 158.38 215.199 158.909C215.219 158.984 215.222 159.063 215.206 159.139C215.19 159.216 215.157 159.287 215.109 159.348C215.06 159.412 214.997 159.462 214.924 159.495C214.851 159.528 214.771 159.543 214.691 159.538ZM90.4811 158.54H214.013C213.206 155.936 209.809 146.19 203.164 143.097C200.809 142.062 198.265 141.528 195.693 141.528C193.121 141.528 190.576 142.062 188.221 143.097C188.149 143.136 188.069 143.157 187.987 143.157C187.905 143.157 187.825 143.136 187.753 143.097C187.68 143.058 187.618 143.003 187.571 142.935C187.525 142.867 187.495 142.79 187.484 142.708C187.484 142.608 186.169 132.732 178.398 132.223C170.628 131.714 166.852 138.927 166.822 138.997C166.774 139.086 166.702 139.16 166.614 139.21C166.526 139.259 166.425 139.282 166.324 139.276C166.224 139.271 166.127 139.237 166.047 139.176C165.967 139.115 165.908 139.032 165.876 138.937C165.826 138.807 161.472 126.726 143.719 126.726C136.288 126.726 130.519 129.33 126.574 134.468C124.802 136.777 123.53 139.43 122.839 142.259C122.821 142.359 122.773 142.452 122.702 142.525C122.631 142.598 122.54 142.648 122.44 142.668C122.339 142.69 122.233 142.68 122.137 142.641C122.042 142.602 121.96 142.535 121.902 142.449C120.044 139.756 117.3 137.803 114.15 136.929C111 136.056 107.644 136.318 104.667 137.67C94.745 141.68 91.1685 155.438 90.4811 158.5V158.54Z" fill="#D1D3D4"/>
<path d="M158.015 109.947H142.743L140.91 102.604H159.848L158.015 109.947Z" fill="white"/>
<path d="M157.976 110.465H142.743C142.629 110.466 142.517 110.428 142.426 110.358C142.336 110.287 142.272 110.188 142.245 110.076L140.412 102.734C140.392 102.657 140.389 102.577 140.405 102.499C140.42 102.421 140.453 102.348 140.502 102.285C140.552 102.225 140.614 102.177 140.685 102.144C140.755 102.111 140.832 102.095 140.91 102.095H159.838C159.916 102.095 159.993 102.111 160.064 102.144C160.134 102.177 160.197 102.225 160.247 102.285C160.293 102.349 160.325 102.422 160.341 102.499C160.356 102.577 160.355 102.657 160.337 102.734L158.504 110.076C158.476 110.193 158.407 110.296 158.311 110.367C158.214 110.439 158.095 110.473 157.976 110.465ZM143.102 109.468H157.577L159.151 103.153H141.568L143.102 109.468Z" fill="#D1D3D4"/>
<path d="M133.259 79.6689C133.259 79.6689 125.289 84.657 122.47 93.0269C119.651 101.397 126.036 117.518 126.036 117.518L140.591 101.716L133.259 79.6689Z" fill="white"/>
<path d="M126.036 118.037H125.937C125.851 118.021 125.772 117.984 125.705 117.928C125.639 117.872 125.588 117.799 125.558 117.718C125.289 117.049 119.182 101.307 121.992 92.8773C124.801 84.4475 132.651 79.4495 132.95 79.24C133.018 79.2058 133.093 79.188 133.169 79.188C133.246 79.188 133.321 79.2058 133.389 79.24C133.463 79.2651 133.53 79.3069 133.585 79.3623C133.641 79.4177 133.682 79.4851 133.707 79.5593L141.04 101.547C141.07 101.635 141.075 101.73 141.056 101.821C141.037 101.912 140.993 101.997 140.93 102.065L126.365 117.867C126.324 117.916 126.274 117.956 126.218 117.985C126.161 118.014 126.1 118.032 126.036 118.037ZM133.01 80.4771C131.177 81.774 125.249 86.3729 122.978 93.1966C120.637 100.25 125.04 113.259 126.236 116.561L140.033 101.596L133.01 80.4771Z" fill="#D1D3D4"/>
<path d="M167.868 79.6689C167.868 79.6689 175.838 84.657 178.657 93.0269C181.477 101.397 175.091 117.518 175.091 117.518L160.536 101.716L167.868 79.6689Z" fill="white"/>
<path d="M175.101 118.037C175.029 118.038 174.958 118.024 174.892 117.995C174.827 117.965 174.769 117.922 174.722 117.868L160.157 102.065C160.094 101.997 160.051 101.912 160.031 101.821C160.012 101.73 160.018 101.635 160.048 101.547L167.38 79.5095C167.405 79.4353 167.447 79.3679 167.502 79.3125C167.557 79.2571 167.625 79.2153 167.699 79.1902C167.767 79.156 167.842 79.1382 167.918 79.1382C167.994 79.1382 168.069 79.156 168.137 79.1902C168.476 79.3997 176.336 84.3977 179.145 92.8275C181.955 101.257 175.838 117 175.579 117.668C175.546 117.749 175.493 117.821 175.425 117.877C175.357 117.933 175.276 117.971 175.19 117.987L175.101 118.037ZM161.153 101.587L174.951 116.551C176.147 113.249 180.55 100.23 178.209 93.1867C175.937 86.363 170.01 81.7641 168.187 80.4672L161.153 101.587Z" fill="#D1D3D4"/>
<path d="M163.465 105.387C167.45 95.8501 169.94 82.0232 169.94 66.6501C169.93 43.3559 157.109 31.195 152.227 27.3941C151.7 26.9791 151.05 26.7534 150.379 26.7534C149.709 26.7534 149.058 26.9791 148.531 27.3941C143.65 31.1551 130.808 43.296 130.808 66.6101C130.808 81.9833 133.319 95.8102 137.294 105.347C137.294 105.347 141.279 107.343 150.374 107.343C159.47 107.343 163.465 105.387 163.465 105.387Z" fill="#72B0F9"/>
<path d="M150.374 107.902C141.249 107.902 137.234 105.906 137.065 105.847C136.956 105.792 136.871 105.7 136.826 105.587C132.671 95.611 130.3 81.455 130.3 66.6804C130.3 43.4161 142.833 31.2154 148.232 27.0553C148.853 26.5756 149.615 26.3154 150.399 26.3154C151.183 26.3154 151.945 26.5756 152.566 27.0553C157.946 31.2154 170.498 43.4061 170.498 66.6804C170.498 81.4949 168.117 95.6809 163.973 105.587C163.924 105.698 163.84 105.789 163.734 105.847C163.524 105.926 159.51 107.902 150.374 107.902ZM137.692 104.999C138.529 105.358 142.534 106.874 150.374 106.874C158.215 106.874 162.229 105.358 163.066 104.999C167.111 95.202 169.432 81.2355 169.432 66.6504C169.432 43.8351 157.179 31.9037 151.918 27.8335C151.475 27.4992 150.935 27.3184 150.379 27.3184C149.824 27.3184 149.284 27.4992 148.84 27.8335C143.58 31.9137 131.326 43.7952 131.326 66.6504C131.326 81.2654 133.648 95.2319 137.692 104.999Z" fill="#D1D3D4"/>
<path d="M148.531 27.3941C142.548 32.1684 137.867 38.3796 134.923 45.4509H165.806C162.87 38.3829 158.2 32.172 152.227 27.3941C151.7 26.9791 151.05 26.7534 150.379 26.7534C149.709 26.7534 149.058 26.9791 148.531 27.3941Z" fill="white"/>
<path d="M165.836 46.01H134.953C134.868 46.0107 134.784 45.99 134.709 45.9499C134.635 45.9098 134.571 45.8516 134.524 45.7806C134.477 45.7092 134.448 45.6275 134.439 45.5423C134.431 45.4572 134.443 45.3712 134.475 45.2918C137.438 38.1378 142.164 31.8532 148.212 27.0255C148.833 26.5458 149.595 26.2856 150.379 26.2856C151.163 26.2856 151.925 26.5458 152.546 27.0255C158.605 31.8495 163.342 38.1345 166.314 45.2918C166.346 45.3712 166.358 45.4572 166.349 45.5423C166.34 45.6275 166.311 45.7092 166.264 45.7806C166.217 45.851 166.153 45.9087 166.078 45.9487C166.004 45.9887 165.92 46.0098 165.836 46.01ZM135.7 45.0124H165.049C162.142 38.3048 157.633 32.4157 151.918 27.8635C151.475 27.5293 150.935 27.3485 150.379 27.3485C149.824 27.3485 149.284 27.5293 148.84 27.8635C143.129 32.409 138.617 38.2867 135.7 44.9825V45.0124Z" fill="#D1D3D4"/>
<path d="M151.141 74.7709C157.733 74.7709 163.076 69.4201 163.076 62.8195C163.076 56.219 157.733 50.8682 151.141 50.8682C144.55 50.8682 139.207 56.219 139.207 62.8195C139.207 69.4201 144.55 74.7709 151.141 74.7709Z" fill="white"/>
<path d="M151.141 75.2796C148.678 75.2796 146.271 74.5482 144.223 73.178C142.175 71.8078 140.579 69.8602 139.636 67.5816C138.694 65.303 138.447 62.7956 138.928 60.3767C139.408 57.9577 140.594 55.7357 142.336 53.9918C144.077 52.2478 146.296 51.0601 148.712 50.579C151.128 50.0978 153.631 50.3448 155.907 51.2886C158.182 52.2324 160.127 53.8308 161.496 55.8815C162.864 57.9322 163.594 60.3431 163.594 62.8095C163.592 66.1159 162.279 69.2862 159.944 71.6243C157.609 73.9623 154.443 75.2769 151.141 75.2796ZM151.141 51.337C148.881 51.337 146.671 52.0083 144.792 53.2661C142.913 54.5239 141.448 56.3115 140.584 58.403C139.719 60.4944 139.493 62.7956 139.935 65.0156C140.377 67.2355 141.466 69.2743 143.065 70.8742C144.664 72.4741 146.701 73.5631 148.918 74.0035C151.135 74.4439 153.433 74.2158 155.521 73.3482C157.609 72.4807 159.393 71.0125 160.647 69.1294C161.902 67.2464 162.57 65.0331 162.568 62.7696C162.552 59.7452 161.341 56.8501 159.2 54.7171C157.059 52.5841 154.162 51.3868 151.141 51.3869V51.337Z" fill="#D1D3D4"/>
<path d="M151.141 70.1919C155.207 70.1919 158.504 66.8912 158.504 62.8196C158.504 58.748 155.207 55.4473 151.141 55.4473C147.075 55.4473 143.779 58.748 143.779 62.8196C143.779 66.8912 147.075 70.1919 151.141 70.1919Z" fill="white"/>
<path d="M151.141 70.7104C149.583 70.7104 148.059 70.2476 146.763 69.3805C145.468 68.5134 144.458 67.281 143.861 65.8391C143.265 64.3972 143.109 62.8106 143.413 61.2798C143.717 59.7491 144.467 58.3431 145.569 57.2395C146.671 56.1359 148.075 55.3843 149.604 55.0799C151.133 54.7754 152.717 54.9316 154.157 55.5289C155.597 56.1262 156.828 57.1376 157.694 58.4353C158.559 59.7329 159.022 61.2586 159.022 62.8193C159.022 64.9122 158.191 66.9193 156.714 68.3992C155.236 69.879 153.231 70.7104 151.141 70.7104ZM151.141 55.9657C149.785 55.9657 148.46 56.3685 147.332 57.1232C146.205 57.8778 145.327 58.9503 144.808 60.205C144.29 61.4598 144.155 62.8403 144.42 64.172C144.685 65.5036 145.339 66.7266 146.298 67.6861C147.258 68.6456 148.48 69.2985 149.81 69.5622C151.141 69.8259 152.519 69.6885 153.771 69.1675C155.023 68.6465 156.093 67.7652 156.845 66.6352C157.597 65.5052 157.997 64.1772 157.995 62.8193C157.993 61.0007 157.27 59.2575 155.984 57.9725C154.699 56.6875 152.957 55.9657 151.141 55.9657Z" fill="#D1D3D4"/>
<path d="M156.979 62.64C156.859 62.6392 156.743 62.5956 156.652 62.517C156.56 62.4385 156.5 62.33 156.481 62.2111C156.401 60.8754 155.799 59.6249 154.806 58.7305C153.812 57.8361 152.506 57.3698 151.171 57.4325C151.106 57.4371 151.04 57.4287 150.978 57.4079C150.916 57.3871 150.858 57.3542 150.809 57.3111C150.709 57.2241 150.648 57.1009 150.638 56.9686C150.629 56.8363 150.673 56.7058 150.76 56.6057C150.846 56.5056 150.969 56.4442 151.102 56.4349C152.683 56.3728 154.228 56.9242 155.414 57.9742C156.6 59.0242 157.335 60.4918 157.467 62.0714C157.485 62.2008 157.45 62.3318 157.372 62.4363C157.294 62.5407 157.178 62.6103 157.049 62.6301L156.979 62.64Z" fill="#D1D3D4"/>
<path d="M148.551 58.1405C148.475 58.1417 148.399 58.1252 148.33 58.0924C148.261 58.0595 148.2 58.0111 148.153 57.951C148.075 57.8455 148.041 57.7139 148.057 57.5838C148.074 57.4537 148.14 57.335 148.242 57.2527C148.671 56.9354 149.17 56.7266 149.697 56.6441C149.762 56.6358 149.829 56.6406 149.892 56.6582C149.956 56.6758 150.016 56.7059 150.068 56.7467C150.119 56.7876 150.163 56.8383 150.195 56.8961C150.227 56.9538 150.247 57.0174 150.255 57.0831C150.269 57.2136 150.233 57.3445 150.153 57.4486C150.073 57.5528 149.956 57.6219 149.826 57.6417C149.467 57.6939 149.126 57.8307 148.83 58.0408C148.75 58.1034 148.653 58.1384 148.551 58.1405Z" fill="#D1D3D4"/>
<path d="M162.02 102.355C161.968 102.365 161.913 102.365 161.861 102.355C161.735 102.313 161.631 102.224 161.572 102.106C161.512 101.989 161.501 101.852 161.542 101.726C163.602 95.1817 165.265 88.5189 166.523 81.7739C166.534 81.7092 166.557 81.6473 166.593 81.592C166.628 81.5366 166.674 81.4889 166.728 81.4517C166.781 81.4144 166.842 81.3884 166.906 81.3752C166.971 81.362 167.037 81.3619 167.101 81.3748C167.23 81.3991 167.345 81.4735 167.419 81.5819C167.494 81.6903 167.523 81.8239 167.499 81.9535C166.245 88.7516 164.581 95.4678 162.518 102.065C162.475 102.159 162.404 102.237 162.315 102.289C162.226 102.341 162.123 102.364 162.02 102.355Z" fill="white"/>
<path d="M152.267 120.92C152.135 120.92 152.008 120.867 151.915 120.774C151.822 120.68 151.769 120.553 151.769 120.421V110.954C151.769 110.822 151.822 110.695 151.915 110.601C152.008 110.508 152.135 110.455 152.267 110.455C152.399 110.455 152.526 110.508 152.619 110.601C152.713 110.695 152.765 110.822 152.765 110.954V120.421C152.765 120.553 152.713 120.68 152.619 120.774C152.526 120.867 152.399 120.92 152.267 120.92Z" fill="#D1D3D4"/>
<path d="M147.166 125.878C147.035 125.876 146.91 125.823 146.817 125.73C146.724 125.637 146.671 125.511 146.668 125.38V115.473C146.671 115.342 146.724 115.217 146.817 115.124C146.91 115.031 147.035 114.977 147.166 114.975C147.299 114.975 147.425 115.027 147.519 115.121C147.612 115.214 147.665 115.341 147.665 115.473V125.38C147.665 125.512 147.612 125.639 147.519 125.732C147.425 125.826 147.299 125.878 147.166 125.878Z" fill="#D1D3D4"/>
<path d="M116.742 150.28H116.652C116.587 150.268 116.525 150.243 116.47 150.207C116.414 150.171 116.367 150.124 116.33 150.069C116.293 150.015 116.267 149.953 116.254 149.888C116.241 149.823 116.24 149.756 116.253 149.691C116.253 149.492 117.25 144.594 121.583 142.329C124.721 140.683 128.736 140.902 133.538 142.987C133.605 143.009 133.666 143.043 133.719 143.09C133.771 143.136 133.813 143.193 133.842 143.257C133.871 143.321 133.886 143.39 133.887 143.46C133.887 143.53 133.873 143.6 133.845 143.664C133.816 143.728 133.775 143.786 133.723 143.833C133.671 143.88 133.61 143.915 133.544 143.937C133.477 143.959 133.407 143.967 133.337 143.959C133.267 143.952 133.2 143.93 133.14 143.895C128.647 141.9 124.921 141.711 122.061 143.207C118.196 145.202 117.25 149.841 117.24 149.891C117.216 150.004 117.153 150.106 117.062 150.177C116.971 150.248 116.857 150.285 116.742 150.28Z" fill="#D1D3D4"/>
<path d="M173.327 144.344C173.257 144.343 173.189 144.328 173.125 144.299C173.062 144.269 173.005 144.227 172.959 144.174C165.876 136.333 160.516 139.526 160.466 139.556C160.411 139.592 160.349 139.616 160.284 139.628C160.219 139.639 160.153 139.638 160.088 139.623C160.024 139.608 159.964 139.58 159.91 139.541C159.857 139.502 159.812 139.453 159.779 139.396C159.712 139.282 159.692 139.146 159.724 139.017C159.756 138.889 159.836 138.778 159.948 138.708C160.187 138.558 166.065 135.056 173.696 143.506C173.743 143.552 173.78 143.608 173.805 143.668C173.83 143.729 173.843 143.794 173.843 143.86C173.843 143.926 173.83 143.991 173.805 144.052C173.78 144.113 173.743 144.168 173.696 144.214C173.593 144.301 173.462 144.348 173.327 144.344Z" fill="#D1D3D4"/>
<path d="M207.588 44.0445H179.355C179.222 44.0445 179.096 43.9919 179.002 43.8984C178.909 43.8048 178.856 43.678 178.856 43.5457C178.856 43.4134 178.909 43.2865 179.002 43.193C179.096 43.0994 179.222 43.0469 179.355 43.0469H207.588C207.72 43.0469 207.846 43.0994 207.94 43.193C208.033 43.2865 208.086 43.4134 208.086 43.5457C208.086 43.678 208.033 43.8048 207.94 43.8984C207.846 43.9919 207.72 44.0445 207.588 44.0445Z" fill="#D1D3D4"/>
<path d="M207.588 50.459H179.355C179.222 50.459 179.096 50.4065 179.002 50.3129C178.909 50.2194 178.856 50.0925 178.856 49.9602C178.859 49.8287 178.912 49.7033 179.005 49.6103C179.098 49.5173 179.223 49.464 179.355 49.4614H207.588C207.72 49.4614 207.846 49.514 207.94 49.6075C208.033 49.7011 208.086 49.8279 208.086 49.9602C208.086 50.0925 208.033 50.2194 207.94 50.3129C207.846 50.4065 207.72 50.459 207.588 50.459Z" fill="#D1D3D4"/>
<path d="M207.588 56.8838H179.355C179.223 56.8813 179.098 56.8279 179.005 56.7349C178.912 56.6419 178.859 56.5165 178.856 56.385C178.856 56.2527 178.909 56.1259 179.002 56.0323C179.096 55.9388 179.222 55.8862 179.355 55.8862H207.588C207.72 55.8862 207.846 55.9388 207.94 56.0323C208.033 56.1259 208.086 56.2527 208.086 56.385C208.086 56.5173 208.033 56.6442 207.94 56.7377C207.846 56.8313 207.72 56.8838 207.588 56.8838Z" fill="#D1D3D4"/>
<path d="M197.576 63.3082H179.355C179.222 63.3082 179.096 63.2556 179.002 63.1621C178.909 63.0685 178.856 62.9416 178.856 62.8094C178.856 62.6771 178.909 62.5502 179.002 62.4566C179.096 62.3631 179.222 62.3105 179.355 62.3105H197.576C197.708 62.3105 197.834 62.3631 197.928 62.4566C198.021 62.5502 198.074 62.6771 198.074 62.8094C198.074 62.9416 198.021 63.0685 197.928 63.1621C197.834 63.2556 197.708 63.3082 197.576 63.3082Z" fill="#D1D3D4"/>
<path d="M155.176 124.601C155.045 124.599 154.92 124.545 154.827 124.452C154.734 124.359 154.681 124.234 154.678 124.102V119.982C154.678 119.85 154.73 119.723 154.824 119.63C154.917 119.536 155.044 119.483 155.176 119.483C155.308 119.483 155.435 119.536 155.528 119.63C155.622 119.723 155.674 119.85 155.674 119.982V124.102C155.674 124.235 155.622 124.361 155.528 124.455C155.435 124.549 155.308 124.601 155.176 124.601Z" fill="#D1D3D4"/>
<path d="M123.566 53.6715H83.3282C83.1961 53.6715 83.0694 53.6189 82.976 53.5254C82.8825 53.4319 82.8301 53.305 82.8301 53.1727V29.5393C82.8326 29.4078 82.8859 29.2824 82.9788 29.1894C83.0717 29.0965 83.1969 29.0431 83.3282 29.0405C83.4603 29.0405 83.587 29.0931 83.6804 29.1866C83.7738 29.2802 83.8263 29.407 83.8263 29.5393V52.6739H123.566C123.698 52.6739 123.825 52.7264 123.918 52.82C124.011 52.9135 124.064 53.0404 124.064 53.1727C124.064 53.305 124.011 53.4319 123.918 53.5254C123.825 53.6189 123.698 53.6715 123.566 53.6715Z" fill="#D1D3D4"/>
<path d="M87.7016 50.03C87.6557 50.0403 87.6081 50.0403 87.5621 50.03C87.4353 49.993 87.3284 49.907 87.2649 49.791C87.2013 49.675 87.1864 49.5385 87.2234 49.4115C87.333 49.0623 89.8933 40.842 95.9404 39.2458C99.3176 38.348 100.224 40.0339 101.101 41.6501C101.978 43.2662 102.685 44.583 105.424 44.7028H105.604C111.282 44.7028 115.745 32.103 115.785 31.9733C115.829 31.8476 115.921 31.7444 116.04 31.6864C116.099 31.6577 116.164 31.6409 116.229 31.6371C116.295 31.6332 116.361 31.6424 116.423 31.664C116.485 31.6856 116.542 31.7193 116.591 31.7631C116.641 31.8069 116.681 31.8599 116.709 31.9192C116.738 31.9785 116.755 32.0428 116.759 32.1086C116.762 32.1744 116.753 32.2402 116.732 32.3025C116.532 32.8611 111.98 45.7004 105.594 45.7004H105.385C102.077 45.5507 101.051 43.7051 100.224 42.1289C99.3973 40.5527 98.8095 39.5152 96.2393 40.2035C90.7202 41.66 88.2695 49.621 88.2196 49.7008C88.1824 49.8057 88.1111 49.8951 88.0173 49.9547C87.9234 50.0144 87.8123 50.0409 87.7016 50.03Z" fill="#D1D3D4"/>
<path d="M190.921 126.866C189.195 126.866 187.507 126.353 186.072 125.393C184.637 124.433 183.519 123.068 182.858 121.471C182.198 119.874 182.025 118.117 182.361 116.422C182.698 114.727 183.529 113.169 184.75 111.947C185.97 110.725 187.525 109.893 189.218 109.556C190.911 109.218 192.666 109.391 194.26 110.053C195.855 110.714 197.218 111.834 198.177 113.272C199.136 114.709 199.648 116.398 199.648 118.127C199.645 120.444 198.725 122.665 197.089 124.303C195.453 125.942 193.234 126.863 190.921 126.866ZM190.921 110.385C189.392 110.385 187.897 110.839 186.626 111.69C185.354 112.541 184.364 113.75 183.778 115.164C183.193 116.579 183.04 118.135 183.339 119.637C183.637 121.139 184.373 122.518 185.454 123.601C186.535 124.683 187.913 125.421 189.413 125.719C190.912 126.018 192.467 125.865 193.879 125.279C195.292 124.693 196.499 123.701 197.349 122.428C198.198 121.155 198.651 119.658 198.651 118.127C198.649 116.074 197.834 114.107 196.384 112.656C194.935 111.204 192.97 110.388 190.921 110.385Z" fill="#D1D3D4"/>
<path d="M197.705 123.284C197.605 123.284 197.508 123.252 197.426 123.195L190.642 118.536C190.574 118.492 190.518 118.431 190.479 118.36C190.441 118.288 190.422 118.208 190.423 118.127V109.886C190.425 109.755 190.478 109.63 190.571 109.537C190.664 109.444 190.789 109.39 190.921 109.388C191.053 109.388 191.18 109.44 191.273 109.534C191.366 109.627 191.419 109.754 191.419 109.886V117.867L197.994 122.377C198.081 122.438 198.147 122.525 198.181 122.626C198.215 122.726 198.216 122.836 198.183 122.937C198.151 123.039 198.087 123.127 198.001 123.189C197.915 123.252 197.811 123.285 197.705 123.284Z" fill="#D1D3D4"/>
<path d="M183.21 120.382C183.096 120.382 182.986 120.344 182.897 120.273C182.809 120.203 182.747 120.104 182.722 119.993C182.707 119.929 182.705 119.863 182.717 119.799C182.728 119.735 182.752 119.673 182.787 119.619C182.822 119.564 182.868 119.516 182.922 119.48C182.976 119.443 183.036 119.417 183.1 119.404L190.811 117.638C190.877 117.624 190.944 117.623 191.01 117.634C191.076 117.646 191.139 117.671 191.195 117.707C191.252 117.743 191.301 117.79 191.339 117.845C191.377 117.9 191.404 117.962 191.419 118.027C191.433 118.093 191.435 118.161 191.423 118.227C191.411 118.293 191.387 118.356 191.35 118.412C191.314 118.469 191.268 118.518 191.213 118.556C191.158 118.594 191.096 118.622 191.03 118.636L183.32 120.392L183.21 120.382Z" fill="#D1D3D4"/>
<path d="M112.846 119.503H101.071C100.939 119.503 100.812 119.451 100.719 119.357C100.625 119.264 100.573 119.137 100.573 119.005C100.573 118.872 100.625 118.745 100.719 118.652C100.812 118.558 100.939 118.506 101.071 118.506H112.846C112.978 118.506 113.105 118.558 113.199 118.652C113.292 118.745 113.345 118.872 113.345 119.005C113.345 119.137 113.292 119.264 113.199 119.357C113.105 119.451 112.978 119.503 112.846 119.503Z" fill="#D1D3D4"/>
<path d="M108.553 124.602H101.071C100.939 124.602 100.812 124.549 100.719 124.456C100.625 124.362 100.573 124.235 100.573 124.103C100.573 123.971 100.625 123.844 100.719 123.75C100.812 123.657 100.939 123.604 101.071 123.604H108.553C108.685 123.604 108.811 123.657 108.905 123.75C108.998 123.844 109.051 123.971 109.051 124.103C109.048 124.234 108.995 124.36 108.902 124.453C108.809 124.546 108.684 124.599 108.553 124.602Z" fill="#D1D3D4"/>
<path d="M227.99 53.2328C227.375 52.7793 226.888 52.1725 226.579 51.4725C226.269 50.7725 226.148 50.0037 226.227 49.2423C225.449 49.4125 224.637 49.321 223.917 48.9819C223.196 48.6428 222.608 48.0751 222.242 47.3668C221.548 45.9107 221.356 44.2654 221.694 42.688C220.482 42.0998 219.468 41.1677 218.78 40.0074C218.092 38.8471 217.76 37.51 217.825 36.1621C217.889 34.8143 218.348 33.5152 219.144 32.4265C219.94 31.3377 221.038 30.5073 222.302 30.0384C222.087 29.9411 221.899 29.7933 221.753 29.6074C221.607 29.4215 221.508 29.2032 221.465 28.9709C220.569 25.9781 222.342 22.6261 225.072 21.1397C226.471 20.4553 227.999 20.0772 229.555 20.0308C231.112 19.9843 232.66 20.2705 234.097 20.8703C234.016 20.4735 234.05 20.0617 234.195 19.6835C234.339 19.3053 234.589 18.9763 234.914 18.7354C235.572 18.2649 236.328 17.951 237.126 17.8176C241.131 16.9489 245.301 17.2502 249.14 18.6856C250.963 19.3739 252.966 20.7606 252.816 22.676C254.008 22.4726 255.232 22.6354 256.329 23.1431C257.426 23.6507 258.343 24.4793 258.961 25.5197C259.578 26.56 259.865 27.7632 259.786 28.9706C259.706 30.178 259.263 31.3329 258.515 32.283C259.414 33.1452 260.064 34.234 260.396 35.4349C260.729 36.6358 260.733 37.9044 260.407 39.1071C260.08 40.3098 259.436 41.4023 258.542 42.2694C257.649 43.1366 256.538 43.7465 255.327 44.0348C255.456 43.5859 256.144 43.9849 256.323 44.4139C257.509 47.4067 255.327 50.9083 252.547 52.5843C249.768 54.2603 245.723 54.5795 243.402 52.2451C243.414 53.0187 243.165 53.7737 242.695 54.3875C242.225 55.0014 241.561 55.4382 240.812 55.627C239.301 55.9676 237.729 55.923 236.239 55.4973C234.745 55.1881 233.41 54.38 231.965 54.0508C230.521 53.7216 229.295 54.1705 227.99 53.2328Z" fill="white"/>
<path d="M239.039 56.3251C238.049 56.2992 237.064 56.1721 236.1 55.9461C235.309 55.7563 234.536 55.4994 233.788 55.1779C233.143 54.9006 232.477 54.6738 231.796 54.4995C231.353 54.4131 230.903 54.3663 230.451 54.3599C229.484 54.4124 228.525 54.1575 227.711 53.6316C227.112 53.1901 226.62 52.6173 226.275 51.9569C225.93 51.2965 225.74 50.5659 225.719 49.8207C224.921 49.8578 224.129 49.6664 223.435 49.2689C222.742 48.8713 222.176 48.2842 221.804 47.5761C221.083 46.1437 220.849 44.5151 221.136 42.9372C219.959 42.2914 218.981 41.3361 218.306 40.1744C217.631 39.0126 217.286 37.6885 217.308 36.3447C217.329 35.0009 217.717 33.6885 218.428 32.5491C219.14 31.4096 220.148 30.4862 221.346 29.8785C221.182 29.6334 221.057 29.3641 220.977 29.0805C220.06 26.0876 221.744 22.3566 224.822 20.6706C226.164 19.9968 227.627 19.6009 229.125 19.5066C230.623 19.4124 232.124 19.6216 233.539 20.1219C233.66 19.4138 234.032 18.7729 234.585 18.3162C235.302 17.7955 236.131 17.4535 237.006 17.3186C241.104 16.4277 245.37 16.7324 249.3 18.1965C251.661 19.0844 253.105 20.5309 253.285 22.1371C254.497 22.0509 255.71 22.3073 256.784 22.877C257.859 23.4468 258.752 24.307 259.362 25.3599C259.972 26.4128 260.275 27.6161 260.236 28.8329C260.198 30.0497 259.819 31.2311 259.142 32.2429C259.948 33.1112 260.534 34.1601 260.852 35.3018C261.169 36.4434 261.209 37.6447 260.969 38.805C260.728 39.9654 260.213 41.0511 259.467 41.9713C258.721 42.8916 257.766 43.6196 256.682 44.0945C256.709 44.1423 256.732 44.1924 256.751 44.2441C258.066 47.606 255.685 51.2772 252.767 53.0131C250.137 54.5893 246.381 55.0881 243.8 53.2625C243.597 53.9411 243.227 54.5578 242.724 55.0562C242.221 55.5546 241.601 55.9189 240.921 56.1157C240.308 56.2794 239.673 56.35 239.039 56.3251ZM226.227 48.6735C226.34 48.6697 226.45 48.7089 226.536 48.7832C226.6 48.8357 226.65 48.9034 226.681 48.98C226.712 49.0566 226.724 49.1399 226.715 49.2222C226.645 49.9007 226.752 50.5858 227.026 51.2103C227.301 51.8347 227.732 52.3769 228.279 52.7836C228.942 53.2104 229.724 53.4132 230.511 53.3622C231.027 53.3677 231.541 53.4245 232.045 53.5318C232.767 53.7141 233.473 53.9543 234.157 54.2501C234.849 54.5519 235.565 54.7922 236.299 54.9684C237.706 55.3717 239.192 55.4197 240.623 55.1081C241.249 54.9569 241.808 54.6033 242.213 54.1019C242.618 53.6006 242.847 52.9795 242.864 52.3347C242.853 52.2315 242.874 52.1275 242.924 52.0366C242.974 51.9456 243.05 51.8721 243.143 51.8259C243.236 51.7816 243.341 51.7673 243.443 51.7852C243.545 51.8031 243.638 51.8522 243.711 51.9257C245.913 54.1304 249.688 53.7214 252.258 52.1851C254.829 50.6488 256.891 47.3766 255.815 44.6232C255.789 44.5666 255.751 44.5158 255.705 44.4736L255.417 44.5534C255.332 44.5742 255.243 44.5722 255.159 44.5477C255.075 44.5232 254.999 44.477 254.938 44.4137C254.879 44.3491 254.836 44.2703 254.815 44.1848C254.794 44.0993 254.796 44.0098 254.819 43.9249C254.861 43.7697 254.951 43.632 255.076 43.5316C255.202 43.4312 255.356 43.3733 255.516 43.3662C255.605 43.3517 255.696 43.3517 255.785 43.3662C256.768 43.0082 257.653 42.4233 258.367 41.6589C259.082 40.8946 259.607 39.9722 259.9 38.9668C260.185 37.8487 260.172 36.6752 259.863 35.5635C259.553 34.4519 258.958 33.441 258.136 32.6319C258.05 32.5444 257.998 32.4292 257.989 32.3069C257.98 32.1845 258.014 32.0629 258.086 31.9635C258.758 31.09 259.153 30.0347 259.219 28.9341C259.285 27.8335 259.02 26.7383 258.458 25.7904C257.895 24.8425 257.062 24.0855 256.065 23.6173C255.068 23.1492 253.954 22.9915 252.866 23.1646C252.792 23.175 252.717 23.1689 252.645 23.1467C252.574 23.1245 252.508 23.0868 252.453 23.0363C252.398 22.9858 252.355 22.9238 252.326 22.8545C252.298 22.7853 252.285 22.7107 252.288 22.6359C252.408 21.0198 250.635 19.7528 248.931 19.1143C245.184 17.7152 241.115 17.4209 237.205 18.2664C236.488 18.3845 235.807 18.6642 235.213 19.0844C234.968 19.2669 234.779 19.5133 234.664 19.7966C234.55 20.0799 234.516 20.3891 234.565 20.6906C234.591 20.7784 234.592 20.8718 234.567 20.96C234.542 21.0482 234.494 21.1276 234.426 21.1894C234.359 21.2518 234.276 21.2949 234.187 21.3142C234.098 21.3335 234.005 21.3283 233.918 21.2991C232.548 20.722 231.07 20.444 229.585 20.4836C228.099 20.5231 226.638 20.8794 225.301 21.5285C222.621 22.995 221.146 26.1874 221.933 28.7812C222.003 29.0206 222.172 29.4396 222.431 29.5194C222.532 29.5486 222.62 29.6086 222.685 29.6909C222.749 29.7733 222.786 29.8738 222.79 29.9783C222.791 30.0836 222.76 30.1867 222.702 30.274C222.643 30.3613 222.559 30.4287 222.461 30.4671C221.29 30.9028 220.272 31.6736 219.535 32.6837C218.797 33.6938 218.372 34.8987 218.313 36.1485C218.253 37.3984 218.562 38.6383 219.2 39.714C219.839 40.7897 220.779 41.6538 221.903 42.199C222.001 42.244 222.081 42.3207 222.13 42.4166C222.178 42.5126 222.193 42.6222 222.172 42.7277C221.845 44.1957 222.021 45.7312 222.671 47.0873C222.982 47.6978 223.485 48.1887 224.103 48.4844C224.72 48.7801 225.418 48.864 226.088 48.7234C226.133 48.712 226.18 48.7087 226.227 48.7134V48.6735Z" fill="black"/>
<path d="M221.943 64.9644C221.943 64.9644 204.928 95.5311 202.646 100.878C200.365 106.225 210.467 118.646 214.372 115.633C218.277 112.62 221.943 64.9644 221.943 64.9644Z" fill="#72B0F9"/>
<path d="M254.55 224.382C254.55 224.382 255.217 228.871 254.211 230.597C252.843 233.049 252.04 235.776 251.86 238.578C252.654 239.497 253.631 240.238 254.73 240.754C255.828 241.27 257.023 241.548 258.236 241.571C262.271 241.571 266.295 238.458 266.744 236.962C267.192 235.466 263.496 219.574 263.496 219.574L254.55 224.382Z" fill="white"/>
<path d="M258.236 242C256.953 241.98 255.688 241.687 254.527 241.14C253.366 240.593 252.335 239.805 251.501 238.828C251.465 238.782 251.438 238.729 251.422 238.672C251.407 238.616 251.403 238.556 251.412 238.498C251.592 235.641 252.416 232.861 253.823 230.368C254.58 229.071 254.281 225.649 254.102 224.452C254.085 224.36 254.098 224.264 254.139 224.18C254.18 224.095 254.247 224.026 254.331 223.983L263.297 219.145C263.36 219.113 263.43 219.097 263.501 219.097C263.572 219.097 263.642 219.113 263.705 219.145C263.767 219.175 263.823 219.219 263.867 219.272C263.912 219.325 263.945 219.387 263.964 219.454C264.582 222.138 267.66 235.545 267.202 237.082C266.744 238.618 262.48 242 258.236 242ZM252.338 238.399C253.088 239.224 253.997 239.887 255.011 240.348C256.025 240.81 257.122 241.059 258.236 241.082C262.091 241.082 265.937 238.089 266.305 236.802C266.564 235.925 264.921 227.724 263.187 220.222L255.038 224.632C255.177 225.719 255.526 229.241 254.6 230.827C253.298 233.153 252.526 235.739 252.338 238.399Z" fill="black"/>
<path d="M226.815 115.433L246.211 120.96L250.704 63.2384C250.704 63.2384 234.645 59.3178 230.78 61.1634C226.914 63.009 226.815 115.433 226.815 115.433Z" fill="black"/>
<path d="M246.211 121.459H246.072L226.715 115.912C226.61 115.884 226.517 115.821 226.45 115.735C226.384 115.648 226.347 115.542 226.347 115.433C226.347 106.624 226.626 62.56 230.581 60.7144C234.536 58.8688 250.186 62.5899 250.854 62.7096C250.969 62.7396 251.069 62.8089 251.138 62.9055C251.208 63.002 251.241 63.1198 251.232 63.2383L246.739 120.96C246.733 121.033 246.711 121.104 246.675 121.167C246.639 121.231 246.589 121.286 246.53 121.329C246.442 121.407 246.329 121.453 246.211 121.459ZM227.283 115.054L245.733 120.312L250.146 63.6174C245.424 62.5001 233.908 60.2056 230.949 61.6222C228.708 62.7196 227.363 89.8945 227.313 115.054H227.283Z" fill="black"/>
<path d="M233.28 213.997V227.505L227.014 229.35L227.164 226.587L224.334 229.51C224.334 229.51 207.498 232.622 207.588 230.308C207.677 227.994 209.381 226.737 211.503 225.589C213.784 224.352 219.781 220.871 219.781 220.871L220.678 210.964" fill="white"/>
<path d="M210.706 231.605C209.593 231.728 208.469 231.527 207.468 231.026C207.359 230.94 207.272 230.829 207.213 230.702C207.154 230.576 207.125 230.438 207.129 230.298C207.229 227.734 209.192 226.308 211.284 225.19C213.376 224.073 218.257 221.2 219.353 220.591L220.22 210.915C220.235 210.796 220.295 210.687 220.387 210.611C220.48 210.535 220.598 210.497 220.718 210.506C220.778 210.511 220.836 210.528 220.889 210.555C220.943 210.583 220.99 210.622 221.028 210.668C221.066 210.715 221.094 210.769 221.111 210.826C221.128 210.884 221.133 210.945 221.126 211.004L220.24 220.931C220.231 221.003 220.206 221.072 220.166 221.132C220.126 221.193 220.073 221.243 220.011 221.28C219.951 221.28 214.033 224.781 211.722 226.008C209.411 227.236 208.116 228.363 208.046 230.348C208.524 231.186 215.866 230.617 224.105 229.101L226.835 226.288C226.902 226.222 226.987 226.178 227.079 226.16C227.171 226.142 227.266 226.152 227.353 226.188C227.436 226.226 227.507 226.288 227.555 226.366C227.603 226.444 227.626 226.535 227.622 226.627L227.502 228.752L232.832 227.186V214.017C232.831 213.957 232.841 213.898 232.863 213.842C232.885 213.787 232.918 213.736 232.96 213.693C233.002 213.651 233.051 213.617 233.106 213.593C233.161 213.57 233.221 213.558 233.28 213.558C233.402 213.558 233.518 213.607 233.604 213.693C233.69 213.779 233.739 213.895 233.739 214.017V227.525C233.74 227.624 233.708 227.721 233.649 227.8C233.59 227.88 233.505 227.937 233.41 227.964L227.144 229.809C227.074 229.828 227.001 229.831 226.93 229.817C226.859 229.804 226.792 229.773 226.735 229.73C226.678 229.685 226.632 229.627 226.603 229.561C226.573 229.495 226.561 229.423 226.566 229.35L226.645 227.794L224.653 229.839C224.586 229.909 224.499 229.954 224.404 229.969C219.884 230.847 215.306 231.394 210.706 231.605Z" fill="black"/>
<path d="M263.366 120.88L268.557 223.455C268.557 223.455 268.059 227.206 260.149 227.674C252.239 228.143 253.036 226.228 253.036 226.228L240.662 150.988L235.592 217.828L218.556 218.935L221.943 113.588L263.366 120.88Z" fill="black"/>
<path d="M257.827 228.243C254.978 228.243 253.295 227.834 252.717 227.016C252.544 226.784 252.469 226.494 252.508 226.208L240.872 155.178L236.12 217.858C236.11 217.978 236.057 218.091 235.971 218.175C235.885 218.26 235.772 218.31 235.651 218.317L218.586 219.404C218.517 219.409 218.447 219.4 218.382 219.376C218.316 219.351 218.257 219.314 218.207 219.265C218.157 219.217 218.118 219.16 218.093 219.096C218.067 219.033 218.055 218.964 218.058 218.896L221.445 113.548C221.447 113.476 221.464 113.405 221.496 113.34C221.528 113.276 221.573 113.218 221.629 113.173C221.685 113.127 221.75 113.095 221.819 113.077C221.889 113.059 221.962 113.056 222.033 113.069L263.456 120.392C263.568 120.41 263.67 120.467 263.744 120.553C263.819 120.638 263.861 120.747 263.864 120.861L269.025 223.435C269.025 223.694 268.377 227.685 260.159 228.163C259.312 228.213 258.535 228.243 257.827 228.243ZM253.494 226.408L253.583 226.497C253.892 226.797 255.148 227.495 260.099 227.176C267.421 226.747 268.069 223.425 268.069 223.385L262.918 121.299L222.421 114.187L219.064 218.407L235.153 217.409L240.194 151.008C240.206 150.887 240.261 150.774 240.348 150.69C240.436 150.606 240.551 150.556 240.672 150.549C240.792 150.543 240.911 150.581 241.005 150.657C241.098 150.732 241.161 150.84 241.18 150.958L253.514 226.198C253.539 226.29 253.539 226.386 253.514 226.477L253.494 226.408Z" fill="black"/>
<path d="M247.208 57.7217C247.208 57.7217 240.563 127.385 243.541 131.375C246.52 135.366 264.901 138.528 266.275 130.787C268.537 118.057 267.272 72.3267 264.622 68.027C253.922 58.4998 247.208 57.7217 247.208 57.7217Z" fill="#72B0F9"/>
<path d="M221.943 64.9642C221.943 64.9642 212.439 128.233 214.232 130.068C216.026 131.904 225.769 134.388 228.459 132.542C231.148 130.697 234.824 58.0508 234.824 58.0508C229.976 59.1206 225.517 61.5134 221.943 64.9642Z" fill="#72B0F9"/>
<path d="M235.342 56.7938L234.526 63.5476C234.968 64.8837 235.899 66.0026 237.132 66.6799C238.364 67.3571 239.807 67.5425 241.17 67.1988C246.311 66.1114 246.371 63.1286 246.371 63.1286C246.371 63.1286 247.068 47.9051 247.068 47.8652C246.945 47.5129 246.777 47.1777 246.57 46.8676C245.803 45.1317 244.707 42.7474 245.036 40.822C245.312 39.2348 246.103 37.7831 247.287 36.6919C246.678 36.9636 246.014 37.0908 245.348 37.0636C244.681 37.0363 244.03 36.8554 243.445 36.5349C242.86 36.2144 242.356 35.7629 241.974 35.2157C241.592 34.6685 241.34 34.0402 241.24 33.3799C241.24 34.0682 240.632 34.577 240.055 34.9561C239.201 35.6207 238.147 35.9728 237.066 35.9537C235.651 35.7941 234.595 34.587 233.27 34.0682C233.475 34.5233 233.509 35.037 233.367 35.5152C233.224 35.9934 232.914 36.4041 232.493 36.672C231.629 37.1843 230.598 37.3348 229.624 37.091C230.272 37.2207 229.724 44.4334 229.714 45.0719C229.622 47.3076 229.676 49.5469 229.873 51.7758C230.351 55.7563 235.342 56.7938 235.342 56.7938Z" fill="white"/>
<path d="M239.666 67.8573C235.392 67.8573 234.037 63.7471 234.028 63.6972C234.013 63.6282 234.013 63.5568 234.028 63.4877L234.785 57.1729C233.48 56.7938 229.804 55.4171 229.365 51.7259C229.175 49.6467 229.118 47.5574 229.196 45.4709V44.9522C229.196 44.8524 229.196 44.5731 229.196 44.174C229.485 39.3356 229.395 37.8193 229.256 37.4202C229.182 37.3647 229.126 37.2891 229.094 37.2023C229.062 37.1156 229.056 37.0215 229.076 36.9314C229.087 36.8669 229.111 36.8054 229.146 36.7504C229.181 36.6955 229.227 36.6483 229.281 36.6119C229.335 36.5754 229.396 36.5505 229.461 36.5385C229.525 36.5265 229.591 36.5278 229.654 36.5423C230.501 36.7488 231.394 36.6277 232.155 36.2031C232.478 35.9989 232.718 35.6857 232.832 35.3198C232.945 34.9539 232.924 34.5596 232.772 34.2079C232.722 34.1181 232.7 34.0148 232.711 33.9122C232.721 33.8096 232.763 33.7129 232.831 33.6352C232.899 33.5576 232.989 33.5028 233.089 33.4785C233.189 33.4543 233.294 33.4616 233.39 33.4996C233.951 33.7431 234.485 34.044 234.984 34.3975C235.593 34.8852 236.305 35.2265 237.066 35.3951C238.026 35.4024 238.962 35.0901 239.726 34.5072C240.373 34.0882 240.722 33.7091 240.722 33.35C240.724 33.2234 240.773 33.1021 240.86 33.0099C240.947 32.9177 241.064 32.8611 241.19 32.8512C241.315 32.8397 241.44 32.8768 241.538 32.9548C241.636 33.0328 241.701 33.1458 241.718 33.2702C241.799 33.8597 242.015 34.4224 242.35 34.914C242.685 35.4055 243.129 35.8125 243.648 36.1027C244.167 36.3929 244.746 36.5584 245.339 36.5862C245.933 36.6141 246.525 36.5034 247.068 36.263C247.175 36.2129 247.297 36.2035 247.411 36.2365C247.524 36.2695 247.622 36.3428 247.686 36.4426C247.75 36.5413 247.777 36.6595 247.763 36.7764C247.748 36.8932 247.693 37.0011 247.606 37.081C246.497 38.0945 245.757 39.4497 245.504 40.9318C245.215 42.6377 246.201 44.9222 246.919 46.4985L247.008 46.688C247.049 46.7773 247.096 46.8639 247.148 46.9474C247.363 47.2405 247.501 47.5839 247.546 47.945C247.546 47.945 247.546 47.945 246.849 63.2383C246.849 63.368 246.719 66.6302 241.25 67.7675C240.727 67.8524 240.196 67.8825 239.666 67.8573ZM235.004 63.4877C235.409 64.6821 236.25 65.6785 237.359 66.2764C238.469 66.8743 239.763 67.0292 240.981 66.71C245.624 65.7124 245.783 63.2184 245.793 63.1086C245.803 62.9989 246.48 48.0647 246.49 47.8452C246.49 47.8452 246.321 47.5459 246.241 47.4063C246.161 47.2894 246.091 47.1659 246.032 47.0372L245.952 46.8576C245.185 45.1018 244.129 42.7175 244.468 40.7123C244.659 39.5603 245.112 38.4679 245.793 37.52C244.867 37.5758 243.943 37.3757 243.123 36.9414C242.219 36.4271 241.497 35.6422 241.061 34.6967C240.814 34.9429 240.54 35.1604 240.244 35.3452C239.286 36.0432 238.12 36.3949 236.937 36.3428C236.024 36.1727 235.164 35.79 234.426 35.2255L233.888 34.8763C233.859 35.2931 233.737 35.698 233.53 36.0608C233.323 36.4236 233.037 36.7348 232.693 36.9713C231.976 37.4303 231.129 37.6406 230.282 37.5699C230.413 39.7742 230.377 41.9853 230.172 44.184C230.172 44.5631 230.172 44.8225 230.172 44.9222V45.431C230.099 47.4776 230.156 49.5269 230.342 51.5663C230.77 55.2475 235.323 56.2451 235.412 56.2551C235.533 56.2835 235.638 56.3549 235.71 56.4559C235.782 56.557 235.814 56.6806 235.801 56.8038L235.004 63.4877Z" fill="black"/>
<path d="M234.406 44.4033C234.406 44.4033 231.417 48.304 232.045 49.0622C232.673 49.8203 234.436 49.4811 234.436 49.4811" fill="white"/>
<path d="M233.559 50.05C233.216 50.0751 232.871 50.0246 232.55 49.9023C232.228 49.7799 231.937 49.5886 231.696 49.3417C231.019 48.4638 232.613 45.9997 234.057 44.0843C234.137 43.9785 234.255 43.9085 234.385 43.8898C234.516 43.8711 234.649 43.9052 234.755 43.9845C234.808 44.023 234.853 44.0718 234.887 44.1282C234.922 44.1845 234.944 44.2472 234.953 44.3124C234.963 44.3776 234.959 44.4441 234.942 44.5077C234.925 44.5714 234.895 44.631 234.854 44.6829C233.529 46.4486 232.434 48.364 232.513 48.793C232.752 49.0823 233.778 49.0823 234.386 48.9726C234.45 48.9595 234.516 48.9591 234.581 48.9716C234.645 48.984 234.706 49.009 234.761 49.0452C234.815 49.0813 234.862 49.1279 234.899 49.1822C234.935 49.2365 234.961 49.2974 234.974 49.3616C234.987 49.4265 234.987 49.4934 234.974 49.5582C234.961 49.6231 234.935 49.6848 234.898 49.7395C234.861 49.7943 234.813 49.8411 234.758 49.8773C234.702 49.9135 234.64 49.9383 234.575 49.9502C234.241 50.0148 233.9 50.0482 233.559 50.05Z" fill="black"/>
<path d="M235.343 56.7942C235.343 56.7942 239.327 56.7942 241.151 55.7168C241.151 55.7168 239.596 60.3756 235.293 61.5229L235.343 56.7942Z" fill="black"/>
<path d="M235.293 62.0213C235.182 62.0235 235.073 61.9884 234.984 61.9216C234.923 61.8752 234.874 61.8147 234.841 61.7452C234.808 61.6758 234.792 61.5994 234.795 61.5225L234.844 56.7939C234.844 56.6616 234.897 56.5347 234.99 56.4412C235.084 56.3476 235.21 56.2951 235.343 56.2951C235.552 56.2951 239.218 56.2951 240.892 55.2975C240.975 55.2395 241.074 55.2085 241.175 55.2085C241.277 55.2085 241.376 55.2395 241.459 55.2975C241.537 55.3632 241.593 55.4503 241.621 55.5478C241.65 55.6454 241.649 55.7491 241.619 55.8461C241.549 56.0457 239.925 60.7644 235.412 61.9814L235.293 62.0213ZM235.831 57.2927V60.8442C237.744 60.0213 239.301 58.5429 240.224 56.6742C238.792 57.0704 237.316 57.2882 235.831 57.3226V57.2927Z" fill="black"/>
<path d="M268.656 114.026H268.607C267.959 113.947 252.816 112.191 248.005 109.487C247.947 109.456 247.896 109.414 247.855 109.362C247.814 109.311 247.783 109.252 247.766 109.188C247.748 109.125 247.743 109.059 247.752 108.994C247.76 108.928 247.782 108.866 247.815 108.809C247.882 108.696 247.99 108.613 248.116 108.578C248.242 108.543 248.377 108.557 248.493 108.619C253.125 111.223 268.567 113.009 268.716 113.029C268.848 113.037 268.972 113.097 269.06 113.196C269.147 113.295 269.192 113.425 269.184 113.558C269.176 113.69 269.116 113.814 269.017 113.902C268.918 113.989 268.788 114.034 268.656 114.026Z" fill="black"/>
<path d="M264.622 68.0269C264.622 68.0269 294.668 110.924 281.797 122.017C270.001 132.163 243.94 115.314 243.94 115.314L245.514 101.068C245.514 101.068 266.146 112.57 266.485 107.213C266.973 99.3318 256.861 88.5676 256.861 88.5676C255.952 86.8222 255.402 84.9117 255.245 82.9495C255.088 80.9873 255.325 79.0134 255.944 77.145C256.533 75.029 257.632 73.0904 259.145 71.5003C260.659 69.9101 262.539 68.7173 264.622 68.0269Z" fill="#72B0F9"/>
<path d="M217.749 102.604C217.684 102.594 217.622 102.572 217.566 102.538C217.51 102.504 217.461 102.46 217.422 102.407C217.383 102.354 217.355 102.294 217.339 102.23C217.324 102.167 217.321 102.1 217.331 102.036C218.257 95.8105 222.71 72.0375 222.76 71.798C222.787 71.6698 222.862 71.5568 222.969 71.4825C223.077 71.4082 223.209 71.3783 223.338 71.399C223.468 71.4255 223.582 71.502 223.657 71.612C223.731 71.722 223.76 71.8568 223.736 71.9876C223.687 72.227 219.233 95.9302 218.317 102.185C218.295 102.315 218.223 102.431 218.117 102.509C218.012 102.588 217.879 102.622 217.749 102.604Z" fill="black"/>
<path d="M213.555 121.409H243.512C244.07 121.399 244.618 121.265 245.118 121.016C245.618 120.767 246.056 120.41 246.401 119.971C246.746 119.532 246.99 119.021 247.114 118.476C247.238 117.931 247.239 117.366 247.118 116.82L240.752 85.9841C240.57 85.0996 240.093 84.3031 239.4 83.7251C238.707 83.147 237.838 82.8215 236.937 82.8018H207.418C206.827 82.8113 206.245 82.9525 205.715 83.2153C205.184 83.478 204.719 83.8557 204.353 84.3209C203.987 84.7861 203.728 85.3271 203.597 85.9047C203.465 86.4823 203.464 87.0819 203.593 87.6601L209.949 118.396C210.11 119.238 210.557 119.999 211.214 120.548C211.872 121.097 212.699 121.401 213.555 121.409Z" fill="white"/>
<path d="M243.512 121.858H213.555C212.596 121.845 211.67 121.503 210.933 120.89C210.195 120.276 209.689 119.428 209.5 118.486L203.154 87.7498C203.014 87.0879 203.023 86.403 203.182 85.7452C203.341 85.0875 203.644 84.4737 204.071 83.9489C204.474 83.4486 204.984 83.0448 205.563 82.7669C206.142 82.489 206.776 82.3441 207.418 82.3428H236.936C237.946 82.3573 238.919 82.7178 239.695 83.364C240.471 84.0103 241.002 84.9033 241.2 85.8943L247.566 116.72C247.7 117.349 247.691 117.999 247.541 118.624C247.391 119.249 247.104 119.833 246.699 120.332C246.314 120.807 245.828 121.19 245.277 121.454C244.726 121.718 244.123 121.856 243.512 121.858ZM207.418 83.2606C206.912 83.2606 206.411 83.3744 205.954 83.5937C205.498 83.813 205.096 84.1321 204.778 84.5275C204.444 84.942 204.205 85.4249 204.078 85.942C203.95 86.4591 203.938 86.9979 204.041 87.5204L210.397 118.267C210.541 119.003 210.933 119.668 211.508 120.149C212.083 120.63 212.806 120.899 213.555 120.91H243.512C243.988 120.908 244.458 120.799 244.887 120.592C245.316 120.385 245.693 120.085 245.992 119.713C246.312 119.321 246.54 118.862 246.659 118.37C246.778 117.878 246.785 117.365 246.68 116.87L240.304 86.0339C240.149 85.2499 239.73 84.5429 239.117 84.0309C238.504 83.5188 237.735 83.2329 236.936 83.2207L207.418 83.2606Z" fill="black"/>
<path d="M249.678 105.926C249.851 104.848 249.769 103.744 249.439 102.704C249.113 102.005 248.664 101.369 248.114 100.828C247.179 99.8308 246.181 98.8944 245.125 98.0251C244.129 97.247 243.003 96.4888 241.808 96.7482C242.177 98.5355 243.187 100.126 244.647 101.217C244.17 100.646 243.536 100.227 242.824 100.01C242.346 99.8607 241.698 99.8807 241.499 100.36C241.453 100.513 241.439 100.675 241.458 100.835C241.477 100.994 241.528 101.148 241.609 101.287C242.166 102.522 243.022 103.599 244.099 104.42L242.944 103.682C242.649 103.464 242.308 103.318 241.947 103.253C241.77 103.224 241.588 103.253 241.428 103.335C241.269 103.418 241.14 103.55 241.061 103.711C240.988 103.982 241.016 104.269 241.141 104.52C241.441 105.238 241.939 105.857 242.575 106.305C242.159 105.949 241.658 105.705 241.121 105.597C240.849 105.556 240.572 105.614 240.34 105.761C240.108 105.907 239.936 106.132 239.855 106.395C239.826 106.696 239.888 106.999 240.035 107.263C240.891 108.969 242.934 109.158 243.93 110.595C244.677 111.662 244.328 112.81 245.843 113.458C249.628 115.024 249.469 108.201 249.678 105.926Z" fill="white"/>
<path d="M246.939 114.186C246.512 114.179 246.092 114.084 245.703 113.907C245.282 113.736 244.909 113.465 244.615 113.118C244.322 112.77 244.118 112.356 244.02 111.912C243.918 111.56 243.767 111.224 243.571 110.914C243.121 110.37 242.561 109.928 241.928 109.617C240.977 109.165 240.183 108.439 239.646 107.532C239.434 107.172 239.354 106.749 239.417 106.335C239.505 106.001 239.697 105.705 239.967 105.489C240.236 105.273 240.567 105.15 240.912 105.138C240.844 105.012 240.784 104.882 240.732 104.749C240.552 104.383 240.52 103.961 240.643 103.572C240.745 103.333 240.917 103.131 241.135 102.991C241.353 102.85 241.609 102.778 241.868 102.784C241.602 102.386 241.372 101.965 241.18 101.527C241.066 101.327 240.997 101.105 240.976 100.876C240.955 100.647 240.984 100.417 241.061 100.2C241.176 99.9618 241.36 99.7645 241.59 99.6344C241.819 99.5042 242.083 99.4474 242.346 99.4716C241.871 98.6836 241.534 97.8198 241.35 96.9177C241.321 96.8526 241.307 96.7822 241.307 96.7111C241.307 96.64 241.323 96.5698 241.352 96.5049C241.381 96.4401 241.423 96.382 241.476 96.3346C241.529 96.2871 241.591 96.2513 241.659 96.2294C243.083 95.9301 244.398 96.808 245.385 97.6061C246.465 98.4864 247.483 99.4397 248.433 100.459C249.024 101.033 249.507 101.709 249.858 102.454C250.225 103.563 250.317 104.744 250.127 105.896C250.127 106.186 250.127 106.545 250.057 106.954C249.937 109.248 249.738 112.71 248.064 113.777C247.736 114.02 247.345 114.162 246.939 114.186ZM241.041 106.076C240.905 106.067 240.77 106.101 240.654 106.172C240.538 106.244 240.447 106.349 240.393 106.475C240.384 106.671 240.433 106.865 240.533 107.033C240.988 107.764 241.646 108.346 242.426 108.709C243.202 109.079 243.883 109.622 244.418 110.296C244.675 110.689 244.87 111.12 244.996 111.573C245.044 111.887 245.172 112.183 245.37 112.431C245.568 112.68 245.827 112.872 246.122 112.989C246.343 113.112 246.591 113.177 246.844 113.177C247.097 113.177 247.345 113.112 247.566 112.989C248.841 112.191 249.031 108.789 249.14 107.004C249.14 106.575 249.14 106.196 249.21 105.906C249.375 104.906 249.304 103.881 249.001 102.913C248.702 102.267 248.287 101.682 247.776 101.188C246.841 100.205 245.843 99.285 244.787 98.4341C244.132 97.8111 243.313 97.3887 242.426 97.217C242.745 98.2692 243.304 99.2324 244.06 100.03C244.434 100.259 244.77 100.545 245.056 100.878C245.138 100.97 245.184 101.089 245.184 101.212C245.184 101.336 245.138 101.455 245.056 101.547C244.974 101.637 244.86 101.694 244.739 101.705C244.617 101.716 244.495 101.681 244.398 101.607C244.066 101.365 243.753 101.098 243.462 100.808C243.228 100.665 242.977 100.551 242.715 100.469C242.396 100.379 242.047 100.409 241.997 100.539C241.969 100.723 242.008 100.911 242.107 101.068C242.622 102.231 243.424 103.244 244.438 104.011C244.491 104.047 244.535 104.094 244.569 104.149C244.603 104.203 244.626 104.263 244.636 104.327C244.646 104.39 244.644 104.455 244.629 104.517C244.613 104.579 244.586 104.638 244.548 104.689C244.475 104.796 244.364 104.87 244.237 104.896C244.111 104.922 243.979 104.898 243.87 104.829L242.715 104.101C242.492 103.927 242.233 103.804 241.958 103.741C241.889 103.726 241.818 103.731 241.752 103.756C241.687 103.781 241.63 103.824 241.589 103.881C241.568 104.032 241.596 104.186 241.669 104.32C241.909 104.907 242.305 105.418 242.814 105.796L242.934 105.886C242.987 105.923 243.033 105.97 243.068 106.025C243.103 106.08 243.127 106.141 243.138 106.205C243.149 106.269 243.148 106.335 243.133 106.398C243.118 106.462 243.091 106.522 243.053 106.575C242.979 106.682 242.865 106.756 242.736 106.781C242.608 106.805 242.475 106.777 242.366 106.704L242.236 106.615C241.919 106.352 241.543 106.171 241.141 106.086L241.041 106.076Z" fill="black"/>
<path d="M204.061 103.781C204.21 101.716 204.828 99.4316 206.571 98.3941C207.111 98.0838 207.719 97.9148 208.341 97.9026C208.963 97.8904 209.577 98.0354 210.128 98.3243C210.229 98.3639 210.32 98.4257 210.394 98.5051C210.468 98.5845 210.524 98.6795 210.556 98.7832C210.626 99.1124 210.327 99.3818 210.058 99.5514C209.482 99.9136 208.854 100.186 208.195 100.359C208.731 100.315 209.268 100.44 209.73 100.715C210.193 100.99 210.558 101.403 210.776 101.896C210.126 102.66 209.218 103.158 208.225 103.292C208.555 103.204 208.904 103.218 209.225 103.332C209.547 103.446 209.827 103.655 210.028 103.931C210.676 104.869 210.158 105.128 209.451 105.687C209.761 105.62 210.085 105.652 210.377 105.776C210.525 105.844 210.65 105.954 210.735 106.092C210.82 106.231 210.862 106.392 210.855 106.555C210.805 107.153 210.078 107.343 209.57 107.642C209.161 107.891 208.851 108.276 208.693 108.729C208.636 108.99 208.553 109.244 208.444 109.488C207.448 111.273 205.237 109.787 204.689 108.49C204.127 106.988 203.913 105.378 204.061 103.781Z" fill="white"/>
<path d="M207.149 110.814H207.03C206.429 110.73 205.858 110.496 205.371 110.133C204.883 109.771 204.495 109.292 204.24 108.739C203.645 107.148 203.413 105.444 203.563 103.751C203.702 101.756 204.29 99.1724 206.322 97.9653C206.934 97.6124 207.624 97.42 208.33 97.4061C209.035 97.3921 209.732 97.557 210.357 97.8855C210.525 97.9578 210.673 98.0672 210.792 98.2054C210.911 98.3437 210.998 98.5071 211.045 98.6836C211.104 98.9629 211.045 99.4916 210.327 99.9705L209.889 100.23C210.488 100.554 210.962 101.071 211.234 101.696C211.269 101.782 211.28 101.875 211.266 101.967C211.252 102.058 211.213 102.144 211.154 102.215C210.832 102.61 210.444 102.948 210.009 103.213C210.176 103.341 210.32 103.496 210.437 103.672C210.975 104.44 210.885 104.959 210.596 105.348C210.834 105.459 211.034 105.639 211.169 105.865C211.304 106.091 211.368 106.352 211.353 106.615C211.294 107.353 210.636 107.682 210.168 107.911L209.829 108.091C209.518 108.275 209.284 108.565 209.172 108.909C209.143 108.984 209.119 109.06 209.102 109.139C209.057 109.35 208.983 109.555 208.883 109.747C208.716 110.065 208.467 110.331 208.162 110.519C207.857 110.707 207.507 110.809 207.149 110.814ZM204.559 103.831C204.418 105.363 204.619 106.906 205.147 108.35C205.332 108.731 205.604 109.063 205.942 109.318C206.279 109.573 206.673 109.744 207.09 109.817C207.282 109.822 207.473 109.771 207.637 109.67C207.801 109.569 207.933 109.423 208.016 109.248C208.071 109.126 208.115 108.999 208.146 108.869C208.146 108.769 208.195 108.68 208.225 108.58C208.416 108.011 208.805 107.529 209.321 107.223L209.72 107.004C210.098 106.824 210.347 106.684 210.367 106.515C210.387 106.345 210.277 106.295 210.158 106.235C209.958 106.159 209.74 106.142 209.53 106.186C209.423 106.201 209.313 106.181 209.218 106.128C209.123 106.076 209.048 105.993 209.004 105.894C208.96 105.795 208.95 105.683 208.975 105.578C208.999 105.472 209.058 105.377 209.142 105.308L209.331 105.158C209.939 104.689 209.939 104.689 209.62 104.23C209.301 103.771 208.972 103.712 208.295 103.801C208.229 103.811 208.162 103.807 208.098 103.79C208.034 103.773 207.974 103.743 207.922 103.702C207.869 103.661 207.826 103.61 207.794 103.551C207.763 103.493 207.743 103.429 207.737 103.362C207.72 103.231 207.756 103.099 207.836 102.994C207.916 102.89 208.035 102.821 208.165 102.804C208.92 102.698 209.62 102.347 210.158 101.806C209.968 101.474 209.687 101.203 209.348 101.026C209.009 100.849 208.626 100.773 208.245 100.808C208.12 100.823 207.995 100.791 207.893 100.717C207.791 100.643 207.721 100.533 207.697 100.409C207.673 100.285 207.696 100.157 207.763 100.049C207.829 99.9419 207.934 99.8638 208.056 99.8308C208.664 99.6687 209.245 99.4165 209.779 99.0826C209.979 98.9629 210.048 98.8631 210.058 98.8232L209.879 98.7135C209.406 98.4623 208.877 98.3359 208.342 98.3464C207.807 98.3569 207.283 98.5038 206.821 98.7733C205.157 99.771 204.669 102.036 204.549 103.761L204.559 103.831Z" fill="black"/>
<path d="M230.013 46.2392C229.284 46.2392 228.571 46.0228 227.965 45.6172C227.359 45.2116 226.886 44.6351 226.607 43.9606C226.328 43.2862 226.255 42.544 226.397 41.828C226.54 41.112 226.891 40.4543 227.406 39.9381C227.922 39.4218 228.579 39.0703 229.294 38.9279C230.009 38.7854 230.75 38.8585 231.423 39.1379C232.097 39.4173 232.673 39.8904 233.078 40.4974C233.483 41.1044 233.699 41.818 233.699 42.5481C233.696 43.5262 233.307 44.4636 232.616 45.1552C231.926 45.8469 230.989 46.2366 230.013 46.2392ZM230.013 39.8545C229.481 39.8545 228.961 40.0125 228.518 40.3085C228.076 40.6045 227.731 41.0251 227.528 41.5173C227.324 42.0095 227.271 42.5511 227.375 43.0736C227.478 43.5961 227.735 44.076 228.111 44.4527C228.487 44.8294 228.966 45.0859 229.488 45.1899C230.01 45.2938 230.551 45.2405 231.042 45.0366C231.534 44.8327 231.954 44.4875 232.249 44.0445C232.545 43.6016 232.703 43.0808 232.703 42.5481C232.7 41.8345 232.416 41.1509 231.912 40.6464C231.408 40.1418 230.725 39.8572 230.013 39.8545Z" fill="black"/>
<path d="M238.222 46.2392C237.493 46.2392 236.78 46.0228 236.174 45.6172C235.568 45.2116 235.095 44.6351 234.816 43.9606C234.537 43.2862 234.464 42.544 234.606 41.828C234.749 41.112 235.1 40.4543 235.615 39.9381C236.131 39.4218 236.787 39.0703 237.502 38.9279C238.217 38.7854 238.959 38.8585 239.632 39.1379C240.306 39.4173 240.881 39.8904 241.286 40.4974C241.691 41.1044 241.908 41.818 241.908 42.5481C241.908 43.527 241.519 44.4659 240.828 45.1581C240.137 45.8504 239.199 46.2392 238.222 46.2392ZM238.222 39.8545C237.69 39.8545 237.17 40.0125 236.727 40.3085C236.285 40.6045 235.94 41.0251 235.736 41.5173C235.533 42.0095 235.48 42.5511 235.583 43.0736C235.687 43.5961 235.943 44.076 236.32 44.4527C236.696 44.8294 237.175 45.0859 237.697 45.1899C238.219 45.2938 238.759 45.2405 239.251 45.0366C239.742 44.8327 240.163 44.4875 240.458 44.0445C240.754 43.6016 240.911 43.0808 240.911 42.5481C240.911 41.8337 240.628 41.1486 240.124 40.6435C239.619 40.1383 238.935 39.8545 238.222 39.8545Z" fill="black"/>
<path d="M234.924 52.3345C233.649 52.309 232.395 51.9953 231.258 51.4167C231.145 51.3499 231.062 51.2421 231.027 51.1156C230.992 50.9892 231.007 50.854 231.069 50.7383C231.134 50.6234 231.241 50.5389 231.368 50.5034C231.495 50.4678 231.631 50.4842 231.746 50.5488C231.935 50.6486 236.369 53.0827 239.078 48.9726C239.151 48.8614 239.265 48.7838 239.395 48.7567C239.524 48.7295 239.66 48.7552 239.771 48.8279C239.882 48.9007 239.959 49.0146 239.986 49.1446C240.013 49.2747 239.988 49.4101 239.915 49.5213C239.401 50.3855 238.669 51.0998 237.794 51.5934C236.918 52.0869 235.929 52.3424 234.924 52.3345Z" fill="black"/>
<path d="M235.034 43.0469H233.201C233.069 43.0469 232.942 42.9944 232.848 42.9008C232.755 42.8073 232.703 42.6804 232.703 42.5481C232.703 42.4158 232.755 42.289 232.848 42.1954C232.942 42.1019 233.069 42.0493 233.201 42.0493H235.034C235.166 42.0493 235.292 42.1019 235.386 42.1954C235.479 42.289 235.532 42.4158 235.532 42.5481C235.529 42.6796 235.476 42.805 235.383 42.898C235.29 42.991 235.165 43.0444 235.034 43.0469Z" fill="black"/>
<path d="M248.762 45.0421C248.719 45.0516 248.675 45.0516 248.632 45.0421L241.28 43.0469C241.148 43.0125 241.035 42.927 240.966 42.8091C240.897 42.6912 240.877 42.5507 240.911 42.4184C240.946 42.2861 241.031 42.1729 241.149 42.1037C241.267 42.0345 241.407 42.0149 241.539 42.0493L248.891 44.0445C249.018 44.0795 249.125 44.1631 249.19 44.277C249.256 44.391 249.274 44.5261 249.24 44.6531C249.217 44.7631 249.157 44.8618 249.07 44.9327C248.983 45.0036 248.874 45.0422 248.762 45.0421Z" fill="black"/>
<path d="M244.647 45.7404C244.845 45.0296 245.263 44.4004 245.843 43.9447C246.285 43.5711 246.802 43.2967 247.358 43.1401C247.915 42.9835 248.499 42.9483 249.071 43.0369C249.64 43.2779 250.112 43.7048 250.408 44.2482C250.705 44.7915 250.809 45.4194 250.704 46.0297C250.622 46.8594 250.318 47.6515 249.823 48.3223C249.329 48.993 248.663 49.5176 247.895 49.8406C247.391 50.0211 246.857 50.0982 246.323 50.0674C245.789 50.0365 245.266 49.8983 244.787 49.661" fill="white"/>
<path d="M246.57 50.5691C245.879 50.5681 245.197 50.4076 244.578 50.1003C244.518 50.0717 244.466 50.0315 244.423 49.9821C244.379 49.9327 244.347 49.8751 244.326 49.8127C244.306 49.7503 244.298 49.6844 244.304 49.619C244.309 49.5536 244.328 49.4899 244.358 49.4319C244.387 49.3728 244.427 49.3201 244.476 49.2766C244.525 49.233 244.583 49.1997 244.645 49.1784C244.707 49.157 244.772 49.1482 244.838 49.1523C244.903 49.1564 244.967 49.1735 245.026 49.2024C245.445 49.4094 245.902 49.5309 246.369 49.5601C246.836 49.5892 247.304 49.5252 247.746 49.372C248.424 49.0762 249.012 48.6054 249.449 48.0078C249.887 47.4102 250.158 46.7071 250.236 45.9702C250.323 45.4763 250.245 44.9674 250.012 44.5233C249.78 44.0791 249.406 43.7249 248.951 43.516C248.454 43.4543 247.95 43.496 247.47 43.6385C246.99 43.781 246.545 44.0212 246.162 44.3441C245.676 44.7339 245.327 45.2685 245.165 45.8704C245.148 45.9359 245.117 45.9973 245.076 46.051C245.035 46.1048 244.983 46.1499 244.924 46.1837C244.866 46.2175 244.801 46.2394 244.734 46.2481C244.666 46.2568 244.598 46.2522 244.533 46.2345C244.467 46.2168 244.406 46.1864 244.352 46.145C244.299 46.1036 244.254 46.052 244.22 45.9932C244.186 45.9344 244.164 45.8695 244.156 45.8022C244.147 45.7349 244.151 45.6666 244.169 45.601C244.401 44.808 244.879 44.1093 245.534 43.6058C246.037 43.1819 246.627 42.8729 247.262 42.7007C247.897 42.5284 248.562 42.4968 249.21 42.6082C249.891 42.88 250.459 43.3758 250.821 44.014C251.183 44.6522 251.318 45.3949 251.202 46.1198C251.113 47.0399 250.775 47.9184 250.226 48.6616C249.677 49.4048 248.937 49.9847 248.084 50.3397C247.597 50.5048 247.084 50.5824 246.57 50.5691Z" fill="black"/>
<path d="M263.406 108.809C258.814 108.809 252.089 105.088 251.123 104.54C251.066 104.507 251.016 104.463 250.976 104.411C250.936 104.359 250.906 104.3 250.889 104.236C250.872 104.173 250.868 104.106 250.876 104.041C250.885 103.976 250.906 103.913 250.939 103.856C250.971 103.799 251.015 103.749 251.067 103.709C251.119 103.669 251.178 103.64 251.242 103.622C251.305 103.605 251.371 103.601 251.436 103.609C251.501 103.618 251.564 103.639 251.621 103.672C254.839 105.507 263.725 109.657 266.066 106.894C268.407 104.131 261.394 90.4534 258.485 85.4254C258.434 85.3129 258.427 85.1855 258.464 85.0679C258.502 84.9503 258.582 84.8508 258.689 84.7888C258.795 84.7267 258.921 84.7064 259.042 84.7319C259.162 84.7574 259.269 84.8268 259.342 84.9266C260.448 86.842 270.091 103.692 266.833 107.532C266.39 107.984 265.854 108.332 265.262 108.553C264.669 108.773 264.036 108.861 263.406 108.809Z" fill="black"/>
<path d="M266.913 125.769H266.843C259.481 124.661 249.907 118.786 249.489 118.566C249.433 118.531 249.385 118.486 249.347 118.433C249.309 118.379 249.281 118.319 249.267 118.255C249.252 118.191 249.25 118.125 249.26 118.06C249.271 117.995 249.295 117.933 249.33 117.878C249.363 117.821 249.408 117.772 249.461 117.733C249.514 117.694 249.575 117.666 249.639 117.651C249.703 117.636 249.77 117.634 249.835 117.646C249.9 117.657 249.962 117.682 250.017 117.718C250.107 117.768 259.83 123.704 266.953 124.791C267.018 124.798 267.081 124.819 267.137 124.851C267.194 124.884 267.244 124.927 267.283 124.98C267.322 125.032 267.35 125.092 267.365 125.156C267.38 125.219 267.383 125.285 267.371 125.35C267.353 125.461 267.298 125.563 267.215 125.64C267.132 125.716 267.025 125.761 266.913 125.769Z" fill="black"/>
<path d="M7.14548 138.918L0.448792 167.42L35.0591 175.574L41.7557 147.073L7.14548 138.918Z" fill="white"/>
<path d="M35.0709 176.038H34.9614L0.352419 167.878C0.293717 167.865 0.238198 167.84 0.189162 167.806C0.140126 167.771 0.0985761 167.726 0.0669782 167.675C0.0353802 167.624 0.0143828 167.567 0.00523079 167.508C-0.00392126 167.448 -0.00104271 167.387 0.0137017 167.329L6.70835 138.827C6.73675 138.71 6.81019 138.609 6.91276 138.545C7.01533 138.482 7.13875 138.461 7.25627 138.488L41.8652 146.649C41.9241 146.661 41.9799 146.685 42.0295 146.72C42.0791 146.754 42.1214 146.798 42.1541 146.848C42.2155 146.954 42.2333 147.079 42.2039 147.197L35.5093 175.699C35.4805 175.814 35.4093 175.914 35.31 175.978C35.2377 176.021 35.1547 176.042 35.0709 176.038ZM0.999968 167.06L34.7322 175.041L41.2177 147.427L7.49537 139.446L0.999968 167.06Z" fill="black"/>
<path d="M28.187 133.42C28.187 133.42 27.6092 148.135 26.085 147.257C24.0925 146.09 24.9194 142.698 24.9194 142.698L18.165 141.271C18.165 141.271 21.0341 131.505 21.2234 131.176C21.4127 130.846 28.187 133.42 28.187 133.42Z" fill="white"/>
<path d="M26.2145 147.746C26.0881 147.746 25.9642 147.711 25.8558 147.646C24.0228 146.589 24.2121 144.095 24.3814 143.057L18.0753 141.72C18.0134 141.706 17.9551 141.679 17.9038 141.641C17.8525 141.603 17.8092 141.556 17.7764 141.501C17.7319 141.385 17.7319 141.257 17.7764 141.142C18.8524 137.471 20.6954 131.276 20.8847 130.946C21.074 130.617 21.2632 130.278 28.3962 133.001C28.4871 133.032 28.5655 133.091 28.6195 133.17C28.6735 133.25 28.7 133.345 28.6951 133.44C28.5357 137.431 28.0177 146.878 26.603 147.656C26.4857 147.725 26.3501 147.756 26.2145 147.746ZM18.7428 140.922L25.0091 142.249C25.1315 142.279 25.2383 142.354 25.3079 142.459C25.3518 142.571 25.3518 142.696 25.3079 142.808C25.3079 142.808 24.6006 145.721 26.1348 146.798C26.7923 145.801 27.4299 139.456 27.669 133.75C25.1087 132.752 22.3491 131.824 21.4924 131.645C21.1636 132.752 19.7589 137.481 18.7428 140.922Z" fill="black"/>
<path d="M38.6175 216.112C38.6175 216.112 38.0597 225.33 38.0895 228.822C38.1194 232.313 38.0895 235.596 42.184 234.807C44.4156 234.398 56.6692 231.296 55.5434 229.011C54.4177 226.727 46.4578 226.138 46.4578 226.138L47.1751 215.604" fill="white"/>
<path d="M41.0981 235.406C40.3542 235.441 39.6224 235.207 39.036 234.747C37.6811 233.63 37.6612 231.365 37.6412 228.971V228.832C37.6412 225.36 38.1593 216.182 38.1593 216.082C38.1631 216.023 38.1785 215.965 38.2046 215.912C38.2307 215.859 38.267 215.812 38.3114 215.773C38.3559 215.734 38.4075 215.704 38.4635 215.686C38.5194 215.667 38.5786 215.659 38.6375 215.663C38.6977 215.664 38.7571 215.678 38.8118 215.703C38.8666 215.728 38.9156 215.764 38.9558 215.809C38.996 215.854 39.0265 215.907 39.0455 215.964C39.0644 216.021 39.0713 216.082 39.0658 216.142C39.0658 216.232 38.5179 225.38 38.5478 228.822V228.961C38.5478 231.136 38.5478 233.201 39.6138 234.049C39.9786 234.285 40.3905 234.438 40.8206 234.499C41.2507 234.559 41.6888 234.525 42.1043 234.398C44.9934 233.859 54.2284 231.286 55.1151 229.52C55.1397 229.479 55.1527 229.433 55.1527 229.385C55.1527 229.338 55.1397 229.291 55.1151 229.251C54.3779 227.764 49.3868 226.856 46.408 226.637C46.2882 226.627 46.1771 226.57 46.0989 226.478C46.0206 226.387 45.9813 226.268 45.9896 226.148L46.7069 215.613C46.717 215.494 46.7721 215.383 46.861 215.304C46.9499 215.224 47.0658 215.181 47.1851 215.184C47.3058 215.194 47.4178 215.251 47.4977 215.342C47.5775 215.433 47.6191 215.552 47.6135 215.673L46.9261 225.759C48.7691 225.928 54.8959 226.657 55.8921 228.851C55.9778 229.018 56.0224 229.203 56.0224 229.39C56.0224 229.578 55.9778 229.762 55.8921 229.929C54.5273 232.642 42.3434 235.266 42.2239 235.286C41.853 235.36 41.4762 235.4 41.0981 235.406Z" fill="black"/>
<path d="M67.2491 217.209C67.2491 217.209 66.6912 226.427 66.7211 229.919C66.751 233.411 66.7211 236.693 70.8156 235.905C73.0471 235.496 86.267 233.381 85.1413 231.096C84.0156 228.812 75.0894 227.235 75.0894 227.235L75.8067 216.701" fill="white"/>
<path d="M69.7297 236.503C68.9857 236.538 68.2539 236.305 67.6675 235.845C66.3126 234.728 66.2927 232.463 66.2728 230.069V229.909C66.2728 226.437 66.7908 217.259 66.7908 217.17C66.7985 217.05 66.8529 216.938 66.9423 216.857C67.0318 216.777 67.1491 216.735 67.269 216.741C67.3292 216.742 67.3886 216.755 67.4434 216.78C67.4981 216.806 67.5471 216.842 67.5873 216.887C67.6275 216.932 67.6581 216.984 67.677 217.042C67.6959 217.099 67.7029 217.159 67.6974 217.22C67.6974 217.309 67.1494 226.467 67.1793 229.899V230.039C67.1793 232.214 67.1793 234.279 68.2453 235.127C68.6102 235.363 69.022 235.516 69.4521 235.576C69.8822 235.637 70.3203 235.602 70.7359 235.476L71.4332 235.346C81.7243 233.54 84.3842 232.254 84.7229 231.485C84.7229 231.406 84.7229 231.366 84.7229 231.316C83.9757 229.809 78.367 228.323 74.9997 227.704C74.8887 227.687 74.7886 227.628 74.72 227.539C74.6514 227.45 74.6196 227.337 74.6311 227.226L75.3484 216.691C75.3585 216.572 75.4136 216.461 75.5025 216.381C75.5914 216.302 75.7073 216.259 75.8266 216.262C75.9473 216.272 76.0593 216.329 76.1392 216.42C76.219 216.511 76.2605 216.63 76.255 216.751L75.5775 226.916C77.4903 227.275 84.4639 228.732 85.5398 230.907C85.6218 231.06 85.6647 231.232 85.6647 231.406C85.6647 231.58 85.6218 231.751 85.5398 231.904C84.8126 233.351 80.5587 234.688 71.5926 236.254L70.9052 236.384C70.5173 236.456 70.1242 236.496 69.7297 236.503Z" fill="black"/>
<path d="M37.432 112.062C37.432 112.062 34.6027 210.266 36.097 218.666C36.097 218.666 41.8453 225.16 49.2971 221.918L58.7313 142.269L63.7125 221.848C63.7125 221.848 68.4844 226.597 78.4865 218.706V108.59L37.432 112.062Z" fill="black"/>
<path d="M68.0461 223.784C66.3375 223.872 64.6595 223.305 63.3539 222.198C63.2653 222.114 63.2119 222 63.2044 221.879L58.5919 147.806L49.8151 221.978C49.8028 222.065 49.769 222.146 49.7167 222.216C49.6645 222.286 49.5955 222.341 49.5163 222.377C41.8154 225.719 35.7982 219.065 35.7384 218.996C35.6772 218.924 35.6359 218.838 35.6189 218.746C34.1445 210.396 36.8442 116.052 36.9538 112.002C36.9604 111.88 37.0103 111.765 37.0943 111.677C37.1784 111.59 37.2912 111.535 37.4121 111.523L78.4367 108.051C78.5054 108.046 78.5745 108.055 78.6396 108.077C78.7047 108.1 78.7645 108.136 78.815 108.183C78.8656 108.229 78.9059 108.286 78.9334 108.35C78.9608 108.413 78.9749 108.481 78.9747 108.55V218.706C78.9751 218.783 78.9583 218.858 78.9256 218.927C78.8928 218.996 78.8449 219.057 78.7854 219.105C74.133 222.766 70.5666 223.784 68.0461 223.784ZM64.1907 221.609C64.9976 222.268 69.401 225.141 77.9785 218.467V109.129L37.9401 112.521C37.7409 119.684 35.2204 209.608 36.5852 218.437C37.3523 219.255 42.3733 224.203 48.8588 221.569L58.2532 142.21C58.2555 142.147 58.2708 142.085 58.2981 142.028C58.3254 141.971 58.3641 141.92 58.4118 141.879C58.4594 141.838 58.5151 141.807 58.5752 141.788C58.6353 141.77 58.6987 141.764 58.7613 141.771C58.885 141.773 59.0036 141.821 59.0938 141.906C59.184 141.99 59.2395 142.106 59.2494 142.229L64.1907 221.609Z" fill="black"/>
<path d="M121.005 69.683C121.005 69.683 126.465 66.5904 126.863 66.2512C127.262 65.912 129.165 60.8542 129.473 60.5249C129.782 60.1957 130.549 59.5972 130.808 60.2955C131.067 60.9938 130.509 64.8745 130.509 64.8745C130.509 64.8745 137.224 59.6171 137.692 59.8865C138.161 60.1558 138.509 60.7644 137.453 62.2408C136.5 63.3833 135.374 64.3695 134.116 65.1638C134.116 65.1638 136.477 67.8175 136.108 68.7253C135.74 69.6331 126.784 75.6487 126.784 75.6487" fill="white"/>
<path d="M126.823 76.1275C126.749 76.1294 126.675 76.1121 126.608 76.0771C126.542 76.0422 126.486 75.9908 126.445 75.928C126.411 75.8782 126.387 75.8222 126.374 75.7632C126.362 75.7041 126.361 75.6432 126.372 75.5839C126.384 75.5246 126.406 75.4681 126.439 75.4176C126.472 75.367 126.515 75.3235 126.564 75.2895C130.808 72.4463 135.391 69.1542 135.73 68.5656C135.839 68.2364 134.913 66.7599 133.737 65.483C133.693 65.4335 133.66 65.3747 133.641 65.3108C133.622 65.247 133.617 65.1797 133.628 65.1139C133.636 65.0483 133.66 64.9856 133.696 64.9303C133.732 64.875 133.78 64.8287 133.837 64.7947C135.044 64.0352 136.126 63.0929 137.045 62.0014C137.643 61.1534 137.682 60.7444 137.643 60.5748C137.627 60.5015 137.589 60.435 137.533 60.3852C135.167 61.849 132.9 63.4687 130.749 65.2336C130.674 65.2851 130.585 65.3126 130.495 65.3126C130.404 65.3126 130.315 65.2851 130.241 65.2336C130.162 65.1877 130.098 65.1198 130.058 65.0383C130.017 64.9568 130.001 64.8652 130.011 64.7747C130.279 63.3412 130.39 61.8827 130.34 60.4251C130.28 60.4251 130.011 60.5448 129.772 60.8042C129.533 61.0636 129.165 62.141 128.776 63.0887C127.78 65.5429 127.391 66.3409 127.122 66.5704C126.853 66.7998 122.141 69.5632 121.145 70.0521C121.04 70.1021 120.92 70.1103 120.809 70.0752C120.699 70.04 120.605 69.9641 120.549 69.8627C120.492 69.7613 120.475 69.6421 120.503 69.5291C120.53 69.4161 120.6 69.3177 120.697 69.254C122.789 68.0768 126.206 66.1115 126.495 65.8621C127.016 64.8474 127.482 63.8051 127.889 62.7396C128.196 61.8515 128.59 60.996 129.065 60.1857C129.244 59.9962 129.882 59.3876 130.5 59.4974C130.652 59.5331 130.793 59.608 130.909 59.7147C131.024 59.8213 131.109 59.9561 131.157 60.1059C131.29 61.3362 131.246 62.5791 131.028 63.797C137.154 59.0684 137.563 59.3178 137.852 59.4874C138.014 59.5773 138.156 59.7015 138.266 59.8513C138.376 60.0011 138.452 60.1731 138.489 60.3553C138.518 60.7442 138.468 61.1349 138.341 61.5037C138.214 61.8724 138.014 62.2115 137.752 62.5002C136.903 63.563 135.894 64.4883 134.763 65.2436C135.6 66.2412 136.865 67.9571 136.537 68.8649C136.208 69.7727 129.772 74.1822 127.033 76.0178C126.973 76.0709 126.901 76.1086 126.823 76.1275Z" fill="black"/>
<path d="M73.7644 64.1465C73.7644 64.1465 64.091 60.9741 38.6175 65.8724C34.1942 66.7204 32.1619 108.021 35.4993 132.862L80.1203 132.493C80.1203 132.493 87.4824 67.5883 73.7644 64.1465Z" fill="#72B0F9"/>
<path d="M36.9339 59.8965C36.9339 59.8965 27.2804 90.8224 26.6628 93.5658C26.0451 96.3092 19.4999 132.722 19.4999 132.722L29.6415 136.134C29.6415 136.134 44.3458 102.095 43.4093 92.5383C42.4729 82.9812 36.9339 59.8965 36.9339 59.8965Z" fill="#72B0F9"/>
<path d="M72.9275 64.1661C80.6882 64.9043 96.837 83.6694 98.152 83.1207C99.467 82.572 123.396 66.1613 123.396 66.1613L130.968 74.4614C130.968 74.4614 107.786 101.397 103.073 104.25C95.8209 108.59 65.0275 88.837 65.0275 88.837C65.0275 88.837 65.1669 63.4179 72.9275 64.1661Z" fill="#72B0F9"/>
<path d="M24.9493 142.848C24.9493 142.848 21.8112 141.142 23.1959 138.249L24.9493 142.848Z" fill="white"/>
<path d="M24.9493 143.307C24.8724 143.305 24.797 143.285 24.7301 143.247C23.5147 142.588 21.5422 140.653 22.7377 138.049C22.7905 137.939 22.8847 137.855 22.9996 137.815C23.1145 137.775 23.2407 137.782 23.3503 137.835C23.46 137.888 23.5442 137.982 23.5843 138.097C23.6245 138.212 23.6174 138.338 23.5645 138.448C22.379 140.922 25.0091 142.439 25.1186 142.439C25.2061 142.488 25.2748 142.565 25.3142 142.658C25.3535 142.751 25.3613 142.854 25.3364 142.951C25.3115 143.049 25.2552 143.136 25.1762 143.198C25.0973 143.26 25 143.295 24.8995 143.297L24.9493 143.307Z" fill="black"/>
<path d="M96.4883 104.839H96.3987C91.5271 103.841 81.9932 98.1947 69.5005 88.877L68.9327 88.4481C68.8334 88.381 68.7642 88.2777 68.74 88.1602C68.7158 88.0428 68.7385 87.9205 68.8032 87.8196C68.8666 87.7219 68.9654 87.6527 69.0788 87.6266C69.1922 87.6006 69.3113 87.6197 69.4109 87.6799C69.6311 87.8254 69.8439 87.9819 70.0485 88.1488C82.4017 97.3966 91.8061 103.023 96.5481 103.961C96.6669 103.985 96.7713 104.055 96.8385 104.156C96.9057 104.257 96.9302 104.381 96.9067 104.5C96.8803 104.592 96.826 104.675 96.7511 104.735C96.6762 104.796 96.5845 104.832 96.4883 104.839Z" fill="black"/>
<path d="M70.4868 45.0623C69.8386 45.0623 69.2049 44.8698 68.6659 44.5092C68.1269 44.1485 67.7068 43.6359 67.4587 43.0362C67.2106 42.4365 67.1457 41.7765 67.2722 41.1399C67.3987 40.5032 67.7108 39.9184 68.1692 39.4594C68.6276 39.0004 69.2116 38.6878 69.8474 38.5611C70.4832 38.4345 71.1422 38.4995 71.7411 38.7479C72.34 38.9963 72.8519 39.417 73.212 39.9567C73.5722 40.4965 73.7644 41.131 73.7644 41.7802C73.7644 42.6507 73.4191 43.4855 72.8044 44.101C72.1898 44.7165 71.3561 45.0623 70.4868 45.0623ZM70.4868 39.4957C70.0356 39.4957 69.5945 39.6296 69.2194 39.8807C68.8442 40.1317 68.5518 40.4885 68.3791 40.9059C68.2064 41.3234 68.1613 41.7827 68.2493 42.2259C68.3373 42.669 68.5546 43.0761 68.8736 43.3956C69.1927 43.7151 69.5992 43.9327 70.0417 44.0208C70.4843 44.109 70.943 44.0637 71.3599 43.8908C71.7767 43.7179 72.133 43.4251 72.3837 43.0494C72.6344 42.6737 72.7682 42.232 72.7682 41.7802C72.7682 41.4802 72.7092 41.1831 72.5945 40.9059C72.4799 40.6288 72.3118 40.3769 72.1 40.1648C71.8881 39.9526 71.6366 39.7844 71.3599 39.6696C71.0831 39.5547 70.7864 39.4957 70.4868 39.4957Z" fill="black"/>
<path d="M69.1519 43.9448C69.1519 43.9448 72.3896 49.292 71.6424 50.3395C70.8953 51.387 68.5541 50.5889 68.5541 50.5889" fill="white"/>
<path d="M70.2378 51.3369C69.6079 51.3212 68.9837 51.2137 68.3848 51.0177C68.2527 50.974 68.1433 50.8796 68.0807 50.7552C68.0182 50.6308 68.0075 50.4866 68.0511 50.3543C68.0947 50.222 68.189 50.1124 68.3132 50.0498C68.4374 49.9871 68.5815 49.9764 68.7136 50.0201C69.3611 50.2495 70.8256 50.5189 71.234 49.9602C71.493 49.4814 70.3275 46.7479 68.7335 44.1142C68.699 44.0594 68.6757 43.9982 68.665 43.9342C68.6543 43.8702 68.6564 43.8047 68.6713 43.7416C68.6861 43.6785 68.7133 43.6189 68.7514 43.5664C68.7894 43.5139 68.8375 43.4695 68.8929 43.4359C68.9485 43.401 69.0103 43.3775 69.075 43.3667C69.1397 43.3559 69.2058 43.3579 69.2697 43.3728C69.3335 43.3876 69.3939 43.4149 69.4472 43.4531C69.5005 43.4913 69.5457 43.5397 69.5803 43.5955C70.5765 45.2914 72.8977 49.3517 72.041 50.5787C71.8243 50.842 71.5469 51.0485 71.2328 51.1806C70.9187 51.3127 70.5772 51.3663 70.2378 51.3369Z" fill="black"/>
<path d="M68.6837 37.0413C70.8056 38.9068 70.0286 42.6678 69.909 45.122C69.7496 48.5803 69.5105 52.0354 69.1917 55.4871C68.9925 57.6719 63.324 57.4823 62.3477 56.804L63.5431 62.2808L51.16 60.4652L51.9271 53.3223C51.9271 53.3223 51.1302 43.3462 53.5211 38.9966C54.2153 37.7362 55.247 36.6949 56.5002 35.9899C57.7534 35.2849 59.1782 34.9442 60.6142 35.0062C60.6142 35.0062 66.6115 35.2057 68.6837 37.0413Z" fill="white"/>
<path d="M63.5431 62.7795H63.4734L51.0902 60.9639C50.9633 60.9441 50.8489 60.876 50.7709 60.7737C50.693 60.6715 50.6575 60.543 50.6718 60.4152L51.429 53.2723C51.429 52.9531 50.6519 43.2164 53.0827 38.7571C53.8162 37.4066 54.9165 36.2917 56.2564 35.5413C57.5963 34.791 59.121 34.436 60.654 34.5173C60.8832 34.5173 66.8406 34.7367 69.0124 36.6621C71.0048 38.388 70.706 41.4008 70.5067 43.8249C70.5067 44.2938 70.427 44.7428 70.4071 45.1518C70.2477 48.6035 70.0086 52.135 69.6898 55.5269C69.6446 55.9075 69.491 56.267 69.2472 56.5625C69.0034 56.8579 68.6798 57.0768 68.315 57.1929C66.6207 57.8072 64.7894 57.9384 63.0251 57.572L64.0213 62.181C64.0375 62.2584 64.0352 62.3385 64.0144 62.4149C63.9936 62.4912 63.955 62.5615 63.9017 62.6199C63.8562 62.6699 63.8009 62.7099 63.7391 62.7374C63.6774 62.7649 63.6106 62.7792 63.5431 62.7795ZM51.7079 60.0461L62.9055 61.6822L61.9093 56.9136C61.8869 56.8161 61.895 56.714 61.9324 56.6213C61.9699 56.5285 62.0348 56.4495 62.1185 56.3948C62.2019 56.3369 62.3009 56.3059 62.4024 56.3059C62.5039 56.3059 62.6029 56.3369 62.6863 56.3948C64.4059 56.9255 66.2504 56.887 67.9464 56.2851C68.4445 56.0556 68.7135 55.7663 68.7434 55.4271C69.0622 52.0053 69.3013 48.5337 69.4607 45.0919C69.4607 44.6729 69.5205 44.214 69.5603 43.7352C69.7496 41.5304 69.9787 38.7471 68.4047 37.4003C66.4919 35.7144 60.7038 35.5049 60.654 35.5049C59.3089 35.4358 57.9717 35.7483 56.7962 36.4066C55.6206 37.0649 54.6546 38.0422 54.0092 39.226C51.7179 43.4259 52.465 53.1925 52.475 53.2723L51.7079 60.0461Z" fill="black"/>
<path d="M48.7292 62.151L49.8948 58.3701L65.0973 59.8366L65.964 63.3083C63.1839 64.4004 60.1969 64.863 57.2172 64.6629C54.2375 64.4628 51.3389 63.605 48.7292 62.151Z" fill="white"/>
<path d="M58.7314 65.214C55.1572 65.1971 51.6425 64.2958 48.5001 62.5903C48.3982 62.5353 48.3185 62.4465 48.2749 62.3391C48.2312 62.2317 48.2263 62.1124 48.261 62.0017L49.3868 58.2208C49.4224 58.1114 49.494 58.0173 49.5899 57.9538C49.6858 57.8904 49.8003 57.8614 49.9148 57.8716L65.1471 59.3182C65.2479 59.3276 65.3433 59.3682 65.42 59.4343C65.4968 59.5005 65.5511 59.5889 65.5755 59.6873L66.4521 63.1589C66.4793 63.2702 66.4675 63.3875 66.4185 63.4911C66.3695 63.5947 66.2864 63.6782 66.1832 63.7276C63.8292 64.7357 61.2914 65.2419 58.7314 65.214ZM49.3868 61.902C51.8398 63.1827 54.5303 63.943 57.2901 64.1353C60.0498 64.3275 62.8195 63.9476 65.426 63.0193L64.7486 60.3058L50.3033 58.8992L49.3868 61.902Z" fill="black"/>
<path d="M56.1711 54.2204C56.1711 60.0963 62.0687 71.9778 57.0079 76.6466C52.2559 81.0361 44.0569 82.1833 37.9202 81.505C28.9541 80.5073 24.242 74.2922 27.9579 65.5432C29.7611 61.2734 32.939 57.7519 35.579 53.941C37.9025 50.5855 39.8534 46.9861 41.397 43.2067C42.712 40.0044 43.6883 36.2235 45.4616 33.2307C49.3867 26.6065 56.3205 24.0127 63.6129 26.1476C66.741 27.0654 72.7582 30.8364 71.2838 34.9166C70.9252 35.9142 69.6998 37.4206 68.7235 37.0016C68.4446 38.937 67.1993 39.8648 65.685 41.1018C64.0953 42.2757 62.4424 43.3615 60.7338 44.354C59.5708 45.047 58.5553 45.9622 57.7451 47.0475C56.8586 48.5279 56.3457 50.2023 56.2508 51.9258C56.1797 52.6885 56.1531 53.4546 56.1711 54.2204Z" fill="white"/>
<path d="M41.2177 82.1834C40.0995 82.182 38.9822 82.1221 37.8703 82.0038C33.0287 81.485 29.3526 79.4499 27.4896 76.2975C25.6267 73.145 25.7164 69.5037 27.4896 65.3238C28.9411 62.2363 30.7645 59.3383 32.9191 56.6945C33.6762 55.6968 34.4334 54.6992 35.1606 53.6318C37.4606 50.302 39.3945 46.7331 40.9288 42.9873C41.3571 41.9298 41.7457 40.8424 42.1541 39.6852C42.8973 37.3682 43.858 35.1269 45.0233 32.9913C46.8121 29.7876 49.6582 27.3069 53.0735 25.9745C56.4889 24.6422 60.2608 24.5411 63.7424 25.6888C66.0735 26.3671 70.0086 28.6117 71.4432 31.445C71.7486 31.9994 71.9332 32.6124 71.9847 33.2435C72.0362 33.8746 71.9535 34.5094 71.7421 35.1062C71.3803 36.0992 70.6728 36.9281 69.7496 37.4406C69.5473 37.5268 69.3316 37.5774 69.112 37.5902C68.6936 39.3061 67.528 40.2539 66.1931 41.3412L65.9839 41.5108C64.9468 42.3252 63.8513 43.062 62.7063 43.7156C62.1484 44.0547 61.5905 44.3939 61.0426 44.7132C59.9277 45.3967 58.9566 46.2913 58.1834 47.3469C57.3495 48.7612 56.8677 50.3557 56.7787 51.9957C56.696 52.7409 56.6594 53.4906 56.6691 54.2403C56.8447 56.6331 57.2722 59.0006 57.9443 61.3034C59.3689 67.0995 60.933 73.6738 57.3466 77.0257C53.1724 80.8665 46.6371 82.1834 41.2177 82.1834ZM58.6915 25.9581C56.0727 25.9602 53.5019 26.6621 51.2445 27.9915C48.9872 29.3208 47.1249 31.2293 45.8501 33.52C44.7209 35.6037 43.787 37.7879 43.0607 40.0444C42.6722 41.1617 42.2537 42.3588 41.8154 43.3564C40.2618 47.1722 38.2941 50.8053 35.9476 54.1905C35.2204 55.1881 34.4533 56.2655 33.6762 57.283C31.5779 59.866 29.7984 62.693 28.3763 65.7029C26.7624 69.5536 26.7524 73.0353 28.3763 75.7588C30.0699 78.6419 33.4869 80.4974 37.9998 80.9862C43.6086 81.5948 51.8673 80.7169 56.699 76.2476C59.8969 73.2548 58.3627 67.0197 57.0079 61.493C56.3104 59.1132 55.8728 56.6647 55.7028 54.1905C55.6914 53.4072 55.7313 52.6241 55.8224 51.8461C55.9113 50.0533 56.4381 48.3097 57.3565 46.7682C58.1909 45.6296 59.2443 44.6697 60.4548 43.945C61.0127 43.5759 61.5805 43.2267 62.1484 42.8875C63.2566 42.2518 64.3186 41.5384 65.3264 40.7527L65.5356 40.593C66.9403 39.4458 67.9464 38.5978 68.1955 36.9617C68.2076 36.887 68.2365 36.8159 68.2801 36.754C68.3236 36.6921 68.3807 36.641 68.4469 36.6044C68.5132 36.5679 68.5869 36.5469 68.6624 36.5432C68.7379 36.5394 68.8133 36.5529 68.8829 36.5826C69.0233 36.6403 69.1808 36.6403 69.3212 36.5826C69.9934 36.1825 70.5072 35.5623 70.7757 34.8269C70.941 34.3578 71.0042 33.8589 70.9613 33.3633C70.9183 32.8678 70.7701 32.3873 70.5267 31.9537C69.2415 29.4098 65.5455 27.3149 63.4335 26.7063C61.8963 26.2327 60.2996 25.9808 58.6915 25.9581Z" fill="black"/>
<path d="M69.2116 52.9031C69.2116 52.9031 66.472 54.4494 65.147 51.6162L69.2116 52.9031Z" fill="white"/>
<path d="M67.5579 53.8214C67.2437 53.8239 66.931 53.7768 66.6314 53.6817C66.1967 53.5294 65.7995 53.286 65.4662 52.9678C65.1329 52.6495 64.8713 52.2637 64.6988 51.8362C64.6706 51.7765 64.6545 51.712 64.6513 51.6461C64.6481 51.5803 64.6579 51.5144 64.6801 51.4524C64.7023 51.3903 64.7365 51.3332 64.7807 51.2844C64.8249 51.2356 64.8783 51.1959 64.9378 51.1678C64.9974 51.1396 65.0619 51.1234 65.1276 51.1202C65.1934 51.117 65.2591 51.1268 65.3211 51.149C65.3831 51.1713 65.4401 51.2055 65.4888 51.2498C65.5376 51.2941 65.5772 51.3476 65.6053 51.4072C65.7192 51.7084 65.8952 51.9822 66.1218 52.2108C66.3483 52.4394 66.6204 52.6177 66.9203 52.734C67.6112 52.8948 68.3369 52.7991 68.9626 52.4646C69.0201 52.433 69.0833 52.4131 69.1486 52.4061C69.2138 52.399 69.2798 52.4049 69.3427 52.4234C69.4057 52.442 69.4643 52.4728 69.5154 52.5141C69.5664 52.5554 69.6088 52.6064 69.64 52.6642C69.6732 52.7201 69.6946 52.7822 69.7029 52.8466C69.7113 52.9111 69.7065 52.9766 69.6888 53.0391C69.6711 53.1016 69.6409 53.1599 69.5999 53.2104C69.559 53.2608 69.5082 53.3024 69.4508 53.3326C68.8679 53.6447 68.2188 53.8123 67.5579 53.8214Z" fill="black"/>
<path d="M54.9158 45.9901C54.8731 45.9995 54.8289 45.9995 54.7863 45.9901C54.6598 45.955 54.5523 45.8715 54.487 45.7576C54.4217 45.6436 54.404 45.5085 54.4376 45.3815C54.9755 43.516 55.374 43.4861 55.6131 43.4661C55.8522 43.4462 67.269 42.0395 73.2065 41.3113C73.3373 41.2943 73.4694 41.3299 73.574 41.4103C73.6786 41.4907 73.747 41.6094 73.7644 41.7403C73.7785 41.8722 73.7406 42.0045 73.6587 42.1089C73.5768 42.2133 73.4575 42.2815 73.3261 42.2989C71.6524 42.5084 57.5857 44.2941 55.8522 44.4438C55.661 44.8293 55.5107 45.2339 55.4039 45.6509C55.3684 45.7516 55.3021 45.8385 55.2145 45.8994C55.1269 45.9603 55.0224 45.992 54.9158 45.9901Z" fill="black"/>
<path d="M62.4473 45.9098C62.3821 45.0397 62.0788 44.2044 61.5706 43.4956C61.2535 42.901 60.8507 42.3564 60.3751 41.8794C60.1357 41.644 59.8471 41.4647 59.5301 41.3543C59.2132 41.2439 58.8757 41.2052 58.5421 41.241C58.2513 41.2997 57.9761 41.4188 57.7341 41.5907C57.4922 41.7625 57.2889 41.9832 57.1374 42.2386C56.8525 42.7619 56.6827 43.3401 56.6393 43.9345C56.5333 45.2349 56.7702 46.5403 57.3261 47.7203C57.8821 48.9003 58.7376 49.9134 59.8073 50.6584L59.628 50.4389" fill="white"/>
<path d="M59.8073 51.1776C59.7075 51.1758 59.6105 51.1445 59.5283 51.0878C58.39 50.2906 57.4795 49.2094 56.8871 47.9512C56.2947 46.693 56.041 45.3017 56.1511 43.915C56.1919 43.2415 56.3861 42.5863 56.719 41.9996C56.9008 41.6787 57.1499 41.4011 57.4492 41.1858C57.7484 40.9705 58.0907 40.8227 58.4524 40.7526C58.862 40.7009 59.278 40.7422 59.6695 40.8734C60.061 41.0047 60.4179 41.2225 60.7138 41.5108C61.2272 42.0212 61.6605 42.6064 61.999 43.2466C62.5741 44.027 62.9193 44.9533 62.9952 45.9202C62.9855 46.05 62.9282 46.1717 62.8345 46.2619C62.7407 46.3521 62.6171 46.4045 62.4871 46.409C62.4217 46.4078 62.3572 46.3936 62.2972 46.3673C62.2373 46.341 62.1831 46.3032 62.1378 46.2559C62.0925 46.2087 62.0569 46.153 62.033 46.0919C62.0092 46.0309 61.9977 45.9658 61.999 45.9003C61.9307 45.1249 61.6516 44.3831 61.192 43.7554C60.9018 43.2026 60.5326 42.6951 60.0962 42.249C59.9102 42.0647 59.6865 41.923 59.4406 41.8334C59.1947 41.7439 58.9323 41.7087 58.6716 41.7303C58.4503 41.7805 58.2421 41.8766 58.0602 42.0123C57.8783 42.148 57.7269 42.3204 57.6156 42.5184C57.3636 42.9755 57.2172 43.4835 57.1872 44.0048C57.0951 45.1349 57.2792 46.2704 57.7235 47.3133C58.1679 48.3562 58.8591 49.275 59.7375 49.9905C59.7994 49.9957 59.8595 50.0134 59.9143 50.0425C59.9691 50.0717 60.0174 50.1117 60.0563 50.1601L60.2356 50.3696C60.3155 50.4606 60.3595 50.5776 60.3595 50.6988C60.3595 50.8199 60.3155 50.937 60.2356 51.028C60.1803 51.0838 60.1129 51.1263 60.0387 51.1523C59.9645 51.1782 59.8853 51.1869 59.8073 51.1776Z" fill="black"/>
<path d="M68.2655 42.4544C68.5351 42.4501 68.7449 41.8929 68.7342 41.2098C68.7235 40.5267 68.4963 39.9764 68.2267 39.9806C67.9572 39.9848 67.7473 40.5421 67.7581 41.2252C67.7688 41.9083 67.996 42.4586 68.2655 42.4544Z" fill="black"/>
<path d="M34.792 126.906C34.6774 126.909 34.5663 126.866 34.4825 126.788C34.3987 126.71 34.3489 126.602 34.3437 126.487C33.477 114.825 35.2104 83.5898 35.2304 83.2806C35.2329 83.2207 35.2473 83.162 35.2729 83.1078C35.2984 83.0536 35.3346 83.0051 35.3791 82.9651C35.4237 82.9252 35.4758 82.8945 35.5324 82.875C35.589 82.8555 35.6488 82.8476 35.7085 82.8516C35.8292 82.8618 35.9413 82.9184 36.0211 83.0096C36.101 83.1007 36.1425 83.2193 36.1369 83.3404C36.1369 83.6497 34.3836 114.815 35.2503 126.417C35.2586 126.537 35.2193 126.656 35.141 126.747C35.0628 126.839 34.9517 126.896 34.8319 126.906H34.792Z" fill="black"/>
<path d="M38.9861 127.894C38.8774 127.878 38.7782 127.823 38.7064 127.74C38.6347 127.656 38.5952 127.55 38.5952 127.44C38.5952 127.33 38.6347 127.224 38.7064 127.14C38.7782 127.057 38.8774 127.002 38.9861 126.986L78.8352 124.991C78.8957 124.987 78.9564 124.995 79.0136 125.015C79.0708 125.035 79.1234 125.067 79.1681 125.108C79.2128 125.149 79.2487 125.198 79.2737 125.254C79.2987 125.309 79.3122 125.369 79.3134 125.43C79.3162 125.551 79.2721 125.668 79.1904 125.757C79.1087 125.847 78.9957 125.901 78.875 125.909L39.0259 127.904L38.9861 127.894Z" fill="black"/>
</svg>
